<mxfile host="app.diagrams.net" modified="2023-08-23T01:05:17.417Z" agent="Mozilla/5.0 (X11; Linux x86_64) AppleWebKit/537.36 (KHTML, like Gecko) Chrome/116.0.0.0 Safari/537.36" etag="mNvJykFxXiNyytep3snb" version="21.6.8" type="github">
  <diagram name="PÃ¡gina-1" id="NX142_kLlBErJ_UbaA8C">
    <mxGraphModel dx="1434" dy="803" grid="1" gridSize="10" guides="1" tooltips="1" connect="1" arrows="1" fold="1" page="1" pageScale="1" pageWidth="827" pageHeight="1169" math="0" shadow="0">
      <root>
        <mxCell id="0" />
        <mxCell id="1" parent="0" />
        <mxCell id="WEaz_8fHA_KuZSA2OL6x-1" value="" style="shape=image;verticalLabelPosition=bottom;labelBackgroundColor=default;verticalAlign=top;aspect=fixed;imageAspect=0;image=data:image/svg+xml,PHN2ZyB4bWxucz0iaHR0cDovL3d3dy53My5vcmcvMjAwMC9zdmciIHhtbG5zOnhsaW5rPSJodHRwOi8vd3d3LnczLm9yZy8xOTk5L3hsaW5rIiB2ZXJzaW9uPSIxLjEiIHZpZXdCb3g9IjAgMCA3NTguNDYgMjAyLjAyNzk2OSIgaGVpZ2h0PSIyMDIuMDI3OTY5cHQiIHdpZHRoPSI3NTguNDZwdCI+JiN4YTsgPG1ldGFkYXRhPiYjeGE7ICAmI3hhOyAgICYjeGE7ICAgICYjeGE7ICAgIDIwMjMtMDgtMjNUMDE6MDA6NDcuMzgxNDQ5JiN4YTsgICAgaW1hZ2Uvc3ZnK3htbCYjeGE7ICAgICYjeGE7ICAgICAmI3hhOyAgICAgIE1hdHBsb3RsaWIgdjMuNy4xLCBodHRwczovL21hdHBsb3RsaWIub3JnLyYjeGE7ICAgICAmI3hhOyAgICAmI3hhOyAgICYjeGE7ICAmI3hhOyA8L21ldGFkYXRhPiYjeGE7IDxkZWZzPiYjeGE7ICA8c3R5bGUgdHlwZT0idGV4dC9jc3MiPip7c3Ryb2tlLWxpbmVqb2luOiByb3VuZDsgc3Ryb2tlLWxpbmVjYXA6IGJ1dHR9PC9zdHlsZT4mI3hhOyA8L2RlZnM+JiN4YTsgPGcgaWQ9ImZpZ3VyZV8xIj4mI3hhOyAgPGcgaWQ9InBhdGNoXzEiPiYjeGE7ICAgPHBhdGggc3R5bGU9ImZpbGw6ICNmZmZmZmYiIGQ9Ik0gLTAgMjAyLjAyNzk2OSAmIzEwO0wgNzU4LjQ2IDIwMi4wMjc5NjkgJiMxMDtMIDc1OC40NiAwICYjMTA7TCAtMCAwICYjMTA7eiIvPiYjeGE7ICA8L2c+JiN4YTsgIDxnIGlkPSJheGVzXzEiPiYjeGE7ICAgPGcgaWQ9InBhdGNoXzIiPiYjeGE7ICAgIDxwYXRoIHN0eWxlPSJmaWxsOiAjZmZmZmZmIiBkPSJNIDQzLjU4MTU2MyAxNzAuMTE5MjE5ICYjMTA7TCAzMjIuNTgxNTYzIDE3MC4xMTkyMTkgJiMxMDtMIDMyMi41ODE1NjMgMy43OTkyMTkgJiMxMDtMIDQzLjU4MTU2MyAzLjc5OTIxOSAmIzEwO3oiLz4mI3hhOyAgIDwvZz4mI3hhOyAgIDxnIGlkPSJtYXRwbG90bGliLmF4aXNfMSI+JiN4YTsgICAgPGcgaWQ9Inh0aWNrXzEiPiYjeGE7ICAgICA8ZyBpZD0ibGluZTJkXzEiPiYjeGE7ICAgICAgPGRlZnM+JiN4YTsgICAgICAgPHBhdGggc3R5bGU9InN0cm9rZTogIzAwMDAwMDsgc3Ryb2tlLXdpZHRoOiAwLjgiIGQ9Ik0gMCAwICYjMTA7TCAwIC0zLjUiIGlkPSJtNTdmYmRhZmZiMSIvPiYjeGE7ICAgICAgPC9kZWZzPiYjeGE7ICAgICAgPGc+JiN4YTsgICAgICAgPHVzZSBzdHlsZT0ic3Ryb2tlOiAjMDAwMDAwOyBzdHJva2Utd2lkdGg6IDAuOCIgeT0iMTcwLjExOTIxOSIgeD0iNTYuMjYzMzgxIiB4bGluazpocmVmPSIjbTU3ZmJkYWZmYjEiLz4mI3hhOyAgICAgIDwvZz4mI3hhOyAgICAgPC9nPiYjeGE7ICAgICA8ZyBpZD0ibGluZTJkXzIiPiYjeGE7ICAgICAgPGRlZnM+JiN4YTsgICAgICAgPHBhdGggc3R5bGU9InN0cm9rZTogIzAwMDAwMDsgc3Ryb2tlLXdpZHRoOiAwLjgiIGQ9Ik0gMCAwICYjMTA7TCAwIDMuNSIgaWQ9Im1mYWZjMmQxMmFlIi8+JiN4YTsgICAgICA8L2RlZnM+JiN4YTsgICAgICA8Zz4mI3hhOyAgICAgICA8dXNlIHN0eWxlPSJzdHJva2U6ICMwMDAwMDA7IHN0cm9rZS13aWR0aDogMC44IiB5PSIzLjc5OTIxOSIgeD0iNTYuMjYzMzgxIiB4bGluazpocmVmPSIjbWZhZmMyZDEyYWUiLz4mI3hhOyAgICAgIDwvZz4mI3hhOyAgICAgPC9nPiYjeGE7ICAgICA8ZyBpZD0idGV4dF8xIj4mI3hhOyAgICAgICYjeGE7ICAgICAgPGcgdHJhbnNmb3JtPSJ0cmFuc2xhdGUoNDcuNDYzMzgxIDE4MS4yMTc2NTYpIHNjYWxlKDAuMSAtMC4xKSI+JiN4YTsgICAgICAgPGRlZnM+JiN4YTsgICAgICAgIDxwYXRoIHRyYW5zZm9ybT0ic2NhbGUoMC4wMTU2MjUpIiBkPSJNIDc5NCA1MzEgJiMxMDtMIDE4MjUgNTMxICYjMTA7TCAxODI1IDQwOTEgJiMxMDtMIDcwMyAzODY2ICYjMTA7TCA3MDMgNDQ0MSAmIzEwO0wgMTgxOSA0NjY2ICYjMTA7TCAyNDUwIDQ2NjYgJiMxMDtMIDI0NTAgNTMxICYjMTA7TCAzNDgxIDUzMSAmIzEwO0wgMzQ4MSAwICYjMTA7TCA3OTQgMCAmIzEwO0wgNzk0IDUzMSAmIzEwO3oiIGlkPSJEZWphVnVTYW5zLTMxIi8+JiN4YTsgICAgICAgIDxwYXRoIHRyYW5zZm9ybT0ic2NhbGUoMC4wMTU2MjUpIiBkPSJNIDIwMzQgNDI1MCAmIzEwO1EgMTU0NyA0MjUwIDEzMDEgMzc3MCAmIzEwO1EgMTA1NiAzMjkxIDEwNTYgMjMyOCAmIzEwO1EgMTA1NiAxMzY5IDEzMDEgODg5ICYjMTA7USAxNTQ3IDQwOSAyMDM0IDQwOSAmIzEwO1EgMjUyNSA0MDkgMjc3MCA4ODkgJiMxMDtRIDMwMTYgMTM2OSAzMDE2IDIzMjggJiMxMDtRIDMwMTYgMzI5MSAyNzcwIDM3NzAgJiMxMDtRIDI1MjUgNDI1MCAyMDM0IDQyNTAgJiMxMDt6JiMxMDtNIDIwMzQgNDc1MCAmIzEwO1EgMjgxOSA0NzUwIDMyMzMgNDEyOSAmIzEwO1EgMzY0NyAzNTA5IDM2NDcgMjMyOCAmIzEwO1EgMzY0NyAxMTUwIDMyMzMgNTI5ICYjMTA7USAyODE5IC05MSAyMDM0IC05MSAmIzEwO1EgMTI1MCAtOTEgODM2IDUyOSAmIzEwO1EgNDIyIDExNTAgNDIyIDIzMjggJiMxMDtRIDQyMiAzNTA5IDgzNiA0MTI5ICYjMTA7USAxMjUwIDQ3NTAgMjAzNCA0NzUwICYjMTA7eiIgaWQ9IkRlamFWdVNhbnMtMzAiLz4mI3hhOyAgICAgICA8L2RlZnM+JiN4YTsgICAgICAgPHVzZSB0cmFuc2Zvcm09InRyYW5zbGF0ZSgwIDAuNzY1NjI1KSIgeGxpbms6aHJlZj0iI0RlamFWdVNhbnMtMzEiLz4mI3hhOyAgICAgICA8dXNlIHRyYW5zZm9ybT0idHJhbnNsYXRlKDYzLjYyMzA0NyAwLjc2NTYyNSkiIHhsaW5rOmhyZWY9IiNEZWphVnVTYW5zLTMwIi8+JiN4YTsgICAgICAgPHVzZSB0cmFuc2Zvcm09InRyYW5zbGF0ZSgxMjguMjAzMTI1IDM5LjA0Njg3NSkgc2NhbGUoMC43KSIgeGxpbms6aHJlZj0iI0RlamFWdVNhbnMtMzAiLz4mI3hhOyAgICAgIDwvZz4mI3hhOyAgICAgPC9nPiYjeGE7ICAgIDwvZz4mI3hhOyAgICA8ZyBpZD0ieHRpY2tfMiI+JiN4YTsgICAgIDxnIGlkPSJsaW5lMmRfMyI+JiN4YTsgICAgICA8Zz4mI3hhOyAgICAgICA8dXNlIHN0eWxlPSJzdHJva2U6ICMwMDAwMDA7IHN0cm9rZS13aWR0aDogMC44IiB5PSIxNzAuMTE5MjE5IiB4PSIxNDMuMzg4OTg0IiB4bGluazpocmVmPSIjbTU3ZmJkYWZmYjEiLz4mI3hhOyAgICAgIDwvZz4mI3hhOyAgICAgPC9nPiYjeGE7ICAgICA8ZyBpZD0ibGluZTJkXzQiPiYjeGE7ICAgICAgPGc+JiN4YTsgICAgICAgPHVzZSBzdHlsZT0ic3Ryb2tlOiAjMDAwMDAwOyBzdHJva2Utd2lkdGg6IDAuOCIgeT0iMy43OTkyMTkiIHg9IjE0My4zODg5ODQiIHhsaW5rOmhyZWY9IiNtZmFmYzJkMTJhZSIvPiYjeGE7ICAgICAgPC9nPiYjeGE7ICAgICA8L2c+JiN4YTsgICAgIDxnIGlkPSJ0ZXh0XzIiPiYjeGE7ICAgICAgJiN4YTsgICAgICA8ZyB0cmFuc2Zvcm09InRyYW5zbGF0ZSgxMzQuNTg4OTg0IDE4MS4yMTc2NTYpIHNjYWxlKDAuMSAtMC4xKSI+JiN4YTsgICAgICAgPHVzZSB0cmFuc2Zvcm09InRyYW5zbGF0ZSgwIDAuNjg0Mzc1KSIgeGxpbms6aHJlZj0iI0RlamFWdVNhbnMtMzEiLz4mI3hhOyAgICAgICA8dXNlIHRyYW5zZm9ybT0idHJhbnNsYXRlKDYzLjYyMzA0NyAwLjY4NDM3NSkiIHhsaW5rOmhyZWY9IiNEZWphVnVTYW5zLTMwIi8+JiN4YTsgICAgICAgPHVzZSB0cmFuc2Zvcm09InRyYW5zbGF0ZSgxMjguMjAzMTI1IDM4Ljk2NTYyNSkgc2NhbGUoMC43KSIgeGxpbms6aHJlZj0iI0RlamFWdVNhbnMtMzEiLz4mI3hhOyAgICAgIDwvZz4mI3hhOyAgICAgPC9nPiYjeGE7ICAgIDwvZz4mI3hhOyAgICA8ZyBpZD0ieHRpY2tfMyI+JiN4YTsgICAgIDxnIGlkPSJsaW5lMmRfNSI+JiN4YTsgICAgICA8Zz4mI3hhOyAgICAgICA8dXNlIHN0eWxlPSJzdHJva2U6ICMwMDAwMDA7IHN0cm9rZS13aWR0aDogMC44IiB5PSIxNzAuMTE5MjE5IiB4PSIyMzAuNTE0NTg4IiB4bGluazpocmVmPSIjbTU3ZmJkYWZmYjEiLz4mI3hhOyAgICAgIDwvZz4mI3hhOyAgICAgPC9nPiYjeGE7ICAgICA8ZyBpZD0ibGluZTJkXzYiPiYjeGE7ICAgICAgPGc+JiN4YTsgICAgICAgPHVzZSBzdHlsZT0ic3Ryb2tlOiAjMDAwMDAwOyBzdHJva2Utd2lkdGg6IDAuOCIgeT0iMy43OTkyMTkiIHg9IjIzMC41MTQ1ODgiIHhsaW5rOmhyZWY9IiNtZmFmYzJkMTJhZSIvPiYjeGE7ICAgICAgPC9nPiYjeGE7ICAgICA8L2c+JiN4YTsgICAgIDxnIGlkPSJ0ZXh0XzMiPiYjeGE7ICAgICAgJiN4YTsgICAgICA8ZyB0cmFuc2Zvcm09InRyYW5zbGF0ZSgyMjEuNzE0NTg4IDE4MS4yMTc2NTYpIHNjYWxlKDAuMSAtMC4xKSI+JiN4YTsgICAgICAgPGRlZnM+JiN4YTsgICAgICAgIDxwYXRoIHRyYW5zZm9ybT0ic2NhbGUoMC4wMTU2MjUpIiBkPSJNIDEyMjggNTMxICYjMTA7TCAzNDMxIDUzMSAmIzEwO0wgMzQzMSAwICYjMTA7TCA0NjkgMCAmIzEwO0wgNDY5IDUzMSAmIzEwO1EgODI4IDkwMyAxNDQ4IDE1MjkgJiMxMDtRIDIwNjkgMjE1NiAyMjI4IDIzMzggJiMxMDtRIDI1MzEgMjY3OCAyNjUxIDI5MTQgJiMxMDtRIDI3NzIgMzE1MCAyNzcyIDMzNzggJiMxMDtRIDI3NzIgMzc1MCAyNTExIDM5ODQgJiMxMDtRIDIyNTAgNDIxOSAxODMxIDQyMTkgJiMxMDtRIDE1MzQgNDIxOSAxMjA0IDQxMTYgJiMxMDtRIDg3NSA0MDEzIDUwMCAzODAzICYjMTA7TCA1MDAgNDQ0MSAmIzEwO1EgODgxIDQ1OTQgMTIxMiA0NjcyICYjMTA7USAxNTQ0IDQ3NTAgMTgxOSA0NzUwICYjMTA7USAyNTQ0IDQ3NTAgMjk3NSA0Mzg3ICYjMTA7USAzNDA2IDQwMjUgMzQwNiAzNDE5ICYjMTA7USAzNDA2IDMxMzEgMzI5OCAyODczICYjMTA7USAzMTkxIDI2MTYgMjkwNiAyMjY2ICYjMTA7USAyODI4IDIxNzUgMjQwOSAxNzQyICYjMTA7USAxOTkxIDEzMDkgMTIyOCA1MzEgJiMxMDt6IiBpZD0iRGVqYVZ1U2Fucy0zMiIvPiYjeGE7ICAgICAgIDwvZGVmcz4mI3hhOyAgICAgICA8dXNlIHRyYW5zZm9ybT0idHJhbnNsYXRlKDAgMC43NjU2MjUpIiB4bGluazpocmVmPSIjRGVqYVZ1U2Fucy0zMSIvPiYjeGE7ICAgICAgIDx1c2UgdHJhbnNmb3JtPSJ0cmFuc2xhdGUoNjMuNjIzMDQ3IDAuNzY1NjI1KSIgeGxpbms6aHJlZj0iI0RlamFWdVNhbnMtMzAiLz4mI3hhOyAgICAgICA8dXNlIHRyYW5zZm9ybT0idHJhbnNsYXRlKDEyOC4yMDMxMjUgMzkuMDQ2ODc1KSBzY2FsZSgwLjcpIiB4bGluazpocmVmPSIjRGVqYVZ1U2Fucy0zMiIvPiYjeGE7ICAgICAgPC9nPiYjeGE7ICAgICA8L2c+JiN4YTsgICAgPC9nPiYjeGE7ICAgIDxnIGlkPSJ4dGlja180Ij4mI3hhOyAgICAgPGcgaWQ9ImxpbmUyZF83Ij4mI3hhOyAgICAgIDxnPiYjeGE7ICAgICAgIDx1c2Ugc3R5bGU9InN0cm9rZTogIzAwMDAwMDsgc3Ryb2tlLXdpZHRoOiAwLjgiIHk9IjE3MC4xMTkyMTkiIHg9IjMxNy42NDAxOTEiIHhsaW5rOmhyZWY9IiNtNTdmYmRhZmZiMSIvPiYjeGE7ICAgICAgPC9nPiYjeGE7ICAgICA8L2c+JiN4YTsgICAgIDxnIGlkPSJsaW5lMmRfOCI+JiN4YTsgICAgICA8Zz4mI3hhOyAgICAgICA8dXNlIHN0eWxlPSJzdHJva2U6ICMwMDAwMDA7IHN0cm9rZS13aWR0aDogMC44IiB5PSIzLjc5OTIxOSIgeD0iMzE3LjY0MDE5MSIgeGxpbms6aHJlZj0iI21mYWZjMmQxMmFlIi8+JiN4YTsgICAgICA8L2c+JiN4YTsgICAgIDwvZz4mI3hhOyAgICAgPGcgaWQ9InRleHRfNCI+JiN4YTsgICAgICAmI3hhOyAgICAgIDxnIHRyYW5zZm9ybT0idHJhbnNsYXRlKDMwOC44NDAxOTEgMTgxLjIxNzY1Nikgc2NhbGUoMC4xIC0wLjEpIj4mI3hhOyAgICAgICA8ZGVmcz4mI3hhOyAgICAgICAgPHBhdGggdHJhbnNmb3JtPSJzY2FsZSgwLjAxNTYyNSkiIGQ9Ik0gMjU5NyAyNTE2ICYjMTA7USAzMDUwIDI0MTkgMzMwNCAyMTEyICYjMTA7USAzNTU5IDE4MDYgMzU1OSAxMzU2ICYjMTA7USAzNTU5IDY2NiAzMDg0IDI4NyAmIzEwO1EgMjYwOSAtOTEgMTczNCAtOTEgJiMxMDtRIDE0NDEgLTkxIDExMzAgLTMzICYjMTA7USA4MTkgMjUgNDg4IDE0MSAmIzEwO0wgNDg4IDc1MCAmIzEwO1EgNzUwIDU5NyAxMDYyIDUxOSAmIzEwO1EgMTM3NSA0NDEgMTcxNiA0NDEgJiMxMDtRIDIzMDkgNDQxIDI2MjAgNjc1ICYjMTA7USAyOTMxIDkwOSAyOTMxIDEzNTYgJiMxMDtRIDI5MzEgMTc2OSAyNjQyIDIwMDEgJiMxMDtRIDIzNTMgMjIzNCAxODM4IDIyMzQgJiMxMDtMIDEyOTQgMjIzNCAmIzEwO0wgMTI5NCAyNzUzICYjMTA7TCAxODYzIDI3NTMgJiMxMDtRIDIzMjggMjc1MyAyNTc1IDI5MzkgJiMxMDtRIDI4MjIgMzEyNSAyODIyIDM0NzUgJiMxMDtRIDI4MjIgMzgzNCAyNTY3IDQwMjYgJiMxMDtRIDIzMTMgNDIxOSAxODM4IDQyMTkgJiMxMDtRIDE1NzggNDIxOSAxMjgxIDQxNjIgJiMxMDtRIDk4NCA0MTA2IDYyOCAzOTg4ICYjMTA7TCA2MjggNDU1MCAmIzEwO1EgOTg4IDQ2NTAgMTMwMiA0NzAwICYjMTA7USAxNjE2IDQ3NTAgMTg5NCA0NzUwICYjMTA7USAyNjEzIDQ3NTAgMzAzMSA0NDIzICYjMTA7USAzNDUwIDQwOTcgMzQ1MCAzNTQxICYjMTA7USAzNDUwIDMxNTMgMzIyOCAyODg2ICYjMTA7USAzMDA2IDI2MTkgMjU5NyAyNTE2ICYjMTA7eiIgaWQ9IkRlamFWdVNhbnMtMzMiLz4mI3hhOyAgICAgICA8L2RlZnM+JiN4YTsgICAgICAgPHVzZSB0cmFuc2Zvcm09InRyYW5zbGF0ZSgwIDAuNzY1NjI1KSIgeGxpbms6aHJlZj0iI0RlamFWdVNhbnMtMzEiLz4mI3hhOyAgICAgICA8dXNlIHRyYW5zZm9ybT0idHJhbnNsYXRlKDYzLjYyMzA0NyAwLjc2NTYyNSkiIHhsaW5rOmhyZWY9IiNEZWphVnVTYW5zLTMwIi8+JiN4YTsgICAgICAgPHVzZSB0cmFuc2Zvcm09InRyYW5zbGF0ZSgxMjguMjAzMTI1IDM5LjA0Njg3NSkgc2NhbGUoMC43KSIgeGxpbms6aHJlZj0iI0RlamFWdVNhbnMtMzMiLz4mI3hhOyAgICAgIDwvZz4mI3hhOyAgICAgPC9nPiYjeGE7ICAgIDwvZz4mI3hhOyAgICA8ZyBpZD0ieHRpY2tfNSI+JiN4YTsgICAgIDxnIGlkPSJsaW5lMmRfOSI+JiN4YTsgICAgICA8ZGVmcz4mI3hhOyAgICAgICA8cGF0aCBzdHlsZT0ic3Ryb2tlOiAjMDAwMDAwOyBzdHJva2Utd2lkdGg6IDAuNiIgZD0iTSAwIDAgJiMxMDtMIDAgLTIiIGlkPSJtNTVhMzUzOWI4ZCIvPiYjeGE7ICAgICAgPC9kZWZzPiYjeGE7ICAgICAgPGc+JiN4YTsgICAgICAgPHVzZSBzdHlsZT0ic3Ryb2tlOiAjMDAwMDAwOyBzdHJva2Utd2lkdGg6IDAuNiIgeT0iMTcwLjExOTIxOSIgeD0iNDcuODIwMDM3IiB4bGluazpocmVmPSIjbTU1YTM1MzliOGQiLz4mI3hhOyAgICAgIDwvZz4mI3hhOyAgICAgPC9nPiYjeGE7ICAgICA8ZyBpZD0ibGluZTJkXzEwIj4mI3hhOyAgICAgIDxkZWZzPiYjeGE7ICAgICAgIDxwYXRoIHN0eWxlPSJzdHJva2U6ICMwMDAwMDA7IHN0cm9rZS13aWR0aDogMC42IiBkPSJNIDAgMCAmIzEwO0wgMCAyIiBpZD0ibWYzM2FkZjU0ZTYiLz4mI3hhOyAgICAgIDwvZGVmcz4mI3hhOyAgICAgIDxnPiYjeGE7ICAgICAgIDx1c2Ugc3R5bGU9InN0cm9rZTogIzAwMDAwMDsgc3Ryb2tlLXdpZHRoOiAwLjYiIHk9IjMuNzk5MjE5IiB4PSI0Ny44MjAwMzciIHhsaW5rOmhyZWY9IiNtZjMzYWRmNTRlNiIvPiYjeGE7ICAgICAgPC9nPiYjeGE7ICAgICA8L2c+JiN4YTsgICAgPC9nPiYjeGE7ICAgIDxnIGlkPSJ4dGlja182Ij4mI3hhOyAgICAgPGcgaWQ9ImxpbmUyZF8xMSI+JiN4YTsgICAgICA8Zz4mI3hhOyAgICAgICA8dXNlIHN0eWxlPSJzdHJva2U6ICMwMDAwMDA7IHN0cm9rZS13aWR0aDogMC42IiB5PSIxNzAuMTE5MjE5IiB4PSI1Mi4yNzY3MzIiIHhsaW5rOmhyZWY9IiNtNTVhMzUzOWI4ZCIvPiYjeGE7ICAgICAgPC9nPiYjeGE7ICAgICA8L2c+JiN4YTsgICAgIDxnIGlkPSJsaW5lMmRfMTIiPiYjeGE7ICAgICAgPGc+JiN4YTsgICAgICAgPHVzZSBzdHlsZT0ic3Ryb2tlOiAjMDAwMDAwOyBzdHJva2Utd2lkdGg6IDAuNiIgeT0iMy43OTkyMTkiIHg9IjUyLjI3NjczMiIgeGxpbms6aHJlZj0iI21mMzNhZGY1NGU2Ii8+JiN4YTsgICAgICA8L2c+JiN4YTsgICAgIDwvZz4mI3hhOyAgICA8L2c+JiN4YTsgICAgPGcgaWQ9Inh0aWNrXzciPiYjeGE7ICAgICA8ZyBpZD0ibGluZTJkXzEzIj4mI3hhOyAgICAgIDxnPiYjeGE7ICAgICAgIDx1c2Ugc3R5bGU9InN0cm9rZTogIzAwMDAwMDsgc3Ryb2tlLXdpZHRoOiAwLjYiIHk9IjE3MC4xMTkyMTkiIHg9IjgyLjQ5MDgwMSIgeGxpbms6aHJlZj0iI201NWEzNTM5YjhkIi8+JiN4YTsgICAgICA8L2c+JiN4YTsgICAgIDwvZz4mI3hhOyAgICAgPGcgaWQ9ImxpbmUyZF8xNCI+JiN4YTsgICAgICA8Zz4mI3hhOyAgICAgICA8dXNlIHN0eWxlPSJzdHJva2U6ICMwMDAwMDA7IHN0cm9rZS13aWR0aDogMC42IiB5PSIzLjc5OTIxOSIgeD0iODIuNDkwODAxIiB4bGluazpocmVmPSIjbWYzM2FkZjU0ZTYiLz4mI3hhOyAgICAgIDwvZz4mI3hhOyAgICAgPC9nPiYjeGE7ICAgIDwvZz4mI3hhOyAgICA8ZyBpZD0ieHRpY2tfOCI+JiN4YTsgICAgIDxnIGlkPSJsaW5lMmRfMTUiPiYjeGE7ICAgICAgPGc+JiN4YTsgICAgICAgPHVzZSBzdHlsZT0ic3Ryb2tlOiAjMDAwMDAwOyBzdHJva2Utd2lkdGg6IDAuNiIgeT0iMTcwLjExOTIxOSIgeD0iOTcuODMyODU4IiB4bGluazpocmVmPSIjbTU1YTM1MzliOGQiLz4mI3hhOyAgICAgIDwvZz4mI3hhOyAgICAgPC9nPiYjeGE7ICAgICA8ZyBpZD0ibGluZTJkXzE2Ij4mI3hhOyAgICAgIDxnPiYjeGE7ICAgICAgIDx1c2Ugc3R5bGU9InN0cm9rZTogIzAwMDAwMDsgc3Ryb2tlLXdpZHRoOiAwLjYiIHk9IjMuNzk5MjE5IiB4PSI5Ny44MzI4NTgiIHhsaW5rOmhyZWY9IiNtZjMzYWRmNTRlNiIvPiYjeGE7ICAgICAgPC9nPiYjeGE7ICAgICA8L2c+JiN4YTsgICAgPC9nPiYjeGE7ICAgIDxnIGlkPSJ4dGlja185Ij4mI3hhOyAgICAgPGcgaWQ9ImxpbmUyZF8xNyI+JiN4YTsgICAgICA8Zz4mI3hhOyAgICAgICA8dXNlIHN0eWxlPSJzdHJva2U6ICMwMDAwMDA7IHN0cm9rZS13aWR0aDogMC42IiB5PSIxNzAuMTE5MjE5IiB4PSIxMDguNzE4MjIxIiB4bGluazpocmVmPSIjbTU1YTM1MzliOGQiLz4mI3hhOyAgICAgIDwvZz4mI3hhOyAgICAgPC9nPiYjeGE7ICAgICA8ZyBpZD0ibGluZTJkXzE4Ij4mI3hhOyAgICAgIDxnPiYjeGE7ICAgICAgIDx1c2Ugc3R5bGU9InN0cm9rZTogIzAwMDAwMDsgc3Ryb2tlLXdpZHRoOiAwLjYiIHk9IjMuNzk5MjE5IiB4PSIxMDguNzE4MjIxIiB4bGluazpocmVmPSIjbWYzM2FkZjU0ZTYiLz4mI3hhOyAgICAgIDwvZz4mI3hhOyAgICAgPC9nPiYjeGE7ICAgIDwvZz4mI3hhOyAgICA8ZyBpZD0ieHRpY2tfMTAiPiYjeGE7ICAgICA8ZyBpZD0ibGluZTJkXzE5Ij4mI3hhOyAgICAgIDxnPiYjeGE7ICAgICAgIDx1c2Ugc3R5bGU9InN0cm9rZTogIzAwMDAwMDsgc3Ryb2tlLXdpZHRoOiAwLjYiIHk9IjE3MC4xMTkyMTkiIHg9IjExNy4xNjE1NjQiIHhsaW5rOmhyZWY9IiNtNTVhMzUzOWI4ZCIvPiYjeGE7ICAgICAgPC9nPiYjeGE7ICAgICA8L2c+JiN4YTsgICAgIDxnIGlkPSJsaW5lMmRfMjAiPiYjeGE7ICAgICAgPGc+JiN4YTsgICAgICAgPHVzZSBzdHlsZT0ic3Ryb2tlOiAjMDAwMDAwOyBzdHJva2Utd2lkdGg6IDAuNiIgeT0iMy43OTkyMTkiIHg9IjExNy4xNjE1NjQiIHhsaW5rOmhyZWY9IiNtZjMzYWRmNTRlNiIvPiYjeGE7ICAgICAgPC9nPiYjeGE7ICAgICA8L2c+JiN4YTsgICAgPC9nPiYjeGE7ICAgIDxnIGlkPSJ4dGlja18xMSI+JiN4YTsgICAgIDxnIGlkPSJsaW5lMmRfMjEiPiYjeGE7ICAgICAgPGc+JiN4YTsgICAgICAgPHVzZSBzdHlsZT0ic3Ryb2tlOiAjMDAwMDAwOyBzdHJva2Utd2lkdGg6IDAuNiIgeT0iMTcwLjExOTIxOSIgeD0iMTI0LjA2MDI3OCIgeGxpbms6aHJlZj0iI201NWEzNTM5YjhkIi8+JiN4YTsgICAgICA8L2c+JiN4YTsgICAgIDwvZz4mI3hhOyAgICAgPGcgaWQ9ImxpbmUyZF8yMiI+JiN4YTsgICAgICA8Zz4mI3hhOyAgICAgICA8dXNlIHN0eWxlPSJzdHJva2U6ICMwMDAwMDA7IHN0cm9rZS13aWR0aDogMC42IiB5PSIzLjc5OTIxOSIgeD0iMTI0LjA2MDI3OCIgeGxpbms6aHJlZj0iI21mMzNhZGY1NGU2Ii8+JiN4YTsgICAgICA8L2c+JiN4YTsgICAgIDwvZz4mI3hhOyAgICA8L2c+JiN4YTsgICAgPGcgaWQ9Inh0aWNrXzEyIj4mI3hhOyAgICAgPGcgaWQ9ImxpbmUyZF8yMyI+JiN4YTsgICAgICA8Zz4mI3hhOyAgICAgICA8dXNlIHN0eWxlPSJzdHJva2U6ICMwMDAwMDA7IHN0cm9rZS13aWR0aDogMC42IiB5PSIxNzAuMTE5MjE5IiB4PSIxMjkuODkzMDU3IiB4bGluazpocmVmPSIjbTU1YTM1MzliOGQiLz4mI3hhOyAgICAgIDwvZz4mI3hhOyAgICAgPC9nPiYjeGE7ICAgICA8ZyBpZD0ibGluZTJkXzI0Ij4mI3hhOyAgICAgIDxnPiYjeGE7ICAgICAgIDx1c2Ugc3R5bGU9InN0cm9rZTogIzAwMDAwMDsgc3Ryb2tlLXdpZHRoOiAwLjYiIHk9IjMuNzk5MjE5IiB4PSIxMjkuODkzMDU3IiB4bGluazpocmVmPSIjbWYzM2FkZjU0ZTYiLz4mI3hhOyAgICAgIDwvZz4mI3hhOyAgICAgPC9nPiYjeGE7ICAgIDwvZz4mI3hhOyAgICA8ZyBpZD0ieHRpY2tfMTMiPiYjeGE7ICAgICA8ZyBpZD0ibGluZTJkXzI1Ij4mI3hhOyAgICAgIDxnPiYjeGE7ICAgICAgIDx1c2Ugc3R5bGU9InN0cm9rZTogIzAwMDAwMDsgc3Ryb2tlLXdpZHRoOiAwLjYiIHk9IjE3MC4xMTkyMTkiIHg9IjEzNC45NDU2NDEiIHhsaW5rOmhyZWY9IiNtNTVhMzUzOWI4ZCIvPiYjeGE7ICAgICAgPC9nPiYjeGE7ICAgICA8L2c+JiN4YTsgICAgIDxnIGlkPSJsaW5lMmRfMjYiPiYjeGE7ICAgICAgPGc+JiN4YTsgICAgICAgPHVzZSBzdHlsZT0ic3Ryb2tlOiAjMDAwMDAwOyBzdHJva2Utd2lkdGg6IDAuNiIgeT0iMy43OTkyMTkiIHg9IjEzNC45NDU2NDEiIHhsaW5rOmhyZWY9IiNtZjMzYWRmNTRlNiIvPiYjeGE7ICAgICAgPC9nPiYjeGE7ICAgICA8L2c+JiN4YTsgICAgPC9nPiYjeGE7ICAgIDxnIGlkPSJ4dGlja18xNCI+JiN4YTsgICAgIDxnIGlkPSJsaW5lMmRfMjciPiYjeGE7ICAgICAgPGc+JiN4YTsgICAgICAgPHVzZSBzdHlsZT0ic3Ryb2tlOiAjMDAwMDAwOyBzdHJva2Utd2lkdGg6IDAuNiIgeT0iMTcwLjExOTIxOSIgeD0iMTM5LjQwMjMzNSIgeGxpbms6aHJlZj0iI201NWEzNTM5YjhkIi8+JiN4YTsgICAgICA8L2c+JiN4YTsgICAgIDwvZz4mI3hhOyAgICAgPGcgaWQ9ImxpbmUyZF8yOCI+JiN4YTsgICAgICA8Zz4mI3hhOyAgICAgICA8dXNlIHN0eWxlPSJzdHJva2U6ICMwMDAwMDA7IHN0cm9rZS13aWR0aDogMC42IiB5PSIzLjc5OTIxOSIgeD0iMTM5LjQwMjMzNSIgeGxpbms6aHJlZj0iI21mMzNhZGY1NGU2Ii8+JiN4YTsgICAgICA8L2c+JiN4YTsgICAgIDwvZz4mI3hhOyAgICA8L2c+JiN4YTsgICAgPGcgaWQ9Inh0aWNrXzE1Ij4mI3hhOyAgICAgPGcgaWQ9ImxpbmUyZF8yOSI+JiN4YTsgICAgICA8Zz4mI3hhOyAgICAgICA8dXNlIHN0eWxlPSJzdHJva2U6ICMwMDAwMDA7IHN0cm9rZS13aWR0aDogMC42IiB5PSIxNzAuMTE5MjE5IiB4PSIxNjkuNjE2NDA0IiB4bGluazpocmVmPSIjbTU1YTM1MzliOGQiLz4mI3hhOyAgICAgIDwvZz4mI3hhOyAgICAgPC9nPiYjeGE7ICAgICA8ZyBpZD0ibGluZTJkXzMwIj4mI3hhOyAgICAgIDxnPiYjeGE7ICAgICAgIDx1c2Ugc3R5bGU9InN0cm9rZTogIzAwMDAwMDsgc3Ryb2tlLXdpZHRoOiAwLjYiIHk9IjMuNzk5MjE5IiB4PSIxNjkuNjE2NDA0IiB4bGluazpocmVmPSIjbWYzM2FkZjU0ZTYiLz4mI3hhOyAgICAgIDwvZz4mI3hhOyAgICAgPC9nPiYjeGE7ICAgIDwvZz4mI3hhOyAgICA8ZyBpZD0ieHRpY2tfMTYiPiYjeGE7ICAgICA8ZyBpZD0ibGluZTJkXzMxIj4mI3hhOyAgICAgIDxnPiYjeGE7ICAgICAgIDx1c2Ugc3R5bGU9InN0cm9rZTogIzAwMDAwMDsgc3Ryb2tlLXdpZHRoOiAwLjYiIHk9IjE3MC4xMTkyMTkiIHg9IjE4NC45NTg0NjEiIHhsaW5rOmhyZWY9IiNtNTVhMzUzOWI4ZCIvPiYjeGE7ICAgICAgPC9nPiYjeGE7ICAgICA8L2c+JiN4YTsgICAgIDxnIGlkPSJsaW5lMmRfMzIiPiYjeGE7ICAgICAgPGc+JiN4YTsgICAgICAgPHVzZSBzdHlsZT0ic3Ryb2tlOiAjMDAwMDAwOyBzdHJva2Utd2lkdGg6IDAuNiIgeT0iMy43OTkyMTkiIHg9IjE4NC45NTg0NjEiIHhsaW5rOmhyZWY9IiNtZjMzYWRmNTRlNiIvPiYjeGE7ICAgICAgPC9nPiYjeGE7ICAgICA8L2c+JiN4YTsgICAgPC9nPiYjeGE7ICAgIDxnIGlkPSJ4dGlja18xNyI+JiN4YTsgICAgIDxnIGlkPSJsaW5lMmRfMzMiPiYjeGE7ICAgICAgPGc+JiN4YTsgICAgICAgPHVzZSBzdHlsZT0ic3Ryb2tlOiAjMDAwMDAwOyBzdHJva2Utd2lkdGg6IDAuNiIgeT0iMTcwLjExOTIxOSIgeD0iMTk1Ljg0MzgyNCIgeGxpbms6aHJlZj0iI201NWEzNTM5YjhkIi8+JiN4YTsgICAgICA8L2c+JiN4YTsgICAgIDwvZz4mI3hhOyAgICAgPGcgaWQ9ImxpbmUyZF8zNCI+JiN4YTsgICAgICA8Zz4mI3hhOyAgICAgICA8dXNlIHN0eWxlPSJzdHJva2U6ICMwMDAwMDA7IHN0cm9rZS13aWR0aDogMC42IiB5PSIzLjc5OTIxOSIgeD0iMTk1Ljg0MzgyNCIgeGxpbms6aHJlZj0iI21mMzNhZGY1NGU2Ii8+JiN4YTsgICAgICA8L2c+JiN4YTsgICAgIDwvZz4mI3hhOyAgICA8L2c+JiN4YTsgICAgPGcgaWQ9Inh0aWNrXzE4Ij4mI3hhOyAgICAgPGcgaWQ9ImxpbmUyZF8zNSI+JiN4YTsgICAgICA8Zz4mI3hhOyAgICAgICA8dXNlIHN0eWxlPSJzdHJva2U6ICMwMDAwMDA7IHN0cm9rZS13aWR0aDogMC42IiB5PSIxNzAuMTE5MjE5IiB4PSIyMDQuMjg3MTY4IiB4bGluazpocmVmPSIjbTU1YTM1MzliOGQiLz4mI3hhOyAgICAgIDwvZz4mI3hhOyAgICAgPC9nPiYjeGE7ICAgICA8ZyBpZD0ibGluZTJkXzM2Ij4mI3hhOyAgICAgIDxnPiYjeGE7ICAgICAgIDx1c2Ugc3R5bGU9InN0cm9rZTogIzAwMDAwMDsgc3Ryb2tlLXdpZHRoOiAwLjYiIHk9IjMuNzk5MjE5IiB4PSIyMDQuMjg3MTY4IiB4bGluazpocmVmPSIjbWYzM2FkZjU0ZTYiLz4mI3hhOyAgICAgIDwvZz4mI3hhOyAgICAgPC9nPiYjeGE7ICAgIDwvZz4mI3hhOyAgICA8ZyBpZD0ieHRpY2tfMTkiPiYjeGE7ICAgICA8ZyBpZD0ibGluZTJkXzM3Ij4mI3hhOyAgICAgIDxnPiYjeGE7ICAgICAgIDx1c2Ugc3R5bGU9InN0cm9rZTogIzAwMDAwMDsgc3Ryb2tlLXdpZHRoOiAwLjYiIHk9IjE3MC4xMTkyMTkiIHg9IjIxMS4xODU4ODIiIHhsaW5rOmhyZWY9IiNtNTVhMzUzOWI4ZCIvPiYjeGE7ICAgICAgPC9nPiYjeGE7ICAgICA8L2c+JiN4YTsgICAgIDxnIGlkPSJsaW5lMmRfMzgiPiYjeGE7ICAgICAgPGc+JiN4YTsgICAgICAgPHVzZSBzdHlsZT0ic3Ryb2tlOiAjMDAwMDAwOyBzdHJva2Utd2lkdGg6IDAuNiIgeT0iMy43OTkyMTkiIHg9IjIxMS4xODU4ODIiIHhsaW5rOmhyZWY9IiNtZjMzYWRmNTRlNiIvPiYjeGE7ICAgICAgPC9nPiYjeGE7ICAgICA8L2c+JiN4YTsgICAgPC9nPiYjeGE7ICAgIDxnIGlkPSJ4dGlja18yMCI+JiN4YTsgICAgIDxnIGlkPSJsaW5lMmRfMzkiPiYjeGE7ICAgICAgPGc+JiN4YTsgICAgICAgPHVzZSBzdHlsZT0ic3Ryb2tlOiAjMDAwMDAwOyBzdHJva2Utd2lkdGg6IDAuNiIgeT0iMTcwLjExOTIxOSIgeD0iMjE3LjAxODY2MSIgeGxpbms6aHJlZj0iI201NWEzNTM5YjhkIi8+JiN4YTsgICAgICA8L2c+JiN4YTsgICAgIDwvZz4mI3hhOyAgICAgPGcgaWQ9ImxpbmUyZF80MCI+JiN4YTsgICAgICA8Zz4mI3hhOyAgICAgICA8dXNlIHN0eWxlPSJzdHJva2U6ICMwMDAwMDA7IHN0cm9rZS13aWR0aDogMC42IiB5PSIzLjc5OTIxOSIgeD0iMjE3LjAxODY2MSIgeGxpbms6aHJlZj0iI21mMzNhZGY1NGU2Ii8+JiN4YTsgICAgICA8L2c+JiN4YTsgICAgIDwvZz4mI3hhOyAgICA8L2c+JiN4YTsgICAgPGcgaWQ9Inh0aWNrXzIxIj4mI3hhOyAgICAgPGcgaWQ9ImxpbmUyZF80MSI+JiN4YTsgICAgICA8Zz4mI3hhOyAgICAgICA8dXNlIHN0eWxlPSJzdHJva2U6ICMwMDAwMDA7IHN0cm9rZS13aWR0aDogMC42IiB5PSIxNzAuMTE5MjE5IiB4PSIyMjIuMDcxMjQ0IiB4bGluazpocmVmPSIjbTU1YTM1MzliOGQiLz4mI3hhOyAgICAgIDwvZz4mI3hhOyAgICAgPC9nPiYjeGE7ICAgICA8ZyBpZD0ibGluZTJkXzQyIj4mI3hhOyAgICAgIDxnPiYjeGE7ICAgICAgIDx1c2Ugc3R5bGU9InN0cm9rZTogIzAwMDAwMDsgc3Ryb2tlLXdpZHRoOiAwLjYiIHk9IjMuNzk5MjE5IiB4PSIyMjIuMDcxMjQ0IiB4bGluazpocmVmPSIjbWYzM2FkZjU0ZTYiLz4mI3hhOyAgICAgIDwvZz4mI3hhOyAgICAgPC9nPiYjeGE7ICAgIDwvZz4mI3hhOyAgICA8ZyBpZD0ieHRpY2tfMjIiPiYjeGE7ICAgICA8ZyBpZD0ibGluZTJkXzQzIj4mI3hhOyAgICAgIDxnPiYjeGE7ICAgICAgIDx1c2Ugc3R5bGU9InN0cm9rZTogIzAwMDAwMDsgc3Ryb2tlLXdpZHRoOiAwLjYiIHk9IjE3MC4xMTkyMTkiIHg9IjIyNi41Mjc5MzkiIHhsaW5rOmhyZWY9IiNtNTVhMzUzOWI4ZCIvPiYjeGE7ICAgICAgPC9nPiYjeGE7ICAgICA8L2c+JiN4YTsgICAgIDxnIGlkPSJsaW5lMmRfNDQiPiYjeGE7ICAgICAgPGc+JiN4YTsgICAgICAgPHVzZSBzdHlsZT0ic3Ryb2tlOiAjMDAwMDAwOyBzdHJva2Utd2lkdGg6IDAuNiIgeT0iMy43OTkyMTkiIHg9IjIyNi41Mjc5MzkiIHhsaW5rOmhyZWY9IiNtZjMzYWRmNTRlNiIvPiYjeGE7ICAgICAgPC9nPiYjeGE7ICAgICA8L2c+JiN4YTsgICAgPC9nPiYjeGE7ICAgIDxnIGlkPSJ4dGlja18yMyI+JiN4YTsgICAgIDxnIGlkPSJsaW5lMmRfNDUiPiYjeGE7ICAgICAgPGc+JiN4YTsgICAgICAgPHVzZSBzdHlsZT0ic3Ryb2tlOiAjMDAwMDAwOyBzdHJva2Utd2lkdGg6IDAuNiIgeT0iMTcwLjExOTIxOSIgeD0iMjU2Ljc0MjAwOCIgeGxpbms6aHJlZj0iI201NWEzNTM5YjhkIi8+JiN4YTsgICAgICA8L2c+JiN4YTsgICAgIDwvZz4mI3hhOyAgICAgPGcgaWQ9ImxpbmUyZF80NiI+JiN4YTsgICAgICA8Zz4mI3hhOyAgICAgICA8dXNlIHN0eWxlPSJzdHJva2U6ICMwMDAwMDA7IHN0cm9rZS13aWR0aDogMC42IiB5PSIzLjc5OTIxOSIgeD0iMjU2Ljc0MjAwOCIgeGxpbms6aHJlZj0iI21mMzNhZGY1NGU2Ii8+JiN4YTsgICAgICA8L2c+JiN4YTsgICAgIDwvZz4mI3hhOyAgICA8L2c+JiN4YTsgICAgPGcgaWQ9Inh0aWNrXzI0Ij4mI3hhOyAgICAgPGcgaWQ9ImxpbmUyZF80NyI+JiN4YTsgICAgICA8Zz4mI3hhOyAgICAgICA8dXNlIHN0eWxlPSJzdHJva2U6ICMwMDAwMDA7IHN0cm9rZS13aWR0aDogMC42IiB5PSIxNzAuMTE5MjE5IiB4PSIyNzIuMDg0MDY1IiB4bGluazpocmVmPSIjbTU1YTM1MzliOGQiLz4mI3hhOyAgICAgIDwvZz4mI3hhOyAgICAgPC9nPiYjeGE7ICAgICA8ZyBpZD0ibGluZTJkXzQ4Ij4mI3hhOyAgICAgIDxnPiYjeGE7ICAgICAgIDx1c2Ugc3R5bGU9InN0cm9rZTogIzAwMDAwMDsgc3Ryb2tlLXdpZHRoOiAwLjYiIHk9IjMuNzk5MjE5IiB4PSIyNzIuMDg0MDY1IiB4bGluazpocmVmPSIjbWYzM2FkZjU0ZTYiLz4mI3hhOyAgICAgIDwvZz4mI3hhOyAgICAgPC9nPiYjeGE7ICAgIDwvZz4mI3hhOyAgICA8ZyBpZD0ieHRpY2tfMjUiPiYjeGE7ICAgICA8ZyBpZD0ibGluZTJkXzQ5Ij4mI3hhOyAgICAgIDxnPiYjeGE7ICAgICAgIDx1c2Ugc3R5bGU9InN0cm9rZTogIzAwMDAwMDsgc3Ryb2tlLXdpZHRoOiAwLjYiIHk9IjE3MC4xMTkyMTkiIHg9IjI4Mi45Njk0MjgiIHhsaW5rOmhyZWY9IiNtNTVhMzUzOWI4ZCIvPiYjeGE7ICAgICAgPC9nPiYjeGE7ICAgICA8L2c+JiN4YTsgICAgIDxnIGlkPSJsaW5lMmRfNTAiPiYjeGE7ICAgICAgPGc+JiN4YTsgICAgICAgPHVzZSBzdHlsZT0ic3Ryb2tlOiAjMDAwMDAwOyBzdHJva2Utd2lkdGg6IDAuNiIgeT0iMy43OTkyMTkiIHg9IjI4Mi45Njk0MjgiIHhsaW5rOmhyZWY9IiNtZjMzYWRmNTRlNiIvPiYjeGE7ICAgICAgPC9nPiYjeGE7ICAgICA8L2c+JiN4YTsgICAgPC9nPiYjeGE7ICAgIDxnIGlkPSJ4dGlja18yNiI+JiN4YTsgICAgIDxnIGlkPSJsaW5lMmRfNTEiPiYjeGE7ICAgICAgPGc+JiN4YTsgICAgICAgPHVzZSBzdHlsZT0ic3Ryb2tlOiAjMDAwMDAwOyBzdHJva2Utd2lkdGg6IDAuNiIgeT0iMTcwLjExOTIxOSIgeD0iMjkxLjQxMjc3MSIgeGxpbms6aHJlZj0iI201NWEzNTM5YjhkIi8+JiN4YTsgICAgICA8L2c+JiN4YTsgICAgIDwvZz4mI3hhOyAgICAgPGcgaWQ9ImxpbmUyZF81MiI+JiN4YTsgICAgICA8Zz4mI3hhOyAgICAgICA8dXNlIHN0eWxlPSJzdHJva2U6ICMwMDAwMDA7IHN0cm9rZS13aWR0aDogMC42IiB5PSIzLjc5OTIxOSIgeD0iMjkxLjQxMjc3MSIgeGxpbms6aHJlZj0iI21mMzNhZGY1NGU2Ii8+JiN4YTsgICAgICA8L2c+JiN4YTsgICAgIDwvZz4mI3hhOyAgICA8L2c+JiN4YTsgICAgPGcgaWQ9Inh0aWNrXzI3Ij4mI3hhOyAgICAgPGcgaWQ9ImxpbmUyZF81MyI+JiN4YTsgICAgICA8Zz4mI3hhOyAgICAgICA8dXNlIHN0eWxlPSJzdHJva2U6ICMwMDAwMDA7IHN0cm9rZS13aWR0aDogMC42IiB5PSIxNzAuMTE5MjE5IiB4PSIyOTguMzExNDg1IiB4bGluazpocmVmPSIjbTU1YTM1MzliOGQiLz4mI3hhOyAgICAgIDwvZz4mI3hhOyAgICAgPC9nPiYjeGE7ICAgICA8ZyBpZD0ibGluZTJkXzU0Ij4mI3hhOyAgICAgIDxnPiYjeGE7ICAgICAgIDx1c2Ugc3R5bGU9InN0cm9rZTogIzAwMDAwMDsgc3Ryb2tlLXdpZHRoOiAwLjYiIHk9IjMuNzk5MjE5IiB4PSIyOTguMzExNDg1IiB4bGluazpocmVmPSIjbWYzM2FkZjU0ZTYiLz4mI3hhOyAgICAgIDwvZz4mI3hhOyAgICAgPC9nPiYjeGE7ICAgIDwvZz4mI3hhOyAgICA8ZyBpZD0ieHRpY2tfMjgiPiYjeGE7ICAgICA8ZyBpZD0ibGluZTJkXzU1Ij4mI3hhOyAgICAgIDxnPiYjeGE7ICAgICAgIDx1c2Ugc3R5bGU9InN0cm9rZTogIzAwMDAwMDsgc3Ryb2tlLXdpZHRoOiAwLjYiIHk9IjE3MC4xMTkyMTkiIHg9IjMwNC4xNDQyNjUiIHhsaW5rOmhyZWY9IiNtNTVhMzUzOWI4ZCIvPiYjeGE7ICAgICAgPC9nPiYjeGE7ICAgICA8L2c+JiN4YTsgICAgIDxnIGlkPSJsaW5lMmRfNTYiPiYjeGE7ICAgICAgPGc+JiN4YTsgICAgICAgPHVzZSBzdHlsZT0ic3Ryb2tlOiAjMDAwMDAwOyBzdHJva2Utd2lkdGg6IDAuNiIgeT0iMy43OTkyMTkiIHg9IjMwNC4xNDQyNjUiIHhsaW5rOmhyZWY9IiNtZjMzYWRmNTRlNiIvPiYjeGE7ICAgICAgPC9nPiYjeGE7ICAgICA8L2c+JiN4YTsgICAgPC9nPiYjeGE7ICAgIDxnIGlkPSJ4dGlja18yOSI+JiN4YTsgICAgIDxnIGlkPSJsaW5lMmRfNTciPiYjeGE7ICAgICAgPGc+JiN4YTsgICAgICAgPHVzZSBzdHlsZT0ic3Ryb2tlOiAjMDAwMDAwOyBzdHJva2Utd2lkdGg6IDAuNiIgeT0iMTcwLjExOTIxOSIgeD0iMzA5LjE5Njg0OCIgeGxpbms6aHJlZj0iI201NWEzNTM5YjhkIi8+JiN4YTsgICAgICA8L2c+JiN4YTsgICAgIDwvZz4mI3hhOyAgICAgPGcgaWQ9ImxpbmUyZF81OCI+JiN4YTsgICAgICA8Zz4mI3hhOyAgICAgICA8dXNlIHN0eWxlPSJzdHJva2U6ICMwMDAwMDA7IHN0cm9rZS13aWR0aDogMC42IiB5PSIzLjc5OTIxOSIgeD0iMzA5LjE5Njg0OCIgeGxpbms6aHJlZj0iI21mMzNhZGY1NGU2Ii8+JiN4YTsgICAgICA8L2c+JiN4YTsgICAgIDwvZz4mI3hhOyAgICA8L2c+JiN4YTsgICAgPGcgaWQ9Inh0aWNrXzMwIj4mI3hhOyAgICAgPGcgaWQ9ImxpbmUyZF81OSI+JiN4YTsgICAgICA8Zz4mI3hhOyAgICAgICA8dXNlIHN0eWxlPSJzdHJva2U6ICMwMDAwMDA7IHN0cm9rZS13aWR0aDogMC42IiB5PSIxNzAuMTE5MjE5IiB4PSIzMTMuNjUzNTQyIiB4bGluazpocmVmPSIjbTU1YTM1MzliOGQiLz4mI3hhOyAgICAgIDwvZz4mI3hhOyAgICAgPC9nPiYjeGE7ICAgICA8ZyBpZD0ibGluZTJkXzYwIj4mI3hhOyAgICAgIDxnPiYjeGE7ICAgICAgIDx1c2Ugc3R5bGU9InN0cm9rZTogIzAwMDAwMDsgc3Ryb2tlLXdpZHRoOiAwLjYiIHk9IjMuNzk5MjE5IiB4PSIzMTMuNjUzNTQyIiB4bGluazpocmVmPSIjbWYzM2FkZjU0ZTYiLz4mI3hhOyAgICAgIDwvZz4mI3hhOyAgICAgPC9nPiYjeGE7ICAgIDwvZz4mI3hhOyAgICA8ZyBpZD0idGV4dF81Ij4mI3hhOyAgICAgJiN4YTsgICAgIDxnIHRyYW5zZm9ybT0idHJhbnNsYXRlKDE1OS45MjczNDQgMTk5LjMyNDM3NSkgc2NhbGUoMC4xMyAtMC4xMykiPiYjeGE7ICAgICAgPGRlZnM+JiN4YTsgICAgICAgPHBhdGggdHJhbnNmb3JtPSJzY2FsZSgwLjAxNTYyNSkiIGQ9Ik0gNjI4IDQ2NjYgJiMxMDtMIDM1NzggNDY2NiAmIzEwO0wgMzU3OCA0MTM0ICYjMTA7TCAxMjU5IDQxMzQgJiMxMDtMIDEyNTkgMjc1MyAmIzEwO0wgMzQ4MSAyNzUzICYjMTA7TCAzNDgxIDIyMjIgJiMxMDtMIDEyNTkgMjIyMiAmIzEwO0wgMTI1OSA1MzEgJiMxMDtMIDM2MzQgNTMxICYjMTA7TCAzNjM0IDAgJiMxMDtMIDYyOCAwICYjMTA7TCA2MjggNDY2NiAmIzEwO3omIzEwO00gMjI2OCA1OTIxICYjMTA7TCAyODQ2IDU5MjEgJiMxMDtMIDIxMzQgNTA5NiAmIzEwO0wgMTY1NSA1MDk2ICYjMTA7TCAyMjY4IDU5MjEgJiMxMDt6IiBpZD0iRGVqYVZ1U2Fucy1jOSIvPiYjeGE7ICAgICAgIDxwYXRoIHRyYW5zZm9ybT0ic2NhbGUoMC4wMTU2MjUpIiBkPSJNIDExNTkgNTI1ICYjMTA7TCAxMTU5IC0xMzMxICYjMTA7TCA1ODEgLTEzMzEgJiMxMDtMIDU4MSAzNTAwICYjMTA7TCAxMTU5IDM1MDAgJiMxMDtMIDExNTkgMjk2OSAmIzEwO1EgMTM0MSAzMjgxIDE2MTcgMzQzMiAmIzEwO1EgMTg5NCAzNTg0IDIyNzggMzU4NCAmIzEwO1EgMjkxNiAzNTg0IDMzMTQgMzA3OCAmIzEwO1EgMzcxMyAyNTcyIDM3MTMgMTc0NyAmIzEwO1EgMzcxMyA5MjIgMzMxNCA0MTUgJiMxMDtRIDI5MTYgLTkxIDIyNzggLTkxICYjMTA7USAxODk0IC05MSAxNjE3IDYxICYjMTA7USAxMzQxIDIxMyAxMTU5IDUyNSAmIzEwO3omIzEwO00gMzExNiAxNzQ3ICYjMTA7USAzMTE2IDIzODEgMjg1NSAyNzQyICYjMTA7USAyNTk0IDMxMDMgMjEzOCAzMTAzICYjMTA7USAxNjgxIDMxMDMgMTQyMCAyNzQyICYjMTA7USAxMTU5IDIzODEgMTE1OSAxNzQ3ICYjMTA7USAxMTU5IDExMTMgMTQyMCA3NTIgJiMxMDtRIDE2ODEgMzkxIDIxMzggMzkxICYjMTA7USAyNTk0IDM5MSAyODU1IDc1MiAmIzEwO1EgMzExNiAxMTEzIDMxMTYgMTc0NyAmIzEwO3oiIGlkPSJEZWphVnVTYW5zLTcwIi8+JiN4YTsgICAgICAgPHBhdGggdHJhbnNmb3JtPSJzY2FsZSgwLjAxNTYyNSkiIGQ9Ik0gMTk1OSAzMDk3ICYjMTA7USAxNDk3IDMwOTcgMTIyOCAyNzM2ICYjMTA7USA5NTkgMjM3NSA5NTkgMTc0NyAmIzEwO1EgOTU5IDExMTkgMTIyNiA3NTggJiMxMDtRIDE0OTQgMzk3IDE5NTkgMzk3ICYjMTA7USAyNDE5IDM5NyAyNjg3IDc1OSAmIzEwO1EgMjk1NiAxMTIyIDI5NTYgMTc0NyAmIzEwO1EgMjk1NiAyMzY5IDI2ODcgMjczMyAmIzEwO1EgMjQxOSAzMDk3IDE5NTkgMzA5NyAmIzEwO3omIzEwO00gMTk1OSAzNTg0ICYjMTA7USAyNzA5IDM1ODQgMzEzNyAzMDk2ICYjMTA7USAzNTY2IDI2MDkgMzU2NiAxNzQ3ICYjMTA7USAzNTY2IDg4OCAzMTM3IDM5OCAmIzEwO1EgMjcwOSAtOTEgMTk1OSAtOTEgJiMxMDtRIDEyMDYgLTkxIDc3OSAzOTggJiMxMDtRIDM1MyA4ODggMzUzIDE3NDcgJiMxMDtRIDM1MyAyNjA5IDc3OSAzMDk2ICYjMTA7USAxMjA2IDM1ODQgMTk1OSAzNTg0ICYjMTA7eiIgaWQ9IkRlamFWdVNhbnMtNmYiLz4mI3hhOyAgICAgICA8cGF0aCB0cmFuc2Zvcm09InNjYWxlKDAuMDE1NjI1KSIgZD0iTSAzMTIyIDMzNjYgJiMxMDtMIDMxMjIgMjgyOCAmIzEwO1EgMjg3OCAyOTYzIDI2MzMgMzAzMCAmIzEwO1EgMjM4OCAzMDk3IDIxMzggMzA5NyAmIzEwO1EgMTU3OCAzMDk3IDEyNjggMjc0MiAmIzEwO1EgOTU5IDIzODggOTU5IDE3NDcgJiMxMDtRIDk1OSAxMTA2IDEyNjggNzUxICYjMTA7USAxNTc4IDM5NyAyMTM4IDM5NyAmIzEwO1EgMjM4OCAzOTcgMjYzMyA0NjQgJiMxMDtRIDI4NzggNTMxIDMxMjIgNjY2ICYjMTA7TCAzMTIyIDEzNCAmIzEwO1EgMjg4MSAyMiAyNjIzIC0zNCAmIzEwO1EgMjM2NiAtOTEgMjA3NSAtOTEgJiMxMDtRIDEyODQgLTkxIDgxOCA0MDYgJiMxMDtRIDM1MyA5MDMgMzUzIDE3NDcgJiMxMDtRIDM1MyAyNjAzIDgyMyAzMDkzICYjMTA7USAxMjk0IDM1ODQgMjExMyAzNTg0ICYjMTA7USAyMzc4IDM1ODQgMjYzMSAzNTI5ICYjMTA7USAyODg0IDM0NzUgMzEyMiAzMzY2ICYjMTA7eiIgaWQ9IkRlamFWdVNhbnMtNjMiLz4mI3hhOyAgICAgICA8cGF0aCB0cmFuc2Zvcm09InNjYWxlKDAuMDE1NjI1KSIgZD0iTSAyMTk0IDE3NTkgJiMxMDtRIDE0OTcgMTc1OSAxMjI4IDE2MDAgJiMxMDtRIDk1OSAxNDQxIDk1OSAxMDU2ICYjMTA7USA5NTkgNzUwIDExNjEgNTcwICYjMTA7USAxMzYzIDM5MSAxNzA5IDM5MSAmIzEwO1EgMjE4OCAzOTEgMjQ3NyA3MzAgJiMxMDtRIDI3NjYgMTA2OSAyNzY2IDE2MzEgJiMxMDtMIDI3NjYgMTc1OSAmIzEwO0wgMjE5NCAxNzU5ICYjMTA7eiYjMTA7TSAzMzQxIDE5OTcgJiMxMDtMIDMzNDEgMCAmIzEwO0wgMjc2NiAwICYjMTA7TCAyNzY2IDUzMSAmIzEwO1EgMjU2OSAyMTMgMjI3NSA2MSAmIzEwO1EgMTk4MSAtOTEgMTU1NiAtOTEgJiMxMDtRIDEwMTkgLTkxIDcwMSAyMTEgJiMxMDtRIDM4NCA1MTMgMzg0IDEwMTkgJiMxMDtRIDM4NCAxNjA5IDc3OSAxOTA5ICYjMTA7USAxMTc1IDIyMDkgMTk1OSAyMjA5ICYjMTA7TCAyNzY2IDIyMDkgJiMxMDtMIDI3NjYgMjI2NiAmIzEwO1EgMjc2NiAyNjYzIDI1MDUgMjg4MCAmIzEwO1EgMjI0NCAzMDk3IDE3NzIgMzA5NyAmIzEwO1EgMTQ3MiAzMDk3IDExODcgMzAyNSAmIzEwO1EgOTAzIDI5NTMgNjQxIDI4MDkgJiMxMDtMIDY0MSAzMzQxICYjMTA7USA5NTYgMzQ2MyAxMjUzIDM1MjMgJiMxMDtRIDE1NTAgMzU4NCAxODMxIDM1ODQgJiMxMDtRIDI1OTEgMzU4NCAyOTY2IDMxOTAgJiMxMDtRIDMzNDEgMjc5NyAzMzQxIDE5OTcgJiMxMDt6IiBpZD0iRGVqYVZ1U2Fucy02MSIvPiYjeGE7ICAgICAgIDxwYXRoIHRyYW5zZm9ybT0ic2NhbGUoMC4wMTU2MjUpIiBkPSJNIDI4MzQgMzM5NyAmIzEwO0wgMjgzNCAyODUzICYjMTA7USAyNTkxIDI5NzggMjMyOCAzMDQwICYjMTA7USAyMDY2IDMxMDMgMTc4NCAzMTAzICYjMTA7USAxMzU2IDMxMDMgMTE0MiAyOTcyICYjMTA7USA5MjggMjg0MSA5MjggMjU3OCAmIzEwO1EgOTI4IDIzNzggMTA4MSAyMjY0ICYjMTA7USAxMjM0IDIxNTAgMTY5NyAyMDQ3ICYjMTA7TCAxODk0IDIwMDMgJiMxMDtRIDI1MDYgMTg3MiAyNzY0IDE2MzMgJiMxMDtRIDMwMjIgMTM5NCAzMDIyIDk2NiAmIzEwO1EgMzAyMiA0NzggMjYzNiAxOTMgJiMxMDtRIDIyNTAgLTkxIDE1NzUgLTkxICYjMTA7USAxMjk0IC05MSA5ODkgLTM2ICYjMTA7USA2ODQgMTkgMzQ3IDEyOCAmIzEwO0wgMzQ3IDcyMiAmIzEwO1EgNjY2IDU1NiA5NzUgNDczICYjMTA7USAxMjg0IDM5MSAxNTg4IDM5MSAmIzEwO1EgMTk5NCAzOTEgMjIxMiA1MzAgJiMxMDtRIDI0MzEgNjY5IDI0MzEgOTIyICYjMTA7USAyNDMxIDExNTYgMjI3MyAxMjgxICYjMTA7USAyMTE2IDE0MDYgMTU4MSAxNTIyICYjMTA7TCAxMzgxIDE1NjkgJiMxMDtRIDg0NyAxNjgxIDYwOSAxOTE0ICYjMTA7USAzNzIgMjE0NyAzNzIgMjU1MyAmIzEwO1EgMzcyIDMwNDcgNzIyIDMzMTUgJiMxMDtRIDEwNzIgMzU4NCAxNzE2IDM1ODQgJiMxMDtRIDIwMzQgMzU4NCAyMzE1IDM1MzcgJiMxMDtRIDI1OTcgMzQ5MSAyODM0IDMzOTcgJiMxMDt6IiBpZD0iRGVqYVZ1U2Fucy03MyIvPiYjeGE7ICAgICAgPC9kZWZzPiYjeGE7ICAgICAgPHVzZSB4bGluazpocmVmPSIjRGVqYVZ1U2Fucy1jOSIvPiYjeGE7ICAgICAgPHVzZSB4PSI2My4xODM1OTQiIHhsaW5rOmhyZWY9IiNEZWphVnVTYW5zLTcwIi8+JiN4YTsgICAgICA8dXNlIHg9IjEyNi42NjAxNTYiIHhsaW5rOmhyZWY9IiNEZWphVnVTYW5zLTZmIi8+JiN4YTsgICAgICA8dXNlIHg9IjE4Ny44NDE3OTciIHhsaW5rOmhyZWY9IiNEZWphVnVTYW5zLTYzIi8+JiN4YTsgICAgICA8dXNlIHg9IjI0Mi44MjIyNjYiIHhsaW5rOmhyZWY9IiNEZWphVnVTYW5zLTYxIi8+JiN4YTsgICAgICA8dXNlIHg9IjMwNC4xMDE1NjIiIHhsaW5rOmhyZWY9IiNEZWphVnVTYW5zLTczIi8+JiN4YTsgICAgIDwvZz4mI3hhOyAgICA8L2c+JiN4YTsgICA8L2c+JiN4YTsgICA8ZyBpZD0ibWF0cGxvdGxpYi5heGlzXzIiPiYjeGE7ICAgIDxnIGlkPSJ5dGlja18xIj4mI3hhOyAgICAgPGcgaWQ9ImxpbmUyZF82MSI+JiN4YTsgICAgICA8ZGVmcz4mI3hhOyAgICAgICA8cGF0aCBzdHlsZT0ic3Ryb2tlOiAjMDAwMDAwOyBzdHJva2Utd2lkdGg6IDAuOCIgZD0iTSAwIDAgJiMxMDtMIDMuNSAwIiBpZD0ibTMxYWUxNDlmNzMiLz4mI3hhOyAgICAgIDwvZGVmcz4mI3hhOyAgICAgIDxnPiYjeGE7ICAgICAgIDx1c2Ugc3R5bGU9InN0cm9rZTogIzAwMDAwMDsgc3Ryb2tlLXdpZHRoOiAwLjgiIHk9IjE1MS40MTc2MTUiIHg9IjQzLjU4MTU2MyIgeGxpbms6aHJlZj0iI20zMWFlMTQ5ZjczIi8+JiN4YTsgICAgICA8L2c+JiN4YTsgICAgIDwvZz4mI3hhOyAgICAgPGcgaWQ9ImxpbmUyZF82MiI+JiN4YTsgICAgICA8ZGVmcz4mI3hhOyAgICAgICA8cGF0aCBzdHlsZT0ic3Ryb2tlOiAjMDAwMDAwOyBzdHJva2Utd2lkdGg6IDAuOCIgZD0iTSAwIDAgJiMxMDtMIC0zLjUgMCIgaWQ9Im02MjUzYjVkOGU0Ii8+JiN4YTsgICAgICA8L2RlZnM+JiN4YTsgICAgICA8Zz4mI3hhOyAgICAgICA8dXNlIHN0eWxlPSJzdHJva2U6ICMwMDAwMDA7IHN0cm9rZS13aWR0aDogMC44IiB5PSIxNTEuNDE3NjE1IiB4PSIzMjIuNTgxNTYzIiB4bGluazpocmVmPSIjbTYyNTNiNWQ4ZTQiLz4mI3hhOyAgICAgIDwvZz4mI3hhOyAgICAgPC9nPiYjeGE7ICAgICA8ZyBpZD0idGV4dF82Ij4mI3hhOyAgICAgICYjeGE7ICAgICAgPGcgdHJhbnNmb3JtPSJ0cmFuc2xhdGUoMTYuNTgxNTYzIDE1NS4yMTY4MzQpIHNjYWxlKDAuMSAtMC4xKSI+JiN4YTsgICAgICAgPGRlZnM+JiN4YTsgICAgICAgIDxwYXRoIHRyYW5zZm9ybT0ic2NhbGUoMC4wMTU2MjUpIiBkPSJNIDY3OCAyMjcyICYjMTA7TCA0Njg0IDIyNzIgJiMxMDtMIDQ2ODQgMTc0MSAmIzEwO0wgNjc4IDE3NDEgJiMxMDtMIDY3OCAyMjcyICYjMTA7eiIgaWQ9IkRlamFWdVNhbnMtMjIxMiIvPiYjeGE7ICAgICAgIDwvZGVmcz4mI3hhOyAgICAgICA8dXNlIHRyYW5zZm9ybT0idHJhbnNsYXRlKDAgMC43NjU2MjUpIiB4bGluazpocmVmPSIjRGVqYVZ1U2Fucy0zMSIvPiYjeGE7ICAgICAgIDx1c2UgdHJhbnNmb3JtPSJ0cmFuc2xhdGUoNjMuNjIzMDQ3IDAuNzY1NjI1KSIgeGxpbms6aHJlZj0iI0RlamFWdVNhbnMtMzAiLz4mI3hhOyAgICAgICA8dXNlIHRyYW5zZm9ybT0idHJhbnNsYXRlKDEyOC4yMDMxMjUgMzkuMDQ2ODc1KSBzY2FsZSgwLjcpIiB4bGluazpocmVmPSIjRGVqYVZ1U2Fucy0yMjEyIi8+JiN4YTsgICAgICAgPHVzZSB0cmFuc2Zvcm09InRyYW5zbGF0ZSgxODYuODU1NDY5IDM5LjA0Njg3NSkgc2NhbGUoMC43KSIgeGxpbms6aHJlZj0iI0RlamFWdVNhbnMtMzMiLz4mI3hhOyAgICAgIDwvZz4mI3hhOyAgICAgPC9nPiYjeGE7ICAgIDwvZz4mI3hhOyAgICA8ZyBpZD0ieXRpY2tfMiI+JiN4YTsgICAgIDxnIGlkPSJsaW5lMmRfNjMiPiYjeGE7ICAgICAgPGc+JiN4YTsgICAgICAgPHVzZSBzdHlsZT0ic3Ryb2tlOiAjMDAwMDAwOyBzdHJva2Utd2lkdGg6IDAuOCIgeT0iMTEyLjk1NDUxNyIgeD0iNDMuNTgxNTYzIiB4bGluazpocmVmPSIjbTMxYWUxNDlmNzMiLz4mI3hhOyAgICAgIDwvZz4mI3hhOyAgICAgPC9nPiYjeGE7ICAgICA8ZyBpZD0ibGluZTJkXzY0Ij4mI3hhOyAgICAgIDxnPiYjeGE7ICAgICAgIDx1c2Ugc3R5bGU9InN0cm9rZTogIzAwMDAwMDsgc3Ryb2tlLXdpZHRoOiAwLjgiIHk9IjExMi45NTQ1MTciIHg9IjMyMi41ODE1NjMiIHhsaW5rOmhyZWY9IiNtNjI1M2I1ZDhlNCIvPiYjeGE7ICAgICAgPC9nPiYjeGE7ICAgICA8L2c+JiN4YTsgICAgIDxnIGlkPSJ0ZXh0XzciPiYjeGE7ICAgICAgJiN4YTsgICAgICA8ZyB0cmFuc2Zvcm09InRyYW5zbGF0ZSgxNi41ODE1NjMgMTE2Ljc1MzczNSkgc2NhbGUoMC4xIC0wLjEpIj4mI3hhOyAgICAgICA8dXNlIHRyYW5zZm9ybT0idHJhbnNsYXRlKDAgMC43NjU2MjUpIiB4bGluazpocmVmPSIjRGVqYVZ1U2Fucy0zMSIvPiYjeGE7ICAgICAgIDx1c2UgdHJhbnNmb3JtPSJ0cmFuc2xhdGUoNjMuNjIzMDQ3IDAuNzY1NjI1KSIgeGxpbms6aHJlZj0iI0RlamFWdVNhbnMtMzAiLz4mI3hhOyAgICAgICA8dXNlIHRyYW5zZm9ybT0idHJhbnNsYXRlKDEyOC4yMDMxMjUgMzkuMDQ2ODc1KSBzY2FsZSgwLjcpIiB4bGluazpocmVmPSIjRGVqYVZ1U2Fucy0yMjEyIi8+JiN4YTsgICAgICAgPHVzZSB0cmFuc2Zvcm09InRyYW5zbGF0ZSgxODYuODU1NDY5IDM5LjA0Njg3NSkgc2NhbGUoMC43KSIgeGxpbms6aHJlZj0iI0RlamFWdVNhbnMtMzIiLz4mI3hhOyAgICAgIDwvZz4mI3hhOyAgICAgPC9nPiYjeGE7ICAgIDwvZz4mI3hhOyAgICA8ZyBpZD0ieXRpY2tfMyI+JiN4YTsgICAgIDxnIGlkPSJsaW5lMmRfNjUiPiYjeGE7ICAgICAgPGc+JiN4YTsgICAgICAgPHVzZSBzdHlsZT0ic3Ryb2tlOiAjMDAwMDAwOyBzdHJva2Utd2lkdGg6IDAuOCIgeT0iNzQuNDkxNDE4IiB4PSI0My41ODE1NjMiIHhsaW5rOmhyZWY9IiNtMzFhZTE0OWY3MyIvPiYjeGE7ICAgICAgPC9nPiYjeGE7ICAgICA8L2c+JiN4YTsgICAgIDxnIGlkPSJsaW5lMmRfNjYiPiYjeGE7ICAgICAgPGc+JiN4YTsgICAgICAgPHVzZSBzdHlsZT0ic3Ryb2tlOiAjMDAwMDAwOyBzdHJva2Utd2lkdGg6IDAuOCIgeT0iNzQuNDkxNDE4IiB4PSIzMjIuNTgxNTYzIiB4bGluazpocmVmPSIjbTYyNTNiNWQ4ZTQiLz4mI3hhOyAgICAgIDwvZz4mI3hhOyAgICAgPC9nPiYjeGE7ICAgICA8ZyBpZD0idGV4dF84Ij4mI3hhOyAgICAgICYjeGE7ICAgICAgPGcgdHJhbnNmb3JtPSJ0cmFuc2xhdGUoMTYuNTgxNTYzIDc4LjI5MDYzNykgc2NhbGUoMC4xIC0wLjEpIj4mI3hhOyAgICAgICA8dXNlIHRyYW5zZm9ybT0idHJhbnNsYXRlKDAgMC42ODQzNzUpIiB4bGluazpocmVmPSIjRGVqYVZ1U2Fucy0zMSIvPiYjeGE7ICAgICAgIDx1c2UgdHJhbnNmb3JtPSJ0cmFuc2xhdGUoNjMuNjIzMDQ3IDAuNjg0Mzc1KSIgeGxpbms6aHJlZj0iI0RlamFWdVNhbnMtMzAiLz4mI3hhOyAgICAgICA8dXNlIHRyYW5zZm9ybT0idHJhbnNsYXRlKDEyOC4yMDMxMjUgMzguOTY1NjI1KSBzY2FsZSgwLjcpIiB4bGluazpocmVmPSIjRGVqYVZ1U2Fucy0yMjEyIi8+JiN4YTsgICAgICAgPHVzZSB0cmFuc2Zvcm09InRyYW5zbGF0ZSgxODYuODU1NDY5IDM4Ljk2NTYyNSkgc2NhbGUoMC43KSIgeGxpbms6aHJlZj0iI0RlamFWdVNhbnMtMzEiLz4mI3hhOyAgICAgIDwvZz4mI3hhOyAgICAgPC9nPiYjeGE7ICAgIDwvZz4mI3hhOyAgICA8ZyBpZD0ieXRpY2tfNCI+JiN4YTsgICAgIDxnIGlkPSJsaW5lMmRfNjciPiYjeGE7ICAgICAgPGc+JiN4YTsgICAgICAgPHVzZSBzdHlsZT0ic3Ryb2tlOiAjMDAwMDAwOyBzdHJva2Utd2lkdGg6IDAuOCIgeT0iMzYuMDI4MzIiIHg9IjQzLjU4MTU2MyIgeGxpbms6aHJlZj0iI20zMWFlMTQ5ZjczIi8+JiN4YTsgICAgICA8L2c+JiN4YTsgICAgIDwvZz4mI3hhOyAgICAgPGcgaWQ9ImxpbmUyZF82OCI+JiN4YTsgICAgICA8Zz4mI3hhOyAgICAgICA8dXNlIHN0eWxlPSJzdHJva2U6ICMwMDAwMDA7IHN0cm9rZS13aWR0aDogMC44IiB5PSIzNi4wMjgzMiIgeD0iMzIyLjU4MTU2MyIgeGxpbms6aHJlZj0iI202MjUzYjVkOGU0Ii8+JiN4YTsgICAgICA8L2c+JiN4YTsgICAgIDwvZz4mI3hhOyAgICAgPGcgaWQ9InRleHRfOSI+JiN4YTsgICAgICAmI3hhOyAgICAgIDxnIHRyYW5zZm9ybT0idHJhbnNsYXRlKDIyLjQ4MTU2MyAzOS44Mjc1MzgpIHNjYWxlKDAuMSAtMC4xKSI+JiN4YTsgICAgICAgPHVzZSB0cmFuc2Zvcm09InRyYW5zbGF0ZSgwIDAuNzY1NjI1KSIgeGxpbms6aHJlZj0iI0RlamFWdVNhbnMtMzEiLz4mI3hhOyAgICAgICA8dXNlIHRyYW5zZm9ybT0idHJhbnNsYXRlKDYzLjYyMzA0NyAwLjc2NTYyNSkiIHhsaW5rOmhyZWY9IiNEZWphVnVTYW5zLTMwIi8+JiN4YTsgICAgICAgPHVzZSB0cmFuc2Zvcm09InRyYW5zbGF0ZSgxMjguMjAzMTI1IDM5LjA0Njg3NSkgc2NhbGUoMC43KSIgeGxpbms6aHJlZj0iI0RlamFWdVNhbnMtMzAiLz4mI3hhOyAgICAgIDwvZz4mI3hhOyAgICAgPC9nPiYjeGE7ICAgIDwvZz4mI3hhOyAgICA8ZyBpZD0ieXRpY2tfNSI+JiN4YTsgICAgIDxnIGlkPSJsaW5lMmRfNjkiPiYjeGE7ICAgICAgPGRlZnM+JiN4YTsgICAgICAgPHBhdGggc3R5bGU9InN0cm9rZTogIzAwMDAwMDsgc3Ryb2tlLXdpZHRoOiAwLjYiIGQ9Ik0gMCAwICYjMTA7TCAyIDAiIGlkPSJtY2ZhNjRmZDczMSIvPiYjeGE7ICAgICAgPC9kZWZzPiYjeGE7ICAgICAgPGc+JiN4YTsgICAgICAgPHVzZSBzdHlsZT0ic3Ryb2tlOiAjMDAwMDAwOyBzdHJva2Utd2lkdGg6IDAuNiIgeT0iMTY2LjcyMzYyMSIgeD0iNDMuNTgxNTYzIiB4bGluazpocmVmPSIjbWNmYTY0ZmQ3MzEiLz4mI3hhOyAgICAgIDwvZz4mI3hhOyAgICAgPC9nPiYjeGE7ICAgICA8ZyBpZD0ibGluZTJkXzcwIj4mI3hhOyAgICAgIDxkZWZzPiYjeGE7ICAgICAgIDxwYXRoIHN0eWxlPSJzdHJva2U6ICMwMDAwMDA7IHN0cm9rZS13aWR0aDogMC42IiBkPSJNIDAgMCAmIzEwO0wgLTIgMCIgaWQ9Im00ZmM3NTdkZGMxIi8+JiN4YTsgICAgICA8L2RlZnM+JiN4YTsgICAgICA8Zz4mI3hhOyAgICAgICA8dXNlIHN0eWxlPSJzdHJva2U6ICMwMDAwMDA7IHN0cm9rZS13aWR0aDogMC42IiB5PSIxNjYuNzIzNjIxIiB4PSIzMjIuNTgxNTYzIiB4bGluazpocmVmPSIjbTRmYzc1N2RkYzEiLz4mI3hhOyAgICAgIDwvZz4mI3hhOyAgICAgPC9nPiYjeGE7ICAgIDwvZz4mI3hhOyAgICA8ZyBpZD0ieXRpY2tfNiI+JiN4YTsgICAgIDxnIGlkPSJsaW5lMmRfNzEiPiYjeGE7ICAgICAgPGc+JiN4YTsgICAgICAgPHVzZSBzdHlsZT0ic3Ryb2tlOiAjMDAwMDAwOyBzdHJva2Utd2lkdGg6IDAuNiIgeT0iMTYyLjk5NjE2MSIgeD0iNDMuNTgxNTYzIiB4bGluazpocmVmPSIjbWNmYTY0ZmQ3MzEiLz4mI3hhOyAgICAgIDwvZz4mI3hhOyAgICAgPC9nPiYjeGE7ICAgICA8ZyBpZD0ibGluZTJkXzcyIj4mI3hhOyAgICAgIDxnPiYjeGE7ICAgICAgIDx1c2Ugc3R5bGU9InN0cm9rZTogIzAwMDAwMDsgc3Ryb2tlLXdpZHRoOiAwLjYiIHk9IjE2Mi45OTYxNjEiIHg9IjMyMi41ODE1NjMiIHhsaW5rOmhyZWY9IiNtNGZjNzU3ZGRjMSIvPiYjeGE7ICAgICAgPC9nPiYjeGE7ICAgICA8L2c+JiN4YTsgICAgPC9nPiYjeGE7ICAgIDxnIGlkPSJ5dGlja183Ij4mI3hhOyAgICAgPGcgaWQ9ImxpbmUyZF83MyI+JiN4YTsgICAgICA8Zz4mI3hhOyAgICAgICA8dXNlIHN0eWxlPSJzdHJva2U6ICMwMDAwMDA7IHN0cm9rZS13aWR0aDogMC42IiB5PSIxNTkuOTUwNjA1IiB4PSI0My41ODE1NjMiIHhsaW5rOmhyZWY9IiNtY2ZhNjRmZDczMSIvPiYjeGE7ICAgICAgPC9nPiYjeGE7ICAgICA8L2c+JiN4YTsgICAgIDxnIGlkPSJsaW5lMmRfNzQiPiYjeGE7ICAgICAgPGc+JiN4YTsgICAgICAgPHVzZSBzdHlsZT0ic3Ryb2tlOiAjMDAwMDAwOyBzdHJva2Utd2lkdGg6IDAuNiIgeT0iMTU5Ljk1MDYwNSIgeD0iMzIyLjU4MTU2MyIgeGxpbms6aHJlZj0iI200ZmM3NTdkZGMxIi8+JiN4YTsgICAgICA8L2c+JiN4YTsgICAgIDwvZz4mI3hhOyAgICA8L2c+JiN4YTsgICAgPGcgaWQ9Inl0aWNrXzgiPiYjeGE7ICAgICA8ZyBpZD0ibGluZTJkXzc1Ij4mI3hhOyAgICAgIDxnPiYjeGE7ICAgICAgIDx1c2Ugc3R5bGU9InN0cm9rZTogIzAwMDAwMDsgc3Ryb2tlLXdpZHRoOiAwLjYiIHk9IjE1Ny4zNzU2MjQiIHg9IjQzLjU4MTU2MyIgeGxpbms6aHJlZj0iI21jZmE2NGZkNzMxIi8+JiN4YTsgICAgICA8L2c+JiN4YTsgICAgIDwvZz4mI3hhOyAgICAgPGcgaWQ9ImxpbmUyZF83NiI+JiN4YTsgICAgICA8Zz4mI3hhOyAgICAgICA8dXNlIHN0eWxlPSJzdHJva2U6ICMwMDAwMDA7IHN0cm9rZS13aWR0aDogMC42IiB5PSIxNTcuMzc1NjI0IiB4PSIzMjIuNTgxNTYzIiB4bGluazpocmVmPSIjbTRmYzc1N2RkYzEiLz4mI3hhOyAgICAgIDwvZz4mI3hhOyAgICAgPC9nPiYjeGE7ICAgIDwvZz4mI3hhOyAgICA8ZyBpZD0ieXRpY2tfOSI+JiN4YTsgICAgIDxnIGlkPSJsaW5lMmRfNzciPiYjeGE7ICAgICAgPGc+JiN4YTsgICAgICAgPHVzZSBzdHlsZT0ic3Ryb2tlOiAjMDAwMDAwOyBzdHJva2Utd2lkdGg6IDAuNiIgeT0iMTU1LjE0NTA3NCIgeD0iNDMuNTgxNTYzIiB4bGluazpocmVmPSIjbWNmYTY0ZmQ3MzEiLz4mI3hhOyAgICAgIDwvZz4mI3hhOyAgICAgPC9nPiYjeGE7ICAgICA8ZyBpZD0ibGluZTJkXzc4Ij4mI3hhOyAgICAgIDxnPiYjeGE7ICAgICAgIDx1c2Ugc3R5bGU9InN0cm9rZTogIzAwMDAwMDsgc3Ryb2tlLXdpZHRoOiAwLjYiIHk9IjE1NS4xNDUwNzQiIHg9IjMyMi41ODE1NjMiIHhsaW5rOmhyZWY9IiNtNGZjNzU3ZGRjMSIvPiYjeGE7ICAgICAgPC9nPiYjeGE7ICAgICA8L2c+JiN4YTsgICAgPC9nPiYjeGE7ICAgIDxnIGlkPSJ5dGlja18xMCI+JiN4YTsgICAgIDxnIGlkPSJsaW5lMmRfNzkiPiYjeGE7ICAgICAgPGc+JiN4YTsgICAgICAgPHVzZSBzdHlsZT0ic3Ryb2tlOiAjMDAwMDAwOyBzdHJva2Utd2lkdGg6IDAuNiIgeT0iMTUzLjE3NzU5IiB4PSI0My41ODE1NjMiIHhsaW5rOmhyZWY9IiNtY2ZhNjRmZDczMSIvPiYjeGE7ICAgICAgPC9nPiYjeGE7ICAgICA8L2c+JiN4YTsgICAgIDxnIGlkPSJsaW5lMmRfODAiPiYjeGE7ICAgICAgPGc+JiN4YTsgICAgICAgPHVzZSBzdHlsZT0ic3Ryb2tlOiAjMDAwMDAwOyBzdHJva2Utd2lkdGg6IDAuNiIgeT0iMTUzLjE3NzU5IiB4PSIzMjIuNTgxNTYzIiB4bGluazpocmVmPSIjbTRmYzc1N2RkYzEiLz4mI3hhOyAgICAgIDwvZz4mI3hhOyAgICAgPC9nPiYjeGE7ICAgIDwvZz4mI3hhOyAgICA8ZyBpZD0ieXRpY2tfMTEiPiYjeGE7ICAgICA8ZyBpZD0ibGluZTJkXzgxIj4mI3hhOyAgICAgIDxnPiYjeGE7ICAgICAgIDx1c2Ugc3R5bGU9InN0cm9rZTogIzAwMDAwMDsgc3Ryb2tlLXdpZHRoOiAwLjYiIHk9IjEzOS44MzkwNjkiIHg9IjQzLjU4MTU2MyIgeGxpbms6aHJlZj0iI21jZmE2NGZkNzMxIi8+JiN4YTsgICAgICA8L2c+JiN4YTsgICAgIDwvZz4mI3hhOyAgICAgPGcgaWQ9ImxpbmUyZF84MiI+JiN4YTsgICAgICA8Zz4mI3hhOyAgICAgICA8dXNlIHN0eWxlPSJzdHJva2U6ICMwMDAwMDA7IHN0cm9rZS13aWR0aDogMC42IiB5PSIxMzkuODM5MDY5IiB4PSIzMjIuNTgxNTYzIiB4bGluazpocmVmPSIjbTRmYzc1N2RkYzEiLz4mI3hhOyAgICAgIDwvZz4mI3hhOyAgICAgPC9nPiYjeGE7ICAgIDwvZz4mI3hhOyAgICA8ZyBpZD0ieXRpY2tfMTIiPiYjeGE7ICAgICA8ZyBpZD0ibGluZTJkXzgzIj4mI3hhOyAgICAgIDxnPiYjeGE7ICAgICAgIDx1c2Ugc3R5bGU9InN0cm9rZTogIzAwMDAwMDsgc3Ryb2tlLXdpZHRoOiAwLjYiIHk9IjEzMy4wNjYwNTMiIHg9IjQzLjU4MTU2MyIgeGxpbms6aHJlZj0iI21jZmE2NGZkNzMxIi8+JiN4YTsgICAgICA8L2c+JiN4YTsgICAgIDwvZz4mI3hhOyAgICAgPGcgaWQ9ImxpbmUyZF84NCI+JiN4YTsgICAgICA8Zz4mI3hhOyAgICAgICA8dXNlIHN0eWxlPSJzdHJva2U6ICMwMDAwMDA7IHN0cm9rZS13aWR0aDogMC42IiB5PSIxMzMuMDY2MDUzIiB4PSIzMjIuNTgxNTYzIiB4bGluazpocmVmPSIjbTRmYzc1N2RkYzEiLz4mI3hhOyAgICAgIDwvZz4mI3hhOyAgICAgPC9nPiYjeGE7ICAgIDwvZz4mI3hhOyAgICA8ZyBpZD0ieXRpY2tfMTMiPiYjeGE7ICAgICA8ZyBpZD0ibGluZTJkXzg1Ij4mI3hhOyAgICAgIDxnPiYjeGE7ICAgICAgIDx1c2Ugc3R5bGU9InN0cm9rZTogIzAwMDAwMDsgc3Ryb2tlLXdpZHRoOiAwLjYiIHk9IjEyOC4yNjA1MjIiIHg9IjQzLjU4MTU2MyIgeGxpbms6aHJlZj0iI21jZmE2NGZkNzMxIi8+JiN4YTsgICAgICA8L2c+JiN4YTsgICAgIDwvZz4mI3hhOyAgICAgPGcgaWQ9ImxpbmUyZF84NiI+JiN4YTsgICAgICA8Zz4mI3hhOyAgICAgICA8dXNlIHN0eWxlPSJzdHJva2U6ICMwMDAwMDA7IHN0cm9rZS13aWR0aDogMC42IiB5PSIxMjguMjYwNTIyIiB4PSIzMjIuNTgxNTYzIiB4bGluazpocmVmPSIjbTRmYzc1N2RkYzEiLz4mI3hhOyAgICAgIDwvZz4mI3hhOyAgICAgPC9nPiYjeGE7ICAgIDwvZz4mI3hhOyAgICA8ZyBpZD0ieXRpY2tfMTQiPiYjeGE7ICAgICA8ZyBpZD0ibGluZTJkXzg3Ij4mI3hhOyAgICAgIDxnPiYjeGE7ICAgICAgIDx1c2Ugc3R5bGU9InN0cm9rZTogIzAwMDAwMDsgc3Ryb2tlLXdpZHRoOiAwLjYiIHk9IjEyNC41MzMwNjMiIHg9IjQzLjU4MTU2MyIgeGxpbms6aHJlZj0iI21jZmE2NGZkNzMxIi8+JiN4YTsgICAgICA8L2c+JiN4YTsgICAgIDwvZz4mI3hhOyAgICAgPGcgaWQ9ImxpbmUyZF84OCI+JiN4YTsgICAgICA8Zz4mI3hhOyAgICAgICA8dXNlIHN0eWxlPSJzdHJva2U6ICMwMDAwMDA7IHN0cm9rZS13aWR0aDogMC42IiB5PSIxMjQuNTMzMDYzIiB4PSIzMjIuNTgxNTYzIiB4bGluazpocmVmPSIjbTRmYzc1N2RkYzEiLz4mI3hhOyAgICAgIDwvZz4mI3hhOyAgICAgPC9nPiYjeGE7ICAgIDwvZz4mI3hhOyAgICA8ZyBpZD0ieXRpY2tfMTUiPiYjeGE7ICAgICA8ZyBpZD0ibGluZTJkXzg5Ij4mI3hhOyAgICAgIDxnPiYjeGE7ICAgICAgIDx1c2Ugc3R5bGU9InN0cm9rZTogIzAwMDAwMDsgc3Ryb2tlLXdpZHRoOiAwLjYiIHk9IjEyMS40ODc1MDciIHg9IjQzLjU4MTU2MyIgeGxpbms6aHJlZj0iI21jZmE2NGZkNzMxIi8+JiN4YTsgICAgICA8L2c+JiN4YTsgICAgIDwvZz4mI3hhOyAgICAgPGcgaWQ9ImxpbmUyZF85MCI+JiN4YTsgICAgICA8Zz4mI3hhOyAgICAgICA8dXNlIHN0eWxlPSJzdHJva2U6ICMwMDAwMDA7IHN0cm9rZS13aWR0aDogMC42IiB5PSIxMjEuNDg3NTA3IiB4PSIzMjIuNTgxNTYzIiB4bGluazpocmVmPSIjbTRmYzc1N2RkYzEiLz4mI3hhOyAgICAgIDwvZz4mI3hhOyAgICAgPC9nPiYjeGE7ICAgIDwvZz4mI3hhOyAgICA8ZyBpZD0ieXRpY2tfMTYiPiYjeGE7ICAgICA8ZyBpZD0ibGluZTJkXzkxIj4mI3hhOyAgICAgIDxnPiYjeGE7ICAgICAgIDx1c2Ugc3R5bGU9InN0cm9rZTogIzAwMDAwMDsgc3Ryb2tlLXdpZHRoOiAwLjYiIHk9IjExOC45MTI1MjYiIHg9IjQzLjU4MTU2MyIgeGxpbms6aHJlZj0iI21jZmE2NGZkNzMxIi8+JiN4YTsgICAgICA8L2c+JiN4YTsgICAgIDwvZz4mI3hhOyAgICAgPGcgaWQ9ImxpbmUyZF85MiI+JiN4YTsgICAgICA8Zz4mI3hhOyAgICAgICA8dXNlIHN0eWxlPSJzdHJva2U6ICMwMDAwMDA7IHN0cm9rZS13aWR0aDogMC42IiB5PSIxMTguOTEyNTI2IiB4PSIzMjIuNTgxNTYzIiB4bGluazpocmVmPSIjbTRmYzc1N2RkYzEiLz4mI3hhOyAgICAgIDwvZz4mI3hhOyAgICAgPC9nPiYjeGE7ICAgIDwvZz4mI3hhOyAgICA8ZyBpZD0ieXRpY2tfMTciPiYjeGE7ICAgICA8ZyBpZD0ibGluZTJkXzkzIj4mI3hhOyAgICAgIDxnPiYjeGE7ICAgICAgIDx1c2Ugc3R5bGU9InN0cm9rZTogIzAwMDAwMDsgc3Ryb2tlLXdpZHRoOiAwLjYiIHk9IjExNi42ODE5NzYiIHg9IjQzLjU4MTU2MyIgeGxpbms6aHJlZj0iI21jZmE2NGZkNzMxIi8+JiN4YTsgICAgICA8L2c+JiN4YTsgICAgIDwvZz4mI3hhOyAgICAgPGcgaWQ9ImxpbmUyZF85NCI+JiN4YTsgICAgICA8Zz4mI3hhOyAgICAgICA8dXNlIHN0eWxlPSJzdHJva2U6ICMwMDAwMDA7IHN0cm9rZS13aWR0aDogMC42IiB5PSIxMTYuNjgxOTc2IiB4PSIzMjIuNTgxNTYzIiB4bGluazpocmVmPSIjbTRmYzc1N2RkYzEiLz4mI3hhOyAgICAgIDwvZz4mI3hhOyAgICAgPC9nPiYjeGE7ICAgIDwvZz4mI3hhOyAgICA8ZyBpZD0ieXRpY2tfMTgiPiYjeGE7ICAgICA8ZyBpZD0ibGluZTJkXzk1Ij4mI3hhOyAgICAgIDxnPiYjeGE7ICAgICAgIDx1c2Ugc3R5bGU9InN0cm9rZTogIzAwMDAwMDsgc3Ryb2tlLXdpZHRoOiAwLjYiIHk9IjExNC43MTQ0OTEiIHg9IjQzLjU4MTU2MyIgeGxpbms6aHJlZj0iI21jZmE2NGZkNzMxIi8+JiN4YTsgICAgICA8L2c+JiN4YTsgICAgIDwvZz4mI3hhOyAgICAgPGcgaWQ9ImxpbmUyZF85NiI+JiN4YTsgICAgICA8Zz4mI3hhOyAgICAgICA8dXNlIHN0eWxlPSJzdHJva2U6ICMwMDAwMDA7IHN0cm9rZS13aWR0aDogMC42IiB5PSIxMTQuNzE0NDkxIiB4PSIzMjIuNTgxNTYzIiB4bGluazpocmVmPSIjbTRmYzc1N2RkYzEiLz4mI3hhOyAgICAgIDwvZz4mI3hhOyAgICAgPC9nPiYjeGE7ICAgIDwvZz4mI3hhOyAgICA8ZyBpZD0ieXRpY2tfMTkiPiYjeGE7ICAgICA8ZyBpZD0ibGluZTJkXzk3Ij4mI3hhOyAgICAgIDxnPiYjeGE7ICAgICAgIDx1c2Ugc3R5bGU9InN0cm9rZTogIzAwMDAwMDsgc3Ryb2tlLXdpZHRoOiAwLjYiIHk9IjEwMS4zNzU5NyIgeD0iNDMuNTgxNTYzIiB4bGluazpocmVmPSIjbWNmYTY0ZmQ3MzEiLz4mI3hhOyAgICAgIDwvZz4mI3hhOyAgICAgPC9nPiYjeGE7ICAgICA8ZyBpZD0ibGluZTJkXzk4Ij4mI3hhOyAgICAgIDxnPiYjeGE7ICAgICAgIDx1c2Ugc3R5bGU9InN0cm9rZTogIzAwMDAwMDsgc3Ryb2tlLXdpZHRoOiAwLjYiIHk9IjEwMS4zNzU5NyIgeD0iMzIyLjU4MTU2MyIgeGxpbms6aHJlZj0iI200ZmM3NTdkZGMxIi8+JiN4YTsgICAgICA8L2c+JiN4YTsgICAgIDwvZz4mI3hhOyAgICA8L2c+JiN4YTsgICAgPGcgaWQ9Inl0aWNrXzIwIj4mI3hhOyAgICAgPGcgaWQ9ImxpbmUyZF85OSI+JiN4YTsgICAgICA8Zz4mI3hhOyAgICAgICA8dXNlIHN0eWxlPSJzdHJva2U6ICMwMDAwMDA7IHN0cm9rZS13aWR0aDogMC42IiB5PSI5NC42MDI5NTUiIHg9IjQzLjU4MTU2MyIgeGxpbms6aHJlZj0iI21jZmE2NGZkNzMxIi8+JiN4YTsgICAgICA8L2c+JiN4YTsgICAgIDwvZz4mI3hhOyAgICAgPGcgaWQ9ImxpbmUyZF8xMDAiPiYjeGE7ICAgICAgPGc+JiN4YTsgICAgICAgPHVzZSBzdHlsZT0ic3Ryb2tlOiAjMDAwMDAwOyBzdHJva2Utd2lkdGg6IDAuNiIgeT0iOTQuNjAyOTU1IiB4PSIzMjIuNTgxNTYzIiB4bGluazpocmVmPSIjbTRmYzc1N2RkYzEiLz4mI3hhOyAgICAgIDwvZz4mI3hhOyAgICAgPC9nPiYjeGE7ICAgIDwvZz4mI3hhOyAgICA8ZyBpZD0ieXRpY2tfMjEiPiYjeGE7ICAgICA8ZyBpZD0ibGluZTJkXzEwMSI+JiN4YTsgICAgICA8Zz4mI3hhOyAgICAgICA8dXNlIHN0eWxlPSJzdHJva2U6ICMwMDAwMDA7IHN0cm9rZS13aWR0aDogMC42IiB5PSI4OS43OTc0MjQiIHg9IjQzLjU4MTU2MyIgeGxpbms6aHJlZj0iI21jZmE2NGZkNzMxIi8+JiN4YTsgICAgICA8L2c+JiN4YTsgICAgIDwvZz4mI3hhOyAgICAgPGcgaWQ9ImxpbmUyZF8xMDIiPiYjeGE7ICAgICAgPGc+JiN4YTsgICAgICAgPHVzZSBzdHlsZT0ic3Ryb2tlOiAjMDAwMDAwOyBzdHJva2Utd2lkdGg6IDAuNiIgeT0iODkuNzk3NDI0IiB4PSIzMjIuNTgxNTYzIiB4bGluazpocmVmPSIjbTRmYzc1N2RkYzEiLz4mI3hhOyAgICAgIDwvZz4mI3hhOyAgICAgPC9nPiYjeGE7ICAgIDwvZz4mI3hhOyAgICA8ZyBpZD0ieXRpY2tfMjIiPiYjeGE7ICAgICA8ZyBpZD0ibGluZTJkXzEwMyI+JiN4YTsgICAgICA8Zz4mI3hhOyAgICAgICA8dXNlIHN0eWxlPSJzdHJva2U6ICMwMDAwMDA7IHN0cm9rZS13aWR0aDogMC42IiB5PSI4Ni4wNjk5NjQiIHg9IjQzLjU4MTU2MyIgeGxpbms6aHJlZj0iI21jZmE2NGZkNzMxIi8+JiN4YTsgICAgICA8L2c+JiN4YTsgICAgIDwvZz4mI3hhOyAgICAgPGcgaWQ9ImxpbmUyZF8xMDQiPiYjeGE7ICAgICAgPGc+JiN4YTsgICAgICAgPHVzZSBzdHlsZT0ic3Ryb2tlOiAjMDAwMDAwOyBzdHJva2Utd2lkdGg6IDAuNiIgeT0iODYuMDY5OTY0IiB4PSIzMjIuNTgxNTYzIiB4bGluazpocmVmPSIjbTRmYzc1N2RkYzEiLz4mI3hhOyAgICAgIDwvZz4mI3hhOyAgICAgPC9nPiYjeGE7ICAgIDwvZz4mI3hhOyAgICA8ZyBpZD0ieXRpY2tfMjMiPiYjeGE7ICAgICA8ZyBpZD0ibGluZTJkXzEwNSI+JiN4YTsgICAgICA8Zz4mI3hhOyAgICAgICA8dXNlIHN0eWxlPSJzdHJva2U6ICMwMDAwMDA7IHN0cm9rZS13aWR0aDogMC42IiB5PSI4My4wMjQ0MDgiIHg9IjQzLjU4MTU2MyIgeGxpbms6aHJlZj0iI21jZmE2NGZkNzMxIi8+JiN4YTsgICAgICA8L2c+JiN4YTsgICAgIDwvZz4mI3hhOyAgICAgPGcgaWQ9ImxpbmUyZF8xMDYiPiYjeGE7ICAgICAgPGc+JiN4YTsgICAgICAgPHVzZSBzdHlsZT0ic3Ryb2tlOiAjMDAwMDAwOyBzdHJva2Utd2lkdGg6IDAuNiIgeT0iODMuMDI0NDA4IiB4PSIzMjIuNTgxNTYzIiB4bGluazpocmVmPSIjbTRmYzc1N2RkYzEiLz4mI3hhOyAgICAgIDwvZz4mI3hhOyAgICAgPC9nPiYjeGE7ICAgIDwvZz4mI3hhOyAgICA8ZyBpZD0ieXRpY2tfMjQiPiYjeGE7ICAgICA8ZyBpZD0ibGluZTJkXzEwNyI+JiN4YTsgICAgICA8Zz4mI3hhOyAgICAgICA8dXNlIHN0eWxlPSJzdHJva2U6ICMwMDAwMDA7IHN0cm9rZS13aWR0aDogMC42IiB5PSI4MC40NDk0MjciIHg9IjQzLjU4MTU2MyIgeGxpbms6aHJlZj0iI21jZmE2NGZkNzMxIi8+JiN4YTsgICAgICA8L2c+JiN4YTsgICAgIDwvZz4mI3hhOyAgICAgPGcgaWQ9ImxpbmUyZF8xMDgiPiYjeGE7ICAgICAgPGc+JiN4YTsgICAgICAgPHVzZSBzdHlsZT0ic3Ryb2tlOiAjMDAwMDAwOyBzdHJva2Utd2lkdGg6IDAuNiIgeT0iODAuNDQ5NDI3IiB4PSIzMjIuNTgxNTYzIiB4bGluazpocmVmPSIjbTRmYzc1N2RkYzEiLz4mI3hhOyAgICAgIDwvZz4mI3hhOyAgICAgPC9nPiYjeGE7ICAgIDwvZz4mI3hhOyAgICA8ZyBpZD0ieXRpY2tfMjUiPiYjeGE7ICAgICA8ZyBpZD0ibGluZTJkXzEwOSI+JiN4YTsgICAgICA8Zz4mI3hhOyAgICAgICA8dXNlIHN0eWxlPSJzdHJva2U6ICMwMDAwMDA7IHN0cm9rZS13aWR0aDogMC42IiB5PSI3OC4yMTg4NzciIHg9IjQzLjU4MTU2MyIgeGxpbms6aHJlZj0iI21jZmE2NGZkNzMxIi8+JiN4YTsgICAgICA8L2c+JiN4YTsgICAgIDwvZz4mI3hhOyAgICAgPGcgaWQ9ImxpbmUyZF8xMTAiPiYjeGE7ICAgICAgPGc+JiN4YTsgICAgICAgPHVzZSBzdHlsZT0ic3Ryb2tlOiAjMDAwMDAwOyBzdHJva2Utd2lkdGg6IDAuNiIgeT0iNzguMjE4ODc3IiB4PSIzMjIuNTgxNTYzIiB4bGluazpocmVmPSIjbTRmYzc1N2RkYzEiLz4mI3hhOyAgICAgIDwvZz4mI3hhOyAgICAgPC9nPiYjeGE7ICAgIDwvZz4mI3hhOyAgICA8ZyBpZD0ieXRpY2tfMjYiPiYjeGE7ICAgICA8ZyBpZD0ibGluZTJkXzExMSI+JiN4YTsgICAgICA8Zz4mI3hhOyAgICAgICA8dXNlIHN0eWxlPSJzdHJva2U6ICMwMDAwMDA7IHN0cm9rZS13aWR0aDogMC42IiB5PSI3Ni4yNTEzOTMiIHg9IjQzLjU4MTU2MyIgeGxpbms6aHJlZj0iI21jZmE2NGZkNzMxIi8+JiN4YTsgICAgICA8L2c+JiN4YTsgICAgIDwvZz4mI3hhOyAgICAgPGcgaWQ9ImxpbmUyZF8xMTIiPiYjeGE7ICAgICAgPGc+JiN4YTsgICAgICAgPHVzZSBzdHlsZT0ic3Ryb2tlOiAjMDAwMDAwOyBzdHJva2Utd2lkdGg6IDAuNiIgeT0iNzYuMjUxMzkzIiB4PSIzMjIuNTgxNTYzIiB4bGluazpocmVmPSIjbTRmYzc1N2RkYzEiLz4mI3hhOyAgICAgIDwvZz4mI3hhOyAgICAgPC9nPiYjeGE7ICAgIDwvZz4mI3hhOyAgICA8ZyBpZD0ieXRpY2tfMjciPiYjeGE7ICAgICA8ZyBpZD0ibGluZTJkXzExMyI+JiN4YTsgICAgICA8Zz4mI3hhOyAgICAgICA8dXNlIHN0eWxlPSJzdHJva2U6ICMwMDAwMDA7IHN0cm9rZS13aWR0aDogMC42IiB5PSI2Mi45MTI4NzIiIHg9IjQzLjU4MTU2MyIgeGxpbms6aHJlZj0iI21jZmE2NGZkNzMxIi8+JiN4YTsgICAgICA8L2c+JiN4YTsgICAgIDwvZz4mI3hhOyAgICAgPGcgaWQ9ImxpbmUyZF8xMTQiPiYjeGE7ICAgICAgPGc+JiN4YTsgICAgICAgPHVzZSBzdHlsZT0ic3Ryb2tlOiAjMDAwMDAwOyBzdHJva2Utd2lkdGg6IDAuNiIgeT0iNjIuOTEyODcyIiB4PSIzMjIuNTgxNTYzIiB4bGluazpocmVmPSIjbTRmYzc1N2RkYzEiLz4mI3hhOyAgICAgIDwvZz4mI3hhOyAgICAgPC9nPiYjeGE7ICAgIDwvZz4mI3hhOyAgICA8ZyBpZD0ieXRpY2tfMjgiPiYjeGE7ICAgICA8ZyBpZD0ibGluZTJkXzExNSI+JiN4YTsgICAgICA8Zz4mI3hhOyAgICAgICA8dXNlIHN0eWxlPSJzdHJva2U6ICMwMDAwMDA7IHN0cm9rZS13aWR0aDogMC42IiB5PSI1Ni4xMzk4NTYiIHg9IjQzLjU4MTU2MyIgeGxpbms6aHJlZj0iI21jZmE2NGZkNzMxIi8+JiN4YTsgICAgICA8L2c+JiN4YTsgICAgIDwvZz4mI3hhOyAgICAgPGcgaWQ9ImxpbmUyZF8xMTYiPiYjeGE7ICAgICAgPGc+JiN4YTsgICAgICAgPHVzZSBzdHlsZT0ic3Ryb2tlOiAjMDAwMDAwOyBzdHJva2Utd2lkdGg6IDAuNiIgeT0iNTYuMTM5ODU2IiB4PSIzMjIuNTgxNTYzIiB4bGluazpocmVmPSIjbTRmYzc1N2RkYzEiLz4mI3hhOyAgICAgIDwvZz4mI3hhOyAgICAgPC9nPiYjeGE7ICAgIDwvZz4mI3hhOyAgICA8ZyBpZD0ieXRpY2tfMjkiPiYjeGE7ICAgICA8ZyBpZD0ibGluZTJkXzExNyI+JiN4YTsgICAgICA8Zz4mI3hhOyAgICAgICA8dXNlIHN0eWxlPSJzdHJva2U6ICMwMDAwMDA7IHN0cm9rZS13aWR0aDogMC42IiB5PSI1MS4zMzQzMjUiIHg9IjQzLjU4MTU2MyIgeGxpbms6aHJlZj0iI21jZmE2NGZkNzMxIi8+JiN4YTsgICAgICA8L2c+JiN4YTsgICAgIDwvZz4mI3hhOyAgICAgPGcgaWQ9ImxpbmUyZF8xMTgiPiYjeGE7ICAgICAgPGc+JiN4YTsgICAgICAgPHVzZSBzdHlsZT0ic3Ryb2tlOiAjMDAwMDAwOyBzdHJva2Utd2lkdGg6IDAuNiIgeT0iNTEuMzM0MzI1IiB4PSIzMjIuNTgxNTYzIiB4bGluazpocmVmPSIjbTRmYzc1N2RkYzEiLz4mI3hhOyAgICAgIDwvZz4mI3hhOyAgICAgPC9nPiYjeGE7ICAgIDwvZz4mI3hhOyAgICA8ZyBpZD0ieXRpY2tfMzAiPiYjeGE7ICAgICA8ZyBpZD0ibGluZTJkXzExOSI+JiN4YTsgICAgICA8Zz4mI3hhOyAgICAgICA8dXNlIHN0eWxlPSJzdHJva2U6ICMwMDAwMDA7IHN0cm9rZS13aWR0aDogMC42IiB5PSI0Ny42MDY4NjYiIHg9IjQzLjU4MTU2MyIgeGxpbms6aHJlZj0iI21jZmE2NGZkNzMxIi8+JiN4YTsgICAgICA8L2c+JiN4YTsgICAgIDwvZz4mI3hhOyAgICAgPGcgaWQ9ImxpbmUyZF8xMjAiPiYjeGE7ICAgICAgPGc+JiN4YTsgICAgICAgPHVzZSBzdHlsZT0ic3Ryb2tlOiAjMDAwMDAwOyBzdHJva2Utd2lkdGg6IDAuNiIgeT0iNDcuNjA2ODY2IiB4PSIzMjIuNTgxNTYzIiB4bGluazpocmVmPSIjbTRmYzc1N2RkYzEiLz4mI3hhOyAgICAgIDwvZz4mI3hhOyAgICAgPC9nPiYjeGE7ICAgIDwvZz4mI3hhOyAgICA8ZyBpZD0ieXRpY2tfMzEiPiYjeGE7ICAgICA8ZyBpZD0ibGluZTJkXzEyMSI+JiN4YTsgICAgICA8Zz4mI3hhOyAgICAgICA8dXNlIHN0eWxlPSJzdHJva2U6ICMwMDAwMDA7IHN0cm9rZS13aWR0aDogMC42IiB5PSI0NC41NjEzMSIgeD0iNDMuNTgxNTYzIiB4bGluazpocmVmPSIjbWNmYTY0ZmQ3MzEiLz4mI3hhOyAgICAgIDwvZz4mI3hhOyAgICAgPC9nPiYjeGE7ICAgICA8ZyBpZD0ibGluZTJkXzEyMiI+JiN4YTsgICAgICA8Zz4mI3hhOyAgICAgICA8dXNlIHN0eWxlPSJzdHJva2U6ICMwMDAwMDA7IHN0cm9rZS13aWR0aDogMC42IiB5PSI0NC41NjEzMSIgeD0iMzIyLjU4MTU2MyIgeGxpbms6aHJlZj0iI200ZmM3NTdkZGMxIi8+JiN4YTsgICAgICA8L2c+JiN4YTsgICAgIDwvZz4mI3hhOyAgICA8L2c+JiN4YTsgICAgPGcgaWQ9Inl0aWNrXzMyIj4mI3hhOyAgICAgPGcgaWQ9ImxpbmUyZF8xMjMiPiYjeGE7ICAgICAgPGc+JiN4YTsgICAgICAgPHVzZSBzdHlsZT0ic3Ryb2tlOiAjMDAwMDAwOyBzdHJva2Utd2lkdGg6IDAuNiIgeT0iNDEuOTg2MzI5IiB4PSI0My41ODE1NjMiIHhsaW5rOmhyZWY9IiNtY2ZhNjRmZDczMSIvPiYjeGE7ICAgICAgPC9nPiYjeGE7ICAgICA8L2c+JiN4YTsgICAgIDxnIGlkPSJsaW5lMmRfMTI0Ij4mI3hhOyAgICAgIDxnPiYjeGE7ICAgICAgIDx1c2Ugc3R5bGU9InN0cm9rZTogIzAwMDAwMDsgc3Ryb2tlLXdpZHRoOiAwLjYiIHk9IjQxLjk4NjMyOSIgeD0iMzIyLjU4MTU2MyIgeGxpbms6aHJlZj0iI200ZmM3NTdkZGMxIi8+JiN4YTsgICAgICA8L2c+JiN4YTsgICAgIDwvZz4mI3hhOyAgICA8L2c+JiN4YTsgICAgPGcgaWQ9Inl0aWNrXzMzIj4mI3hhOyAgICAgPGcgaWQ9ImxpbmUyZF8xMjUiPiYjeGE7ICAgICAgPGc+JiN4YTsgICAgICAgPHVzZSBzdHlsZT0ic3Ryb2tlOiAjMDAwMDAwOyBzdHJva2Utd2lkdGg6IDAuNiIgeT0iMzkuNzU1Nzc5IiB4PSI0My41ODE1NjMiIHhsaW5rOmhyZWY9IiNtY2ZhNjRmZDczMSIvPiYjeGE7ICAgICAgPC9nPiYjeGE7ICAgICA8L2c+JiN4YTsgICAgIDxnIGlkPSJsaW5lMmRfMTI2Ij4mI3hhOyAgICAgIDxnPiYjeGE7ICAgICAgIDx1c2Ugc3R5bGU9InN0cm9rZTogIzAwMDAwMDsgc3Ryb2tlLXdpZHRoOiAwLjYiIHk9IjM5Ljc1NTc3OSIgeD0iMzIyLjU4MTU2MyIgeGxpbms6aHJlZj0iI200ZmM3NTdkZGMxIi8+JiN4YTsgICAgICA8L2c+JiN4YTsgICAgIDwvZz4mI3hhOyAgICA8L2c+JiN4YTsgICAgPGcgaWQ9Inl0aWNrXzM0Ij4mI3hhOyAgICAgPGcgaWQ9ImxpbmUyZF8xMjciPiYjeGE7ICAgICAgPGc+JiN4YTsgICAgICAgPHVzZSBzdHlsZT0ic3Ryb2tlOiAjMDAwMDAwOyBzdHJva2Utd2lkdGg6IDAuNiIgeT0iMzcuNzg4Mjk1IiB4PSI0My41ODE1NjMiIHhsaW5rOmhyZWY9IiNtY2ZhNjRmZDczMSIvPiYjeGE7ICAgICAgPC9nPiYjeGE7ICAgICA8L2c+JiN4YTsgICAgIDxnIGlkPSJsaW5lMmRfMTI4Ij4mI3hhOyAgICAgIDxnPiYjeGE7ICAgICAgIDx1c2Ugc3R5bGU9InN0cm9rZTogIzAwMDAwMDsgc3Ryb2tlLXdpZHRoOiAwLjYiIHk9IjM3Ljc4ODI5NSIgeD0iMzIyLjU4MTU2MyIgeGxpbms6aHJlZj0iI200ZmM3NTdkZGMxIi8+JiN4YTsgICAgICA8L2c+JiN4YTsgICAgIDwvZz4mI3hhOyAgICA8L2c+JiN4YTsgICAgPGcgaWQ9Inl0aWNrXzM1Ij4mI3hhOyAgICAgPGcgaWQ9ImxpbmUyZF8xMjkiPiYjeGE7ICAgICAgPGc+JiN4YTsgICAgICAgPHVzZSBzdHlsZT0ic3Ryb2tlOiAjMDAwMDAwOyBzdHJva2Utd2lkdGg6IDAuNiIgeT0iMjQuNDQ5NzczIiB4PSI0My41ODE1NjMiIHhsaW5rOmhyZWY9IiNtY2ZhNjRmZDczMSIvPiYjeGE7ICAgICAgPC9nPiYjeGE7ICAgICA8L2c+JiN4YTsgICAgIDxnIGlkPSJsaW5lMmRfMTMwIj4mI3hhOyAgICAgIDxnPiYjeGE7ICAgICAgIDx1c2Ugc3R5bGU9InN0cm9rZTogIzAwMDAwMDsgc3Ryb2tlLXdpZHRoOiAwLjYiIHk9IjI0LjQ0OTc3MyIgeD0iMzIyLjU4MTU2MyIgeGxpbms6aHJlZj0iI200ZmM3NTdkZGMxIi8+JiN4YTsgICAgICA8L2c+JiN4YTsgICAgIDwvZz4mI3hhOyAgICA8L2c+JiN4YTsgICAgPGcgaWQ9Inl0aWNrXzM2Ij4mI3hhOyAgICAgPGcgaWQ9ImxpbmUyZF8xMzEiPiYjeGE7ICAgICAgPGc+JiN4YTsgICAgICAgPHVzZSBzdHlsZT0ic3Ryb2tlOiAjMDAwMDAwOyBzdHJva2Utd2lkdGg6IDAuNiIgeT0iMTcuNjc2NzU4IiB4PSI0My41ODE1NjMiIHhsaW5rOmhyZWY9IiNtY2ZhNjRmZDczMSIvPiYjeGE7ICAgICAgPC9nPiYjeGE7ICAgICA8L2c+JiN4YTsgICAgIDxnIGlkPSJsaW5lMmRfMTMyIj4mI3hhOyAgICAgIDxnPiYjeGE7ICAgICAgIDx1c2Ugc3R5bGU9InN0cm9rZTogIzAwMDAwMDsgc3Ryb2tlLXdpZHRoOiAwLjYiIHk9IjE3LjY3Njc1OCIgeD0iMzIyLjU4MTU2MyIgeGxpbms6aHJlZj0iI200ZmM3NTdkZGMxIi8+JiN4YTsgICAgICA8L2c+JiN4YTsgICAgIDwvZz4mI3hhOyAgICA8L2c+JiN4YTsgICAgPGcgaWQ9Inl0aWNrXzM3Ij4mI3hhOyAgICAgPGcgaWQ9ImxpbmUyZF8xMzMiPiYjeGE7ICAgICAgPGc+JiN4YTsgICAgICAgPHVzZSBzdHlsZT0ic3Ryb2tlOiAjMDAwMDAwOyBzdHJva2Utd2lkdGg6IDAuNiIgeT0iMTIuODcxMjI3IiB4PSI0My41ODE1NjMiIHhsaW5rOmhyZWY9IiNtY2ZhNjRmZDczMSIvPiYjeGE7ICAgICAgPC9nPiYjeGE7ICAgICA8L2c+JiN4YTsgICAgIDxnIGlkPSJsaW5lMmRfMTM0Ij4mI3hhOyAgICAgIDxnPiYjeGE7ICAgICAgIDx1c2Ugc3R5bGU9InN0cm9rZTogIzAwMDAwMDsgc3Ryb2tlLXdpZHRoOiAwLjYiIHk9IjEyLjg3MTIyNyIgeD0iMzIyLjU4MTU2MyIgeGxpbms6aHJlZj0iI200ZmM3NTdkZGMxIi8+JiN4YTsgICAgICA8L2c+JiN4YTsgICAgIDwvZz4mI3hhOyAgICA8L2c+JiN4YTsgICAgPGcgaWQ9Inl0aWNrXzM4Ij4mI3hhOyAgICAgPGcgaWQ9ImxpbmUyZF8xMzUiPiYjeGE7ICAgICAgPGc+JiN4YTsgICAgICAgPHVzZSBzdHlsZT0ic3Ryb2tlOiAjMDAwMDAwOyBzdHJva2Utd2lkdGg6IDAuNiIgeT0iOS4xNDM3NjgiIHg9IjQzLjU4MTU2MyIgeGxpbms6aHJlZj0iI21jZmE2NGZkNzMxIi8+JiN4YTsgICAgICA8L2c+JiN4YTsgICAgIDwvZz4mI3hhOyAgICAgPGcgaWQ9ImxpbmUyZF8xMzYiPiYjeGE7ICAgICAgPGc+JiN4YTsgICAgICAgPHVzZSBzdHlsZT0ic3Ryb2tlOiAjMDAwMDAwOyBzdHJva2Utd2lkdGg6IDAuNiIgeT0iOS4xNDM3NjgiIHg9IjMyMi41ODE1NjMiIHhsaW5rOmhyZWY9IiNtNGZjNzU3ZGRjMSIvPiYjeGE7ICAgICAgPC9nPiYjeGE7ICAgICA8L2c+JiN4YTsgICAgPC9nPiYjeGE7ICAgIDxnIGlkPSJ5dGlja18zOSI+JiN4YTsgICAgIDxnIGlkPSJsaW5lMmRfMTM3Ij4mI3hhOyAgICAgIDxnPiYjeGE7ICAgICAgIDx1c2Ugc3R5bGU9InN0cm9rZTogIzAwMDAwMDsgc3Ryb2tlLXdpZHRoOiAwLjYiIHk9IjYuMDk4MjEyIiB4PSI0My41ODE1NjMiIHhsaW5rOmhyZWY9IiNtY2ZhNjRmZDczMSIvPiYjeGE7ICAgICAgPC9nPiYjeGE7ICAgICA8L2c+JiN4YTsgICAgIDxnIGlkPSJsaW5lMmRfMTM4Ij4mI3hhOyAgICAgIDxnPiYjeGE7ICAgICAgIDx1c2Ugc3R5bGU9InN0cm9rZTogIzAwMDAwMDsgc3Ryb2tlLXdpZHRoOiAwLjYiIHk9IjYuMDk4MjEyIiB4PSIzMjIuNTgxNTYzIiB4bGluazpocmVmPSIjbTRmYzc1N2RkYzEiLz4mI3hhOyAgICAgIDwvZz4mI3hhOyAgICAgPC9nPiYjeGE7ICAgIDwvZz4mI3hhOyAgICA8ZyBpZD0idGV4dF8xMCI+JiN4YTsgICAgICYjeGE7ICAgICA8ZyB0cmFuc2Zvcm09InRyYW5zbGF0ZSg5Ljg1MTU2MyA5OC4yNjkyMTkpIHJvdGF0ZSgtOTApIHNjYWxlKDAuMTMgLTAuMTMpIj4mI3hhOyAgICAgIDxkZWZzPiYjeGE7ICAgICAgIDxwYXRoIHRyYW5zZm9ybT0ic2NhbGUoMC4wMTU2MjUpIiBkPSJNIDEwNjkgNDY2NiAmIzEwO0wgMTcwMyA0NjY2ICYjMTA7TCA4NTYgMzI1ICYjMTA7USA2OTEgLTUyMiAyOTggLTkwMSAmIzEwO1EgLTk0IC0xMjgxIC04MDAgLTEyODEgJiMxMDtMIC0xMDUwIC0xMjgxICYjMTA7TCAtOTQ3IC03NTAgJiMxMDtMIC03NTAgLTc1MCAmIzEwO1EgLTMyOCAtNzUwIC0xMDkgLTUwOSAmIzEwO1EgMTA5IC0yNjkgMjI1IDMyNSAmIzEwO0wgMTA2OSA0NjY2ICYjMTA7eiIgaWQ9IkRlamFWdVNhbnMtT2JsaXF1ZS00YSIvPiYjeGE7ICAgICAgIDxwYXRoIHRyYW5zZm9ybT0ic2NhbGUoMC4wMTU2MjUpIiBkPSJNIDEwODEgNDY2NiAmIzEwO0wgMjY5NCA0NjY2ICYjMTA7USAzMzUwIDQ2NjYgMzY3NSA0NDIyICYjMTA7USA0MDAwIDQxNzggNDAwMCAzNjg4ICYjMTA7USA0MDAwIDMyMzggMzcyMCAyOTExICYjMTA7USAzNDQxIDI1ODQgMjk4OCAyNTE2ICYjMTA7USAzMzc1IDI0MjggMzU2OSAyMTgxICYjMTA7USAzNzYzIDE5MzQgMzc2MyAxNTIyICYjMTA7USAzNzYzIDgxOSAzMjQyIDQwOSAmIzEwO1EgMjcyMiAwIDE4MTkgMCAmIzEwO0wgMTcyIDAgJiMxMDtMIDEwODEgNDY2NiAmIzEwO3omIzEwO00gMTIzNCAyMjI4ICYjMTA7TCA5MDMgNTE5ICYjMTA7TCAxOTE5IDUxOSAmIzEwO1EgMjQ5MSA1MTkgMjgwMCA3ODEgJiMxMDtRIDMxMDkgMTA0NCAzMTA5IDE1MjIgJiMxMDtRIDMxMDkgMTg5MSAyOTA0IDIwNTkgJiMxMDtRIDI3MDAgMjIyOCAyMjQ3IDIyMjggJiMxMDtMIDEyMzQgMjIyOCAmIzEwO3omIzEwO00gMTYwNiA0MTQ3ICYjMTA7TCAxMzMxIDI3NDEgJiMxMDtMIDIyNzIgMjc0MSAmIzEwO1EgMjc3NSAyNzQxIDMwNTggMjk1OSAmIzEwO1EgMzM0MSAzMTc4IDMzNDEgMzU2NiAmIzEwO1EgMzM0MSAzODY5IDMxNTAgNDAwOCAmIzEwO1EgMjk1OSA0MTQ3IDI1NDEgNDE0NyAmIzEwO0wgMTYwNiA0MTQ3ICYjMTA7eiIgaWQ9IkRlamFWdVNhbnMtT2JsaXF1ZS00MiIvPiYjeGE7ICAgICAgIDxwYXRoIHRyYW5zZm9ybT0ic2NhbGUoMC4wMTU2MjUpIiBkPSJNIDQ0NDcgNDMwNiAmIzEwO0wgNDMxOSAzNjQxICYjMTA7USA0MDE5IDM5NDQgMzY4MyA0MDkxICYjMTA7USAzMzQ3IDQyMzggMjk1NiA0MjM4ICYjMTA7USAyNDIyIDQyMzggMjAxNyAzOTgxICYjMTA7USAxNjEzIDM3MjUgMTMxOSAzMjAwICYjMTA7USAxMTMxIDI4NjMgMTAzMiAyNDg2ICYjMTA7USA5MzQgMjEwOSA5MzQgMTcyOCAmIzEwO1EgOTM0IDEwOTEgMTI2NCA3NTYgJiMxMDtRIDE1OTQgNDIyIDIyMjIgNDIyICYjMTA7USAyNjU2IDQyMiAzMDU2IDU2MSAmIzEwO1EgMzQ1NiA3MDAgMzgzNCA5NzggJiMxMDtMIDM2ODggMjMxICYjMTA7USAzMzE2IDcyIDI5MzYgLTkgJiMxMDtRIDI1NTYgLTkxIDIxNzUgLTkxICYjMTA7USAxMjc4IC05MSA3NzMgMzk2ICYjMTA7USAyNjkgODg0IDI2OSAxNzUzICYjMTA7USAyNjkgMjMwOSA0NjEgMjg0NiAmIzEwO1EgNjUzIDMzODQgMTAxMyAzODI4ICYjMTA7USAxMzk0IDQzMDAgMTg4MyA0NTI1ICYjMTA7USAyMzcyIDQ3NTAgMzAyMiA0NzUwICYjMTA7USAzNDIyIDQ3NTAgMzc4MCA0NjM5ICYjMTA7USA0MTM4IDQ1MjggNDQ0NyA0MzA2ICYjMTA7eiIgaWQ9IkRlamFWdVNhbnMtT2JsaXF1ZS00MyIvPiYjeGE7ICAgICAgIDxwYXRoIHRyYW5zZm9ybT0ic2NhbGUoMC4wMTU2MjUpIiBkPSJNIDEwODEgNDY2NiAmIzEwO0wgNDAzMSA0NjY2ICYjMTA7TCAzOTI4IDQxMzQgJiMxMDtMIDE2MDYgNDEzNCAmIzEwO0wgMTMzOCAyNzUzICYjMTA7TCAzNTY2IDI3NTMgJiMxMDtMIDM0NjMgMjIyMiAmIzEwO0wgMTIzNCAyMjIyICYjMTA7TCA5MDkgNTMxICYjMTA7TCAzMjg0IDUzMSAmIzEwO0wgMzE4MSAwICYjMTA7TCAxNzIgMCAmIzEwO0wgMTA4MSA0NjY2ICYjMTA7eiIgaWQ9IkRlamFWdVNhbnMtT2JsaXF1ZS00NSIvPiYjeGE7ICAgICAgPC9kZWZzPiYjeGE7ICAgICAgPHVzZSB0cmFuc2Zvcm09InRyYW5zbGF0ZSgwIDAuMDkzNzUpIiB4bGluazpocmVmPSIjRGVqYVZ1U2Fucy1PYmxpcXVlLTRhIi8+JiN4YTsgICAgICA8dXNlIHRyYW5zZm9ybT0idHJhbnNsYXRlKDI5LjQ5MjE4OCAtMTYuMzEyNSkgc2NhbGUoMC43KSIgeGxpbms6aHJlZj0iI0RlamFWdVNhbnMtT2JsaXF1ZS00MiIvPiYjeGE7ICAgICAgPHVzZSB0cmFuc2Zvcm09InRyYW5zbGF0ZSg3Ny41MTQ2NDggLTE2LjMxMjUpIHNjYWxlKDAuNykiIHhsaW5rOmhyZWY9IiNEZWphVnVTYW5zLU9ibGlxdWUtNDMiLz4mI3hhOyAgICAgIDx1c2UgdHJhbnNmb3JtPSJ0cmFuc2xhdGUoMTI2LjM5MTYwMiAtMTYuMzEyNSkgc2NhbGUoMC43KSIgeGxpbms6aHJlZj0iI0RlamFWdVNhbnMtT2JsaXF1ZS00NSIvPiYjeGE7ICAgICA8L2c+JiN4YTsgICAgPC9nPiYjeGE7ICAgPC9nPiYjeGE7ICAgPGcgaWQ9ImxpbmUyZF8xMzkiPiYjeGE7ICAgIDxwYXRoIHN0eWxlPSJmaWxsOiBub25lOyBzdHJva2U6ICMwMDAwODA7IHN0cm9rZS13aWR0aDogMS41OyBzdHJva2UtbGluZWNhcDogc3F1YXJlIiBjbGlwLXBhdGg9InVybCgjcDMxMjRmMDljOTApIiBkPSJNIDU2LjI2MzM4MSA0Mi4xMDI3MjYgJiMxMDtMIDgyLjQ5MDgwMSA0OS4xNTIwOTMgJiMxMDtMIDk3LjgzMjg1OCA1NS4zMjI1MTMgJiMxMDtMIDEwOC43MTgyMjEgNTguODU4OTMzICYjMTA7TCAxMTcuMTYxNTY0IDYwLjk1NjM4NCAmIzEwO0wgMTI0LjA2MDI3OCA2Mi4xNTgyNzQgJiMxMDtMIDE0Ni45OTUzNDcgNjcuNDMxOTUyICYjMTA7TCAxNTguNzMxMDQxIDcwLjM3NTk5MiAmIzEwO0wgMTYzLjQ2Njk4NiA3Mi4yMTk5MjcgJiMxMDtMIDE2Ny42NzU1NiA3My44Mzk2NTUgJiMxMDtMIDE2OS42MTY0MDQgNzQuNDA4Nzc5ICYjMTA7TCAxNzEuNDYyNTM1IDc1LjQxMzE0ICYjMTA7TCAxNzMuMjIyNzY3IDc2LjAwNDk2ICYjMTA7TCAxNzQuOTA0NzQgNzYuNzgwNjk0ICYjMTA7TCAxNzkuNTQzNzg4IDc4LjU4Nzg1OSAmIzEwO0wgMTgwLjk3MTgxMyA3OS4zMjQxOSAmIzEwO0wgMTgyLjM0Nzg5OCA3OS44NDU4MiAmIzEwO0wgMTgzLjY3NTY4OSA4MC42NTY1MjIgJiMxMDtMIDE4NC45NTg0NjEgODEuMTU5NTA0ICYjMTA7TCAxODYuMTk5MTY4IDgxLjk1NzgzNSAmIzEwO0wgMTg3LjQwMDQ4MSA4Mi40MDE4MDMgJiMxMDtMIDE4OC41NjQ4MjQgODMuMjEyODg1ICYjMTA7TCAxODkuNjk0NDA2IDgzLjc3MzQ2NiAmIzEwO0wgMTkxLjg1NzE3NSA4NC42MTcwOTYgJiMxMDtMIDE5Mi44OTM5MDIgODUuNDYxMTU5ICYjMTA7TCAxOTMuOTAyOTggODUuODIyOTQzICYjMTA7TCAxOTYuNzc4MTQ4IDg3LjQ5ODY5NSAmIzEwO0wgMTk5LjQ1MDE4NyA4OC43NTA1NjIgJiMxMDtMIDIwMC4zMDA1MTkgODkuMzg4MjA5ICYjMTA7TCAyMDEuMTMyMTYgODkuNzI0OTAxICYjMTA7TCAyMDEuOTQ1OTE2IDkwLjc0MzI2MSAmIzEwO0wgMjAzLjUyMjczNCA5MS41MDU1NjIgJiMxMDtMIDIwNC4yODcxNjggOTEuNDg0NzIxICYjMTA7TCAyMDUuMDM2NDYzIDkyLjE5OTg0OCAmIzEwO0wgMjA1Ljc3MTIwOCA5MS4yMzIwNzQgJiMxMDtMIDIwNi40OTE5NTYgOTAuOTA4MDE2ICYjMTA7TCAyMDcuMTk5MjMzIDkyLjQyODc3MSAmIzEwO0wgMjA3Ljg5MzUzIDkzLjI2NDQ3NCAmIzEwO0wgMjA4LjU3NTMxOCA5My41MjE4NjggJiMxMDtMIDIwOS45MDMxMDkgOTQuOTkzMDQ0ICYjMTA7TCAyMTAuNTQ5OTMxIDk1LjI2Mjg3ICYjMTA7TCAyMTEuMTg1ODgyIDk1LjAwMzg3MiAmIzEwO0wgMjExLjgxMTMyIDk1Ljk0MTI3OCAmIzEwO0wgMjEyLjQyNjU4OCA5NS40MDExNTggJiMxMDtMIDIxMy4wMzIwMTIgOTYuNDQzNjMyICYjMTA7TCAyMTMuNjI3OTAxIDk2LjcyOTUxOSAmIzEwO0wgMjE0Ljc5MjI0NCA5Ny45ODk3MSAmIzEwO0wgMjE1LjM2MTI1IDk4LjMxNTM4NSAmIzEwO0wgMjE1LjkyMTgyNiA5OC4yNjg0NTUgJiMxMDtMIDIxNi40NzQyMTggOTguNzM2NTY0ICYjMTA7TCAyMTcuMDE4NjYxIDk4LjY0OTQ1NSAmIzEwO0wgMjE3LjU1NTM4MiA5NS4zNjA0OTcgJiMxMDtMIDIxOC4wODQ1OTUgOTYuNjQ0OTg5ICYjMTA7TCAyMTguNjA2NTA5IDk3LjAzMzMwMSAmIzEwO0wgMjE5LjEyMTMyMiA5OC42MjgxMDggJiMxMDtMIDIxOS42MjkyMjUgOTkuNDI0NTEyICYjMTA7TCAyMjAuMTMwNCA5OS4yODIyOTUgJiMxMDtMIDIyMS4xMTMyNjUgMTAwLjg1ODQ3OSAmIzEwO0wgMjIyLjA3MTI0NCAxMDEuNzIxNjQ3ICYjMTA7TCAyMjIuNTQxMjkgMTAxLjkxMDYyNyAmIzEwO0wgMjIzLjAwNTU2OCAxMDIuNDMzMTQgJiMxMDtMIDIyMy40NjQyMTggMTAyLjI4OTUwMiAmIzEwO0wgMjIzLjkxNzM3NSAxMDIuMzEzOTU3ICYjMTA7TCAyMjQuMzY1MTY5IDEwMi43MzEwODggJiMxMDtMIDIyNC44MDc3MjYgMTAyLjkxNzI3OCAmIzEwO0wgMjI1LjI0NTE2NiAxMDMuNDQ2MjY0ICYjMTA7TCAyMjUuNjc3NjA3IDEwMy43NTMyNjEgJiMxMDtMIDIyNi4xMDUxNjIgMTAzLjg3ODQ5OCAmIzEwO0wgMjI2Ljk0NjA0NCAxMDQuNjI1NjYxICYjMTA7TCAyMjcuMzU5NTggMTA0LjczMTYwNCAmIzEwO0wgMjI3Ljc2ODY0NiAxMDMuNDM1MDEgJiMxMDtMIDIyOC4xNzMzMzYgMTAzLjI1ODQxMSAmIzEwO0wgMjI4LjU3Mzc0MyAxMDQuMTM2NDk0ICYjMTA7TCAyMjkuMzYyMDY3IDEwNS4xMTg0MjcgJiMxMDtMIDIyOS43NTAxNTQgMTA0LjcyNDAzMSAmIzEwO0wgMjMwLjg5MTA5IDEwNi43NTcyMjEgJiMxMDtMIDIzMS4yNjM4ODMgMTA2LjYxMzQyOSAmIzEwO0wgMjMxLjYzMzAzOSAxMDYuMjk3ODIzICYjMTA7TCAyMzEuOTk4NjI4IDEwNy4zMTI0NyAmIzEwO0wgMjMyLjM2MDcxOCAxMDcuNzM1Njk4ICYjMTA7TCAyMzIuNzE5Mzc3IDEwNy41OTYzNjEgJiMxMDtMIDIzMy4wNzQ2NjcgMTA4LjI5MTUzNSAmIzEwO0wgMjMzLjQyNjY1MyAxMDguNDg3OTYzICYjMTA7TCAyMzMuNzc1Mzk0IDEwNy4xNTU2MTkgJiMxMDtMIDIzNC4xMjA5NSAxMDguMTkyNTYzICYjMTA7TCAyMzQuNDYzMzggMTA4LjYzODI2OCAmIzEwO0wgMjM0LjgwMjczOCAxMDkuMzA1OTEyICYjMTA7TCAyMzUuMTM5MDc5IDEwOS4wODk5MSAmIzEwO0wgMjM1LjgwMjkyNCAxMDkuMDU2NTY0ICYjMTA7TCAyMzYuMTMwNTI5IDExMC4wMTI0MzQgJiMxMDtMIDIzNi40NTUzMjIgMTEwLjA4Mjg0NCAmIzEwO0wgMjM2Ljc3NzM1MSAxMDguMzg4MDkyICYjMTA7TCAyMzcuMDk2NjYyIDEwOC44MTYwMDYgJiMxMDtMIDIzNy40MTMzMDIgMTA5Ljc4NzUxOCAmIzEwO0wgMjM3LjcyNzMxMyAxMTAuMTk5Njk3ICYjMTA7TCAyMzguMDM4NzQgMTEwLjk1MTgzMSAmIzEwO0wgMjM4LjM0NzYyNSAxMTEuMzEzOTk3ICYjMTA7TCAyMzguNjU0MDA4IDExMS4zOTk5MDIgJiMxMDtMIDIzOC45NTc5MzEgMTExLjE2ODQwNiAmIzEwO0wgMjM5LjI1OTQzMiAxMTEuMTMwMTY0ICYjMTA7TCAyMzkuODU1MzIxIDEwOS41MjYzNiAmIzEwO0wgMjQwLjE0OTc4MyAxMDkuMjg0ODI1ICYjMTA7TCAyNDAuNDQxOTcxIDEwNi4zNjE3NTcgJiMxMDtMIDI0MC43MzE5MiAxMDguMzUxNzk0ICYjMTA7TCAyNDEuMDE5NjY0IDEwOS4yNDI0NjIgJiMxMDtMIDI0MS4zMDUyMzcgMTEwLjc2MDU1OSAmIzEwO0wgMjQxLjU4ODY3IDExMS4xOTU3OTQgJiMxMDtMIDI0Mi4xNDkyNDYgMTEyLjY3Mzc3MyAmIzEwO0wgMjQyLjcwMTYzOCAxMTIuODU2NjEzICYjMTA7TCAyNDIuOTc0ODM5IDExMi43NjkyOTUgJiMxMDtMIDI0My4yNDYwODEgMTEyLjMxMTA4NyAmIzEwO0wgMjQzLjUxNTM5MyAxMTMuMDQyOTczICYjMTA7TCAyNDMuNzgyODAyIDExMi44ODYxNTkgJiMxMDtMIDI0NC4zMTIwMTUgMTEzLjk5NTU5MiAmIzEwO0wgMjQ0LjU3Mzg3MiAxMTIuNjM0ODYzICYjMTA7TCAyNDQuODMzOTI5IDExMy4wOTE4MzYgJiMxMDtMIDI0NS4wOTIyMTIgMTEzLjI2MDA0MyAmIzEwO0wgMjQ1LjA5MjIxMiAxMDYuOTU5NDQxICYjMTA7TCAyNDUuMzQ4NzQyIDEwOS44NzY1NTkgJiMxMDtMIDI0NS42MDM1NDYgMTExLjM5MDIxNyAmIzEwO0wgMjQ1Ljg1NjY0NSAxMTMuNjQ5OTU2ICYjMTA7TCAyNDYuNjA1OTQgMTE3LjE2MjcxNyAmIzEwO0wgMjQ3LjA5NzM1MiAxMTQuMjEzMjk1ICYjMTA7TCAyNDcuMzQwNjg1IDExNS4wNzAzOTIgJiMxMDtMIDI0Ny41ODI0NjMgMTE2LjkyMjg3NSAmIzEwO0wgMjQ4LjA2MTQzNCAxMTcuMzk5NzYzICYjMTA7TCAyNDguMjk4NjY0IDExOC45MTA3NjcgJiMxMDtMIDI0OC41MzQ0MTcgMTE5LjM4OTkzMiAmIzEwO0wgMjQ4Ljc2ODcxIDExOS41MzY0NTUgJiMxMDtMIDI0OS4wMDE1NjEgMTIwLjY2MzgxMSAmIzEwO0wgMjQ5LjIzMjk4OCAxMjAuNTk0NTM2ICYjMTA7TCAyNDkuNDYzMDA4IDExOC4zNTI2MjYgJiMxMDtMIDI0OS42OTE2MzggMTIwLjAyOTk2NiAmIzEwO0wgMjQ5LjkxODg5NSAxMTkuNDgyNjg0ICYjMTA7TCAyNTAuMTQ0Nzk1IDExNy40MDE5MDUgJiMxMDtMIDI1MC4zNjkzNTQgMTE4LjIzNTE0OCAmIzEwO0wgMjUwLjU5MjU4OSAxMTkuODU3MDkgJiMxMDtMIDI1MC44MTQ1MTQgMTE5LjEzMjEyMSAmIzEwO0wgMjUxLjAzNTE0NiAxMjAuMjg1OTExICYjMTA7TCAyNTEuMjU0NDk4IDExOS4zMTk4MjYgJiMxMDtMIDI1MS40NzI1ODYgMTIwLjc2NjI5NiAmIzEwO0wgMjUxLjY4OTQyNCAxMjEuMzEwMTY3ICYjMTA7TCAyNTEuOTA1MDI3IDEyMS40ODUzMjEgJiMxMDtMIDI1Mi4xMTk0MDggMTIwLjUwNjgwNiAmIzEwO0wgMjUyLjMzMjU4MiAxMjEuNTUxODA3ICYjMTA7TCAyNTIuNzU1MzU5IDEyMS40NzgzMjcgJiMxMDtMIDI1Mi45NjQ5ODkgMTIxLjU3NjYzNyAmIzEwO0wgMjUzLjE3MzQ2NCAxMjIuMDEyMzI1ICYjMTA7TCAyNTMuMzgwNzk3IDEyMi43MjMyMzYgJiMxMDtMIDI1My41ODcgMTIyLjkxMTE5NCAmIzEwO0wgMjUzLjc5MjA4NiAxMjIuODExOTU2ICYjMTA7TCAyNTMuOTk2MDY2IDEyMS41OTg4OSAmIzEwO0wgMjU0LjE5ODk1MiAxMjIuNDcwNjg5ICYjMTA7TCAyNTQuNDAwNzU2IDEyMS4zNjMyNCAmIzEwO0wgMjU0LjgwMTE2MyAxMjMuNDYzNDgxICYjMTA7TCAyNTUuMTk3Mzc4IDEyNC4wODU1MTQgJiMxMDtMIDI1NS4zOTM5NDEgMTIzLjY3MjY5NSAmIzEwO0wgMjU1LjU4OTQ4NyAxMjMuOTU5MDY0ICYjMTA7TCAyNTUuOTc3NTc0IDEyMi42NjI0MjggJiMxMDtMIDI1Ni4xNzAxMzUgMTIzLjgwOTc3OCAmIzEwO0wgMjU2LjM2MTcyMSAxMjMuOTI3ODgzICYjMTA7TCAyNTYuNTUyMzQyIDEyNC41NjQxNjMgJiMxMDtMIDI1Ni43NDIwMDggMTIzLjkxOTI1MSAmIzEwO0wgMjU2LjkzMDcyNyAxMjIuODU1OTExICYjMTA7TCAyNTcuMTE4NTEgMTE5LjExMDU5ICYjMTA7TCAyNTcuNjc2MzMxIDEyMi4yODQzOTcgJiMxMDtMIDI1Ny44NjA0NTkgMTIxLjI3NzgzOSAmIzEwO0wgMjU4LjA0MzY5NSAxMjIuMDg2NDcxICYjMTA7TCAyNTguMjI2MDQ4IDEyMy41NTI0NjcgJiMxMDtMIDI1OC41ODgxMzggMTIyLjEwOTAwMyAmIzEwO0wgMjU4Ljc2Nzg5MiAxMjMuMjExNzYzICYjMTA7TCAyNTguOTQ2Nzk3IDEyMi41NTM2ODggJiMxMDtMIDI1OS4xMjQ4NTkgMTI0LjA1NzAyMiAmIzEwO0wgMjU5LjMwMjA4NyAxMjQuMjY0NzUxICYjMTA7TCAyNTkuNDc4NDg5IDEyMy43MjM3ODMgJiMxMDtMIDI1OS42NTQwNzMgMTI0LjMxNjAwMyAmIzEwO0wgMjU5LjgyODg0NSAxMjMuNzE0MjYxICYjMTA7TCAyNjAuNTE5OTcyIDEyNi40OTQ2NDEgJiMxMDtMIDI2MC42OTA4IDEyNi4xMzU4MzQgJiMxMDtMIDI2MC44NjA4NTkgMTI3Ljg1MjU2NSAmIzEwO0wgMjYxLjAzMDE1OCAxMjguMTM0Mzg5ICYjMTA7TCAyNjEuMTk4NzAyIDEyNy4wMDQ0MjcgJiMxMDtMIDI2MS4zNjY0OTkgMTI3LjM2NzQzMiAmIzEwO0wgMjYxLjUzMzU1NSAxMjYuOTc3MTcxICYjMTA7TCAyNjEuODY1NDcxIDEyNC4xNTMzNDEgJiMxMDtMIDI2Mi4zNTc5NDkgMTI3LjI3NDAwNSAmIzEwO0wgMjYyLjUyMDY5NCAxMjcuMzA4NTcgJiMxMDtMIDI2Mi42ODI3NDIgMTI4LjQ0OTY0ICYjMTA7TCAyNjIuODQ0MDk5IDEyOC4xNTA1NTEgJiMxMDtMIDI2My4wMDQ3NzEgMTI2LjU3Njg0MSAmIzEwO0wgMjYzLjE2NDc2NCAxMjYuMjY0NzYyICYjMTA7TCAyNjMuMzI0MDgyIDEyMy43NjEyNjIgJiMxMDtMIDI2My40ODI3MzMgMTI0Ljc4MzYwMSAmIzEwO0wgMjYzLjY0MDcyMiAxMjYuODk1MzI0ICYjMTA7TCAyNjMuNzk4MDUzIDEyNy4wODcyNjggJiMxMDtMIDI2My45NTQ3MzMgMTI2LjIxMzkyOCAmIzEwO0wgMjY0LjI2NjE2IDEyOC4xMjYyNTggJiMxMDtMIDI2NC41NzUwNDUgMTI3LjM4MzI2NCAmIzEwO0wgMjY0LjcyODU0NyAxMjcuNjk5MTQxICYjMTA7TCAyNjQuODgxNDI5IDEyNy4zNjQyNjkgJiMxMDtMIDI2NS4wMzM2OTUgMTI4LjY3NDU0OSAmIzEwO0wgMjY1LjE4NTM1MSAxMjguNzE4NjQ0ICYjMTA7TCAyNjUuMzM2NDAyIDEyNy45MjcyNjMgJiMxMDtMIDI2NS40ODY4NTIgMTI5LjEyNjc0OCAmIzEwO0wgMjY1Ljc4NTk3IDEyOC45MDc2MTIgJiMxMDtMIDI2NS45MzQ2NDYgMTI3LjkyMTMzICYjMTA7TCAyNjYuMDgyNzQxIDEyNy45OTQyMjIgJiMxMDtMIDI2Ni4yMzAyNTkgMTI3LjgxNTE3MSAmIzEwO0wgMjY2LjUyMzU3OSAxMjAuNDg2NTc2ICYjMTA7TCAyNjYuNjY5MzkxIDEyMy42NzEwNTggJiMxMDtMIDI2Ni44MTQ2NDMgMTIyLjY1ODMyMSAmIzEwO0wgMjY3LjEwMzQ4NiAxMjYuOTc2MTc1ICYjMTA7TCAyNjcuNjc0NjM5IDEzMC41ODY5OTkgJiMxMDtMIDI2Ny44MTYwOSAxMzAuODA2NTQzICYjMTA7TCAyNjcuODE2MDkgMTIxLjE0MDY4ICYjMTA7TCAyNjguMzc2NjY2IDEyOC42MzkwOTkgJiMxMDtMIDI2OC41MTU1MjIgMTI5LjA2NDExNyAmIzEwO0wgMjY4LjY1Mzg3IDEyOC41OTYxMjcgJiMxMDtMIDI2OC45MjkwNTggMTMwLjA3NzUxNiAmIzEwO0wgMjY5LjA2NTkwNSAxMzAuMjQ2NzkyICYjMTA7TCAyNjkuMjAyMjU5IDEzMS43ODA4ODMgJiMxMDtMIDI2OS4zMzgxMjMgMTMxLjQ2NjkyMSAmIzEwO0wgMjY5LjYwODM5NyAxMjguNzgwNDM0ICYjMTA7TCAyNjkuNzQyODEzIDEyOC4zNDIyMDUgJiMxMDtMIDI3MC4wMTAyMjIgMTIzLjkxMTM0NyAmIzEwO0wgMjcwLjI3NTc1NCAxMjcuMDk3NzI0ICYjMTA7TCAyNzAuNjcwNTkgMTMxLjE2Mjg1OCAmIzEwO0wgMjcwLjgwMTI5MiAxMzEuMzg5MDI1ICYjMTA7TCAyNzEuMDYxMzUgMTMzLjEyNzgxNiAmIzEwO0wgMjcxLjQ0ODExNCAxMjkuODQ0NTgyICYjMTA7TCAyNzEuNTc2MTYzIDEzMC45OTU5NjUgJiMxMDtMIDI3MS44MzA5NjYgMTI2LjI4MjY5NiAmIzEwO0wgMjcyLjMzNTQ4MiAxMzEuMzY5MjM4ICYjMTA7TCAyNzIuNTg1MjQgMTMyLjA4MjMyICYjMTA7TCAyNzIuODMzMzYgMTEzLjc4NzQ2NCAmIzEwO0wgMjczLjA3OTg2NCAxMTkuMjg2MTAzICYjMTA7TCAyNzMuMjAyNTE2IDEyMC4wNjEyNTMgJiMxMDtMIDI3My40NDY2MzQgMTIzLjkyNjg1OSAmIzEwO0wgMjczLjU2ODEwNSAxMjQuNTE2NjUxICYjMTA7TCAyNzMuODA5ODgzIDEyOC42MjA3NDQgJiMxMDtMIDI3My45MzAxOTUgMTI5LjMzMTg1NyAmIzEwO0wgMjc0LjE2OTY3OCAxMzAuODQ3MTk2ICYjMTA7TCAyNzQuMjg4ODU0IDEzMC43ODk4MjkgJiMxMDtMIDI3NC40MDc2NTUgMTMyLjUxMDc1ICYjMTA7TCAyNzQuNTI2MDg0IDEzMi4xMDM2MjcgJiMxMDtMIDI3NC42NDQxNDQgMTMyLjkyNDg5ICYjMTA7TCAyNzQuNzYxODM3IDEzMi4zODg0OSAmIzEwO0wgMjc0Ljk5NjEzIDEzMy45NzA4OTQgJiMxMDtMIDI3NS4xMTI3MzUgMTMzLjQ4Mjc0NiAmIzEwO0wgMjc1LjIyODk4MSAxMzQuMjE1ODI1ICYjMTA7TCAyNzUuNTc1NTkyIDEzMC4zMjI3MjEgJiMxMDtMIDI3NS44MDQ5MTUgMTM0LjE3NDg5MyAmIzEwO0wgMjc1LjkxOTA1OCAxMzQuNDQ1NDg1ICYjMTA7TCAyNzYuMDMyODU3IDEzMi44MDI4ICYjMTA7TCAyNzYuMTQ2MzE1IDEyMC41MTkzMTEgJiMxMDtMIDI3Ni4yNTk0MzMgMTIxLjgyNzYgJiMxMDtMIDI3Ni41OTY3NzQgMTI5LjUxOTg0NCAmIzEwO0wgMjc2LjkzMTEzNSAxMzIuOTkzMTQ3ICYjMTA7TCAyNzcuMDQxOTM1IDEzMi45MTcwODMgJiMxMDtMIDI3Ny4zNzI0MDEgMTM0Ljk2NzYyMiAmIzEwO0wgMjc3LjQ4MTkxOCAxMzUuMDQzNDggJiMxMDtMIDI3Ny41OTExMTkgMTMzLjY3NDg4NyAmIzEwO0wgMjc3LjgwODU4MSAxMzUuMTM1MzcxICYjMTA7TCAyNzcuOTE2ODQ0IDEzNC42MDQxNzggJiMxMDtMIDI3OC4wMjQ3OTkgMTMyLjI4OTgwMSAmIzEwO0wgMjc4LjIzOTc5IDEzNS4zNTQwMTEgJiMxMDtMIDI3OC4zNDY4MjggMTM2LjE3MjM5NiAmIzEwO0wgMjc4LjQ1MzU2NSAxMzYuMDQzNDI0ICYjMTA7TCAyNzguNjY2MTQgMTI4LjAyMTA3NCAmIzEwO0wgMjc4Ljc3MTk4MSAxMjguNzU5MTE5ICYjMTA7TCAyNzkuMTkyNDA5IDEzNS4zMDE0OCAmIzEwO0wgMjc5LjI5Njc5IDEzNi42NzI0MiAmIzEwO0wgMjc5LjQwMDg4NCAxMzYuMjk2NzY3ICYjMTA7TCAyNzkuNjA4MjE3IDEzNi45MDE1MDUgJiMxMDtMIDI3OS44MTQ0MiAxMjguMzg1MDI1ICYjMTA7TCAyODAuMDE5NTA2IDEzMi42ODkwMTkgJiMxMDtMIDI4MC4xMjE2MzMgMTMxLjcwODYxNSAmIzEwO0wgMjgwLjMyNTA2NSAxMzQuNDczODA5ICYjMTA7TCAyODAuNDI2MzcyIDEzMy42MTIyODkgJiMxMDtMIDI4MC41Mjc0MDggMTM0LjA5NTA5NiAmIzEwO0wgMjgwLjkyODg3OCAxMzcuNTUwMjc2ICYjMTA7TCAyODEuMDI4NTg0IDEzNS40MDAxMzUgJiMxMDtMIDI4MS4zMjYxMzMgMTM3LjkxNzcyNSAmIzEwO0wgMjgxLjUyMzIwNyAxMzguOTI0NTY1ICYjMTA7TCAyODEuNjIxMzYxIDEzOC43MTc2MTQgJiMxMDtMIDI4MS43MTkyNiAxMzUuNjc1OTY2ICYjMTA7TCAyODEuODE2OTA3IDEzNS43MTgzNDMgJiMxMDtMIDI4MS45MTQzMDMgMTM3LjIxOTAxMyAmIzEwO0wgMjgyLjAxMTQ0OCAxMzUuOTYxNDA2ICYjMTA7TCAyODIuMTA4MzQ1IDEzNi4yNDQwMjYgJiMxMDtMIDI4Mi4yMDQ5OTQgMTM3Ljg0OTcyMSAmIzEwO0wgMjgyLjMwMTM5NyAxMzIuOTIzNzUyICYjMTA7TCAyODIuNDkzNDcgMTM0LjYzNzQ4NiAmIzEwO0wgMjgyLjY4NDU3MiAxMzQuMDU1NjYxICYjMTA7TCAyODIuNzc5NzYyIDEzNC4yODUzMjQgJiMxMDtMIDI4Mi45Njk0MjggMTM2LjEwODk5MiAmIzEwO0wgMjgzLjE1ODE0NyAxMzUuNjM2NDU3ICYjMTA7TCAyODMuMjUyMTU1IDEzNS40NDQ4MiAmIzEwO0wgMjgzLjQzOTQ3MyAxMzguNjcyODI4ICYjMTA7TCAyODMuNjI1ODY5IDEzNS4xNDYxNDIgJiMxMDtMIDI4My44MTEzNSAxMzguMDk1MjU3ICYjMTA7TCAyODMuOTk1OTI3IDEzNS41MDQxMjIgJiMxMDtMIDI4NC4wODc4NzkgMTM0LjQ2NjExMyAmIzEwO0wgMjg0LjE3OTYwOCAxMzYuMDM0OTU1ICYjMTA7TCAyODQuMzYyNDAxIDEzNC45NjY4NzQgJiMxMDtMIDI4NC45MDU1NDIgMTQwLjU5NDk4MiAmIzEwO0wgMjg0Ljk5NTMxMiAxNDAuMTk1NjY5ICYjMTA7TCAyODUuMDg0ODcgMTQxLjY4MzMxMiAmIzEwO0wgMjg1LjE3NDIxNyAxNDAuNDczMzUxICYjMTA7TCAyODUuMjYzMzUzIDEzMi44Mzc2NTQgJiMxMDtMIDI4NS4zNTIyNzkgMTMzLjY2MDA4MSAmIzEwO0wgMjg1LjQ0MDk5NyAxMzQuNDM4NCAmIzEwO0wgMjg1LjUyOTUwNyAxMTYuMzU1MzkyICYjMTA7TCAyODUuNjE3ODExIDExNy40MDcyOTEgJiMxMDtMIDI4NS44ODE0OTMgMTI4Ljc5MjczMyAmIzEwO0wgMjg2LjMxNjkxOSAxMzYuMjE2MDgxICYjMTA7TCAyODYuNDAzNDA3IDEzNC44MjQxOCAmIzEwO0wgMjg2LjU3NTc5MSAxMzcuNTYxNzc4ICYjMTA7TCAyODYuNjYxNjg5IDEzNy40NTgxODYgJiMxMDtMIDI4Ni44MzI5MDMgMTM4LjU4MTc2MSAmIzEwO0wgMjg2LjkxODIyIDEzOC40OTQ2NDQgJiMxMDtMIDI4Ny4wMDMzNDUgMTQwLjAxMzk2MSAmIzEwO0wgMjg3LjA4ODI3OSAxMzkuMTQ5OTg0ICYjMTA7TCAyODcuMjU3NTc4IDE0MC43MTk4NiAmIzEwO0wgMjg3LjQyNjEyMiAxMzUuODQ0MDQzICYjMTA7TCAyODcuNTEwMTE0IDEzNy44NDg5OTYgJiMxMDtMIDI4Ny41OTM5MTkgMTM2LjU1MzUyMSAmIzEwO0wgMjg3LjY3NzU0IDEzNi44NTkyMTYgJiMxMDtMIDI4Ny45MjcyOTcgMTM5Ljc0NjI2ICYjMTA7TCAyODguMDEwMTg1IDEzOS4yMzIyNTIgJiMxMDtMIDI4OC4xNzU0MTcgMTQxLjk1MzU2MiAmIzEwO0wgMjg4LjQyMTkyMSAxMzkuMzA3MzEgJiMxMDtMIDI4OC41MDM3MzMgMTQxLjcyMTc4OCAmIzEwO0wgMjg4LjU4NTM2OSAxNDEuNTA3Mjc1ICYjMTA7TCAyODguNjY2ODI5IDE0MS40NzQ4ODYgJiMxMDtMIDI4OC45MTAxNjIgMTM0Ljk4NTQ5NiAmIzEwO0wgMjg4Ljk5MDkyNyAxMzUuOTcyNTY1ICYjMTA7TCAyODkuMDcxNTE5IDEzNS42ODA5NzMgJiMxMDtMIDI4OS4xNTE5NCAxMzQuODMzNDUyICYjMTA7TCAyODkuMjMyMTkxIDEzNC44OTY2OTggJiMxMDtMIDI4OS40NzE5MjcgMTM5LjM5NjU0MiAmIzEwO0wgMjg5LjU1MTUwMiAxMzkuNzU1NDM4ICYjMTA7TCAyODkuNzEwMTUzIDE0MS4wNjU2MDMgJiMxMDtMIDI4OS44NjgxNDIgMTM4LjE3MjU4MyAmIzEwO0wgMjg5Ljk0Njg4OSAxMzguNjI5MTgxICYjMTA7TCAyOTAuMDI1NDczIDEzOS43NTEyNTYgJiMxMDtMIDI5MC4xODIxNTMgMTM0LjMxODcwNiAmIzEwO0wgMjkwLjI2MDI1MSAxMzUuMzAwNTQgJiMxMDtMIDI5MC4zMzgxODcgMTIyLjQzODIyMSAmIzEwO0wgMjkwLjQxNTk2MyAxMjQuMzU2MDEgJiMxMDtMIDI5MC42NDgzMzggMTMzLjMyNzc5NCAmIzEwO0wgMjkxLjEwODg0OSAxMzkuODUxMDk2ICYjMTA7TCAyOTEuMTg1MDU4IDEzNy41MjkxNzggJiMxMDtMIDI5MS4yNjExMTUgMTIxLjcyMzY2MiAmIzEwO0wgMjkxLjMzNzAxOSAxMjIuNzQzNDk0ICYjMTA7TCAyOTIuMDEzMzkgMTQxLjIyOTY4NCAmIzEwO0wgMjkyLjE2MjA2NiAxNDIuNDU2MDkyICYjMTA7TCAyOTIuMzEwMTYxIDEzOS45MzM4ODcgJiMxMDtMIDI5Mi40NTc2NzkgMTQzLjQ5MjQ0NyAmIzEwO0wgMjkyLjUzMTIyMiAxNDMuNTMwMDUzICYjMTA7TCAyOTIuNjc3ODgyIDE0NC42ODM5NzkgJiMxMDtMIDI5Mi44OTY4MTEgMTQzLjQ2MTg5OSAmIzEwO0wgMjkyLjk2OTUwNyAxNDIuOTAxNzggJiMxMDtMIDI5My4xMTQ0ODEgMTQ0Ljg4ODg0NCAmIzEwO0wgMjkzLjI1ODkwMiAxNDUuMzMwMzExICYjMTA7TCAyOTMuNDAyNzczIDE0NS4wNjI4MzMgJiMxMDtMIDI5My40NzQ1MDQgMTQ1LjUyMTI3NSAmIzEwO0wgMjkzLjU0NjEgMTQ0Ljg4OTY5NyAmIzEwO0wgMjkzLjYxNzU2IDE0NS44NjUxMjggJiMxMDtMIDI5My42ODg4ODYgMTQ0Ljk0Njk3NCAmIzEwO0wgMjkzLjc2MDA3NyAxNDUuNDczNzk3ICYjMTA7TCAyOTMuODMxMTM0IDE0NC44MDQ1NTIgJiMxMDtMIDI5My45MDIwNTkgMTQ1LjE1MDMxMiAmIzEwO0wgMjkzLjk3Mjg1MSAxNDQuNjAwMzg4ICYjMTA7TCAyOTQuMTE0MDM4IDEzOS44MDU3NDUgJiMxMDtMIDI5NC4zMjQ4MzYgMTQ0LjY4OTM0MiAmIzEwO0wgMjk0LjM5NDg0MiAxNDIuMDc2NTI5ICYjMTA7TCAyOTQuNTM0NDY2IDE0NS4xMzkzODkgJiMxMDtMIDI5NC42MDQwODYgMTQ1LjA1Mjc5NiAmIzEwO0wgMjk0Ljc0Mjk0MiAxNDMuNTEzNjk4ICYjMTA7TCAyOTQuODgxMjkgMTQ2LjI5MDA3OSAmIzEwO0wgMjk1LjAxOTEzNCAxNDMuMjczOTY0ICYjMTA7TCAyOTUuMDg3ODY4IDE0My42ODgxMjkgJiMxMDtMIDI5NS4xNTY0NzggMTQzLjk2NDIyNCAmIzEwO0wgMjk1LjIyNDk2MyAxNDEuODk0NzE3ICYjMTA7TCAyOTUuMjkzMzI1IDE0NC4yNjk0MjYgJiMxMDtMIDI5NS4zNjE1NjMgMTQyLjg4MDM3NSAmIzEwO0wgMjk1LjQyOTY3OSAxNDIuMDczMzMgJiMxMDtMIDI5NS40OTc2NzIgMTQzLjA2NjQ3OSAmIzEwO0wgMjk1LjU2NTU0MyAxNDEuNzgzOTU5ICYjMTA7TCAyOTUuNzY4NDI5IDE0NC41NTMxMzcgJiMxMDtMIDI5NS45MDMwODUgMTQ2LjczODg2NyAmIzEwO0wgMjk2LjAzNzI2MyAxNDQuOTM3MTIyICYjMTA7TCAyOTYuMjM3NjQyIDE0OS4wNzQyNzggJiMxMDtMIDI5Ni4zNzA2NDEgMTQ2LjQ5Njk5NSAmIzEwO0wgMjk2LjQzNjk2NSAxNDguMjU5NzY3ICYjMTA7TCAyOTYuNTAzMTc0IDE0Ny41NzgwODQgJiMxMDtMIDI5Ni41NjkyNjcgMTQ3LjY4MzU1OSAmIzEwO0wgMjk2LjYzNTI0NCAxNDcuMDcwNjQyICYjMTA7TCAyOTYuNzAxMTA3IDE0Ny40NjI1OCAmIzEwO0wgMjk2Ljc2Njg1NiAxNDYuOTc4NjgyICYjMTA7TCAyOTYuODMyNDkgMTQ3LjI5MTEyNiAmIzEwO0wgMjk2Ljg5ODAxMSAxNDQuMTU1NzY2ICYjMTA7TCAyOTYuOTYzNDE4IDE0Ni45ODkxMjIgJiMxMDtMIDI5Ny4wMjg3MTIgMTQ2LjkxMjE5NCAmIzEwO0wgMjk3LjA5Mzg5NCAxNDcuNjU5NzU5ICYjMTA7TCAyOTcuMDkzODk0IDEyMy42NTkxNjQgJiMxMDtMIDI5Ny4xNTg5NjQgMTMyLjMyOTk4OSAmIzEwO0wgMjk3LjI4ODc3IDEzOS41MjE4NDggJiMxMDtMIDI5Ny40MTgxMzEgMTQyLjU3NzM0NiAmIzEwO0wgMjk3LjYxMTM0OCAxNDguNjg2MTcyICYjMTA7TCAyOTcuODAzNTgzIDE0OC4zNTA5OSAmIzEwO0wgMjk3Ljg2NzQ0NCAxNDUuNjU5NzI1ICYjMTA7TCAyOTcuOTMxMTk5IDE0Ni42NDc5MjggJiMxMDtMIDI5Ny45OTQ4NDYgMTQ2Ljc4NTQwNyAmIzEwO0wgMjk4LjA1ODM4NiAxNDcuNzEwNzIgJiMxMDtMIDI5OC4xODUxNDcgMTM3LjMzNTkzICYjMTA7TCAyOTguMzc0NDk2IDE0NS4wMzYzNDEgJiMxMDtMIDI5OC40Mzc0MDMgMTQyLjgyMTQ3NyAmIzEwO0wgMjk4LjUwMDIwNSAxNDQuNDIwNjczICYjMTA7TCAyOTguNTYyOTAyIDE0NC45OTExMjkgJiMxMDtMIDI5OC42MjU0OTcgMTQ0LjQ4NDc4OCAmIzEwO0wgMjk4LjgxMjY2IDE0OS43Mjk2NzMgJiMxMDtMIDI5OC44NzQ4NDMgMTUwLjA2MTY0OCAmIzEwO0wgMjk5LjA2MDc4IDE1MS44OTQzMjEgJiMxMDtMIDI5OS4xMjI1NTcgMTQ0LjQ3OTE1NCAmIzEwO0wgMjk5LjE4NDIzMyAxNDYuNzgzMDA4ICYjMTA7TCAyOTkuMjQ1ODA4IDE0NC42ODM3NjUgJiMxMDtMIDI5OS4zMDcyODQgMTQ1LjE5NDAwNSAmIzEwO0wgMjk5LjQ5MTExMyAxNTAuMzAwODQ3ICYjMTA7TCAyOTkuNTUyMTkyIDE0NS4yODI1OSAmIzEwO0wgMjk5LjYxMzE3MiAxNDcuMjc4NTk0ICYjMTA7TCAyOTkuOTE2NjA3IDEzOS4yMzA3MzggJiMxMDtMIDMwMC4wOTc1MDcgMTQzLjk2NzUwMSAmIzEwO0wgMzAwLjE1NzYxNiAxNDIuODQ1OTc2ICYjMTA7TCAzMDAuMjE3NjI5IDE0My41ODY5MzkgJiMxMDtMIDMwMC4zMzczNyAxMzQuMTUzNSAmIzEwO0wgMzAwLjM5NzA5OCAxMzcuMDEwNTM0ICYjMTA7TCAzMDAuNDU2NzMzIDEzMS42MzI5OTkgJiMxMDtMIDMwMC41MTYyNzQgMTM0LjEzOTEzNCAmIzEwO0wgMzAwLjk4OTI1NyAxNDkuMTYwMTk5ICYjMTA7TCAzMDEuMTA2NTg1IDE1MC4wOTY2MDkgJiMxMDtMIDMwMS4xNjUxMTMgMTQ5LjgzOTQ5MSAmIzEwO0wgMzAxLjIyMzU1IDE1MC42MzAxOTYgJiMxMDtMIDMwMS4zOTgzMjIgMTQ2LjcxNTQxMiAmIzEwO0wgMzAxLjQ1NjQwMSAxNDcuNjg2Mjk1ICYjMTA7TCAzMDEuNTcyMjkxIDE0Ni42NjM3MDEgJiMxMDtMIDMwMS43NDU0NjQgMTQ5LjEzMjk1MSAmIzEwO0wgMzAxLjgwMzAxMyAxNDYuNjU3NTU5ICYjMTA7TCAzMDEuODYwNDc0IDE0Ny42NTQwMzEgJiMxMDtMIDMwMS45MTc4NDggMTQ4LjkwNzAwNiAmIzEwO0wgMzAyLjA4OTQ1IDE0My45OTA3NDEgJiMxMDtMIDMwMi4xNDY0NzggMTQ0LjQ2Mzc3OSAmIzEwO0wgMzAyLjIwMzQyIDE0NC42NTQ0MTUgJiMxMDtMIDMwMi4zNzM3MzUgMTUyLjQzNDUxMiAmIzEwO0wgMzAyLjQ4Njg1MyAxNDkuMDM4ODQ3ICYjMTA7TCAzMDIuNTQzMjg2IDE1My41NjI5MjcgJiMxMDtMIDMwMi41OTk2MzUgMTUwLjg4MjQ0OCAmIzEwO0wgMzAyLjY1NTkgMTQ4LjY4MDYgJiMxMDtMIDMwMi43MTIwODEgMTQ4Ljg4MzA1NCAmIzEwO0wgMzAyLjc2ODE3OSAxNTAuNjM1NjI1ICYjMTA7TCAzMDIuODI0MTk1IDE0OS4zNzk4NTYgJiMxMDtMIDMwMi44ODAxMjcgMTQ5LjM5MjY1OCAmIzEwO0wgMzAyLjkzNTk3NiAxNTAuODIyMjUyICYjMTA7TCAzMDIuOTkxNzQ0IDE0OC4zNjEyMTkgJiMxMDtMIDMwMy4wNDc0MjkgMTUwLjE3NjExOSAmIzEwO0wgMzAzLjEwMzAzMyAxNTAuNDA0Mjg2ICYjMTA7TCAzMDMuMzI0NjMzIDE1My4yNjU4NjEgJiMxMDtMIDMwMy40MzQ5NDkgMTUxLjM2NzAxNyAmIzEwO0wgMzAzLjU0NDk0MyAxNTMuMTIzNTkxICYjMTA7TCAzMDMuNTk5ODIxIDE1Mi4wMDgwNzEgJiMxMDtMIDMwMy42NTQ2MTkgMTM0LjkxODA5OCAmIzEwO0wgMzAzLjcwOTMzOCAxMzUuMzk1NjM1ICYjMTA7TCAzMDMuODE4NTM5IDE0NC4wOTI1MjMgJiMxMDtMIDMwMy44NzMwMjIgMTM4LjIwNjI0NSAmIzEwO0wgMzAzLjkyNzQyNiAxMzkuMDM5Mzc3ICYjMTA7TCAzMDQuMTk4MjggMTQ3Ljc2OTM4NiAmIzEwO0wgMzA0LjI1MjIxOSAxNDQuNTY0ODM4ICYjMTA7TCAzMDQuNDY3MjEgMTUxLjkxNDM3MSAmIzEwO0wgMzA0LjU3NDI0OCAxNTMuODY5NjIxICYjMTA7TCAzMDQuNjI3NjU0IDE1MS43MzIwNzMgJiMxMDtMIDMwNC42ODA5ODUgMTU0LjQyMzMyICYjMTA7TCAzMDQuNzM0MjQxIDE1My4zMDgwMTUgJiMxMDtMIDMwNC43ODc0MjIgMTUyLjc4MzQxNSAmIzEwO0wgMzA0Ljg0MDUyOCAxNTEuMDExODY5ICYjMTA7TCAzMDQuODkzNTYgMTUxLjYyMzgzMSAmIzEwO0wgMzA0Ljg5MzU2IDEyOC40MjM1NCAmIzEwO0wgMzA0Ljk5OTQwMSAxNDQuMDQ4NzQ1ICYjMTA7TCAzMDUuMjYyNzE1IDE1My4yOTgyNTkgJiMxMDtMIDMwNS4zNjc1MyAxNTUuNDcxNjcyICYjMTA7TCAzMDUuNDE5ODI5IDE1My42NDUyOTIgJiMxMDtMIDMwNS41MjQyMSAxNTYuMTQ2NzAzICYjMTA7TCAzMDUuNTc2MjkzIDE1NS43MTM2NjIgJiMxMDtMIDMwNS43MzIxMTMgMTQ1Ljk0MzIzNyAmIzEwO0wgMzA1Ljc4MzkxMSAxNDcuMzgyNzUzICYjMTA7TCAzMDUuODM1NjM3IDE1MC4wNjY2MDUgJiMxMDtMIDMwNS45Mzg4NzkgMTM5Ljc5MzUxNSAmIzEwO0wgMzA1Ljk5MDM5NSAxNDEuMTUxODgxICYjMTA7TCAzMDYuMjk4MDI0IDE1NC4wMTM4NzYgJiMxMDtMIDMwNi4zNDkwNTMgMTU0LjA5MDA0MSAmIzEwO0wgMzA2LjUwMTcyOSAxNTAuOTY1MDcgJiMxMDtMIDMwNi41NTI0ODUgMTQ3LjY3MDYxNyAmIzEwO0wgMzA2LjYwMzE3MiAxNDguMzU3NDQ3ICYjMTA7TCAzMDYuNjUzNzkyIDE1MS4wMTM0OTkgJiMxMDtMIDMwNi43MDQzNDQgMTUwLjgyNTg1MiAmIzEwO0wgMzA2Ljc1NDgyOCAxNTAuMTQ2NzM5ICYjMTA7TCAzMDYuODA1MjQ2IDE1MC4xNjkwMTggJiMxMDtMIDMwNi45NTYwOTYgMTU5LjA0NjE0ICYjMTA7TCAzMDcuMDA2MjQ2IDE1OS4wMzE2NSAmIzEwO0wgMzA3LjEwNjM0NyAxNjIuNTU5MjE5ICYjMTA7TCAzMDcuMTU2Mjk4IDE2MS45MDMxODUgJiMxMDtMIDMwNy4yNTYwMDQgMTUxLjQ3NzI4NyAmIzEwO0wgMzA3LjMwNTc1OCAxNTIuODY2Mjg5ICYjMTA7TCAzMDcuMzU1NDQ3IDE1MS4yNzY3NzQgJiMxMDtMIDMwNy41MDQxMjQgMTU4LjQ1NzI4MyAmIzEwO0wgMzA3LjYwMjkxOCAxNTUuNTUxMjggJiMxMDtMIDMwNy43NTA2MjcgMTYwLjY2ODEzMiAmIzEwO0wgMzA3Ljc5OTczNiAxNTkuNTE2Nzg5ICYjMTA7TCAzMDcuODQ4NzgxIDE2MC4zMjYyNzcgJiMxMDtMIDMwOC4wOTMwNTYgMTM5Ljk1NDM1NiAmIzEwO0wgMzA4LjM4NDEyMSAxNTEuOTYwMjk1ICYjMTA7TCAzMDguNDMyNDE0IDE1MC43NTAzMjMgJiMxMDtMIDMwOC40ODA2NDcgMTUxLjczOTU1NSAmIzEwO0wgMzA4LjU3NjkyNyAxNDQuNjE4MTc0ICYjMTA7TCAzMDguNjI0OTc2IDE0Ny4yMTUxMjYgJiMxMDtMIDMwOC45MTE5OTIgMTYxLjQ2MDAwMiAmIzEwO0wgMzA4Ljk1OTYxNyAxNTguODAxMjQyICYjMTA7TCAzMDkuMDU0Njg4IDE1MS41NDU2NTggJiMxMDtMIDMwOS4xMDIxMzQgMTQzLjc0NTM4NiAmIzEwO0wgMzA5LjE0OTUyMSAxNDYuMDM4NTczICYjMTA7TCAzMDkuMTk2ODQ4IDE0Ni45Nzk2NjcgJiMxMDtMIDMwOS4yNDQxMTYgMTQ0LjY4NjkxMiAmIzEwO0wgMzA5LjM4NTU2NyAxNTMuNzY1MzM0ICYjMTA7TCAzMDkuNDMyNiAxNTEuMzYyODg2ICYjMTA7TCAzMDkuNjIwMTUxIDE1Ny4wMjU1MjYgJiMxMDtMIDMwOS42NjY4OTMgMTUzLjM1NTIxNSAmIzEwO0wgMzA5LjcxMzU3OCAxNTYuNDk3MzM1ICYjMTA7TCAzMDkuNzYwMjA2IDE1Ni4xNzA4MTcgJiMxMDtMIDMwOS44NTMyODkgMTYwLjU5OTQzICYjMTA7TCAzMDkuODk5NzQ0IDE1Ny4zMDk0NCAmIzEwO0wgMzA5Ljg5OTc0NCAxNTcuMzA5NDQiLz4mI3hhOyAgIDwvZz4mI3hhOyAgIDxnIGlkPSJsaW5lMmRfMTQwIj4mI3hhOyAgICA8cGF0aCBzdHlsZT0iZmlsbDogbm9uZTsgc3Ryb2tlOiAjNjQ5NWVkOyBzdHJva2Utd2lkdGg6IDEuNTsgc3Ryb2tlLWxpbmVjYXA6IHNxdWFyZSIgY2xpcC1wYXRoPSJ1cmwoI3AzMTI0ZjA5YzkwKSIgZD0iTSA1Ni4yNjMzODEgNDMuMzYwOTkzICYjMTA7TCA4Mi40OTA4MDEgNDMuMDk2MTI1ICYjMTA7TCA5Ny44MzI4NTggMzcuNTgyODYxICYjMTA7TCAxMDguNzE4MjIxIDI5LjQ5Njk1OCAmIzEwO0wgMTE3LjE2MTU2NCAyMi45MzE4MTQgJiMxMDtMIDEyNC4wNjAyNzggMjAuNDk3MTU5ICYjMTA7TCAxMjkuODkzMDU3IDE5LjAzMTkxNiAmIzEwO0wgMTM0Ljk0NTY0MSAxNy45ODIyMzggJiMxMDtMIDEzOS40MDIzMzUgMTYuNDgxMDExICYjMTA7TCAxNDMuMzg4OTg0IDE1LjI4NTg3NyAmIzEwO0wgMTQ2Ljk5NTM0NyAxMy4zNjc0MjkgJiMxMDtMIDE1MC4yODc2OTggMTIuNjk4MTk3ICYjMTA7TCAxNTMuMzE2MzY4IDEzLjgxMDU2NCAmIzEwO0wgMTU2LjEyMDQ3OCAxMy41ODgzNjYgJiMxMDtMIDE1OC43MzEwNDEgMTIuOTQ5OTA0ICYjMTA7TCAxNjEuMTczMDYxIDE0Ljk2MzE4NyAmIzEwO0wgMTYzLjQ2Njk4NiAxMi45NjAxMTkgJiMxMDtMIDE2NS42Mjk3NTUgMTEuOTY1ODU0ICYjMTA7TCAxNjcuNjc1NTYgMTIuODI3MzUyICYjMTA7TCAxNjkuNjE2NDA0IDEyLjg2MDgzOCAmIzEwO0wgMTcxLjQ2MjUzNSAxMS4zNTkyMTkgJiMxMDtMIDE3My4yMjI3NjcgMTIuOTM3NjM5ICYjMTA7TCAxNzQuOTA0NzQgMTMuMDgyNDg3ICYjMTA7TCAxNzYuNTE1MTE4IDEzLjk1MjgwNSAmIzEwO0wgMTc4LjA1OTc0OCAxMS42MjY3MzkgJiMxMDtMIDE3OS41NDM3ODggMTMuNzk2ODQ2ICYjMTA7TCAxODAuOTcxODEzIDE0LjQzOTE1NiAmIzEwO0wgMTgyLjM0Nzg5OCAxMy40MTgzMTIgJiMxMDtMIDE4My42NzU2ODkgMTUuNDgxODk3ICYjMTA7TCAxODQuOTU4NDYxIDE0LjY5NTA4NSAmIzEwO0wgMTg2LjE5OTE2OCAxNy4zNDEyMzIgJiMxMDtMIDE4Ny40MDA0ODEgMTcuNTYzMTUzICYjMTA7TCAxODguNTY0ODI0IDE3LjU1MzY4NCAmIzEwO0wgMTg5LjY5NDQwNiAxNi44MzE2MTEgJiMxMDtMIDE5MC43OTEyNDEgMTYuMzQwNjkxICYjMTA7TCAxOTEuODU3MTc1IDE4LjUwOTU3MiAmIzEwO0wgMTkyLjg5MzkwMiAyMS43MDY1MzIgJiMxMDtMIDE5My45MDI5OCAxOS4yODM1NDcgJiMxMDtMIDE5NC44ODU4NDUgMjIuMTUxNzQ3ICYjMTA7TCAxOTUuODQzODI0IDI4LjUwNzg0MSAmIzEwO0wgMTk2Ljc3ODE0OCAyNS40MTUyODIgJiMxMDtMIDE5Ny42ODk5NTUgMjguOTM5ODMzICYjMTA7TCAxOTguNTgwMzA2IDI1LjkzNDY2NiAmIzEwO0wgMTk5LjQ1MDE4NyAzMC41NDU4ODMgJiMxMDtMIDIwMC4zMDA1MTkgMjMuNzk0NTM5ICYjMTA7TCAyMDEuMTMyMTYgMjkuNzIyMjk5ICYjMTA7TCAyMDEuOTQ1OTE2IDM0LjA2NTQyNyAmIzEwO0wgMjAyLjc0MjUzOCA0Ni4yNDE3MTEgJiMxMDtMIDIwMy41MjI3MzQgMzkuNDk4MDU4ICYjMTA7TCAyMDQuMjg3MTY4IDQ5LjczMTk2NiAmIzEwO0wgMjA1LjAzNjQ2MyA0Ny42MTg1OTkgJiMxMDtMIDIwNS43NzEyMDggNDEuMjgxMjkgJiMxMDtMIDIwNi40OTE5NTYgMzkuODAxMTk1ICYjMTA7TCAyMDcuMTk5MjMzIDQ2LjAyMDUxMyAmIzEwO0wgMjA3Ljg5MzUzIDQyLjk2MzAxNiAmIzEwO0wgMjA4LjU3NTMxOCA1NC4zMzQ0NTkgJiMxMDtMIDIwOS4yNDUwMzcgNTguNDkxMTEgJiMxMDtMIDIwOS45MDMxMDkgNjUuMjY1MjkxICYjMTA7TCAyMTAuNTQ5OTMxIDcwLjY0MDYyICYjMTA7TCAyMTEuMTg1ODgyIDYzLjM3MTg2OSAmIzEwO0wgMjExLjgxMTMyIDc3LjEyODAwNyAmIzEwO0wgMjEyLjQyNjU4OCA2OS4zNTc5OTYgJiMxMDtMIDIxMy4wMzIwMTIgODAuOTA2NDAyICYjMTA7TCAyMTMuNjI3OTAxIDc0LjQ1OTI0MyAmIzEwO0wgMjE0LjIxNDU1MSA3OS4wMTQwNTggJiMxMDtMIDIxNC43OTIyNDQgODAuNjU2MjA5ICYjMTA7TCAyMTUuMzYxMjUgODIuNjg1OTU3ICYjMTA7TCAyMTUuOTIxODI2IDgyLjM3Mjc5NCAmIzEwO0wgMjE2LjQ3NDIxOCA4NC42MTkxNDQgJiMxMDtMIDIxNy4wMTg2NjEgODIuNzc4NDgyICYjMTA7TCAyMTcuNTU1MzgyIDU2LjI2NzAwNyAmIzEwO0wgMjE4LjA4NDU5NSA2OC42MDEyMjIgJiMxMDtMIDIxOC42MDY1MDkgNzcuOTE4NTcyICYjMTA7TCAyMTkuMTIxMzIyIDc3Ljc4NzMyMSAmIzEwO0wgMjE5LjYyOTIyNSA4Ni40Mzk5MTUgJiMxMDtMIDIyMC4xMzA0IDkwLjkyMzczNiAmIzEwO0wgMjIwLjYyNTAyNCA5MC43NDI5NzEgJiMxMDtMIDIyMS4xMTMyNjUgOTAuNzMwOTc1ICYjMTA7TCAyMjIuMDcxMjQ0IDkyLjY0Mzk3NCAmIzEwO0wgMjIyLjU0MTI5IDkxLjc5NzU3NyAmIzEwO0wgMjIzLjAwNTU2OCA5Mi40MDMwMzggJiMxMDtMIDIyMy40NjQyMTggOTEuODUwNzI5ICYjMTA7TCAyMjMuOTE3Mzc1IDk0LjUzOTM3MSAmIzEwO0wgMjI0LjM2NTE2OSA5NC43OTkzMTggJiMxMDtMIDIyNC44MDc3MjYgOTQuNzQ3MTQ2ICYjMTA7TCAyMjUuMjQ1MTY2IDk2LjMwMTk3MSAmIzEwO0wgMjI1LjY3NzYwNyA5NS43NTY5NzggJiMxMDtMIDIyNi4xMDUxNjIgOTYuOTE2MTg0ICYjMTA7TCAyMjYuNTI3OTM5IDk0LjUxODMwNSAmIzEwO0wgMjI3LjM1OTU4IDk3Ljk2MzE0NiAmIzEwO0wgMjI3Ljc2ODY0NiA5Ny40ODc3OTUgJiMxMDtMIDIyOC4xNzMzMzYgOTQuODc1NDY5ICYjMTA7TCAyMjguNTczNzQzIDEwMC4xMTE5NzIgJiMxMDtMIDIyOC45Njk5NTggOTcuMTUwODAzICYjMTA7TCAyMjkuMzYyMDY3IDk5Ljc0MDA5NyAmIzEwO0wgMjI5Ljc1MDE1NCA5My4xMTY3NDQgJiMxMDtMIDIzMC4xMzQzMDEgOTkuODIwNDUyICYjMTA7TCAyMzAuNTE0NTg4IDk5Ljc5ODAzNyAmIzEwO0wgMjMxLjI2Mzg4MyA5OS4yMTk3NTMgJiMxMDtMIDIzMS42MzMwMzkgMTAwLjQxODU5NyAmIzEwO0wgMjMxLjk5ODYyOCA5OS4yNjIxMTYgJiMxMDtMIDIzMi4zNjA3MTggOTguNTE5NjEzICYjMTA7TCAyMzIuNzE5Mzc3IDk5LjIxOTQ0NyAmIzEwO0wgMjMzLjA3NDY2NyA5OC44MjMyOTcgJiMxMDtMIDIzMy43NzUzOTQgOTkuMjMxMjkyICYjMTA7TCAyMzQuMTIwOTUgOTcuODYxNjc0ICYjMTA7TCAyMzQuNDYzMzggOTkuMzI1NDAxICYjMTA7TCAyMzQuODAyNzM4IDk4LjU1ODcxMiAmIzEwO0wgMjM1LjEzOTA3OSAxMDAuNjM1MDQ3ICYjMTA7TCAyMzUuNDcyNDU3IDEwMC42Mjc0MzIgJiMxMDtMIDIzNS44MDI5MjQgOTkuOTQyNTU4ICYjMTA7TCAyMzYuMTMwNTI5IDk4LjQ5OTM5MyAmIzEwO0wgMjM2LjQ1NTMyMiA5Ny44MDMzMDIgJiMxMDtMIDIzNi43NzczNTEgOTguNjA3MDg2ICYjMTA7TCAyMzcuMDk2NjYyIDEwMi41MjYwMzIgJiMxMDtMIDIzNy40MTMzMDIgMTAzLjQ4ODA0MSAmIzEwO0wgMjM3LjcyNzMxMyAxMDMuNjQ3Mjk3ICYjMTA7TCAyMzguMDM4NzQgMTAyLjQyNTQwOSAmIzEwO0wgMjM4LjY1NDAwOCAxMDIuMjM0MDg0ICYjMTA7TCAyMzguOTU3OTMxIDEwMi42MzE2NDQgJiMxMDtMIDIzOS4yNTk0MzIgMTAxLjI3NjQ2NyAmIzEwO0wgMjM5LjU1ODU1IDEwMS43MDE5NTEgJiMxMDtMIDIzOS44NTUzMjEgMTAyLjYzODk4NSAmIzEwO0wgMjQwLjE0OTc4MyAxMDMuMTY3MDQyICYjMTA7TCAyNDAuNDQxOTcxIDk4LjkwMTgxMyAmIzEwO0wgMjQwLjczMTkyIDk5Ljg1MjMxMSAmIzEwO0wgMjQxLjAxOTY2NCAxMDIuODk0MDYxICYjMTA7TCAyNDEuMzA1MjM3IDEwMi45NzY3MDIgJiMxMDtMIDI0MS41ODg2NyAxMDIuMTk0NzI3ICYjMTA7TCAyNDEuODY5OTk2IDEwMS45OTUyODQgJiMxMDtMIDI0Mi40MjY0NSAxMDIuMTg5Mzg4ICYjMTA7TCAyNDIuNzAxNjM4IDEwMC40NDQ0NTkgJiMxMDtMIDI0Mi45NzQ4MzkgMTAwLjIwNTExNSAmIzEwO0wgMjQzLjUxNTM5MyAxMDQuMDM3NTc3ICYjMTA7TCAyNDMuNzgyODAyIDEwNC4wNzYyNjUgJiMxMDtMIDI0NC4wNDgzMzQgMTAyLjg2ODAzNCAmIzEwO0wgMjQ0LjMxMjAxNSAxMDIuNTYxNCAmIzEwO0wgMjQ0LjU3Mzg3MiAxMDQuMDQ5Mjc5ICYjMTA7TCAyNDUuMDkyMjEyIDEwNC4zMzczICYjMTA7TCAyNDUuMDkyMjEyIDgyLjY1MTIyNCAmIzEwO0wgMjQ1LjM0ODc0MiA5OC42ODY4NDUgJiMxMDtMIDI0NS42MDM1NDYgOTMuNTA2MzAyICYjMTA7TCAyNDUuODU2NjQ1IDEwMC45MDc5MTkgJiMxMDtMIDI0Ni4xMDgwNjIgOTkuNDg2MzcgJiMxMDtMIDI0Ni42MDU5NCAxMDUuMjk0ODc0ICYjMTA7TCAyNDcuMDk3MzUyIDk2LjY2NDQ2NyAmIzEwO0wgMjQ3LjM0MDY4NSAxMDYuOTQ5NzQgJiMxMDtMIDI0Ny41ODI0NjMgMTA2LjU5NzA5ICYjMTA7TCAyNDcuODIyNzA2IDEwMy45NzIyNyAmIzEwO0wgMjQ4LjA2MTQzNCAxMDYuMjc5OTMxICYjMTA7TCAyNDguMjk4NjY0IDEwNC43MTA1MzIgJiMxMDtMIDI0OC41MzQ0MTcgMTA2Ljg4MDI4MiAmIzEwO0wgMjQ4Ljc2ODcxIDEwNi41OTA5MTEgJiMxMDtMIDI0OS4wMDE1NjEgMTA4LjI1NzkxOSAmIzEwO0wgMjQ5LjIzMjk4OCAxMDguODgwNzM0ICYjMTA7TCAyNDkuNjkxNjM4IDEwNi44NjI0ODEgJiMxMDtMIDI0OS45MTg4OTUgMTA4LjE3MTI4OCAmIzEwO0wgMjUwLjE0NDc5NSAxMDUuNDI1NzIzICYjMTA7TCAyNTAuMzY5MzU0IDEwNi45NjEyNCAmIzEwO0wgMjUwLjU5MjU4OSAxMDcuMTI4MTkxICYjMTA7TCAyNTAuODE0NTE0IDEwNy4xMjkwMTYgJiMxMDtMIDI1MS4wMzUxNDYgMTA0LjkzMjU5MiAmIzEwO0wgMjUxLjI1NDQ5OCAxMDcuNTk3MTE2ICYjMTA7TCAyNTEuNDcyNTg2IDEwNy43ODkzMDggJiMxMDtMIDI1MS45MDUwMjcgMTA1LjI3MzczICYjMTA7TCAyNTIuMTE5NDA4IDEwOC4xMDYwNCAmIzEwO0wgMjUyLjMzMjU4MiAxMDguNDA2NzI0ICYjMTA7TCAyNTIuNTQ0NTYxIDEwOC4xMDk2MzEgJiMxMDtMIDI1Mi43NTUzNTkgMTA4LjI3MTQyNSAmIzEwO0wgMjUyLjk2NDk4OSAxMDcuOTY4MDM5ICYjMTA7TCAyNTMuMTczNDY0IDEwOC4wNzI4OTMgJiMxMDtMIDI1My4zODA3OTcgMTA2LjQ4NTE5ICYjMTA7TCAyNTMuNTg3IDEwOC4xMDEwNjUgJiMxMDtMIDI1My43OTIwODYgMTA1LjkzMDI1NCAmIzEwO0wgMjUzLjk5NjA2NiAxMDcuMzI2OTQ2ICYjMTA7TCAyNTQuMTk4OTUyIDEwNi4zMDA1MjcgJiMxMDtMIDI1NC40MDA3NTYgMTA4LjI1ODkyMSAmIzEwO0wgMjU0LjYwMTQ4OSAxMDYuNzMyODY0ICYjMTA7TCAyNTQuODAxMTYzIDEwNi45MzQzMzIgJiMxMDtMIDI1NC45OTk3ODkgMTA4LjM4NzUzNCAmIzEwO0wgMjU1LjE5NzM3OCAxMDguNTY4NjczICYjMTA7TCAyNTUuMzkzOTQxIDEwNy45NjI0MzMgJiMxMDtMIDI1NS41ODk0ODcgMTA4LjY4ODE1MSAmIzEwO0wgMjU1Ljc4NDAyOCAxMDcuNTY0MzI0ICYjMTA7TCAyNTUuOTc3NTc0IDEwNC44MDI3MDcgJiMxMDtMIDI1Ni4xNzAxMzUgMTA3LjMwMjE4NCAmIzEwO0wgMjU2LjM2MTcyMSAxMDguMDY1MjIyICYjMTA7TCAyNTYuNTUyMzQyIDEwNy44MDk4NDggJiMxMDtMIDI1Ni43NDIwMDggMTA2LjA2MTc1NyAmIzEwO0wgMjU2LjkzMDcyNyAxMDcuMzcxNzIzICYjMTA7TCAyNTcuMTE4NTEgMTAwLjI0OTg3NyAmIzEwO0wgMjU3LjMwNTM2NiAxMDcuNTA4NTk1ICYjMTA7TCAyNTcuNDkxMzAzIDEwNC4wOTQzNTMgJiMxMDtMIDI1Ny42NzYzMzEgMTA3Ljk4MzkwMSAmIzEwO0wgMjU3Ljg2MDQ1OSAxMDUuMTU4ODU3ICYjMTA7TCAyNTguMDQzNjk1IDEwNC4xNDYwOTkgJiMxMDtMIDI1OC4yMjYwNDggOTcuNzEzNDQ5ICYjMTA7TCAyNTguNDA3NTI2IDEwNy40NjUyMDQgJiMxMDtMIDI1OC41ODgxMzggMTA3Ljg3MDQzMyAmIzEwO0wgMjU4Ljc2Nzg5MiAxMDQuNjAxNzk4ICYjMTA7TCAyNTguOTQ2Nzk3IDEwNS4xODE1NTggJiMxMDtMIDI1OS4xMjQ4NTkgMTA4LjY2NTAzNyAmIzEwO0wgMjU5LjMwMjA4NyAxMDguMjQ2NTY0ICYjMTA7TCAyNTkuNDc4NDg5IDEwNi4xODM3OSAmIzEwO0wgMjU5LjY1NDA3MyAxMDcuODU1MjE0ICYjMTA7TCAyNTkuODI4ODQ1IDEwNy44OTYxNTUgJiMxMDtMIDI2MC4wMDI4MTQgMTA2LjY4NDI2MiAmIzEwO0wgMjYwLjE3NTk4NyAxMDcuNTgyNzU4ICYjMTA7TCAyNjAuNTE5OTcyIDEwNi43MDE4ODMgJiMxMDtMIDI2MC42OTA4IDEwNi43Njc5MTYgJiMxMDtMIDI2MS4wMzAxNTggMTA5LjM2MjE3NyAmIzEwO0wgMjYxLjE5ODcwMiAxMDcuNDk1MzM1ICYjMTA7TCAyNjEuNTMzNTU1IDEwOC45NjYwNTggJiMxMDtMIDI2MS42OTk4NzcgMTA3LjMxNTYxMiAmIzEwO0wgMjYxLjg2NTQ3MSAxMDguMzU3MDc1ICYjMTA7TCAyNjIuMDMwMzQ0IDEwNy40Nzg4OTkgJiMxMDtMIDI2Mi4xOTQ1MDEgMTA4LjQ3NTkwNiAmIzEwO0wgMjYyLjM1Nzk0OSAxMDcuOTEwNDgxICYjMTA7TCAyNjIuNTIwNjk0IDEwOC40Mjg4MDEgJiMxMDtMIDI2Mi42ODI3NDIgMTA4LjAyMjMzNyAmIzEwO0wgMjYyLjg0NDA5OSAxMDYuOTEyMjA1ICYjMTA7TCAyNjMuMTY0NzY0IDEwNy45NzU5NzEgJiMxMDtMIDI2My40ODI3MzMgMTA1LjcyMDAxNCAmIzEwO0wgMjYzLjc5ODA1MyAxMDcuMzEwNTQ5ICYjMTA7TCAyNjQuMTEwNzY3IDEwNC4zNjQ2MjcgJiMxMDtMIDI2NC4yNjYxNiAxMDcuMzc2Nzk5ICYjMTA7TCAyNjQuNDIwOTE4IDEwNC42MzgzNTYgJiMxMDtMIDI2NC41NzUwNDUgMTA2Ljc2MDM5MiAmIzEwO0wgMjY0LjcyODU0NyAxMDUuMTE0NTgxICYjMTA7TCAyNjUuMDMzNjk1IDEwNy4xODM4MjIgJiMxMDtMIDI2NS4xODUzNTEgMTA1Ljg0ODYwMiAmIzEwO0wgMjY1LjMzNjQwMiAxMDcuNTkyMzkzICYjMTA7TCAyNjUuNDg2ODUyIDEwNi43MjYzMTIgJiMxMDtMIDI2NS42MzY3MDYgMTA3Ljc2NTc4NSAmIzEwO0wgMjY1Ljc4NTk3IDEwNy42NDc0OTcgJiMxMDtMIDI2NS45MzQ2NDYgMTA4LjcwNzU4NCAmIzEwO0wgMjY2LjA4Mjc0MSAxMDcuODQ0OTU0ICYjMTA7TCAyNjYuMzc3MjAzIDEwMy43NDA1MTEgJiMxMDtMIDI2Ni41MjM1NzkgMTAwLjEzMzkwMyAmIzEwO0wgMjY2LjY2OTM5MSAxMDAuOTY4MDgyICYjMTA7TCAyNjYuODE0NjQzIDk1Ljc0NjQ5NyAmIzEwO0wgMjY2Ljk1OTM0IDEwNS42MTI2NDEgJiMxMDtMIDI2Ny4xMDM0ODYgMTA1LjAxNjc4NSAmIzEwO0wgMjY3LjI0NzA4NCAxMDUuMjI1NTExICYjMTA7TCAyNjcuMzkwMTQgMTA3LjQ2Nzg0NSAmIzEwO0wgMjY3LjUzMjY1NyAxMDcuMTU3MzYyICYjMTA7TCAyNjcuNjc0NjM5IDEwNy4yNDY1OTUgJiMxMDtMIDI2Ny44MTYwOSAxMDguMjA3NTMyICYjMTA7TCAyNjcuODE2MDkgMTAyLjY4MjE0NCAmIzEwO0wgMjY3Ljk1NzAxNSAxMDEuOTQ4MzE3ICYjMTA7TCAyNjguMDk3NDE2IDEwNy40MDAxMjIgJiMxMDtMIDI2OC4yMzcyOTkgMTA3LjQxODc2NyAmIzEwO0wgMjY4LjM3NjY2NiAxMDcuODQwMjY3ICYjMTA7TCAyNjguNTE1NTIyIDEwNy43MTYzMzggJiMxMDtMIDI2OC42NTM4NyAxMDYuNzg5NDYgJiMxMDtMIDI2OC43OTE3MTQgMTA3LjE3NDExMiAmIzEwO0wgMjY5LjA2NTkwNSAxMDguMzk5NTg4ICYjMTA7TCAyNjkuMzM4MTIzIDEwNy43MzAzNDcgJiMxMDtMIDI2OS40NzM1MDEgMTA3Ljc5NTAzOSAmIzEwO0wgMjY5LjYwODM5NyAxMDguMDgzNDYzICYjMTA7TCAyNjkuODc2NzU0IDEwMy44NTM2MDcgJiMxMDtMIDI3MC4wMTAyMjIgMTA1LjkzNDc0MSAmIzEwO0wgMjcwLjE0MzIyMSAxMDMuODU0MTU0ICYjMTA7TCAyNzAuMjc1NzU0IDEwNS44NzYzNTkgJiMxMDtMIDI3MC40MDc4MjQgMTA1LjE4NjA3ICYjMTA7TCAyNzAuNjcwNTkgMTA3LjExMjEwOCAmIzEwO0wgMjcwLjgwMTI5MiAxMDcuMzQ3MjA0ICYjMTA7TCAyNzEuMDYxMzUgMTA3LjIzNDI3NSAmIzEwO0wgMjcxLjE5MDcxMSAxMDcuNDEwNTMzICYjMTA7TCAyNzEuMzE5NjMyIDEwNy4wOTUyODcgJiMxMDtMIDI3MS41NzYxNjMgMTA3Ljc5NjI1NiAmIzEwO0wgMjcxLjcwMzc3OSAxMDUuNzc2MDkgJiMxMDtMIDI3MS44MzA5NjYgMTA1Ljg1OTQ0NyAmIzEwO0wgMjcxLjk1NzcyNyAxMDYuMTkwOTEyICYjMTA7TCAyNzIuMDg0MDY1IDEwMi45NTg4MTYgJiMxMDtMIDI3Mi4yMDk5ODMgMTA2LjQ1Njc3MSAmIzEwO0wgMjcyLjMzNTQ4MiAxMDUuNjMxMTUyICYjMTA7TCAyNzIuNDYwNTY3IDEwNi4yMjA3MTggJiMxMDtMIDI3Mi41ODUyNCAxMDQuMTczODE2ICYjMTA7TCAyNzIuODMzMzYgOTEuNDU4MDk1ICYjMTA7TCAyNzIuOTU2ODEzIDg2LjA2Nzg5MSAmIzEwO0wgMjczLjA3OTg2NCA0My4wNjYyOTMgJiMxMDtMIDI3My4zMjQ3NzIgODMuMjQ1MDU2ICYjMTA7TCAyNzMuNDQ2NjM0IDgwLjM2NDQ0OCAmIzEwO0wgMjczLjY4OTE4NyAxMDIuODQ4OTAyICYjMTA7TCAyNzMuODA5ODgzIDEwMC4wNzk5OTIgJiMxMDtMIDI3NC4wNTAxMjYgMTAzLjg4NjczOSAmIzEwO0wgMjc0LjE2OTY3OCAxMDIuNTEwNzI3ICYjMTA7TCAyNzQuNDA3NjU1IDEwNi40OTk5NjEgJiMxMDtMIDI3NC41MjYwODQgMTA2LjUxNjUzNiAmIzEwO0wgMjc0LjY0NDE0NCAxMDYuMjI2OTU0ICYjMTA7TCAyNzQuOTk2MTMgMTA3Ljc4NzE2NiAmIzEwO0wgMjc1LjIyODk4MSAxMDYuMDk2NDM1ICYjMTA7TCAyNzUuMzQ0ODcxIDEwNi43NTMwMTggJiMxMDtMIDI3NS40NjA0MDggMTA1LjIxOTY5NiAmIzEwO0wgMjc1LjU3NTU5MiAxMDcuOTM0NjM5ICYjMTA7TCAyNzUuNjkwNDI4IDEwNi4zNTI1NDUgJiMxMDtMIDI3NS44MDQ5MTUgMTA3LjQyMjYwNCAmIzEwO0wgMjc1LjkxOTA1OCAxMDYuNTM5ODczICYjMTA7TCAyNzYuMDMyODU3IDEwNi42ODk1MzQgJiMxMDtMIDI3Ni4xNDYzMTUgNDcuNTg3Mjk1ICYjMTA7TCAyNzYuMjU5NDMzIDczLjk5OTk1MiAmIzEwO0wgMjc2LjM3MjIxNSA3MS41MDI1MDMgJiMxMDtMIDI3Ni41OTY3NzQgOTUuMTc3NjUgJiMxMDtMIDI3Ni43MDg1NTYgMTAwLjY0NjY1OSAmIzEwO0wgMjc2LjgyMDAwOSA5OS43MzE3ODkgJiMxMDtMIDI3Ny4yNjI1NjYgMTA2LjAzMDI3OCAmIzEwO0wgMjc3LjM3MjQwMSAxMDYuNjcxNjc0ICYjMTA7TCAyNzcuNTkxMTE5IDEwNi4zMzA0MSAmIzEwO0wgMjc3LjcwMDAwNiAxMDcuMDk3MTg1ICYjMTA7TCAyNzcuODA4NTgxIDEwNi4zMzgyNSAmIzEwO0wgMjc3LjkxNjg0NCAxMDYuNTQwMzQzICYjMTA7TCAyNzguMDI0Nzk5IDEwNi4wMzUxNzUgJiMxMDtMIDI3OC4xMzI0NDcgMTA2LjYzNDYwNyAmIzEwO0wgMjc4LjM0NjgyOCAxMDUuNjU4MTIxICYjMTA7TCAyNzguNDUzNTY1IDEwNi4wOTIyMjUgJiMxMDtMIDI3OC43NzE5ODEgMTAyLjg2NTg0NSAmIzEwO0wgMjc5LjA4NzczOSAxMDQuNzc0MjU0ICYjMTA7TCAyNzkuMTkyNDA5IDEwMy41NzI3ODUgJiMxMDtMIDI3OS4yOTY3OSAxMDMuNjI3MzE3ICYjMTA7TCAyNzkuNDAwODg0IDEwNC44OTc5ODYgJiMxMDtMIDI3OS41MDQ2OTMgMTA0LjM0NTI0NSAmIzEwO0wgMjc5LjYwODIxNyAxMDUuMjEzNDA1ICYjMTA7TCAyNzkuNzExNDU5IDEwNC4wMzMzMTQgJiMxMDtMIDI3OS45MTcxMDIgMTA0LjQyNjIzOCAmIzEwO0wgMjgwLjAxOTUwNiAxMDIuNjIxNTg0ICYjMTA7TCAyODAuMTIxNjMzIDEwNS45MzY1MTYgJiMxMDtMIDI4MC4yMjM0ODYgMTA1LjEwMTI1OSAmIzEwO0wgMjgwLjMyNTA2NSAxMDIuNzQ4NTM5ICYjMTA7TCAyODAuNDI2MzcyIDEwMy41MTA1OTYgJiMxMDtMIDI4MC41Mjc0MDggMTAyLjk0MDkwNSAmIzEwO0wgMjgwLjYyODE3NiAxMDUuMDU3MzcxICYjMTA7TCAyODAuNzI4Njc2IDEwMy42MjM2MzYgJiMxMDtMIDI4MC45Mjg4NzggMTA0Ljk4MjQ0MSAmIzEwO0wgMjgxLjAyODU4NCAxMDMuMjgxNTAzICYjMTA7TCAyODEuMTI4MDI3IDEwNC4xOTI0MDIgJiMxMDtMIDI4MS4yMjcyMSAxMDQuMDYxNjc3ICYjMTA7TCAyODEuMzI2MTMzIDEwNS4yMTk3OSAmIzEwO0wgMjgxLjYyMTM2MSAxMDQuNDM2NzcxICYjMTA7TCAyODEuNzE5MjYgMTAzLjI5MDc1NCAmIzEwO0wgMjgxLjgxNjkwNyAxMDMuNTQ4NDM0ICYjMTA7TCAyODEuOTE0MzAzIDEwMy4xNjkwODQgJiMxMDtMIDI4Mi4wMTE0NDggMTA0LjI3NDUzNCAmIzEwO0wgMjgyLjEwODM0NSAxMDMuODE2ODAxICYjMTA7TCAyODIuMjA0OTk0IDEwMS43ODQ3OTIgJiMxMDtMIDI4Mi4zOTc1NTUgMTA0LjE0NzcxOSAmIzEwO0wgMjgyLjQ5MzQ3IDEwNC4wMzE1MzYgJiMxMDtMIDI4Mi41ODkxNDIgMTA0LjIyNDM4NyAmIzEwO0wgMjgyLjc3OTc2MiAxMDIuNjY0MDM4ICYjMTA7TCAyODIuODc0NzE0IDEwMi44NzYwNiAmIzEwO0wgMjgzLjA2MzkwNSAxMDIuMjgzMjU4ICYjMTA7TCAyODMuMjUyMTU1IDEwNC4yMjc2MSAmIzEwO0wgMjgzLjQzOTQ3MyAxMDIuODQyMDA1ICYjMTA7TCAyODMuNTMyNzg2IDEwMy45NzQ1MjIgJiMxMDtMIDI4My43MTg3MjMgMTAzLjAxOTYzOSAmIzEwO0wgMjgzLjgxMTM1IDEwMy4xOTYxMiAmIzEwO0wgMjgzLjk5NTkyNyAxMDMuOTQwMTM4ICYjMTA7TCAyODQuMDg3ODc5IDEwMi4yOTU4NjYgJiMxMDtMIDI4NC4xNzk2MDggMTAyLjkxMDMwNSAmIzEwO0wgMjg0LjI3MTExNSAxMDIuMzM5ODU0ICYjMTA7TCAyODQuMzYyNDAxIDk5Ljk0NzUzMyAmIzEwO0wgMjg0LjQ1MzQ2OCAxMDIuMTYxNzM0ICYjMTA7TCAyODQuNTQ0MzE2IDEwMi4wMzI4MTQgJiMxMDtMIDI4NC42MzQ5NDYgMTAyLjgzMDY5ICYjMTA7TCAyODQuNzI1MzYgMTAxLjkxMzY4MSAmIzEwO0wgMjg0LjgxNTU1OCAxMDMuMDI0NDY1ICYjMTA7TCAyODQuOTA1NTQyIDEwMi42NzAwODcgJiMxMDtMIDI4NC45OTUzMTIgMTAzLjEzMzE2NiAmIzEwO0wgMjg1LjA4NDg3IDEwMi42NzgwNjUgJiMxMDtMIDI4NS4xNzQyMTcgMTAwLjkyMTgwNiAmIzEwO0wgMjg1LjI2MzM1MyAxMDEuMzUzMjU3ICYjMTA7TCAyODUuMzUyMjc5IDEwMS41ODIyOTMgJiMxMDtMIDI4NS40NDA5OTcgMTAxLjE4Mzc2MyAmIzEwO0wgMjg1LjYxNzgxMSA5NC43ODIxODIgJiMxMDtMIDI4NS43MDU5MDkgOTcuNDk3ODc1ICYjMTA7TCAyODUuNzkzODAzIDg2LjIwMDYwMiAmIzEwO0wgMjg1Ljk2ODk4IDk0LjE0NzY2ICYjMTA7TCAyODYuMzE2OTE5IDEwMC4yNzEwNjIgJiMxMDtMIDI4Ni40MDM0MDcgOTkuOTAxODkgJiMxMDtMIDI4Ni41NzU3OTEgMTAyLjQwMjE2MiAmIzEwO0wgMjg2LjY2MTY4OSAxMDEuNjIwMzYzICYjMTA7TCAyODYuOTE4MjIgMTA0LjAzODY5OSAmIzEwO0wgMjg3LjAwMzM0NSAxMDQuMDg2Mzg4ICYjMTA7TCAyODcuMDg4Mjc5IDEwMy4yNDA5MzggJiMxMDtMIDI4Ny4yNTc1NzggMTA0LjMyNzY4ICYjMTA7TCAyODcuMzQxOTQ0IDEwMy4yOTg1MjEgJiMxMDtMIDI4Ny40MjYxMjIgMTAzLjc5ODYxMiAmIzEwO0wgMjg3LjUxMDExNCAxMDMuNjMxNzM4ICYjMTA7TCAyODcuNjc3NTQgOTkuOTc2MTA2ICYjMTA7TCAyODcuODQ0MjI4IDEwMy41ODIzMTEgJiMxMDtMIDI4OC4wMTAxODUgMTAyLjQ1MjY5NyAmIzEwO0wgMjg4LjA5Mjg5MSAxMDIuNjIwMjEyICYjMTA7TCAyODguMTc1NDE3IDEwMi4yOTU1OTMgJiMxMDtMIDI4OC4yNTc3NjQgMTAzLjAyNDk3MyAmIzEwO0wgMjg4LjMzOTkzMSAxMDIuNzc5MDE0ICYjMTA7TCAyODguNDIxOTIxIDEwMi45MzA5MzIgJiMxMDtMIDI4OC41MDM3MzMgMTAzLjUzOTgxNyAmIzEwO0wgMjg4Ljc0ODExNCAxMDIuOTY1NDY0ICYjMTA7TCAyODguODI5MjI1IDEwMS43NDUwOTMgJiMxMDtMIDI4OC45MTAxNjIgMTAyLjA2NjYxOSAmIzEwO0wgMjg4Ljk5MDkyNyAxMDMuMzcyMjA4ICYjMTA7TCAyODkuMDcxNTE5IDEwMi4zNzQ3OTQgJiMxMDtMIDI4OS4xNTE5NCAxMDIuNDgxMDk3ICYjMTA7TCAyODkuMzEyMjcyIDEwMS45MDAzNTMgJiMxMDtMIDI4OS4zOTIxODQgMTAzLjQyMzcxNyAmIzEwO0wgMjg5LjQ3MTkyNyAxMDIuMzUwMTUzICYjMTA7TCAyODkuNTUxNTAyIDEwMi40NTI3MyAmIzEwO0wgMjg5LjYzMDkxMSAxMDIuOTI2MjA4ICYjMTA7TCAyODkuNzEwMTUzIDEwMi4wNjM2NCAmIzEwO0wgMjg5Ljc4OTIzIDEwMi41MzU0NzUgJiMxMDtMIDI4OS44NjgxNDIgMTA0LjEyNTM0MyAmIzEwO0wgMjkwLjAyNTQ3MyAxMDIuMDUyMTk5ICYjMTA7TCAyOTAuMTAzODk0IDEwMS44NzcwMDQgJiMxMDtMIDI5MC4yNjAyNTEgOTkuOTMxNDk1ICYjMTA7TCAyOTAuNDE1OTYzIDkyLjE1MjE2NiAmIzEwO0wgMjkwLjQ5MzU4IDk5LjI3NjQyNSAmIzEwO0wgMjkwLjU3MTAzOCA5OC4xMjkyOTkgJiMxMDtMIDI5MC44MDI0NjUgMTAyLjQ4MDg0OSAmIzEwO0wgMjkwLjg3OTI5NCAxMDEuOTEyMjUgJiMxMDtMIDI5MC45NTU5NjcgMTAyLjY5NDA0NSAmIzEwO0wgMjkxLjAzMjQ4NSAxMDEuNjgwMzk0ICYjMTA7TCAyOTEuMTA4ODQ5IDEwMi42NzkyNTYgJiMxMDtMIDI5MS4xODUwNTggMTAwLjkzNjA0NiAmIzEwO0wgMjkxLjI2MTExNSA4MC45NTQ5NzggJiMxMDtMIDI5MS4zMzcwMTkgOTcuODc0MDM2ICYjMTA7TCAyOTEuNDEyNzcxIDk0Ljg5NzE4OCAmIzEwO0wgMjkxLjU2MzgyMiAxMDIuOTU3Nzk1ICYjMTA7TCAyOTEuNjM5MTIyIDEwMS42OTM4OTggJiMxMDtMIDI5MS43MTQyNzIgMTA0LjA3NTEzOSAmIzEwO0wgMjkxLjc4OTI3NCAxMDMuNzY2MTk2ICYjMTA7TCAyOTEuODY0MTI3IDEwNC40NTIxNTEgJiMxMDtMIDI5MS45Mzg4MzIgMTAzLjgwODgwMiAmIzEwO0wgMjkyLjAxMzM5IDEwNC41MjAwNjYgJiMxMDtMIDI5Mi4wODc4MDEgMTA0LjM2NjMwNCAmIzEwO0wgMjkyLjMxMDE2MSAxMDQuMTQzNDYxICYjMTA7TCAyOTIuMzgzOTkyIDEwNC44MDk4OTIgJiMxMDtMIDI5Mi41MzEyMjIgMTAzLjAzOTkwNyAmIzEwO0wgMjkyLjYwNDYyMyAxMDMuODEzOTgyICYjMTA7TCAyOTIuNjc3ODgyIDEwMy41OTc2NjMgJiMxMDtMIDI5Mi43NTA5OTkgMTAzLjIyNDA2ICYjMTA7TCAyOTIuODIzOTc1IDEwMy4zODMyOTIgJiMxMDtMIDI5Mi44OTY4MTEgMTAzLjM2NTY0MiAmIzEwO0wgMjkzLjA0MjA2MyAxMDIuMzkyNjM4ICYjMTA7TCAyOTMuMTE0NDgxIDEwMy4wODkzNDggJiMxMDtMIDI5My4yNTg5MDIgMTAyLjYyMTE2NCAmIzEwO0wgMjkzLjMzMDkwNiAxMDIuODc3ODA1ICYjMTA7TCAyOTMuNjg4ODg2IDEwMS4xNzczMyAmIzEwO0wgMjkzLjc2MDA3NyAxMDIuMTcyNTE0ICYjMTA7TCAyOTMuODMxMTM0IDEwMS4wMTYwOTMgJiMxMDtMIDI5My45MDIwNTkgMTAxLjU0NTM0NiAmIzEwO0wgMjkzLjk3Mjg1MSAxMDIuMTYzMDE0ICYjMTA7TCAyOTQuMDQzNTEgOTkuNzkzOTg3ICYjMTA7TCAyOTQuMTE0MDM4IDEwMC45MDYzNDYgJiMxMDtMIDI5NC4yNTQ3IDEwMS4zMTIyNzUgJiMxMDtMIDI5NC40NjQ3MTkgMTAwLjI2ODE4OCAmIzEwO0wgMjk0LjUzNDQ2NiA5OS45NTQyNjQgJiMxMDtMIDI5NC42MDQwODYgMTAxLjIwNDM5OCAmIzEwO0wgMjk0LjY3MzU3NyAxMDEuMTQ0MTkxICYjMTA7TCAyOTQuNzQyOTQyIDEwMC45NTY0ODYgJiMxMDtMIDI5NC44MTIxNzkgMTAwLjM3Nzg2NiAmIzEwO0wgMjk0Ljg4MTI5IDEwMC41ODIyNTEgJiMxMDtMIDI5NC45NTAyNzUgMTAwLjg1MTI0ICYjMTA7TCAyOTUuMTU2NDc4IDk4Ljc1MTIzMiAmIzEwO0wgMjk1LjIyNDk2MyA5OC4wNjE4MDQgJiMxMDtMIDI5NS4zNjE1NjMgOTkuNjA5MjAzICYjMTA7TCAyOTUuNDI5Njc5IDk5LjUyMDEwMSAmIzEwO0wgMjk1LjQ5NzY3MiAxMDAuMDM1Mjc1ICYjMTA7TCAyOTUuNTY1NTQzIDk5LjQ4ODk4MiAmIzEwO0wgMjk1Ljc2ODQyOSAxMDAuNzEyMDcxICYjMTA7TCAyOTUuODM1ODE3IDEwMC41NzM0MjQgJiMxMDtMIDI5NS45MDMwODUgOTkuOTU1NzMgJiMxMDtMIDI5NS45NzAyMzMgMTAxLjEyODE5MyAmIzEwO0wgMjk2LjAzNzI2MyAxMDAuODAyNTk2ICYjMTA7TCAyOTYuMTA0MTc0IDEwMC4yOTgzNzYgJiMxMDtMIDI5Ni4xNzA5NjcgMTAwLjkwODg0MyAmIzEwO0wgMjk2LjIzNzY0MiAxMDAuNjU1NDA4ICYjMTA7TCAyOTYuMzA0MiAxMDAuNzc4OTMxICYjMTA7TCAyOTYuMzcwNjQxIDk5Ljc1MzIzOSAmIzEwO0wgMjk2LjQzNjk2NSAxMDAuMTU1OTY2ICYjMTA7TCAyOTYuNjM1MjQ0IDk5LjIwMjU2OCAmIzEwO0wgMjk2Ljc2Njg1NiAxMDAuMTk0NjQ4ICYjMTA7TCAyOTYuODMyNDkgOTkuMzgyNjExICYjMTA7TCAyOTYuODk4MDExIDk5LjgyNjE5NyAmIzEwO0wgMjk3LjAyODcxMiAxMDAuMjMyNTYzICYjMTA7TCAyOTcuMDkzODk0IDk5LjkwNDczOSAmIzEwO0wgMjk3LjA5Mzg5NCA5OC4xNDk4NTIgJiMxMDtMIDI5Ny4xNTg5NjQgOTguMzU5NTYyICYjMTA7TCAyOTcuMjIzOTIzIDEwMC4yNDI3MDYgJiMxMDtMIDI5Ny4yODg3NyA5OS42OTgxNDEgJiMxMDtMIDI5Ny4zNTM1MDYgMTAwLjYzNTYzMiAmIzEwO0wgMjk3LjQxODEzMSA5OS4xMjEwMzQgJiMxMDtMIDI5Ny40ODI2NDYgMTAwLjE2MzkzOCAmIzEwO0wgMjk3LjY3NTUzNCA5OC45Mjk4NyAmIzEwO0wgMjk3LjgwMzU4MyA5OS4xNDc3ODUgJiMxMDtMIDI5Ny44Njc0NDQgOTguODk2MDU1ICYjMTA7TCAyOTcuOTMxMTk5IDk5LjcwMTYxNSAmIzEwO0wgMjk3Ljk5NDg0NiA5OS4xNzQ4MTIgJiMxMDtMIDI5OC4wNTgzODYgOTYuOTc2NDYyICYjMTA7TCAyOTguMTIxODIgOTcuMjEzMDQ5ICYjMTA7TCAyOTguMzExNDg1IDk5LjkwNTQyNSAmIzEwO0wgMjk4LjM3NDQ5NiA5OS4yNTY1NTQgJiMxMDtMIDI5OC40Mzc0MDMgOTUuNjE2NzM3ICYjMTA7TCAyOTguNjI1NDk3IDk5LjgyNDg0ICYjMTA7TCAyOTguNjg3OTg3IDEwMC4yNTAwNDkgJiMxMDtMIDI5OC43NTAzNzUgOTkuODEwNTcxICYjMTA7TCAyOTguODEyNjYgMTAwLjE2Mzg3NiAmIzEwO0wgMjk4Ljg3NDg0MyA5OS40MTI1NjkgJiMxMDtMIDI5OC45MzY5MjQgOTkuNjIwNDE5ICYjMTA7TCAyOTguOTk4OTAzIDk5LjUxNDk4MyAmIzEwO0wgMjk5LjA2MDc4IDk4Ljg1Nzk4OCAmIzEwO0wgMjk5LjEyMjU1NyA5OS4yMDY5NTcgJiMxMDtMIDI5OS4xODQyMzMgOTguOTc3NzIxICYjMTA7TCAyOTkuMjQ1ODA4IDk3LjMxMzgyNSAmIzEwO0wgMjk5LjMwNzI4NCA5Ny44NDg5OCAmIzEwO0wgMjk5LjM2ODY2IDk3LjMxMjYwMyAmIzEwO0wgMjk5LjQ5MTExMyA5OC45MTM2MjYgJiMxMDtMIDI5OS41NTIxOTIgOTguNzk3MDE2ICYjMTA7TCAyOTkuNjc0MDU0IDk4LjAyNDgzMyAmIzEwO0wgMjk5LjczNDgzOCA5OC42OTA1MjcgJiMxMDtMIDI5OS43OTU1MjUgOTguMTk1NzI2ICYjMTA7TCAyOTkuOTE2NjA3IDk2Ljk3NzYzNyAmIzEwO0wgMzAwLjA5NzUwNyA5OS4wNzU4NjcgJiMxMDtMIDMwMC4xNTc2MTYgOTkuMDg2MjM0ICYjMTA7TCAzMDAuMjc3NTQ2IDk1LjczNjc3NSAmIzEwO0wgMzAwLjMzNzM3IDk3Ljc3NTA0MyAmIzEwO0wgMzAwLjQ1NjczMyA5OC4zMzkyNzcgJiMxMDtMIDMwMC41MTYyNzQgOTguMjIzMjUgJiMxMDtMIDMwMC41NzU3MjEgOTguMDYwMTI3ICYjMTA7TCAzMDAuODEyNTgxIDEwMC42NzYxMzggJiMxMDtMIDMwMC44NzE1NjQgOTkuODE4NzEgJiMxMDtMIDMwMC45MzA0NTcgMTAwLjk2MTI2NyAmIzEwO0wgMzAwLjk4OTI1NyAxMDAuNjgwMzU2ICYjMTA7TCAzMDEuMDQ3OTY2IDEwMC45NDUxMjUgJiMxMDtMIDMwMS4xNjUxMTMgMTAwLjUzMTc0MyAmIzEwO0wgMzAxLjIyMzU1IDEwMC42MzkwMzYgJiMxMDtMIDMwMS4yODE4OTcgOTkuNjAyNjg5ICYjMTA7TCAzMDEuMzQwMTU1IDEwMC4wOTQ4MDcgJiMxMDtMIDMwMS40NTY0MDEgOTguOTY2MjIzICYjMTA7TCAzMDEuNTE0MzkgOTkuMTA2MTM5ICYjMTA7TCAzMDEuNzQ1NDY0IDk5Ljc1ODA4NyAmIzEwO0wgMzAxLjk3NTEzNSA5Ny4yOTc1NTUgJiMxMDtMIDMwMi4wMzIzMzUgOTguNTAzODggJiMxMDtMIDMwMi4wODk0NSA5OC40NDgzNTQgJiMxMDtMIDMwMi4xNDY0NzggOTcuMjU4NjkzICYjMTA7TCAzMDIuMjYwMjc3IDk5LjE1MDcwNyAmIzEwO0wgMzAyLjMxNzA0OCA5OC4zOTQ1MzkgJiMxMDtMIDMwMi4zNzM3MzUgOTkuMDA2ODExICYjMTA7TCAzMDIuNTQzMjg2IDk4LjI0NzM1OSAmIzEwO0wgMzAyLjU5OTYzNSA5OC41MzEyNDkgJiMxMDtMIDMwMi43NjgxNzkgOTcuMjI1NjAxICYjMTA7TCAzMDIuOTM1OTc2IDk4LjU1MjU3NyAmIzEwO0wgMzAyLjk5MTc0NCA5OC4xMjM4NjEgJiMxMDtMIDMwMy4wNDc0MjkgOTguNTE0OTI3ICYjMTA7TCAzMDMuMTAzMDMzIDk4LjUxMTQ3NyAmIzEwO0wgMzAzLjIxMzk5NSA5Ny40NzkzMDUgJiMxMDtMIDMwMy4yNjkzNTUgOTcuOTcxNTczICYjMTA7TCAzMDMuMzI0NjMzIDk3Ljc3MjYzMiAmIzEwO0wgMzAzLjQzNDk0OSA5Ny44NTIxMDggJiMxMDtMIDMwMy40ODk5ODYgOTcuOTU3MzYgJiMxMDtMIDMwMy41NDQ5NDMgOTcuNDkxNjMyICYjMTA7TCAzMDMuNTk5ODIxIDk1LjU2OTU4NCAmIzEwO0wgMzAzLjY1NDYxOSA5Ni40ODI0NCAmIzEwO0wgMzAzLjgxODUzOSA5Ny4xODU3NTcgJiMxMDtMIDMwMy44NzMwMjIgOTUuNDk1NTUxICYjMTA7TCAzMDMuOTI3NDI2IDk3LjUyNjU4ICYjMTA7TCAzMDMuOTgxNzUyIDk3LjUwNDgzNyAmIzEwO0wgMzA0LjAzNjAwMSA5Ny40MTI2MTMgJiMxMDtMIDMwNC4wOTAxNzEgOTcuMDI2MzEyICYjMTA7TCAzMDQuMTk4MjggOTguMjE4MDc2ICYjMTA7TCAzMDQuMjUyMjE5IDk3Ljc2OTgxNSAmIzEwO0wgMzA0LjMwNjA4MiA5OC4xNjE1ODYgJiMxMDtMIDMwNC4zNTk4NjcgOTcuOTkzNjA1ICYjMTA7TCAzMDQuNDEzNTc2IDk3LjI2NTYxMSAmIzEwO0wgMzA0LjQ2NzIxIDk4LjE0NDEyNyAmIzEwO0wgMzA0LjU3NDI0OCA5Ni4wMjkwNjYgJiMxMDtMIDMwNC42ODA5ODUgOTguMjI0Nzc1ICYjMTA7TCAzMDQuNzM0MjQxIDk3Ljc1MjkxMiAmIzEwO0wgMzA0Ljg0MDUyOCA5OC40Mzk5OTggJiMxMDtMIDMwNC44OTM1NiA5Ny42MjcyMjggJiMxMDtMIDMwNC45OTk0MDEgOTcuOTUyMDYyICYjMTA7TCAzMDUuMDUyMjExIDk4LjI0NzM1OSAmIzEwO0wgMzA1LjEwNDk0NyA5Ny43NTEwMjcgJiMxMDtMIDMwNS4xNTc2MDkgOTguMTExMTQyICYjMTA7TCAzMDUuMjEwMTk5IDk4LjU1OTU2NSAmIzEwO0wgMzA1LjMxNTE1OSA5Ny44OTExODEgJiMxMDtMIDMwNS4zNjc1MyA5OC4xMjI0NjIgJiMxMDtMIDMwNS40MTk4MjkgOTcuODEyMjE3ICYjMTA7TCAzMDUuNDcyMDU2IDk4LjQ1MDE4MyAmIzEwO0wgMzA1LjUyNDIxIDk3LjEwNTQ1MiAmIzEwO0wgMzA1LjU3NjI5MyA5Ny40MDEzODcgJiMxMDtMIDMwNS42MjgzMDQgOTcuNDU5OTkgJiMxMDtMIDMwNS43MzIxMTMgOTcuMjE2Njc5ICYjMTA7TCAzMDUuNzgzOTExIDk3LjI2MjY0OSAmIzEwO0wgMzA1LjgzNTYzNyA5Ny43NjM4NTkgJiMxMDtMIDMwNS44ODcyOTQgOTUuNzkwMTYyICYjMTA7TCAzMDUuOTM4ODc5IDk2LjUzMTEzNSAmIzEwO0wgMzA1Ljk5MDM5NSA5OC4yNzE4NTYgJiMxMDtMIDMwNi4wNDE4NDEgOTYuNzk1NDMyICYjMTA7TCAzMDYuMTQ0NTIyIDk4LjIwODUyNiAmIzEwO0wgMzA2LjE5NTc1OSA5Ny43ODU1MjUgJiMxMDtMIDMwNi4yOTgwMjQgOTguNDM0ODAxICYjMTA7TCAzMDYuMzQ5MDUzIDk3LjU5OTYwNSAmIzEwO0wgMzA2LjQ1MDkwNiA5Ny42ODUxMzUgJiMxMDtMIDMwNi41MDE3MjkgOTcuODgzMzg1ICYjMTA7TCAzMDYuNTUyNDg1IDk3LjQyOTQzMiAmIzEwO0wgMzA2LjY1Mzc5MiA5OC4zOTA4MDUgJiMxMDtMIDMwNi43MDQzNDQgOTcuMzkwMDkxICYjMTA7TCAzMDYuNzU0ODI4IDk3LjU4MDQ4NyAmIzEwO0wgMzA2LjgwNTI0NiA5OC40MTQzMzEgJiMxMDtMIDMwNi44NTU1OTYgOTguMjQwNzQ0ICYjMTA7TCAzMDYuOTA1ODc5IDk4LjIxMzU5MyAmIzEwO0wgMzA3LjEwNjM0NyA5Ny41NzQ1MDcgJiMxMDtMIDMwNy4xNTYyOTggOTguMTAyODQyICYjMTA7TCAzMDcuMzA1NzU4IDk2Ljc5ODQ2NCAmIzEwO0wgMzA3LjM1NTQ0NyA5Ni44NjQ0NDkgJiMxMDtMIDMwNy40MDUwNzEgOTYuNzUwMzgyICYjMTA7TCAzMDcuNDU0NjMgOTYuNzU2NTY3ICYjMTA7TCAzMDcuNTA0MTI0IDk2LjkxODc3NyAmIzEwO0wgMzA3LjU1MzU1MyA5Ni44MjYyMjQgJiMxMDtMIDMwNy43MDE0NTUgOTYuMTI5MzQ5ICYjMTA7TCAzMDcuNzUwNjI3IDk2LjA1NDM0NCAmIzEwO0wgMzA3Ljc5OTczNiA5NS41MTgyMzcgJiMxMDtMIDMwNy44OTc3NjIgOTUuNTUwODcyICYjMTA7TCAzMDcuOTk1NTM1IDk2LjEzNzExMSAmIzEwO0wgMzA4LjA5MzA1NiA5Mi41NzEyODUgJiMxMDtMIDMwOC4xNDE3MjMgOTUuMTczMzA2ICYjMTA7TCAzMDguMjM4ODY4IDk0Ljc3NDAzOSAmIzEwO0wgMzA4LjM4NDEyMSA5Ni4wMTk1MzYgJiMxMDtMIDMwOC40MzI0MTQgOTQuNzQzNDU0ICYjMTA7TCAzMDguNTI4ODE3IDk0LjgzMjIzOSAmIzEwO0wgMzA4LjU3NjkyNyA5Ni4wNjk3MjIgJiMxMDtMIDMwOC42MjQ5NzYgOTQuOTg2MzM3ICYjMTA7TCAzMDguNjcyOTYzIDk0LjQ5NTIzICYjMTA7TCAzMDguNzIwODkgOTYuMTUzNjUxICYjMTA7TCAzMDguODE2NTYyIDk1Ljg2NjczOSAmIzEwO0wgMzA4Ljg2NDMwNyA5NS40OTY2NjEgJiMxMDtMIDMwOC45MTE5OTIgOTUuNTc5MDA4ICYjMTA7TCAzMDkuMTAyMTM0IDk2LjMwMTI0MyAmIzEwO0wgMzA5LjE0OTUyMSA5NC40OTA2NTkgJiMxMDtMIDMwOS4xOTY4NDggOTUuMzA4ODU4ICYjMTA7TCAzMDkuMjQ0MTE2IDk2LjM5MzMgJiMxMDtMIDMwOS4zMzg0NzYgOTYuMTA4Mzg1ICYjMTA7TCAzMDkuMzg1NTY3IDk1Ljg1MTY3MiAmIzEwO0wgMzA5LjQzMjYgOTcuNDkwMTkyICYjMTA7TCAzMDkuNDc5NTc1IDk2LjE0Mjk0NCAmIzEwO0wgMzA5LjUyNjQ5MiA5NS45NTQ0OCAmIzEwO0wgMzA5LjU3MzM1IDk2Ljc1OTQxOCAmIzEwO0wgMzA5LjYyMDE1MSA5Ni4zNzE3OTkgJiMxMDtMIDMwOS42NjY4OTMgOTYuNDIyMzE5ICYjMTA7TCAzMDkuNzEzNTc4IDk1LjAyMjQ3MSAmIzEwO0wgMzA5Ljc2MDIwNiA5NS41NzExMDIgJiMxMDtMIDMwOS44MDY3NzYgOTYuNDA2NjgzICYjMTA7TCAzMDkuODUzMjg5IDk1LjY0NDU5ICYjMTA7TCAzMDkuODk5NzQ0IDk2LjAwODY4NyAmIzEwO0wgMzA5Ljg5OTc0NCA5Ni4wMDg2ODciLz4mI3hhOyAgIDwvZz4mI3hhOyAgIDxnIGlkPSJwYXRjaF8zIj4mI3hhOyAgICA8cGF0aCBzdHlsZT0iZmlsbDogbm9uZTsgc3Ryb2tlOiAjMDAwMDAwOyBzdHJva2Utd2lkdGg6IDAuODsgc3Ryb2tlLWxpbmVqb2luOiBtaXRlcjsgc3Ryb2tlLWxpbmVjYXA6IHNxdWFyZSIgZD0iTSA0My41ODE1NjMgMTcwLjExOTIxOSAmIzEwO0wgNDMuNTgxNTYzIDMuNzk5MjE5Ii8+JiN4YTsgICA8L2c+JiN4YTsgICA8ZyBpZD0icGF0Y2hfNCI+JiN4YTsgICAgPHBhdGggc3R5bGU9ImZpbGw6IG5vbmU7IHN0cm9rZTogIzAwMDAwMDsgc3Ryb2tlLXdpZHRoOiAwLjg7IHN0cm9rZS1saW5lam9pbjogbWl0ZXI7IHN0cm9rZS1saW5lY2FwOiBzcXVhcmUiIGQ9Ik0gMzIyLjU4MTU2MyAxNzAuMTE5MjE5ICYjMTA7TCAzMjIuNTgxNTYzIDMuNzk5MjE5Ii8+JiN4YTsgICA8L2c+JiN4YTsgICA8ZyBpZD0icGF0Y2hfNSI+JiN4YTsgICAgPHBhdGggc3R5bGU9ImZpbGw6IG5vbmU7IHN0cm9rZTogIzAwMDAwMDsgc3Ryb2tlLXdpZHRoOiAwLjg7IHN0cm9rZS1saW5lam9pbjogbWl0ZXI7IHN0cm9rZS1saW5lY2FwOiBzcXVhcmUiIGQ9Ik0gNDMuNTgxNTYzIDE3MC4xMTkyMTkgJiMxMDtMIDMyMi41ODE1NjMgMTcwLjExOTIxOSIvPiYjeGE7ICAgPC9nPiYjeGE7ICAgPGcgaWQ9InBhdGNoXzYiPiYjeGE7ICAgIDxwYXRoIHN0eWxlPSJmaWxsOiBub25lOyBzdHJva2U6ICMwMDAwMDA7IHN0cm9rZS13aWR0aDogMC44OyBzdHJva2UtbGluZWpvaW46IG1pdGVyOyBzdHJva2UtbGluZWNhcDogc3F1YXJlIiBkPSJNIDQzLjU4MTU2MyAzLjc5OTIxOSAmIzEwO0wgMzIyLjU4MTU2MyAzLjc5OTIxOSIvPiYjeGE7ICAgPC9nPiYjeGE7ICA8L2c+JiN4YTsgIDxnIGlkPSJheGVzXzIiPiYjeGE7ICAgPGcgaWQ9InBhdGNoXzciPiYjeGE7ICAgIDxwYXRoIHN0eWxlPSJmaWxsOiAjZmZmZmZmIiBkPSJNIDM3OC4zODE1NjIgMTcwLjExOTIxOSAmIzEwO0wgNjU3LjM4MTU2MiAxNzAuMTE5MjE5ICYjMTA7TCA2NTcuMzgxNTYyIDMuNzk5MjE5ICYjMTA7TCAzNzguMzgxNTYyIDMuNzk5MjE5ICYjMTA7eiIvPiYjeGE7ICAgPC9nPiYjeGE7ICAgPGcgaWQ9Im1hdHBsb3RsaWIuYXhpc18zIj4mI3hhOyAgICA8ZyBpZD0ieHRpY2tfMzEiPiYjeGE7ICAgICA8ZyBpZD0ibGluZTJkXzE0MSI+JiN4YTsgICAgICA8Zz4mI3hhOyAgICAgICA8dXNlIHN0eWxlPSJzdHJva2U6ICMwMDAwMDA7IHN0cm9rZS13aWR0aDogMC44IiB5PSIxNzAuMTE5MjE5IiB4PSIzOTEuMDYzMzgxIiB4bGluazpocmVmPSIjbTU3ZmJkYWZmYjEiLz4mI3hhOyAgICAgIDwvZz4mI3hhOyAgICAgPC9nPiYjeGE7ICAgICA8ZyBpZD0ibGluZTJkXzE0MiI+JiN4YTsgICAgICA8Zz4mI3hhOyAgICAgICA8dXNlIHN0eWxlPSJzdHJva2U6ICMwMDAwMDA7IHN0cm9rZS13aWR0aDogMC44IiB5PSIzLjc5OTIxOSIgeD0iMzkxLjA2MzM4MSIgeGxpbms6aHJlZj0iI21mYWZjMmQxMmFlIi8+JiN4YTsgICAgICA8L2c+JiN4YTsgICAgIDwvZz4mI3hhOyAgICAgPGcgaWQ9InRleHRfMTEiPiYjeGE7ICAgICAgJiN4YTsgICAgICA8ZyB0cmFuc2Zvcm09InRyYW5zbGF0ZSgzODIuMjYzMzgxIDE4MS4yMTc2NTYpIHNjYWxlKDAuMSAtMC4xKSI+JiN4YTsgICAgICAgPHVzZSB0cmFuc2Zvcm09InRyYW5zbGF0ZSgwIDAuNzY1NjI1KSIgeGxpbms6aHJlZj0iI0RlamFWdVNhbnMtMzEiLz4mI3hhOyAgICAgICA8dXNlIHRyYW5zZm9ybT0idHJhbnNsYXRlKDYzLjYyMzA0NyAwLjc2NTYyNSkiIHhsaW5rOmhyZWY9IiNEZWphVnVTYW5zLTMwIi8+JiN4YTsgICAgICAgPHVzZSB0cmFuc2Zvcm09InRyYW5zbGF0ZSgxMjguMjAzMTI1IDM5LjA0Njg3NSkgc2NhbGUoMC43KSIgeGxpbms6aHJlZj0iI0RlamFWdVNhbnMtMzAiLz4mI3hhOyAgICAgIDwvZz4mI3hhOyAgICAgPC9nPiYjeGE7ICAgIDwvZz4mI3hhOyAgICA8ZyBpZD0ieHRpY2tfMzIiPiYjeGE7ICAgICA8ZyBpZD0ibGluZTJkXzE0MyI+JiN4YTsgICAgICA8Zz4mI3hhOyAgICAgICA8dXNlIHN0eWxlPSJzdHJva2U6ICMwMDAwMDA7IHN0cm9rZS13aWR0aDogMC44IiB5PSIxNzAuMTE5MjE5IiB4PSI0NzguMTg4OTg0IiB4bGluazpocmVmPSIjbTU3ZmJkYWZmYjEiLz4mI3hhOyAgICAgIDwvZz4mI3hhOyAgICAgPC9nPiYjeGE7ICAgICA8ZyBpZD0ibGluZTJkXzE0NCI+JiN4YTsgICAgICA8Zz4mI3hhOyAgICAgICA8dXNlIHN0eWxlPSJzdHJva2U6ICMwMDAwMDA7IHN0cm9rZS13aWR0aDogMC44IiB5PSIzLjc5OTIxOSIgeD0iNDc4LjE4ODk4NCIgeGxpbms6aHJlZj0iI21mYWZjMmQxMmFlIi8+JiN4YTsgICAgICA8L2c+JiN4YTsgICAgIDwvZz4mI3hhOyAgICAgPGcgaWQ9InRleHRfMTIiPiYjeGE7ICAgICAgJiN4YTsgICAgICA8ZyB0cmFuc2Zvcm09InRyYW5zbGF0ZSg0NjkuMzg4OTg0IDE4MS4yMTc2NTYpIHNjYWxlKDAuMSAtMC4xKSI+JiN4YTsgICAgICAgPHVzZSB0cmFuc2Zvcm09InRyYW5zbGF0ZSgwIDAuNjg0Mzc1KSIgeGxpbms6aHJlZj0iI0RlamFWdVNhbnMtMzEiLz4mI3hhOyAgICAgICA8dXNlIHRyYW5zZm9ybT0idHJhbnNsYXRlKDYzLjYyMzA0NyAwLjY4NDM3NSkiIHhsaW5rOmhyZWY9IiNEZWphVnVTYW5zLTMwIi8+JiN4YTsgICAgICAgPHVzZSB0cmFuc2Zvcm09InRyYW5zbGF0ZSgxMjguMjAzMTI1IDM4Ljk2NTYyNSkgc2NhbGUoMC43KSIgeGxpbms6aHJlZj0iI0RlamFWdVNhbnMtMzEiLz4mI3hhOyAgICAgIDwvZz4mI3hhOyAgICAgPC9nPiYjeGE7ICAgIDwvZz4mI3hhOyAgICA8ZyBpZD0ieHRpY2tfMzMiPiYjeGE7ICAgICA8ZyBpZD0ibGluZTJkXzE0NSI+JiN4YTsgICAgICA8Zz4mI3hhOyAgICAgICA8dXNlIHN0eWxlPSJzdHJva2U6ICMwMDAwMDA7IHN0cm9rZS13aWR0aDogMC44IiB5PSIxNzAuMTE5MjE5IiB4PSI1NjUuMzE0NTg4IiB4bGluazpocmVmPSIjbTU3ZmJkYWZmYjEiLz4mI3hhOyAgICAgIDwvZz4mI3hhOyAgICAgPC9nPiYjeGE7ICAgICA8ZyBpZD0ibGluZTJkXzE0NiI+JiN4YTsgICAgICA8Zz4mI3hhOyAgICAgICA8dXNlIHN0eWxlPSJzdHJva2U6ICMwMDAwMDA7IHN0cm9rZS13aWR0aDogMC44IiB5PSIzLjc5OTIxOSIgeD0iNTY1LjMxNDU4OCIgeGxpbms6aHJlZj0iI21mYWZjMmQxMmFlIi8+JiN4YTsgICAgICA8L2c+JiN4YTsgICAgIDwvZz4mI3hhOyAgICAgPGcgaWQ9InRleHRfMTMiPiYjeGE7ICAgICAgJiN4YTsgICAgICA8ZyB0cmFuc2Zvcm09InRyYW5zbGF0ZSg1NTYuNTE0NTg4IDE4MS4yMTc2NTYpIHNjYWxlKDAuMSAtMC4xKSI+JiN4YTsgICAgICAgPHVzZSB0cmFuc2Zvcm09InRyYW5zbGF0ZSgwIDAuNzY1NjI1KSIgeGxpbms6aHJlZj0iI0RlamFWdVNhbnMtMzEiLz4mI3hhOyAgICAgICA8dXNlIHRyYW5zZm9ybT0idHJhbnNsYXRlKDYzLjYyMzA0NyAwLjc2NTYyNSkiIHhsaW5rOmhyZWY9IiNEZWphVnVTYW5zLTMwIi8+JiN4YTsgICAgICAgPHVzZSB0cmFuc2Zvcm09InRyYW5zbGF0ZSgxMjguMjAzMTI1IDM5LjA0Njg3NSkgc2NhbGUoMC43KSIgeGxpbms6aHJlZj0iI0RlamFWdVNhbnMtMzIiLz4mI3hhOyAgICAgIDwvZz4mI3hhOyAgICAgPC9nPiYjeGE7ICAgIDwvZz4mI3hhOyAgICA8ZyBpZD0ieHRpY2tfMzQiPiYjeGE7ICAgICA8ZyBpZD0ibGluZTJkXzE0NyI+JiN4YTsgICAgICA8Zz4mI3hhOyAgICAgICA8dXNlIHN0eWxlPSJzdHJva2U6ICMwMDAwMDA7IHN0cm9rZS13aWR0aDogMC44IiB5PSIxNzAuMTE5MjE5IiB4PSI2NTIuNDQwMTkxIiB4bGluazpocmVmPSIjbTU3ZmJkYWZmYjEiLz4mI3hhOyAgICAgIDwvZz4mI3hhOyAgICAgPC9nPiYjeGE7ICAgICA8ZyBpZD0ibGluZTJkXzE0OCI+JiN4YTsgICAgICA8Zz4mI3hhOyAgICAgICA8dXNlIHN0eWxlPSJzdHJva2U6ICMwMDAwMDA7IHN0cm9rZS13aWR0aDogMC44IiB5PSIzLjc5OTIxOSIgeD0iNjUyLjQ0MDE5MSIgeGxpbms6aHJlZj0iI21mYWZjMmQxMmFlIi8+JiN4YTsgICAgICA8L2c+JiN4YTsgICAgIDwvZz4mI3hhOyAgICAgPGcgaWQ9InRleHRfMTQiPiYjeGE7ICAgICAgJiN4YTsgICAgICA8ZyB0cmFuc2Zvcm09InRyYW5zbGF0ZSg2NDMuNjQwMTkxIDE4MS4yMTc2NTYpIHNjYWxlKDAuMSAtMC4xKSI+JiN4YTsgICAgICAgPHVzZSB0cmFuc2Zvcm09InRyYW5zbGF0ZSgwIDAuNzY1NjI1KSIgeGxpbms6aHJlZj0iI0RlamFWdVNhbnMtMzEiLz4mI3hhOyAgICAgICA8dXNlIHRyYW5zZm9ybT0idHJhbnNsYXRlKDYzLjYyMzA0NyAwLjc2NTYyNSkiIHhsaW5rOmhyZWY9IiNEZWphVnVTYW5zLTMwIi8+JiN4YTsgICAgICAgPHVzZSB0cmFuc2Zvcm09InRyYW5zbGF0ZSgxMjguMjAzMTI1IDM5LjA0Njg3NSkgc2NhbGUoMC43KSIgeGxpbms6aHJlZj0iI0RlamFWdVNhbnMtMzMiLz4mI3hhOyAgICAgIDwvZz4mI3hhOyAgICAgPC9nPiYjeGE7ICAgIDwvZz4mI3hhOyAgICA8ZyBpZD0ieHRpY2tfMzUiPiYjeGE7ICAgICA8ZyBpZD0ibGluZTJkXzE0OSI+JiN4YTsgICAgICA8Zz4mI3hhOyAgICAgICA8dXNlIHN0eWxlPSJzdHJva2U6ICMwMDAwMDA7IHN0cm9rZS13aWR0aDogMC42IiB5PSIxNzAuMTE5MjE5IiB4PSIzODIuNjIwMDM3IiB4bGluazpocmVmPSIjbTU1YTM1MzliOGQiLz4mI3hhOyAgICAgIDwvZz4mI3hhOyAgICAgPC9nPiYjeGE7ICAgICA8ZyBpZD0ibGluZTJkXzE1MCI+JiN4YTsgICAgICA8Zz4mI3hhOyAgICAgICA8dXNlIHN0eWxlPSJzdHJva2U6ICMwMDAwMDA7IHN0cm9rZS13aWR0aDogMC42IiB5PSIzLjc5OTIxOSIgeD0iMzgyLjYyMDAzNyIgeGxpbms6aHJlZj0iI21mMzNhZGY1NGU2Ii8+JiN4YTsgICAgICA8L2c+JiN4YTsgICAgIDwvZz4mI3hhOyAgICA8L2c+JiN4YTsgICAgPGcgaWQ9Inh0aWNrXzM2Ij4mI3hhOyAgICAgPGcgaWQ9ImxpbmUyZF8xNTEiPiYjeGE7ICAgICAgPGc+JiN4YTsgICAgICAgPHVzZSBzdHlsZT0ic3Ryb2tlOiAjMDAwMDAwOyBzdHJva2Utd2lkdGg6IDAuNiIgeT0iMTcwLjExOTIxOSIgeD0iMzg3LjA3NjczMiIgeGxpbms6aHJlZj0iI201NWEzNTM5YjhkIi8+JiN4YTsgICAgICA8L2c+JiN4YTsgICAgIDwvZz4mI3hhOyAgICAgPGcgaWQ9ImxpbmUyZF8xNTIiPiYjeGE7ICAgICAgPGc+JiN4YTsgICAgICAgPHVzZSBzdHlsZT0ic3Ryb2tlOiAjMDAwMDAwOyBzdHJva2Utd2lkdGg6IDAuNiIgeT0iMy43OTkyMTkiIHg9IjM4Ny4wNzY3MzIiIHhsaW5rOmhyZWY9IiNtZjMzYWRmNTRlNiIvPiYjeGE7ICAgICAgPC9nPiYjeGE7ICAgICA8L2c+JiN4YTsgICAgPC9nPiYjeGE7ICAgIDxnIGlkPSJ4dGlja18zNyI+JiN4YTsgICAgIDxnIGlkPSJsaW5lMmRfMTUzIj4mI3hhOyAgICAgIDxnPiYjeGE7ICAgICAgIDx1c2Ugc3R5bGU9InN0cm9rZTogIzAwMDAwMDsgc3Ryb2tlLXdpZHRoOiAwLjYiIHk9IjE3MC4xMTkyMTkiIHg9IjQxNy4yOTA4MDEiIHhsaW5rOmhyZWY9IiNtNTVhMzUzOWI4ZCIvPiYjeGE7ICAgICAgPC9nPiYjeGE7ICAgICA8L2c+JiN4YTsgICAgIDxnIGlkPSJsaW5lMmRfMTU0Ij4mI3hhOyAgICAgIDxnPiYjeGE7ICAgICAgIDx1c2Ugc3R5bGU9InN0cm9rZTogIzAwMDAwMDsgc3Ryb2tlLXdpZHRoOiAwLjYiIHk9IjMuNzk5MjE5IiB4PSI0MTcuMjkwODAxIiB4bGluazpocmVmPSIjbWYzM2FkZjU0ZTYiLz4mI3hhOyAgICAgIDwvZz4mI3hhOyAgICAgPC9nPiYjeGE7ICAgIDwvZz4mI3hhOyAgICA8ZyBpZD0ieHRpY2tfMzgiPiYjeGE7ICAgICA8ZyBpZD0ibGluZTJkXzE1NSI+JiN4YTsgICAgICA8Zz4mI3hhOyAgICAgICA8dXNlIHN0eWxlPSJzdHJva2U6ICMwMDAwMDA7IHN0cm9rZS13aWR0aDogMC42IiB5PSIxNzAuMTE5MjE5IiB4PSI0MzIuNjMyODU4IiB4bGluazpocmVmPSIjbTU1YTM1MzliOGQiLz4mI3hhOyAgICAgIDwvZz4mI3hhOyAgICAgPC9nPiYjeGE7ICAgICA8ZyBpZD0ibGluZTJkXzE1NiI+JiN4YTsgICAgICA8Zz4mI3hhOyAgICAgICA8dXNlIHN0eWxlPSJzdHJva2U6ICMwMDAwMDA7IHN0cm9rZS13aWR0aDogMC42IiB5PSIzLjc5OTIxOSIgeD0iNDMyLjYzMjg1OCIgeGxpbms6aHJlZj0iI21mMzNhZGY1NGU2Ii8+JiN4YTsgICAgICA8L2c+JiN4YTsgICAgIDwvZz4mI3hhOyAgICA8L2c+JiN4YTsgICAgPGcgaWQ9Inh0aWNrXzM5Ij4mI3hhOyAgICAgPGcgaWQ9ImxpbmUyZF8xNTciPiYjeGE7ICAgICAgPGc+JiN4YTsgICAgICAgPHVzZSBzdHlsZT0ic3Ryb2tlOiAjMDAwMDAwOyBzdHJva2Utd2lkdGg6IDAuNiIgeT0iMTcwLjExOTIxOSIgeD0iNDQzLjUxODIyMSIgeGxpbms6aHJlZj0iI201NWEzNTM5YjhkIi8+JiN4YTsgICAgICA8L2c+JiN4YTsgICAgIDwvZz4mI3hhOyAgICAgPGcgaWQ9ImxpbmUyZF8xNTgiPiYjeGE7ICAgICAgPGc+JiN4YTsgICAgICAgPHVzZSBzdHlsZT0ic3Ryb2tlOiAjMDAwMDAwOyBzdHJva2Utd2lkdGg6IDAuNiIgeT0iMy43OTkyMTkiIHg9IjQ0My41MTgyMjEiIHhsaW5rOmhyZWY9IiNtZjMzYWRmNTRlNiIvPiYjeGE7ICAgICAgPC9nPiYjeGE7ICAgICA8L2c+JiN4YTsgICAgPC9nPiYjeGE7ICAgIDxnIGlkPSJ4dGlja180MCI+JiN4YTsgICAgIDxnIGlkPSJsaW5lMmRfMTU5Ij4mI3hhOyAgICAgIDxnPiYjeGE7ICAgICAgIDx1c2Ugc3R5bGU9InN0cm9rZTogIzAwMDAwMDsgc3Ryb2tlLXdpZHRoOiAwLjYiIHk9IjE3MC4xMTkyMTkiIHg9IjQ1MS45NjE1NjQiIHhsaW5rOmhyZWY9IiNtNTVhMzUzOWI4ZCIvPiYjeGE7ICAgICAgPC9nPiYjeGE7ICAgICA8L2c+JiN4YTsgICAgIDxnIGlkPSJsaW5lMmRfMTYwIj4mI3hhOyAgICAgIDxnPiYjeGE7ICAgICAgIDx1c2Ugc3R5bGU9InN0cm9rZTogIzAwMDAwMDsgc3Ryb2tlLXdpZHRoOiAwLjYiIHk9IjMuNzk5MjE5IiB4PSI0NTEuOTYxNTY0IiB4bGluazpocmVmPSIjbWYzM2FkZjU0ZTYiLz4mI3hhOyAgICAgIDwvZz4mI3hhOyAgICAgPC9nPiYjeGE7ICAgIDwvZz4mI3hhOyAgICA8ZyBpZD0ieHRpY2tfNDEiPiYjeGE7ICAgICA8ZyBpZD0ibGluZTJkXzE2MSI+JiN4YTsgICAgICA8Zz4mI3hhOyAgICAgICA8dXNlIHN0eWxlPSJzdHJva2U6ICMwMDAwMDA7IHN0cm9rZS13aWR0aDogMC42IiB5PSIxNzAuMTE5MjE5IiB4PSI0NTguODYwMjc4IiB4bGluazpocmVmPSIjbTU1YTM1MzliOGQiLz4mI3hhOyAgICAgIDwvZz4mI3hhOyAgICAgPC9nPiYjeGE7ICAgICA8ZyBpZD0ibGluZTJkXzE2MiI+JiN4YTsgICAgICA8Zz4mI3hhOyAgICAgICA8dXNlIHN0eWxlPSJzdHJva2U6ICMwMDAwMDA7IHN0cm9rZS13aWR0aDogMC42IiB5PSIzLjc5OTIxOSIgeD0iNDU4Ljg2MDI3OCIgeGxpbms6aHJlZj0iI21mMzNhZGY1NGU2Ii8+JiN4YTsgICAgICA8L2c+JiN4YTsgICAgIDwvZz4mI3hhOyAgICA8L2c+JiN4YTsgICAgPGcgaWQ9Inh0aWNrXzQyIj4mI3hhOyAgICAgPGcgaWQ9ImxpbmUyZF8xNjMiPiYjeGE7ICAgICAgPGc+JiN4YTsgICAgICAgPHVzZSBzdHlsZT0ic3Ryb2tlOiAjMDAwMDAwOyBzdHJva2Utd2lkdGg6IDAuNiIgeT0iMTcwLjExOTIxOSIgeD0iNDY0LjY5MzA1NyIgeGxpbms6aHJlZj0iI201NWEzNTM5YjhkIi8+JiN4YTsgICAgICA8L2c+JiN4YTsgICAgIDwvZz4mI3hhOyAgICAgPGcgaWQ9ImxpbmUyZF8xNjQiPiYjeGE7ICAgICAgPGc+JiN4YTsgICAgICAgPHVzZSBzdHlsZT0ic3Ryb2tlOiAjMDAwMDAwOyBzdHJva2Utd2lkdGg6IDAuNiIgeT0iMy43OTkyMTkiIHg9IjQ2NC42OTMwNTciIHhsaW5rOmhyZWY9IiNtZjMzYWRmNTRlNiIvPiYjeGE7ICAgICAgPC9nPiYjeGE7ICAgICA8L2c+JiN4YTsgICAgPC9nPiYjeGE7ICAgIDxnIGlkPSJ4dGlja180MyI+JiN4YTsgICAgIDxnIGlkPSJsaW5lMmRfMTY1Ij4mI3hhOyAgICAgIDxnPiYjeGE7ICAgICAgIDx1c2Ugc3R5bGU9InN0cm9rZTogIzAwMDAwMDsgc3Ryb2tlLXdpZHRoOiAwLjYiIHk9IjE3MC4xMTkyMTkiIHg9IjQ2OS43NDU2NDEiIHhsaW5rOmhyZWY9IiNtNTVhMzUzOWI4ZCIvPiYjeGE7ICAgICAgPC9nPiYjeGE7ICAgICA8L2c+JiN4YTsgICAgIDxnIGlkPSJsaW5lMmRfMTY2Ij4mI3hhOyAgICAgIDxnPiYjeGE7ICAgICAgIDx1c2Ugc3R5bGU9InN0cm9rZTogIzAwMDAwMDsgc3Ryb2tlLXdpZHRoOiAwLjYiIHk9IjMuNzk5MjE5IiB4PSI0NjkuNzQ1NjQxIiB4bGluazpocmVmPSIjbWYzM2FkZjU0ZTYiLz4mI3hhOyAgICAgIDwvZz4mI3hhOyAgICAgPC9nPiYjeGE7ICAgIDwvZz4mI3hhOyAgICA8ZyBpZD0ieHRpY2tfNDQiPiYjeGE7ICAgICA8ZyBpZD0ibGluZTJkXzE2NyI+JiN4YTsgICAgICA8Zz4mI3hhOyAgICAgICA8dXNlIHN0eWxlPSJzdHJva2U6ICMwMDAwMDA7IHN0cm9rZS13aWR0aDogMC42IiB5PSIxNzAuMTE5MjE5IiB4PSI0NzQuMjAyMzM1IiB4bGluazpocmVmPSIjbTU1YTM1MzliOGQiLz4mI3hhOyAgICAgIDwvZz4mI3hhOyAgICAgPC9nPiYjeGE7ICAgICA8ZyBpZD0ibGluZTJkXzE2OCI+JiN4YTsgICAgICA8Zz4mI3hhOyAgICAgICA8dXNlIHN0eWxlPSJzdHJva2U6ICMwMDAwMDA7IHN0cm9rZS13aWR0aDogMC42IiB5PSIzLjc5OTIxOSIgeD0iNDc0LjIwMjMzNSIgeGxpbms6aHJlZj0iI21mMzNhZGY1NGU2Ii8+JiN4YTsgICAgICA8L2c+JiN4YTsgICAgIDwvZz4mI3hhOyAgICA8L2c+JiN4YTsgICAgPGcgaWQ9Inh0aWNrXzQ1Ij4mI3hhOyAgICAgPGcgaWQ9ImxpbmUyZF8xNjkiPiYjeGE7ICAgICAgPGc+JiN4YTsgICAgICAgPHVzZSBzdHlsZT0ic3Ryb2tlOiAjMDAwMDAwOyBzdHJva2Utd2lkdGg6IDAuNiIgeT0iMTcwLjExOTIxOSIgeD0iNTA0LjQxNjQwNCIgeGxpbms6aHJlZj0iI201NWEzNTM5YjhkIi8+JiN4YTsgICAgICA8L2c+JiN4YTsgICAgIDwvZz4mI3hhOyAgICAgPGcgaWQ9ImxpbmUyZF8xNzAiPiYjeGE7ICAgICAgPGc+JiN4YTsgICAgICAgPHVzZSBzdHlsZT0ic3Ryb2tlOiAjMDAwMDAwOyBzdHJva2Utd2lkdGg6IDAuNiIgeT0iMy43OTkyMTkiIHg9IjUwNC40MTY0MDQiIHhsaW5rOmhyZWY9IiNtZjMzYWRmNTRlNiIvPiYjeGE7ICAgICAgPC9nPiYjeGE7ICAgICA8L2c+JiN4YTsgICAgPC9nPiYjeGE7ICAgIDxnIGlkPSJ4dGlja180NiI+JiN4YTsgICAgIDxnIGlkPSJsaW5lMmRfMTcxIj4mI3hhOyAgICAgIDxnPiYjeGE7ICAgICAgIDx1c2Ugc3R5bGU9InN0cm9rZTogIzAwMDAwMDsgc3Ryb2tlLXdpZHRoOiAwLjYiIHk9IjE3MC4xMTkyMTkiIHg9IjUxOS43NTg0NjEiIHhsaW5rOmhyZWY9IiNtNTVhMzUzOWI4ZCIvPiYjeGE7ICAgICAgPC9nPiYjeGE7ICAgICA8L2c+JiN4YTsgICAgIDxnIGlkPSJsaW5lMmRfMTcyIj4mI3hhOyAgICAgIDxnPiYjeGE7ICAgICAgIDx1c2Ugc3R5bGU9InN0cm9rZTogIzAwMDAwMDsgc3Ryb2tlLXdpZHRoOiAwLjYiIHk9IjMuNzk5MjE5IiB4PSI1MTkuNzU4NDYxIiB4bGluazpocmVmPSIjbWYzM2FkZjU0ZTYiLz4mI3hhOyAgICAgIDwvZz4mI3hhOyAgICAgPC9nPiYjeGE7ICAgIDwvZz4mI3hhOyAgICA8ZyBpZD0ieHRpY2tfNDciPiYjeGE7ICAgICA8ZyBpZD0ibGluZTJkXzE3MyI+JiN4YTsgICAgICA8Zz4mI3hhOyAgICAgICA8dXNlIHN0eWxlPSJzdHJva2U6ICMwMDAwMDA7IHN0cm9rZS13aWR0aDogMC42IiB5PSIxNzAuMTE5MjE5IiB4PSI1MzAuNjQzODI0IiB4bGluazpocmVmPSIjbTU1YTM1MzliOGQiLz4mI3hhOyAgICAgIDwvZz4mI3hhOyAgICAgPC9nPiYjeGE7ICAgICA8ZyBpZD0ibGluZTJkXzE3NCI+JiN4YTsgICAgICA8Zz4mI3hhOyAgICAgICA8dXNlIHN0eWxlPSJzdHJva2U6ICMwMDAwMDA7IHN0cm9rZS13aWR0aDogMC42IiB5PSIzLjc5OTIxOSIgeD0iNTMwLjY0MzgyNCIgeGxpbms6aHJlZj0iI21mMzNhZGY1NGU2Ii8+JiN4YTsgICAgICA8L2c+JiN4YTsgICAgIDwvZz4mI3hhOyAgICA8L2c+JiN4YTsgICAgPGcgaWQ9Inh0aWNrXzQ4Ij4mI3hhOyAgICAgPGcgaWQ9ImxpbmUyZF8xNzUiPiYjeGE7ICAgICAgPGc+JiN4YTsgICAgICAgPHVzZSBzdHlsZT0ic3Ryb2tlOiAjMDAwMDAwOyBzdHJva2Utd2lkdGg6IDAuNiIgeT0iMTcwLjExOTIxOSIgeD0iNTM5LjA4NzE2OCIgeGxpbms6aHJlZj0iI201NWEzNTM5YjhkIi8+JiN4YTsgICAgICA8L2c+JiN4YTsgICAgIDwvZz4mI3hhOyAgICAgPGcgaWQ9ImxpbmUyZF8xNzYiPiYjeGE7ICAgICAgPGc+JiN4YTsgICAgICAgPHVzZSBzdHlsZT0ic3Ryb2tlOiAjMDAwMDAwOyBzdHJva2Utd2lkdGg6IDAuNiIgeT0iMy43OTkyMTkiIHg9IjUzOS4wODcxNjgiIHhsaW5rOmhyZWY9IiNtZjMzYWRmNTRlNiIvPiYjeGE7ICAgICAgPC9nPiYjeGE7ICAgICA8L2c+JiN4YTsgICAgPC9nPiYjeGE7ICAgIDxnIGlkPSJ4dGlja180OSI+JiN4YTsgICAgIDxnIGlkPSJsaW5lMmRfMTc3Ij4mI3hhOyAgICAgIDxnPiYjeGE7ICAgICAgIDx1c2Ugc3R5bGU9InN0cm9rZTogIzAwMDAwMDsgc3Ryb2tlLXdpZHRoOiAwLjYiIHk9IjE3MC4xMTkyMTkiIHg9IjU0NS45ODU4ODIiIHhsaW5rOmhyZWY9IiNtNTVhMzUzOWI4ZCIvPiYjeGE7ICAgICAgPC9nPiYjeGE7ICAgICA8L2c+JiN4YTsgICAgIDxnIGlkPSJsaW5lMmRfMTc4Ij4mI3hhOyAgICAgIDxnPiYjeGE7ICAgICAgIDx1c2Ugc3R5bGU9InN0cm9rZTogIzAwMDAwMDsgc3Ryb2tlLXdpZHRoOiAwLjYiIHk9IjMuNzk5MjE5IiB4PSI1NDUuOTg1ODgyIiB4bGluazpocmVmPSIjbWYzM2FkZjU0ZTYiLz4mI3hhOyAgICAgIDwvZz4mI3hhOyAgICAgPC9nPiYjeGE7ICAgIDwvZz4mI3hhOyAgICA8ZyBpZD0ieHRpY2tfNTAiPiYjeGE7ICAgICA8ZyBpZD0ibGluZTJkXzE3OSI+JiN4YTsgICAgICA8Zz4mI3hhOyAgICAgICA8dXNlIHN0eWxlPSJzdHJva2U6ICMwMDAwMDA7IHN0cm9rZS13aWR0aDogMC42IiB5PSIxNzAuMTE5MjE5IiB4PSI1NTEuODE4NjYxIiB4bGluazpocmVmPSIjbTU1YTM1MzliOGQiLz4mI3hhOyAgICAgIDwvZz4mI3hhOyAgICAgPC9nPiYjeGE7ICAgICA8ZyBpZD0ibGluZTJkXzE4MCI+JiN4YTsgICAgICA8Zz4mI3hhOyAgICAgICA8dXNlIHN0eWxlPSJzdHJva2U6ICMwMDAwMDA7IHN0cm9rZS13aWR0aDogMC42IiB5PSIzLjc5OTIxOSIgeD0iNTUxLjgxODY2MSIgeGxpbms6aHJlZj0iI21mMzNhZGY1NGU2Ii8+JiN4YTsgICAgICA8L2c+JiN4YTsgICAgIDwvZz4mI3hhOyAgICA8L2c+JiN4YTsgICAgPGcgaWQ9Inh0aWNrXzUxIj4mI3hhOyAgICAgPGcgaWQ9ImxpbmUyZF8xODEiPiYjeGE7ICAgICAgPGc+JiN4YTsgICAgICAgPHVzZSBzdHlsZT0ic3Ryb2tlOiAjMDAwMDAwOyBzdHJva2Utd2lkdGg6IDAuNiIgeT0iMTcwLjExOTIxOSIgeD0iNTU2Ljg3MTI0NCIgeGxpbms6aHJlZj0iI201NWEzNTM5YjhkIi8+JiN4YTsgICAgICA8L2c+JiN4YTsgICAgIDwvZz4mI3hhOyAgICAgPGcgaWQ9ImxpbmUyZF8xODIiPiYjeGE7ICAgICAgPGc+JiN4YTsgICAgICAgPHVzZSBzdHlsZT0ic3Ryb2tlOiAjMDAwMDAwOyBzdHJva2Utd2lkdGg6IDAuNiIgeT0iMy43OTkyMTkiIHg9IjU1Ni44NzEyNDQiIHhsaW5rOmhyZWY9IiNtZjMzYWRmNTRlNiIvPiYjeGE7ICAgICAgPC9nPiYjeGE7ICAgICA8L2c+JiN4YTsgICAgPC9nPiYjeGE7ICAgIDxnIGlkPSJ4dGlja181MiI+JiN4YTsgICAgIDxnIGlkPSJsaW5lMmRfMTgzIj4mI3hhOyAgICAgIDxnPiYjeGE7ICAgICAgIDx1c2Ugc3R5bGU9InN0cm9rZTogIzAwMDAwMDsgc3Ryb2tlLXdpZHRoOiAwLjYiIHk9IjE3MC4xMTkyMTkiIHg9IjU2MS4zMjc5MzkiIHhsaW5rOmhyZWY9IiNtNTVhMzUzOWI4ZCIvPiYjeGE7ICAgICAgPC9nPiYjeGE7ICAgICA8L2c+JiN4YTsgICAgIDxnIGlkPSJsaW5lMmRfMTg0Ij4mI3hhOyAgICAgIDxnPiYjeGE7ICAgICAgIDx1c2Ugc3R5bGU9InN0cm9rZTogIzAwMDAwMDsgc3Ryb2tlLXdpZHRoOiAwLjYiIHk9IjMuNzk5MjE5IiB4PSI1NjEuMzI3OTM5IiB4bGluazpocmVmPSIjbWYzM2FkZjU0ZTYiLz4mI3hhOyAgICAgIDwvZz4mI3hhOyAgICAgPC9nPiYjeGE7ICAgIDwvZz4mI3hhOyAgICA8ZyBpZD0ieHRpY2tfNTMiPiYjeGE7ICAgICA8ZyBpZD0ibGluZTJkXzE4NSI+JiN4YTsgICAgICA8Zz4mI3hhOyAgICAgICA8dXNlIHN0eWxlPSJzdHJva2U6ICMwMDAwMDA7IHN0cm9rZS13aWR0aDogMC42IiB5PSIxNzAuMTE5MjE5IiB4PSI1OTEuNTQyMDA4IiB4bGluazpocmVmPSIjbTU1YTM1MzliOGQiLz4mI3hhOyAgICAgIDwvZz4mI3hhOyAgICAgPC9nPiYjeGE7ICAgICA8ZyBpZD0ibGluZTJkXzE4NiI+JiN4YTsgICAgICA8Zz4mI3hhOyAgICAgICA8dXNlIHN0eWxlPSJzdHJva2U6ICMwMDAwMDA7IHN0cm9rZS13aWR0aDogMC42IiB5PSIzLjc5OTIxOSIgeD0iNTkxLjU0MjAwOCIgeGxpbms6aHJlZj0iI21mMzNhZGY1NGU2Ii8+JiN4YTsgICAgICA8L2c+JiN4YTsgICAgIDwvZz4mI3hhOyAgICA8L2c+JiN4YTsgICAgPGcgaWQ9Inh0aWNrXzU0Ij4mI3hhOyAgICAgPGcgaWQ9ImxpbmUyZF8xODciPiYjeGE7ICAgICAgPGc+JiN4YTsgICAgICAgPHVzZSBzdHlsZT0ic3Ryb2tlOiAjMDAwMDAwOyBzdHJva2Utd2lkdGg6IDAuNiIgeT0iMTcwLjExOTIxOSIgeD0iNjA2Ljg4NDA2NSIgeGxpbms6aHJlZj0iI201NWEzNTM5YjhkIi8+JiN4YTsgICAgICA8L2c+JiN4YTsgICAgIDwvZz4mI3hhOyAgICAgPGcgaWQ9ImxpbmUyZF8xODgiPiYjeGE7ICAgICAgPGc+JiN4YTsgICAgICAgPHVzZSBzdHlsZT0ic3Ryb2tlOiAjMDAwMDAwOyBzdHJva2Utd2lkdGg6IDAuNiIgeT0iMy43OTkyMTkiIHg9IjYwNi44ODQwNjUiIHhsaW5rOmhyZWY9IiNtZjMzYWRmNTRlNiIvPiYjeGE7ICAgICAgPC9nPiYjeGE7ICAgICA8L2c+JiN4YTsgICAgPC9nPiYjeGE7ICAgIDxnIGlkPSJ4dGlja181NSI+JiN4YTsgICAgIDxnIGlkPSJsaW5lMmRfMTg5Ij4mI3hhOyAgICAgIDxnPiYjeGE7ICAgICAgIDx1c2Ugc3R5bGU9InN0cm9rZTogIzAwMDAwMDsgc3Ryb2tlLXdpZHRoOiAwLjYiIHk9IjE3MC4xMTkyMTkiIHg9IjYxNy43Njk0MjgiIHhsaW5rOmhyZWY9IiNtNTVhMzUzOWI4ZCIvPiYjeGE7ICAgICAgPC9nPiYjeGE7ICAgICA8L2c+JiN4YTsgICAgIDxnIGlkPSJsaW5lMmRfMTkwIj4mI3hhOyAgICAgIDxnPiYjeGE7ICAgICAgIDx1c2Ugc3R5bGU9InN0cm9rZTogIzAwMDAwMDsgc3Ryb2tlLXdpZHRoOiAwLjYiIHk9IjMuNzk5MjE5IiB4PSI2MTcuNzY5NDI4IiB4bGluazpocmVmPSIjbWYzM2FkZjU0ZTYiLz4mI3hhOyAgICAgIDwvZz4mI3hhOyAgICAgPC9nPiYjeGE7ICAgIDwvZz4mI3hhOyAgICA8ZyBpZD0ieHRpY2tfNTYiPiYjeGE7ICAgICA8ZyBpZD0ibGluZTJkXzE5MSI+JiN4YTsgICAgICA8Zz4mI3hhOyAgICAgICA8dXNlIHN0eWxlPSJzdHJva2U6ICMwMDAwMDA7IHN0cm9rZS13aWR0aDogMC42IiB5PSIxNzAuMTE5MjE5IiB4PSI2MjYuMjEyNzcxIiB4bGluazpocmVmPSIjbTU1YTM1MzliOGQiLz4mI3hhOyAgICAgIDwvZz4mI3hhOyAgICAgPC9nPiYjeGE7ICAgICA8ZyBpZD0ibGluZTJkXzE5MiI+JiN4YTsgICAgICA8Zz4mI3hhOyAgICAgICA8dXNlIHN0eWxlPSJzdHJva2U6ICMwMDAwMDA7IHN0cm9rZS13aWR0aDogMC42IiB5PSIzLjc5OTIxOSIgeD0iNjI2LjIxMjc3MSIgeGxpbms6aHJlZj0iI21mMzNhZGY1NGU2Ii8+JiN4YTsgICAgICA8L2c+JiN4YTsgICAgIDwvZz4mI3hhOyAgICA8L2c+JiN4YTsgICAgPGcgaWQ9Inh0aWNrXzU3Ij4mI3hhOyAgICAgPGcgaWQ9ImxpbmUyZF8xOTMiPiYjeGE7ICAgICAgPGc+JiN4YTsgICAgICAgPHVzZSBzdHlsZT0ic3Ryb2tlOiAjMDAwMDAwOyBzdHJva2Utd2lkdGg6IDAuNiIgeT0iMTcwLjExOTIxOSIgeD0iNjMzLjExMTQ4NSIgeGxpbms6aHJlZj0iI201NWEzNTM5YjhkIi8+JiN4YTsgICAgICA8L2c+JiN4YTsgICAgIDwvZz4mI3hhOyAgICAgPGcgaWQ9ImxpbmUyZF8xOTQiPiYjeGE7ICAgICAgPGc+JiN4YTsgICAgICAgPHVzZSBzdHlsZT0ic3Ryb2tlOiAjMDAwMDAwOyBzdHJva2Utd2lkdGg6IDAuNiIgeT0iMy43OTkyMTkiIHg9IjYzMy4xMTE0ODUiIHhsaW5rOmhyZWY9IiNtZjMzYWRmNTRlNiIvPiYjeGE7ICAgICAgPC9nPiYjeGE7ICAgICA8L2c+JiN4YTsgICAgPC9nPiYjeGE7ICAgIDxnIGlkPSJ4dGlja181OCI+JiN4YTsgICAgIDxnIGlkPSJsaW5lMmRfMTk1Ij4mI3hhOyAgICAgIDxnPiYjeGE7ICAgICAgIDx1c2Ugc3R5bGU9InN0cm9rZTogIzAwMDAwMDsgc3Ryb2tlLXdpZHRoOiAwLjYiIHk9IjE3MC4xMTkyMTkiIHg9IjYzOC45NDQyNjUiIHhsaW5rOmhyZWY9IiNtNTVhMzUzOWI4ZCIvPiYjeGE7ICAgICAgPC9nPiYjeGE7ICAgICA8L2c+JiN4YTsgICAgIDxnIGlkPSJsaW5lMmRfMTk2Ij4mI3hhOyAgICAgIDxnPiYjeGE7ICAgICAgIDx1c2Ugc3R5bGU9InN0cm9rZTogIzAwMDAwMDsgc3Ryb2tlLXdpZHRoOiAwLjYiIHk9IjMuNzk5MjE5IiB4PSI2MzguOTQ0MjY1IiB4bGluazpocmVmPSIjbWYzM2FkZjU0ZTYiLz4mI3hhOyAgICAgIDwvZz4mI3hhOyAgICAgPC9nPiYjeGE7ICAgIDwvZz4mI3hhOyAgICA8ZyBpZD0ieHRpY2tfNTkiPiYjeGE7ICAgICA8ZyBpZD0ibGluZTJkXzE5NyI+JiN4YTsgICAgICA8Zz4mI3hhOyAgICAgICA8dXNlIHN0eWxlPSJzdHJva2U6ICMwMDAwMDA7IHN0cm9rZS13aWR0aDogMC42IiB5PSIxNzAuMTE5MjE5IiB4PSI2NDMuOTk2ODQ4IiB4bGluazpocmVmPSIjbTU1YTM1MzliOGQiLz4mI3hhOyAgICAgIDwvZz4mI3hhOyAgICAgPC9nPiYjeGE7ICAgICA8ZyBpZD0ibGluZTJkXzE5OCI+JiN4YTsgICAgICA8Zz4mI3hhOyAgICAgICA8dXNlIHN0eWxlPSJzdHJva2U6ICMwMDAwMDA7IHN0cm9rZS13aWR0aDogMC42IiB5PSIzLjc5OTIxOSIgeD0iNjQzLjk5Njg0OCIgeGxpbms6aHJlZj0iI21mMzNhZGY1NGU2Ii8+JiN4YTsgICAgICA8L2c+JiN4YTsgICAgIDwvZz4mI3hhOyAgICA8L2c+JiN4YTsgICAgPGcgaWQ9Inh0aWNrXzYwIj4mI3hhOyAgICAgPGcgaWQ9ImxpbmUyZF8xOTkiPiYjeGE7ICAgICAgPGc+JiN4YTsgICAgICAgPHVzZSBzdHlsZT0ic3Ryb2tlOiAjMDAwMDAwOyBzdHJva2Utd2lkdGg6IDAuNiIgeT0iMTcwLjExOTIxOSIgeD0iNjQ4LjQ1MzU0MiIgeGxpbms6aHJlZj0iI201NWEzNTM5YjhkIi8+JiN4YTsgICAgICA8L2c+JiN4YTsgICAgIDwvZz4mI3hhOyAgICAgPGcgaWQ9ImxpbmUyZF8yMDAiPiYjeGE7ICAgICAgPGc+JiN4YTsgICAgICAgPHVzZSBzdHlsZT0ic3Ryb2tlOiAjMDAwMDAwOyBzdHJva2Utd2lkdGg6IDAuNiIgeT0iMy43OTkyMTkiIHg9IjY0OC40NTM1NDIiIHhsaW5rOmhyZWY9IiNtZjMzYWRmNTRlNiIvPiYjeGE7ICAgICAgPC9nPiYjeGE7ICAgICA8L2c+JiN4YTsgICAgPC9nPiYjeGE7ICAgIDxnIGlkPSJ0ZXh0XzE1Ij4mI3hhOyAgICAgJiN4YTsgICAgIDxnIHRyYW5zZm9ybT0idHJhbnNsYXRlKDQ5NC43MjczNDQgMTk5LjMyNDM3NSkgc2NhbGUoMC4xMyAtMC4xMykiPiYjeGE7ICAgICAgPHVzZSB4bGluazpocmVmPSIjRGVqYVZ1U2Fucy1jOSIvPiYjeGE7ICAgICAgPHVzZSB4PSI2My4xODM1OTQiIHhsaW5rOmhyZWY9IiNEZWphVnVTYW5zLTcwIi8+JiN4YTsgICAgICA8dXNlIHg9IjEyNi42NjAxNTYiIHhsaW5rOmhyZWY9IiNEZWphVnVTYW5zLTZmIi8+JiN4YTsgICAgICA8dXNlIHg9IjE4Ny44NDE3OTciIHhsaW5rOmhyZWY9IiNEZWphVnVTYW5zLTYzIi8+JiN4YTsgICAgICA8dXNlIHg9IjI0Mi44MjIyNjYiIHhsaW5rOmhyZWY9IiNEZWphVnVTYW5zLTYxIi8+JiN4YTsgICAgICA8dXNlIHg9IjMwNC4xMDE1NjIiIHhsaW5rOmhyZWY9IiNEZWphVnVTYW5zLTczIi8+JiN4YTsgICAgIDwvZz4mI3hhOyAgICA8L2c+JiN4YTsgICA8L2c+JiN4YTsgICA8ZyBpZD0ibWF0cGxvdGxpYi5heGlzXzQiPiYjeGE7ICAgIDxnIGlkPSJ5dGlja180MCI+JiN4YTsgICAgIDxnIGlkPSJsaW5lMmRfMjAxIj4mI3hhOyAgICAgIDxnPiYjeGE7ICAgICAgIDx1c2Ugc3R5bGU9InN0cm9rZTogIzAwMDAwMDsgc3Ryb2tlLXdpZHRoOiAwLjgiIHk9IjE3MC4xMTkyMTkiIHg9IjM3OC4zODE1NjIiIHhsaW5rOmhyZWY9IiNtMzFhZTE0OWY3MyIvPiYjeGE7ICAgICAgPC9nPiYjeGE7ICAgICA8L2c+JiN4YTsgICAgIDxnIGlkPSJsaW5lMmRfMjAyIj4mI3hhOyAgICAgIDxnPiYjeGE7ICAgICAgIDx1c2Ugc3R5bGU9InN0cm9rZTogIzAwMDAwMDsgc3Ryb2tlLXdpZHRoOiAwLjgiIHk9IjE3MC4xMTkyMTkiIHg9IjY1Ny4zODE1NjIiIHhsaW5rOmhyZWY9IiNtNjI1M2I1ZDhlNCIvPiYjeGE7ICAgICAgPC9nPiYjeGE7ICAgICA8L2c+JiN4YTsgICAgIDxnIGlkPSJ0ZXh0XzE2Ij4mI3hhOyAgICAgICYjeGE7ICAgICAgPGcgdHJhbnNmb3JtPSJ0cmFuc2xhdGUoMzU4Ljk3ODQzNyAxNzMuOTE4NDM4KSBzY2FsZSgwLjEgLTAuMSkiPiYjeGE7ICAgICAgIDxkZWZzPiYjeGE7ICAgICAgICA8cGF0aCB0cmFuc2Zvcm09InNjYWxlKDAuMDE1NjI1KSIgZD0iTSA2ODQgNzk0ICYjMTA7TCAxMzQ0IDc5NCAmIzEwO0wgMTM0NCAwICYjMTA7TCA2ODQgMCAmIzEwO0wgNjg0IDc5NCAmIzEwO3oiIGlkPSJEZWphVnVTYW5zLTJlIi8+JiN4YTsgICAgICAgPC9kZWZzPiYjeGE7ICAgICAgIDx1c2UgeGxpbms6aHJlZj0iI0RlamFWdVNhbnMtMzAiLz4mI3hhOyAgICAgICA8dXNlIHg9IjYzLjYyMzA0NyIgeGxpbms6aHJlZj0iI0RlamFWdVNhbnMtMmUiLz4mI3hhOyAgICAgICA8dXNlIHg9Ijk1LjQxMDE1NiIgeGxpbms6aHJlZj0iI0RlamFWdVNhbnMtMzAiLz4mI3hhOyAgICAgIDwvZz4mI3hhOyAgICAgPC9nPiYjeGE7ICAgIDwvZz4mI3hhOyAgICA8ZyBpZD0ieXRpY2tfNDEiPiYjeGE7ICAgICA8ZyBpZD0ibGluZTJkXzIwMyI+JiN4YTsgICAgICA8Zz4mI3hhOyAgICAgICA8dXNlIHN0eWxlPSJzdHJva2U6ICMwMDAwMDA7IHN0cm9rZS13aWR0aDogMC44IiB5PSIxMzYuODU1MjE5IiB4PSIzNzguMzgxNTYyIiB4bGluazpocmVmPSIjbTMxYWUxNDlmNzMiLz4mI3hhOyAgICAgIDwvZz4mI3hhOyAgICAgPC9nPiYjeGE7ICAgICA8ZyBpZD0ibGluZTJkXzIwNCI+JiN4YTsgICAgICA8Zz4mI3hhOyAgICAgICA8dXNlIHN0eWxlPSJzdHJva2U6ICMwMDAwMDA7IHN0cm9rZS13aWR0aDogMC44IiB5PSIxMzYuODU1MjE5IiB4PSI2NTcuMzgxNTYyIiB4bGluazpocmVmPSIjbTYyNTNiNWQ4ZTQiLz4mI3hhOyAgICAgIDwvZz4mI3hhOyAgICAgPC9nPiYjeGE7ICAgICA8ZyBpZD0idGV4dF8xNyI+JiN4YTsgICAgICAmI3hhOyAgICAgIDxnIHRyYW5zZm9ybT0idHJhbnNsYXRlKDM1OC45Nzg0MzcgMTQwLjY1NDQzOCkgc2NhbGUoMC4xIC0wLjEpIj4mI3hhOyAgICAgICA8dXNlIHhsaW5rOmhyZWY9IiNEZWphVnVTYW5zLTMwIi8+JiN4YTsgICAgICAgPHVzZSB4PSI2My42MjMwNDciIHhsaW5rOmhyZWY9IiNEZWphVnVTYW5zLTJlIi8+JiN4YTsgICAgICAgPHVzZSB4PSI5NS40MTAxNTYiIHhsaW5rOmhyZWY9IiNEZWphVnVTYW5zLTMyIi8+JiN4YTsgICAgICA8L2c+JiN4YTsgICAgIDwvZz4mI3hhOyAgICA8L2c+JiN4YTsgICAgPGcgaWQ9Inl0aWNrXzQyIj4mI3hhOyAgICAgPGcgaWQ9ImxpbmUyZF8yMDUiPiYjeGE7ICAgICAgPGc+JiN4YTsgICAgICAgPHVzZSBzdHlsZT0ic3Ryb2tlOiAjMDAwMDAwOyBzdHJva2Utd2lkdGg6IDAuOCIgeT0iMTAzLjU5MTIxOSIgeD0iMzc4LjM4MTU2MiIgeGxpbms6aHJlZj0iI20zMWFlMTQ5ZjczIi8+JiN4YTsgICAgICA8L2c+JiN4YTsgICAgIDwvZz4mI3hhOyAgICAgPGcgaWQ9ImxpbmUyZF8yMDYiPiYjeGE7ICAgICAgPGc+JiN4YTsgICAgICAgPHVzZSBzdHlsZT0ic3Ryb2tlOiAjMDAwMDAwOyBzdHJva2Utd2lkdGg6IDAuOCIgeT0iMTAzLjU5MTIxOSIgeD0iNjU3LjM4MTU2MiIgeGxpbms6aHJlZj0iI202MjUzYjVkOGU0Ii8+JiN4YTsgICAgICA8L2c+JiN4YTsgICAgIDwvZz4mI3hhOyAgICAgPGcgaWQ9InRleHRfMTgiPiYjeGE7ICAgICAgJiN4YTsgICAgICA8ZyB0cmFuc2Zvcm09InRyYW5zbGF0ZSgzNTguOTc4NDM3IDEwNy4zOTA0MzgpIHNjYWxlKDAuMSAtMC4xKSI+JiN4YTsgICAgICAgPGRlZnM+JiN4YTsgICAgICAgIDxwYXRoIHRyYW5zZm9ybT0ic2NhbGUoMC4wMTU2MjUpIiBkPSJNIDI0MTkgNDExNiAmIzEwO0wgODI1IDE2MjUgJiMxMDtMIDI0MTkgMTYyNSAmIzEwO0wgMjQxOSA0MTE2ICYjMTA7eiYjMTA7TSAyMjUzIDQ2NjYgJiMxMDtMIDMwNDcgNDY2NiAmIzEwO0wgMzA0NyAxNjI1ICYjMTA7TCAzNzEzIDE2MjUgJiMxMDtMIDM3MTMgMTEwMCAmIzEwO0wgMzA0NyAxMTAwICYjMTA7TCAzMDQ3IDAgJiMxMDtMIDI0MTkgMCAmIzEwO0wgMjQxOSAxMTAwICYjMTA7TCAzMTMgMTEwMCAmIzEwO0wgMzEzIDE3MDkgJiMxMDtMIDIyNTMgNDY2NiAmIzEwO3oiIGlkPSJEZWphVnVTYW5zLTM0Ii8+JiN4YTsgICAgICAgPC9kZWZzPiYjeGE7ICAgICAgIDx1c2UgeGxpbms6aHJlZj0iI0RlamFWdVNhbnMtMzAiLz4mI3hhOyAgICAgICA8dXNlIHg9IjYzLjYyMzA0NyIgeGxpbms6aHJlZj0iI0RlamFWdVNhbnMtMmUiLz4mI3hhOyAgICAgICA8dXNlIHg9Ijk1LjQxMDE1NiIgeGxpbms6aHJlZj0iI0RlamFWdVNhbnMtMzQiLz4mI3hhOyAgICAgIDwvZz4mI3hhOyAgICAgPC9nPiYjeGE7ICAgIDwvZz4mI3hhOyAgICA8ZyBpZD0ieXRpY2tfNDMiPiYjeGE7ICAgICA8ZyBpZD0ibGluZTJkXzIwNyI+JiN4YTsgICAgICA8Zz4mI3hhOyAgICAgICA8dXNlIHN0eWxlPSJzdHJva2U6ICMwMDAwMDA7IHN0cm9rZS13aWR0aDogMC44IiB5PSI3MC4zMjcyMTkiIHg9IjM3OC4zODE1NjIiIHhsaW5rOmhyZWY9IiNtMzFhZTE0OWY3MyIvPiYjeGE7ICAgICAgPC9nPiYjeGE7ICAgICA8L2c+JiN4YTsgICAgIDxnIGlkPSJsaW5lMmRfMjA4Ij4mI3hhOyAgICAgIDxnPiYjeGE7ICAgICAgIDx1c2Ugc3R5bGU9InN0cm9rZTogIzAwMDAwMDsgc3Ryb2tlLXdpZHRoOiAwLjgiIHk9IjcwLjMyNzIxOSIgeD0iNjU3LjM4MTU2MiIgeGxpbms6aHJlZj0iI202MjUzYjVkOGU0Ii8+JiN4YTsgICAgICA8L2c+JiN4YTsgICAgIDwvZz4mI3hhOyAgICAgPGcgaWQ9InRleHRfMTkiPiYjeGE7ICAgICAgJiN4YTsgICAgICA8ZyB0cmFuc2Zvcm09InRyYW5zbGF0ZSgzNTguOTc4NDM3IDc0LjEyNjQzNykgc2NhbGUoMC4xIC0wLjEpIj4mI3hhOyAgICAgICA8ZGVmcz4mI3hhOyAgICAgICAgPHBhdGggdHJhbnNmb3JtPSJzY2FsZSgwLjAxNTYyNSkiIGQ9Ik0gMjExMyAyNTg0ICYjMTA7USAxNjg4IDI1ODQgMTQzOSAyMjkzICYjMTA7USAxMTkxIDIwMDMgMTE5MSAxNDk3ICYjMTA7USAxMTkxIDk5NCAxNDM5IDcwMSAmIzEwO1EgMTY4OCA0MDkgMjExMyA0MDkgJiMxMDtRIDI1MzggNDA5IDI3ODYgNzAxICYjMTA7USAzMDM0IDk5NCAzMDM0IDE0OTcgJiMxMDtRIDMwMzQgMjAwMyAyNzg2IDIyOTMgJiMxMDtRIDI1MzggMjU4NCAyMTEzIDI1ODQgJiMxMDt6JiMxMDtNIDMzNjYgNDU2MyAmIzEwO0wgMzM2NiAzOTg4ICYjMTA7USAzMTI4IDQxMDAgMjg4NiA0MTU5ICYjMTA7USAyNjQ0IDQyMTkgMjQwNiA0MjE5ICYjMTA7USAxNzgxIDQyMTkgMTQ1MSAzNzk3ICYjMTA7USAxMTIyIDMzNzUgMTA3NSAyNTIyICYjMTA7USAxMjU5IDI3OTQgMTUzNyAyOTM5ICYjMTA7USAxODE2IDMwODQgMjE1MCAzMDg0ICYjMTA7USAyODUzIDMwODQgMzI2MSAyNjU3ICYjMTA7USAzNjY5IDIyMzEgMzY2OSAxNDk3ICYjMTA7USAzNjY5IDc3OCAzMjQ0IDM0MyAmIzEwO1EgMjgxOSAtOTEgMjExMyAtOTEgJiMxMDtRIDEzMDMgLTkxIDg3NSA1MjkgJiMxMDtRIDQ0NyAxMTUwIDQ0NyAyMzI4ICYjMTA7USA0NDcgMzQzNCA5NzIgNDA5MiAmIzEwO1EgMTQ5NyA0NzUwIDIzODEgNDc1MCAmIzEwO1EgMjYxOSA0NzUwIDI4NjEgNDcwMyAmIzEwO1EgMzEwMyA0NjU2IDMzNjYgNDU2MyAmIzEwO3oiIGlkPSJEZWphVnVTYW5zLTM2Ii8+JiN4YTsgICAgICAgPC9kZWZzPiYjeGE7ICAgICAgIDx1c2UgeGxpbms6aHJlZj0iI0RlamFWdVNhbnMtMzAiLz4mI3hhOyAgICAgICA8dXNlIHg9IjYzLjYyMzA0NyIgeGxpbms6aHJlZj0iI0RlamFWdVNhbnMtMmUiLz4mI3hhOyAgICAgICA8dXNlIHg9Ijk1LjQxMDE1NiIgeGxpbms6aHJlZj0iI0RlamFWdVNhbnMtMzYiLz4mI3hhOyAgICAgIDwvZz4mI3hhOyAgICAgPC9nPiYjeGE7ICAgIDwvZz4mI3hhOyAgICA8ZyBpZD0ieXRpY2tfNDQiPiYjeGE7ICAgICA8ZyBpZD0ibGluZTJkXzIwOSI+JiN4YTsgICAgICA8Zz4mI3hhOyAgICAgICA8dXNlIHN0eWxlPSJzdHJva2U6ICMwMDAwMDA7IHN0cm9rZS13aWR0aDogMC44IiB5PSIzNy4wNjMyMTkiIHg9IjM3OC4zODE1NjIiIHhsaW5rOmhyZWY9IiNtMzFhZTE0OWY3MyIvPiYjeGE7ICAgICAgPC9nPiYjeGE7ICAgICA8L2c+JiN4YTsgICAgIDxnIGlkPSJsaW5lMmRfMjEwIj4mI3hhOyAgICAgIDxnPiYjeGE7ICAgICAgIDx1c2Ugc3R5bGU9InN0cm9rZTogIzAwMDAwMDsgc3Ryb2tlLXdpZHRoOiAwLjgiIHk9IjM3LjA2MzIxOSIgeD0iNjU3LjM4MTU2MiIgeGxpbms6aHJlZj0iI202MjUzYjVkOGU0Ii8+JiN4YTsgICAgICA8L2c+JiN4YTsgICAgIDwvZz4mI3hhOyAgICAgPGcgaWQ9InRleHRfMjAiPiYjeGE7ICAgICAgJiN4YTsgICAgICA8ZyB0cmFuc2Zvcm09InRyYW5zbGF0ZSgzNTguOTc4NDM3IDQwLjg2MjQzNykgc2NhbGUoMC4xIC0wLjEpIj4mI3hhOyAgICAgICA8ZGVmcz4mI3hhOyAgICAgICAgPHBhdGggdHJhbnNmb3JtPSJzY2FsZSgwLjAxNTYyNSkiIGQ9Ik0gMjAzNCAyMjE2ICYjMTA7USAxNTg0IDIyMTYgMTMyNiAxOTc1ICYjMTA7USAxMDY5IDE3MzQgMTA2OSAxMzEzICYjMTA7USAxMDY5IDg5MSAxMzI2IDY1MCAmIzEwO1EgMTU4NCA0MDkgMjAzNCA0MDkgJiMxMDtRIDI0ODQgNDA5IDI3NDMgNjUxICYjMTA7USAzMDAzIDg5NCAzMDAzIDEzMTMgJiMxMDtRIDMwMDMgMTczNCAyNzQ1IDE5NzUgJiMxMDtRIDI0ODggMjIxNiAyMDM0IDIyMTYgJiMxMDt6JiMxMDtNIDE0MDMgMjQ4NCAmIzEwO1EgOTk3IDI1ODQgNzcwIDI4NjIgJiMxMDtRIDU0NCAzMTQxIDU0NCAzNTQxICYjMTA7USA1NDQgNDEwMCA5NDIgNDQyNSAmIzEwO1EgMTM0MSA0NzUwIDIwMzQgNDc1MCAmIzEwO1EgMjczMSA0NzUwIDMxMjggNDQyNSAmIzEwO1EgMzUyNSA0MTAwIDM1MjUgMzU0MSAmIzEwO1EgMzUyNSAzMTQxIDMyOTggMjg2MiAmIzEwO1EgMzA3MiAyNTg0IDI2NjkgMjQ4NCAmIzEwO1EgMzEyNSAyMzc4IDMzNzkgMjA2OCAmIzEwO1EgMzYzNCAxNzU5IDM2MzQgMTMxMyAmIzEwO1EgMzYzNCA2MzQgMzIyMCAyNzEgJiMxMDtRIDI4MDYgLTkxIDIwMzQgLTkxICYjMTA7USAxMjYzIC05MSA4NDggMjcxICYjMTA7USA0MzQgNjM0IDQzNCAxMzEzICYjMTA7USA0MzQgMTc1OSA2OTAgMjA2OCAmIzEwO1EgOTQ3IDIzNzggMTQwMyAyNDg0ICYjMTA7eiYjMTA7TSAxMTcyIDM0ODEgJiMxMDtRIDExNzIgMzExOSAxMzk4IDI5MTYgJiMxMDtRIDE2MjUgMjcxMyAyMDM0IDI3MTMgJiMxMDtRIDI0NDEgMjcxMyAyNjcwIDI5MTYgJiMxMDtRIDI5MDAgMzExOSAyOTAwIDM0ODEgJiMxMDtRIDI5MDAgMzg0NCAyNjcwIDQwNDcgJiMxMDtRIDI0NDEgNDI1MCAyMDM0IDQyNTAgJiMxMDtRIDE2MjUgNDI1MCAxMzk4IDQwNDcgJiMxMDtRIDExNzIgMzg0NCAxMTcyIDM0ODEgJiMxMDt6IiBpZD0iRGVqYVZ1U2Fucy0zOCIvPiYjeGE7ICAgICAgIDwvZGVmcz4mI3hhOyAgICAgICA8dXNlIHhsaW5rOmhyZWY9IiNEZWphVnVTYW5zLTMwIi8+JiN4YTsgICAgICAgPHVzZSB4PSI2My42MjMwNDciIHhsaW5rOmhyZWY9IiNEZWphVnVTYW5zLTJlIi8+JiN4YTsgICAgICAgPHVzZSB4PSI5NS40MTAxNTYiIHhsaW5rOmhyZWY9IiNEZWphVnVTYW5zLTM4Ii8+JiN4YTsgICAgICA8L2c+JiN4YTsgICAgIDwvZz4mI3hhOyAgICA8L2c+JiN4YTsgICAgPGcgaWQ9Inl0aWNrXzQ1Ij4mI3hhOyAgICAgPGcgaWQ9ImxpbmUyZF8yMTEiPiYjeGE7ICAgICAgPGc+JiN4YTsgICAgICAgPHVzZSBzdHlsZT0ic3Ryb2tlOiAjMDAwMDAwOyBzdHJva2Utd2lkdGg6IDAuOCIgeT0iMy43OTkyMTkiIHg9IjM3OC4zODE1NjIiIHhsaW5rOmhyZWY9IiNtMzFhZTE0OWY3MyIvPiYjeGE7ICAgICAgPC9nPiYjeGE7ICAgICA8L2c+JiN4YTsgICAgIDxnIGlkPSJsaW5lMmRfMjEyIj4mI3hhOyAgICAgIDxnPiYjeGE7ICAgICAgIDx1c2Ugc3R5bGU9InN0cm9rZTogIzAwMDAwMDsgc3Ryb2tlLXdpZHRoOiAwLjgiIHk9IjMuNzk5MjE5IiB4PSI2NTcuMzgxNTYyIiB4bGluazpocmVmPSIjbTYyNTNiNWQ4ZTQiLz4mI3hhOyAgICAgIDwvZz4mI3hhOyAgICAgPC9nPiYjeGE7ICAgICA8ZyBpZD0idGV4dF8yMSI+JiN4YTsgICAgICAmI3hhOyAgICAgIDxnIHRyYW5zZm9ybT0idHJhbnNsYXRlKDM1OC45Nzg0MzcgNy41OTg0MzcpIHNjYWxlKDAuMSAtMC4xKSI+JiN4YTsgICAgICAgPHVzZSB4bGluazpocmVmPSIjRGVqYVZ1U2Fucy0zMSIvPiYjeGE7ICAgICAgIDx1c2UgeD0iNjMuNjIzMDQ3IiB4bGluazpocmVmPSIjRGVqYVZ1U2Fucy0yZSIvPiYjeGE7ICAgICAgIDx1c2UgeD0iOTUuNDEwMTU2IiB4bGluazpocmVmPSIjRGVqYVZ1U2Fucy0zMCIvPiYjeGE7ICAgICAgPC9nPiYjeGE7ICAgICA8L2c+JiN4YTsgICAgPC9nPiYjeGE7ICAgIDxnIGlkPSJ5dGlja180NiI+JiN4YTsgICAgIDxnIGlkPSJsaW5lMmRfMjEzIj4mI3hhOyAgICAgIDxnPiYjeGE7ICAgICAgIDx1c2Ugc3R5bGU9InN0cm9rZTogIzAwMDAwMDsgc3Ryb2tlLXdpZHRoOiAwLjYiIHk9IjE2MS44MDMyMTkiIHg9IjM3OC4zODE1NjIiIHhsaW5rOmhyZWY9IiNtY2ZhNjRmZDczMSIvPiYjeGE7ICAgICAgPC9nPiYjeGE7ICAgICA8L2c+JiN4YTsgICAgIDxnIGlkPSJsaW5lMmRfMjE0Ij4mI3hhOyAgICAgIDxnPiYjeGE7ICAgICAgIDx1c2Ugc3R5bGU9InN0cm9rZTogIzAwMDAwMDsgc3Ryb2tlLXdpZHRoOiAwLjYiIHk9IjE2MS44MDMyMTkiIHg9IjY1Ny4zODE1NjIiIHhsaW5rOmhyZWY9IiNtNGZjNzU3ZGRjMSIvPiYjeGE7ICAgICAgPC9nPiYjeGE7ICAgICA8L2c+JiN4YTsgICAgPC9nPiYjeGE7ICAgIDxnIGlkPSJ5dGlja180NyI+JiN4YTsgICAgIDxnIGlkPSJsaW5lMmRfMjE1Ij4mI3hhOyAgICAgIDxnPiYjeGE7ICAgICAgIDx1c2Ugc3R5bGU9InN0cm9rZTogIzAwMDAwMDsgc3Ryb2tlLXdpZHRoOiAwLjYiIHk9IjE1My40ODcyMTkiIHg9IjM3OC4zODE1NjIiIHhsaW5rOmhyZWY9IiNtY2ZhNjRmZDczMSIvPiYjeGE7ICAgICAgPC9nPiYjeGE7ICAgICA8L2c+JiN4YTsgICAgIDxnIGlkPSJsaW5lMmRfMjE2Ij4mI3hhOyAgICAgIDxnPiYjeGE7ICAgICAgIDx1c2Ugc3R5bGU9InN0cm9rZTogIzAwMDAwMDsgc3Ryb2tlLXdpZHRoOiAwLjYiIHk9IjE1My40ODcyMTkiIHg9IjY1Ny4zODE1NjIiIHhsaW5rOmhyZWY9IiNtNGZjNzU3ZGRjMSIvPiYjeGE7ICAgICAgPC9nPiYjeGE7ICAgICA8L2c+JiN4YTsgICAgPC9nPiYjeGE7ICAgIDxnIGlkPSJ5dGlja180OCI+JiN4YTsgICAgIDxnIGlkPSJsaW5lMmRfMjE3Ij4mI3hhOyAgICAgIDxnPiYjeGE7ICAgICAgIDx1c2Ugc3R5bGU9InN0cm9rZTogIzAwMDAwMDsgc3Ryb2tlLXdpZHRoOiAwLjYiIHk9IjE0NS4xNzEyMTkiIHg9IjM3OC4zODE1NjIiIHhsaW5rOmhyZWY9IiNtY2ZhNjRmZDczMSIvPiYjeGE7ICAgICAgPC9nPiYjeGE7ICAgICA8L2c+JiN4YTsgICAgIDxnIGlkPSJsaW5lMmRfMjE4Ij4mI3hhOyAgICAgIDxnPiYjeGE7ICAgICAgIDx1c2Ugc3R5bGU9InN0cm9rZTogIzAwMDAwMDsgc3Ryb2tlLXdpZHRoOiAwLjYiIHk9IjE0NS4xNzEyMTkiIHg9IjY1Ny4zODE1NjIiIHhsaW5rOmhyZWY9IiNtNGZjNzU3ZGRjMSIvPiYjeGE7ICAgICAgPC9nPiYjeGE7ICAgICA8L2c+JiN4YTsgICAgPC9nPiYjeGE7ICAgIDxnIGlkPSJ5dGlja180OSI+JiN4YTsgICAgIDxnIGlkPSJsaW5lMmRfMjE5Ij4mI3hhOyAgICAgIDxnPiYjeGE7ICAgICAgIDx1c2Ugc3R5bGU9InN0cm9rZTogIzAwMDAwMDsgc3Ryb2tlLXdpZHRoOiAwLjYiIHk9IjEyOC41MzkyMTkiIHg9IjM3OC4zODE1NjIiIHhsaW5rOmhyZWY9IiNtY2ZhNjRmZDczMSIvPiYjeGE7ICAgICAgPC9nPiYjeGE7ICAgICA8L2c+JiN4YTsgICAgIDxnIGlkPSJsaW5lMmRfMjIwIj4mI3hhOyAgICAgIDxnPiYjeGE7ICAgICAgIDx1c2Ugc3R5bGU9InN0cm9rZTogIzAwMDAwMDsgc3Ryb2tlLXdpZHRoOiAwLjYiIHk9IjEyOC41MzkyMTkiIHg9IjY1Ny4zODE1NjIiIHhsaW5rOmhyZWY9IiNtNGZjNzU3ZGRjMSIvPiYjeGE7ICAgICAgPC9nPiYjeGE7ICAgICA8L2c+JiN4YTsgICAgPC9nPiYjeGE7ICAgIDxnIGlkPSJ5dGlja181MCI+JiN4YTsgICAgIDxnIGlkPSJsaW5lMmRfMjIxIj4mI3hhOyAgICAgIDxnPiYjeGE7ICAgICAgIDx1c2Ugc3R5bGU9InN0cm9rZTogIzAwMDAwMDsgc3Ryb2tlLXdpZHRoOiAwLjYiIHk9IjEyMC4yMjMyMTkiIHg9IjM3OC4zODE1NjIiIHhsaW5rOmhyZWY9IiNtY2ZhNjRmZDczMSIvPiYjeGE7ICAgICAgPC9nPiYjeGE7ICAgICA8L2c+JiN4YTsgICAgIDxnIGlkPSJsaW5lMmRfMjIyIj4mI3hhOyAgICAgIDxnPiYjeGE7ICAgICAgIDx1c2Ugc3R5bGU9InN0cm9rZTogIzAwMDAwMDsgc3Ryb2tlLXdpZHRoOiAwLjYiIHk9IjEyMC4yMjMyMTkiIHg9IjY1Ny4zODE1NjIiIHhsaW5rOmhyZWY9IiNtNGZjNzU3ZGRjMSIvPiYjeGE7ICAgICAgPC9nPiYjeGE7ICAgICA8L2c+JiN4YTsgICAgPC9nPiYjeGE7ICAgIDxnIGlkPSJ5dGlja181MSI+JiN4YTsgICAgIDxnIGlkPSJsaW5lMmRfMjIzIj4mI3hhOyAgICAgIDxnPiYjeGE7ICAgICAgIDx1c2Ugc3R5bGU9InN0cm9rZTogIzAwMDAwMDsgc3Ryb2tlLXdpZHRoOiAwLjYiIHk9IjExMS45MDcyMTkiIHg9IjM3OC4zODE1NjIiIHhsaW5rOmhyZWY9IiNtY2ZhNjRmZDczMSIvPiYjeGE7ICAgICAgPC9nPiYjeGE7ICAgICA8L2c+JiN4YTsgICAgIDxnIGlkPSJsaW5lMmRfMjI0Ij4mI3hhOyAgICAgIDxnPiYjeGE7ICAgICAgIDx1c2Ugc3R5bGU9InN0cm9rZTogIzAwMDAwMDsgc3Ryb2tlLXdpZHRoOiAwLjYiIHk9IjExMS45MDcyMTkiIHg9IjY1Ny4zODE1NjIiIHhsaW5rOmhyZWY9IiNtNGZjNzU3ZGRjMSIvPiYjeGE7ICAgICAgPC9nPiYjeGE7ICAgICA8L2c+JiN4YTsgICAgPC9nPiYjeGE7ICAgIDxnIGlkPSJ5dGlja181MiI+JiN4YTsgICAgIDxnIGlkPSJsaW5lMmRfMjI1Ij4mI3hhOyAgICAgIDxnPiYjeGE7ICAgICAgIDx1c2Ugc3R5bGU9InN0cm9rZTogIzAwMDAwMDsgc3Ryb2tlLXdpZHRoOiAwLjYiIHk9Ijk1LjI3NTIxOSIgeD0iMzc4LjM4MTU2MiIgeGxpbms6aHJlZj0iI21jZmE2NGZkNzMxIi8+JiN4YTsgICAgICA8L2c+JiN4YTsgICAgIDwvZz4mI3hhOyAgICAgPGcgaWQ9ImxpbmUyZF8yMjYiPiYjeGE7ICAgICAgPGc+JiN4YTsgICAgICAgPHVzZSBzdHlsZT0ic3Ryb2tlOiAjMDAwMDAwOyBzdHJva2Utd2lkdGg6IDAuNiIgeT0iOTUuMjc1MjE5IiB4PSI2NTcuMzgxNTYyIiB4bGluazpocmVmPSIjbTRmYzc1N2RkYzEiLz4mI3hhOyAgICAgIDwvZz4mI3hhOyAgICAgPC9nPiYjeGE7ICAgIDwvZz4mI3hhOyAgICA8ZyBpZD0ieXRpY2tfNTMiPiYjeGE7ICAgICA8ZyBpZD0ibGluZTJkXzIyNyI+JiN4YTsgICAgICA8Zz4mI3hhOyAgICAgICA8dXNlIHN0eWxlPSJzdHJva2U6ICMwMDAwMDA7IHN0cm9rZS13aWR0aDogMC42IiB5PSI4Ni45NTkyMTkiIHg9IjM3OC4zODE1NjIiIHhsaW5rOmhyZWY9IiNtY2ZhNjRmZDczMSIvPiYjeGE7ICAgICAgPC9nPiYjeGE7ICAgICA8L2c+JiN4YTsgICAgIDxnIGlkPSJsaW5lMmRfMjI4Ij4mI3hhOyAgICAgIDxnPiYjeGE7ICAgICAgIDx1c2Ugc3R5bGU9InN0cm9rZTogIzAwMDAwMDsgc3Ryb2tlLXdpZHRoOiAwLjYiIHk9Ijg2Ljk1OTIxOSIgeD0iNjU3LjM4MTU2MiIgeGxpbms6aHJlZj0iI200ZmM3NTdkZGMxIi8+JiN4YTsgICAgICA8L2c+JiN4YTsgICAgIDwvZz4mI3hhOyAgICA8L2c+JiN4YTsgICAgPGcgaWQ9Inl0aWNrXzU0Ij4mI3hhOyAgICAgPGcgaWQ9ImxpbmUyZF8yMjkiPiYjeGE7ICAgICAgPGc+JiN4YTsgICAgICAgPHVzZSBzdHlsZT0ic3Ryb2tlOiAjMDAwMDAwOyBzdHJva2Utd2lkdGg6IDAuNiIgeT0iNzguNjQzMjE5IiB4PSIzNzguMzgxNTYyIiB4bGluazpocmVmPSIjbWNmYTY0ZmQ3MzEiLz4mI3hhOyAgICAgIDwvZz4mI3hhOyAgICAgPC9nPiYjeGE7ICAgICA8ZyBpZD0ibGluZTJkXzIzMCI+JiN4YTsgICAgICA8Zz4mI3hhOyAgICAgICA8dXNlIHN0eWxlPSJzdHJva2U6ICMwMDAwMDA7IHN0cm9rZS13aWR0aDogMC42IiB5PSI3OC42NDMyMTkiIHg9IjY1Ny4zODE1NjIiIHhsaW5rOmhyZWY9IiNtNGZjNzU3ZGRjMSIvPiYjeGE7ICAgICAgPC9nPiYjeGE7ICAgICA8L2c+JiN4YTsgICAgPC9nPiYjeGE7ICAgIDxnIGlkPSJ5dGlja181NSI+JiN4YTsgICAgIDxnIGlkPSJsaW5lMmRfMjMxIj4mI3hhOyAgICAgIDxnPiYjeGE7ICAgICAgIDx1c2Ugc3R5bGU9InN0cm9rZTogIzAwMDAwMDsgc3Ryb2tlLXdpZHRoOiAwLjYiIHk9IjYyLjAxMTIxOSIgeD0iMzc4LjM4MTU2MiIgeGxpbms6aHJlZj0iI21jZmE2NGZkNzMxIi8+JiN4YTsgICAgICA8L2c+JiN4YTsgICAgIDwvZz4mI3hhOyAgICAgPGcgaWQ9ImxpbmUyZF8yMzIiPiYjeGE7ICAgICAgPGc+JiN4YTsgICAgICAgPHVzZSBzdHlsZT0ic3Ryb2tlOiAjMDAwMDAwOyBzdHJva2Utd2lkdGg6IDAuNiIgeT0iNjIuMDExMjE5IiB4PSI2NTcuMzgxNTYyIiB4bGluazpocmVmPSIjbTRmYzc1N2RkYzEiLz4mI3hhOyAgICAgIDwvZz4mI3hhOyAgICAgPC9nPiYjeGE7ICAgIDwvZz4mI3hhOyAgICA8ZyBpZD0ieXRpY2tfNTYiPiYjeGE7ICAgICA8ZyBpZD0ibGluZTJkXzIzMyI+JiN4YTsgICAgICA8Zz4mI3hhOyAgICAgICA8dXNlIHN0eWxlPSJzdHJva2U6ICMwMDAwMDA7IHN0cm9rZS13aWR0aDogMC42IiB5PSI1My42OTUyMTkiIHg9IjM3OC4zODE1NjIiIHhsaW5rOmhyZWY9IiNtY2ZhNjRmZDczMSIvPiYjeGE7ICAgICAgPC9nPiYjeGE7ICAgICA8L2c+JiN4YTsgICAgIDxnIGlkPSJsaW5lMmRfMjM0Ij4mI3hhOyAgICAgIDxnPiYjeGE7ICAgICAgIDx1c2Ugc3R5bGU9InN0cm9rZTogIzAwMDAwMDsgc3Ryb2tlLXdpZHRoOiAwLjYiIHk9IjUzLjY5NTIxOSIgeD0iNjU3LjM4MTU2MiIgeGxpbms6aHJlZj0iI200ZmM3NTdkZGMxIi8+JiN4YTsgICAgICA8L2c+JiN4YTsgICAgIDwvZz4mI3hhOyAgICA8L2c+JiN4YTsgICAgPGcgaWQ9Inl0aWNrXzU3Ij4mI3hhOyAgICAgPGcgaWQ9ImxpbmUyZF8yMzUiPiYjeGE7ICAgICAgPGc+JiN4YTsgICAgICAgPHVzZSBzdHlsZT0ic3Ryb2tlOiAjMDAwMDAwOyBzdHJva2Utd2lkdGg6IDAuNiIgeT0iNDUuMzc5MjE5IiB4PSIzNzguMzgxNTYyIiB4bGluazpocmVmPSIjbWNmYTY0ZmQ3MzEiLz4mI3hhOyAgICAgIDwvZz4mI3hhOyAgICAgPC9nPiYjeGE7ICAgICA8ZyBpZD0ibGluZTJkXzIzNiI+JiN4YTsgICAgICA8Zz4mI3hhOyAgICAgICA8dXNlIHN0eWxlPSJzdHJva2U6ICMwMDAwMDA7IHN0cm9rZS13aWR0aDogMC42IiB5PSI0NS4zNzkyMTkiIHg9IjY1Ny4zODE1NjIiIHhsaW5rOmhyZWY9IiNtNGZjNzU3ZGRjMSIvPiYjeGE7ICAgICAgPC9nPiYjeGE7ICAgICA8L2c+JiN4YTsgICAgPC9nPiYjeGE7ICAgIDxnIGlkPSJ5dGlja181OCI+JiN4YTsgICAgIDxnIGlkPSJsaW5lMmRfMjM3Ij4mI3hhOyAgICAgIDxnPiYjeGE7ICAgICAgIDx1c2Ugc3R5bGU9InN0cm9rZTogIzAwMDAwMDsgc3Ryb2tlLXdpZHRoOiAwLjYiIHk9IjI4Ljc0NzIxOSIgeD0iMzc4LjM4MTU2MiIgeGxpbms6aHJlZj0iI21jZmE2NGZkNzMxIi8+JiN4YTsgICAgICA8L2c+JiN4YTsgICAgIDwvZz4mI3hhOyAgICAgPGcgaWQ9ImxpbmUyZF8yMzgiPiYjeGE7ICAgICAgPGc+JiN4YTsgICAgICAgPHVzZSBzdHlsZT0ic3Ryb2tlOiAjMDAwMDAwOyBzdHJva2Utd2lkdGg6IDAuNiIgeT0iMjguNzQ3MjE5IiB4PSI2NTcuMzgxNTYyIiB4bGluazpocmVmPSIjbTRmYzc1N2RkYzEiLz4mI3hhOyAgICAgIDwvZz4mI3hhOyAgICAgPC9nPiYjeGE7ICAgIDwvZz4mI3hhOyAgICA8ZyBpZD0ieXRpY2tfNTkiPiYjeGE7ICAgICA8ZyBpZD0ibGluZTJkXzIzOSI+JiN4YTsgICAgICA8Zz4mI3hhOyAgICAgICA8dXNlIHN0eWxlPSJzdHJva2U6ICMwMDAwMDA7IHN0cm9rZS13aWR0aDogMC42IiB5PSIyMC40MzEyMTkiIHg9IjM3OC4zODE1NjIiIHhsaW5rOmhyZWY9IiNtY2ZhNjRmZDczMSIvPiYjeGE7ICAgICAgPC9nPiYjeGE7ICAgICA8L2c+JiN4YTsgICAgIDxnIGlkPSJsaW5lMmRfMjQwIj4mI3hhOyAgICAgIDxnPiYjeGE7ICAgICAgIDx1c2Ugc3R5bGU9InN0cm9rZTogIzAwMDAwMDsgc3Ryb2tlLXdpZHRoOiAwLjYiIHk9IjIwLjQzMTIxOSIgeD0iNjU3LjM4MTU2MiIgeGxpbms6aHJlZj0iI200ZmM3NTdkZGMxIi8+JiN4YTsgICAgICA8L2c+JiN4YTsgICAgIDwvZz4mI3hhOyAgICA8L2c+JiN4YTsgICAgPGcgaWQ9Inl0aWNrXzYwIj4mI3hhOyAgICAgPGcgaWQ9ImxpbmUyZF8yNDEiPiYjeGE7ICAgICAgPGc+JiN4YTsgICAgICAgPHVzZSBzdHlsZT0ic3Ryb2tlOiAjMDAwMDAwOyBzdHJva2Utd2lkdGg6IDAuNiIgeT0iMTIuMTE1MjE5IiB4PSIzNzguMzgxNTYyIiB4bGluazpocmVmPSIjbWNmYTY0ZmQ3MzEiLz4mI3hhOyAgICAgIDwvZz4mI3hhOyAgICAgPC9nPiYjeGE7ICAgICA8ZyBpZD0ibGluZTJkXzI0MiI+JiN4YTsgICAgICA8Zz4mI3hhOyAgICAgICA8dXNlIHN0eWxlPSJzdHJva2U6ICMwMDAwMDA7IHN0cm9rZS13aWR0aDogMC42IiB5PSIxMi4xMTUyMTkiIHg9IjY1Ny4zODE1NjIiIHhsaW5rOmhyZWY9IiNtNGZjNzU3ZGRjMSIvPiYjeGE7ICAgICAgPC9nPiYjeGE7ICAgICA8L2c+JiN4YTsgICAgPC9nPiYjeGE7ICAgIDxnIGlkPSJ0ZXh0XzIyIj4mI3hhOyAgICAgJiN4YTsgICAgIDxnIHRyYW5zZm9ybT0idHJhbnNsYXRlKDM1Mi4yNzQ4NDQgOTcuNjE5MjE5KSByb3RhdGUoLTkwKSBzY2FsZSgwLjEzIC0wLjEzKSI+JiN4YTsgICAgICA8ZGVmcz4mI3hhOyAgICAgICA8cGF0aCB0cmFuc2Zvcm09InNjYWxlKDAuMDE1NjI1KSIgZD0iTSAxMDgxIDQ2NjYgJiMxMDtMIDE3MTYgNDY2NiAmIzEwO0wgODA2IDAgJiMxMDtMIDE3MiAwICYjMTA7TCAxMDgxIDQ2NjYgJiMxMDt6IiBpZD0iRGVqYVZ1U2Fucy1PYmxpcXVlLTQ5Ii8+JiN4YTsgICAgICAgPHBhdGggdHJhbnNmb3JtPSJzY2FsZSgwLjAxNTYyNSkiIGQ9Ik0gMTYyNSAtOTEgJiMxMDtRIDEwMDkgLTkxIDY1MSAyODkgJiMxMDtRIDI5NCA2NjkgMjk0IDEzMjUgJiMxMDtRIDI5NCAxNzA2IDQxNyAyMTAxICYjMTA7USA1NDEgMjQ5NyA3MzggMjc2NiAmIzEwO1EgMTA0NyAzMTg0IDE0MjggMzM4NCAmIzEwO1EgMTgwOSAzNTg0IDIyOTEgMzU4NCAmIzEwO1EgMjg4OCAzNTg0IDMyNTUgMzIxMiAmIzEwO1EgMzYyMiAyODQxIDM2MjIgMjI0MSAmIzEwO1EgMzYyMiAxODI1IDM1MDAgMTQxMiAmIzEwO1EgMzM3OCAxMDAwIDMxODEgNzI4ICYjMTA7USAyODc1IDMwOSAyNDk0IDEwOSAmIzEwO1EgMjExMyAtOTEgMTYyNSAtOTEgJiMxMDt6JiMxMDtNIDg5MSAxMzQ0ICYjMTA7USA4OTEgODY5IDEwODkgNjMzICYjMTA7USAxMjg4IDM5NyAxNjkxIDM5NyAmIzEwO1EgMjI2OSAzOTcgMjY0OCA5MDEgJiMxMDtRIDMwMjggMTQwNiAzMDI4IDIxODEgJiMxMDtRIDMwMjggMjYzNCAyODI1IDI4NjUgJiMxMDtRIDI2MjIgMzA5NyAyMjI4IDMwOTcgJiMxMDtRIDE5MDMgMzA5NyAxNjUwIDI5NDUgJiMxMDtRIDEzOTcgMjc5NCAxMTk3IDI0ODQgJiMxMDtRIDEwNTAgMjI1MyA5NzAgMTk1NiAmIzEwO1EgODkxIDE2NTkgODkxIDEzNDQgJiMxMDt6IiBpZD0iRGVqYVZ1U2Fucy1PYmxpcXVlLTZmIi8+JiN4YTsgICAgICAgPHBhdGggdHJhbnNmb3JtPSJzY2FsZSgwLjAxNTYyNSkiIGQ9Ik0gOTkxIDQ2NjYgJiMxMDtMIDE2MjUgNDY2NiAmIzEwO0wgMTA3NSAxODMxICYjMTA7USAxMDQxIDE2NDEgMTAyNyAxNTE3ICYjMTA7USAxMDEzIDEzOTQgMTAxMyAxMzAwICYjMTA7USAxMDEzIDg2OSAxMjUzIDY0NSAmIzEwO1EgMTQ5NCA0MjIgMTk1OSA0MjIgJiMxMDtRIDI1NjMgNDIyIDI4OTggNzUzICYjMTA7USAzMjM0IDEwODQgMzM3OCAxODMxICYjMTA7TCAzOTI4IDQ2NjYgJiMxMDtMIDQ1NjMgNDY2NiAmIzEwO0wgNDAwMCAxNzUzICYjMTA7USAzODE2IDgwOSAzMzAwIDM1OSAmIzEwO1EgMjc4NCAtOTEgMTg4OCAtOTEgJiMxMDtRIDExODggLTkxIDc4MCAyNjEgJiMxMDtRIDM3MiA2MTMgMzcyIDEyMTYgJiMxMDtRIDM3MiAxMzI1IDM4NyAxNDYxICYjMTA7USA0MDMgMTU5NyA0MzQgMTc1MyAmIzEwO0wgOTkxIDQ2NjYgJiMxMDt6IiBpZD0iRGVqYVZ1U2Fucy1PYmxpcXVlLTU1Ii8+JiN4YTsgICAgICA8L2RlZnM+JiN4YTsgICAgICA8dXNlIHRyYW5zZm9ybT0idHJhbnNsYXRlKDAgMC4wOTM3NSkiIHhsaW5rOmhyZWY9IiNEZWphVnVTYW5zLU9ibGlxdWUtNDkiLz4mI3hhOyAgICAgIDx1c2UgdHJhbnNmb3JtPSJ0cmFuc2xhdGUoMjkuNDkyMTg4IDAuMDkzNzUpIiB4bGluazpocmVmPSIjRGVqYVZ1U2Fucy1PYmxpcXVlLTZmIi8+JiN4YTsgICAgICA8dXNlIHRyYW5zZm9ybT0idHJhbnNsYXRlKDkwLjY3MzgyOCAwLjA5Mzc1KSIgeGxpbms6aHJlZj0iI0RlamFWdVNhbnMtT2JsaXF1ZS01NSIvPiYjeGE7ICAgICA8L2c+JiN4YTsgICAgPC9nPiYjeGE7ICAgPC9nPiYjeGE7ICAgPGcgaWQ9ImxpbmUyZF8yNDMiPiYjeGE7ICAgIDxwYXRoIHN0eWxlPSJmaWxsOiBub25lOyBzdHJva2U6ICMwMDAwODA7IHN0cm9rZS13aWR0aDogMS41OyBzdHJva2UtbGluZWNhcDogc3F1YXJlIiBjbGlwLXBhdGg9InVybCgjcDI5YThlODczNzMpIiBkPSJNIDM5MS4wNjMzODEgMTA4LjU3NDYxNyAmIzEwO0wgNDE3LjI5MDgwMSA4Ny43Mzc2ODcgJiMxMDtMIDQzMi42MzI4NTggNzAuNTM0NzAzICYjMTA7TCA0NDMuNTE4MjIxIDYxLjYzMzk1NyAmIzEwO0wgNDUxLjk2MTU2NCA1Ny4wNzM5MDEgJiMxMDtMIDQ1OC44NjAyNzggNTQuMDE3NzM1ICYjMTA7TCA0NjQuNjkzMDU3IDUxLjI0NTU2OSAmIzEwO0wgNDc0LjIwMjMzNSA0Ni45NDc4MDMgJiMxMDtMIDQ3OC4xODg5ODQgNDUuMTI4Mzg5ICYjMTA7TCA0ODEuNzk1MzQ3IDQzLjA2ODY4MiAmIzEwO0wgNDg1LjA4NzY5OCA0MS42NTc5MyAmIzEwO0wgNDg4LjExNjM2OCA0MC4wMTg5MyAmIzEwO0wgNDkwLjkyMDQ3OCAzOC42ODk0NzggJiMxMDtMIDQ5My41MzEwNDEgMzcuNTk4Mjg1ICYjMTA7TCA0OTUuOTczMDYxIDM1LjkwNjc3NCAmIzEwO0wgNDk4LjI2Njk4NiAzNC42MzEwNjIgJiMxMDtMIDUwMC40Mjk3NTUgMzMuMjc0NTU2ICYjMTA7TCA1MTUuNzcxODEzIDI0LjY3MzQ0MyAmIzEwO0wgNTE3LjE0Nzg5OCAyNC4wNTU2MjggJiMxMDtMIDUxOC40NzU2ODkgMjMuMjA4OTIgJiMxMDtMIDUyMC45OTkxNjggMjEuODg3NTU3ICYjMTA7TCA1MjQuNDk0NDA2IDE5Ljk3MjY3NiAmIzEwO0wgNTI2LjY1NzE3NSAxOS4xODkyMDcgJiMxMDtMIDUyNy42OTM5MDIgMTguNDk2MDk5ICYjMTA7TCA1MjkuNjg1ODQ1IDE3LjY5MDQ4MiAmIzEwO0wgNTMwLjY0MzgyNCAxNy4xMTYyODYgJiMxMDtMIDUzMi40ODk5NTUgMTYuNDA3MTI4ICYjMTA7TCA1MzMuMzgwMzA2IDE1Ljk5ODQ0NiAmIzEwO0wgNTM0LjI1MDE4NyAxNS44MTU5MjkgJiMxMDtMIDUzNS4xMDA1MTkgMTUuMjk2NjYzICYjMTA7TCA1MzUuOTMyMTYgMTUuMTIyNzYyICYjMTA7TCA1MzYuNzQ1OTE2IDE0LjYwNTg0NSAmIzEwO0wgNTM4LjMyMjczNCAxNC4wMzAwOTIgJiMxMDtMIDUzOS4wODcxNjggMTMuODk3MzggJiMxMDtMIDUzOS44MzY0NjMgMTMuNTM2NjcgJiMxMDtMIDU0MC41NzEyMDggMTMuNzg4NzU5ICYjMTA7TCA1NDEuMjkxOTU2IDEzLjU4NjgwMiAmIzEwO0wgNTQyLjY5MzUzIDEyLjc4NjUyOSAmIzEwO0wgNTQ0LjA0NTAzNyAxMi4zMTIxMTIgJiMxMDtMIDU0NC43MDMxMDkgMTIuMDEwOTYxICYjMTA7TCA1NDguNDI3OTAxIDExLjA2OTMyMyAmIzEwO0wgNTUwLjE2MTI1IDEwLjQ3NTk3MyAmIzEwO0wgNTUwLjcyMTgyNiAxMC40MjUwODcgJiMxMDtMIDU1MS44MTg2NjEgMTAuMTYwNTU3ICYjMTA7TCA1NTIuMzU1MzgyIDEwLjgzOTcyNyAmIzEwO0wgNTUyLjg4NDU5NSAxMC40ODUzNzEgJiMxMDtMIDU1My40MDY1MDkgMTAuNDMxODk4ICYjMTA7TCA1NTMuOTIxMzIyIDEwLjA2NTU4NiAmIzEwO0wgNTU1LjkxMzI2NSA5LjM4Mzc2OSAmIzEwO0wgNTU4LjI2NDIxOCA4Ljg5NTEwNiAmIzEwO0wgNTYyLjE1OTU4IDguMTUxNDk4ICYjMTA7TCA1NjIuNTY4NjQ2IDguMzA0NjQxICYjMTA7TCA1NjMuMzczNzQzIDguMTU4Njk2ICYjMTA7TCA1NjQuMTYyMDY3IDcuOTY2NjQyICYjMTA7TCA1NjQuNTUwMTU0IDcuOTk1OTc2ICYjMTA7TCA1NjUuNjkxMDkgNy42NTA5MjkgJiMxMDtMIDU2Ny41MTkzNzcgNy4zODA1ICYjMTA7TCA1NjguMjI2NjUzIDcuMjMyNTkyICYjMTA7TCA1NjguNTc1Mzk0IDcuMzUwODQ5ICYjMTA7TCA1NjkuMjYzMzggNy4xNjcyMDIgJiMxMDtMIDU2OS45MzkwNzkgNy4wNTQ2NDUgJiMxMDtMIDU3NC42NTUzMjEgNi43MDAzMDkgJiMxMDtMIDU3NC45NDk3ODMgNi43NTU5ODMgJiMxMDtMIDU3NS4yNDE5NzEgNy4wODU5MDIgJiMxMDtMIDU3Ni4xMDUyMzcgNi42NDIyNjYgJiMxMDtMIDU3Ny43NzQ4MzkgNi4zMTg1NzIgJiMxMDtMIDU3OC4wNDYwODEgNi4zNTU4NDcgJiMxMDtMIDU3OC44NDgzMzQgNi4yMjQ2NjIgJiMxMDtMIDU3OS4xMTIwMTUgNi4xNzE4MzMgJiMxMDtMIDU3OS42MzM5MjkgNi4yMDk1MDQgJiMxMDtMIDU3OS44OTIyMTIgNi4xOTIwNTcgJiMxMDtMIDU3OS44OTIyMTIgNi42NDQ0NzYgJiMxMDtMIDU4MS40MDU5NCA1LjYzMjMxNCAmIzEwO0wgNTgyLjE0MDY4NSA1LjcxOTQ3MyAmIzEwO0wgNTgyLjYyMjcwNiA1LjU1NDQ2MyAmIzEwO0wgNTg0LjAzMjk4OCA1LjE5MzE5OCAmIzEwO0wgNTg0LjI2MzAwOCA1LjI5MTIzMiAmIzEwO0wgNTg0LjcxODg5NSA1LjI0MjMyOSAmIzEwO0wgNTg1LjE2OTM1NCA1LjMzMzk0OSAmIzEwO0wgNTg1LjM5MjU4OSA1LjI0OTA5ICYjMTA7TCA1ODUuNjE0NTE0IDUuMjgzNzM3ICYjMTA7TCA1ODYuMjcyNTg2IDUuMTU1NTE3ICYjMTA7TCA1ODcuMzQ0NTYxIDUuMDU5NzIzICYjMTA7TCA1OTEuNzMwNzI3IDQuOTA2ODg4ICYjMTA7TCA1OTIuMTA1MzY2IDUuMTA3MjM4ICYjMTA7TCA1OTMuMjA3NTI2IDQuOTI2Mzk3ICYjMTA7TCA1OTMuNzQ2Nzk3IDQuOTQ4MDU4ICYjMTA7TCA1OTQuMjc4NDg5IDQuODc0OTU2ICYjMTA7TCA1OTYuMzMzNTU1IDQuNjgwODMxICYjMTA7TCA1OTYuNjY1NDcxIDQuNzk3MDI3ICYjMTA7TCA1OTcuOTY0NzY0IDQuNjk3NjA1ICYjMTA7TCA1OTguMjgyNzMzIDQuODAwMzY4ICYjMTA7TCA1OTguOTEwNzY3IDQuNjgzNjA3ICYjMTA7TCA1OTkuNTI4NTQ3IDQuNjU2NjcyICYjMTA7TCA2MDAuMjg2ODUyIDQuNTk4NTIgJiMxMDtMIDYwMS4wMzAyNTkgNC42MjQ5MSAmIzEwO0wgNjAxLjMyMzU3OSA0Ljk1NTkxICYjMTA7TCA2MDIuMTkwMTQgNC42MzAyMjMgJiMxMDtMIDYwMi42MTYwOSA0LjUyNzUzICYjMTA7TCA2MDIuNjE2MDkgNC44MDQxNTUgJiMxMDtMIDYwMi44OTc0MTYgNC44MDMwNjQgJiMxMDtMIDYwMy4zMTU1MjIgNC42MDEwMzggJiMxMDtMIDYwNC42NzY3NTQgNC42NjU5NDEgJiMxMDtMIDYwNC44MTAyMjIgNC43Njk1MTcgJiMxMDtMIDYwNS44NjEzNSA0LjQzNzE4OSAmIzEwO0wgNjA2LjUwMzc3OSA0LjU0OTk5NCAmIzEwO0wgNjA2Ljc1NzcyNyA0LjYxNjg0ICYjMTA7TCA2MDcuMzg1MjQgNC40NjQ2MjkgJiMxMDtMIDYwNy43NTY4MTMgNS4xNjMyNTkgJiMxMDtMIDYwOC4wMDI1MTYgNS4xNTM4NjEgJiMxMDtMIDYwOC4yNDY2MzQgNC44NTk5NTcgJiMxMDtMIDYwOC40ODkxODcgNC43MjE5NzIgJiMxMDtMIDYwOC45Njk2NzggNC41MzA0OTQgJiMxMDtMIDYxMC4yNjA0MDggNC40NDc1ODggJiMxMDtMIDYxMC40OTA0MjggNC40NDc5NDUgJiMxMDtMIDYxMC44MzI4NTcgNC40MjAxNTcgJiMxMDtMIDYxMS4wNTk0MzMgNC44MDA4NTMgJiMxMDtMIDYxMS4zOTY3NzQgNC42MTEzNTggJiMxMDtMIDYxMS44NDE5MzUgNC40MzU3MDIgJiMxMDtMIDYxMi42MDg1ODEgNC4zNjA4MTUgJiMxMDtMIDYxMy4zNjAwMDIgNC40NTE2NTIgJiMxMDtMIDYxMy41NzE5ODEgNC41MzM5NTQgJiMxMDtMIDYxNC40MDgyMTcgNC4zMDUwNTIgJiMxMDtMIDYxNC42MTQ0MiA0LjQ5NDY4NyAmIzEwO0wgNjE0LjgxOTUwNiA0LjQyODk1ICYjMTA7TCA2MTUuMDIzNDg2IDQuNDI5NTc1ICYjMTA7TCA2MTUuNTI4Njc2IDQuMzI5MzYgJiMxMDtMIDYxNi40MjEzNjEgNC4yNTQyMDYgJiMxMDtMIDYxNi43MTQzMDMgNC4yODAzNDggJiMxMDtMIDYxNy4zODkxNDIgNC4zNjAzICYjMTA7TCA2MTguMDUyMTU1IDQuMzMyNDczICYjMTA7TCA2MTguMzMyNzg2IDQuMzA4MDA2ICYjMTA7TCA2MTkuMTYyNDAxIDQuMzQ0MDgxICYjMTA7TCA2MTkuOTc0MjE3IDQuMjExMjQxICYjMTA7TCA2MjAuMTUyMjc5IDQuMzM4NDIxICYjMTA7TCA2MjAuMjQwOTk3IDQuMzMzNjMzICYjMTA7TCA2MjAuNDE3ODExIDQuOTgyMDUxICYjMTA7TCA2MjEuMTE2OTE5IDQuMzQ1NjY4ICYjMTA7TCA2MjEuMzc1NzkxIDQuMjk5MTgzICYjMTA7TCA2MjMuNzkwOTI3IDQuMjgyOTQ1ICYjMTA7TCA2MjQuMTkyMTg0IDQuMjcyMSAmIzEwO0wgNjI0LjU4OTIzIDQuMjMwMzQ1ICYjMTA7TCA2MjUuMDYwMjUxIDQuMzAyODUxICYjMTA7TCA2MjUuMjE1OTYzIDQuNjE2OTQ5ICYjMTA7TCA2MjUuNzU1OTY3IDQuMjY5ODMgJiMxMDtMIDYyNS45ODUwNTggNC4yNjg2OCAmIzEwO0wgNjI2LjEzNzAxOSA0LjY3NjU0OSAmIzEwO0wgNjI2LjM2MzgyMiA0LjU3MjE3ICYjMTA7TCA2MjYuNzM4ODMyIDQuMjQ0NjIgJiMxMDtMIDYyNy40MDQ2MjMgNC4xMzg3ODQgJiMxMDtMIDYyOC43NzI4NTEgNC4xMTQ3ODQgJiMxMDtMIDYyOC45ODQ0MzUgNC4xNDk2OTkgJiMxMDtMIDYyOS44ODc4NjggNC4xMjU1NCAmIzEwO0wgNjMxLjg5Mzg5NCA0LjA2NjUwNSAmIzEwO0wgNjMxLjg5Mzg5NCA0LjQzNjczMyAmIzEwO0wgNjMxLjk1ODk2NCA0LjI5NDA2OCAmIzEwO0wgNjMyLjE1MzUwNiA0LjE3MzI0MyAmIzEwO0wgNjMyLjg1ODM4NiA0LjA3MDM5MSAmIzEwO0wgNjMyLjk4NTE0NyA0LjIwMjgyNSAmIzEwO0wgNjMzLjM2MjkwMiA0LjEwOTY0OCAmIzEwO0wgNjMzLjczNjkyNCA0LjAzNzA2MiAmIzEwO0wgNjM0LjUzNDgzOCA0LjA4NTc3NyAmIzEwO0wgNjM0Ljc3NzAwMyA0LjE0NjIzOSAmIzEwO0wgNjM1LjAxNzYyOSA0LjExNTQ0OCAmIzEwO0wgNjM1LjEzNzM3IDQuMjcyMzI4ICYjMTA7TCA2MzUuMjU2NzMzIDQuMzM0OTEyICYjMTA7TCA2MzYuMTk4MzIyIDQuMDczNzcyICYjMTA7TCA2MzYuNzc1MTM1IDQuMDYxMDEzICYjMTA7TCA2MzcuMDYwMjc3IDQuMDUwNjgzICYjMTA7TCA2MzcuMzQzMjg2IDQuMDAyMzg1ICYjMTA7TCA2MzcuNjgwMTI3IDQuMDQxMTI3ICYjMTA7TCA2MzguMzQ0OTQzIDMuOTk4MzcgJiMxMDtMIDYzOC4zOTk4MjEgNC4wMDY2MDggJiMxMDtMIDYzOC41MDkzMzggNC4yMDk0NDcgJiMxMDtMIDYzOC42MTg1MzkgNC4xMDk3NTcgJiMxMDtMIDYzOC43ODE3NTIgNC4xNTEzMzQgJiMxMDtMIDYzOS42OTM1NiA0LjAxMDg0MSAmIzEwO0wgNjM5LjY5MzU2IDQuMjc4MTg3ICYjMTA7TCA2MzkuNzk5NDAxIDQuMDk5MTggJiMxMDtMIDY0MC4yMTk4MjkgMy45OTcwOTEgJiMxMDtMIDY0MC40MjgzMDQgMy45OTM0MTMgJiMxMDtMIDY0MC43OTAzOTUgNC4xMzQxNzQgJiMxMDtMIDY0MS4yMDAwMTQgNC4wMDExMzYgJiMxMDtMIDY0Mi42NDg3ODEgMy45MzYyMzIgJiMxMDtMIDY0Mi45NDE3MjMgNC4wOTg1ODUgJiMxMDtMIDY0My4xODQxMjEgNC4wMDQ2OTUgJiMxMDtMIDY0My42MTY1NjIgMy45NjQyMDggJiMxMDtMIDY0My44MDcxODMgMy45NTkxMDMgJiMxMDtMIDY0NC4wOTEzMjUgNC4wMzgxNjMgJiMxMDtMIDY0NC4zNzMzNSAzLjk3ODQ2NCAmIzEwO0wgNjQ0LjY5OTc0NCAzLjk1NDc1MSAmIzEwO0wgNjQ0LjY5OTc0NCAzLjk1NDc1MSIvPiYjeGE7ICAgPC9nPiYjeGE7ICAgPGcgaWQ9ImxpbmUyZF8yNDQiPiYjeGE7ICAgIDxwYXRoIHN0eWxlPSJmaWxsOiBub25lOyBzdHJva2U6ICM2NDk1ZWQ7IHN0cm9rZS13aWR0aDogMS41OyBzdHJva2UtbGluZWNhcDogc3F1YXJlIiBjbGlwLXBhdGg9InVybCgjcDI5YThlODczNzMpIiBkPSJNIDM5MS4wNjMzODEgMTEwLjcxMjYyICYjMTA7TCA0MTcuMjkwODAxIDExMS41OTExOTQgJiMxMDtMIDQzMi42MzI4NTggMTI1LjQxNzM3NiAmIzEwO0wgNDQzLjUxODIyMSAxMzcuMTgxODkxICYjMTA7TCA0NTEuOTYxNTY0IDE0Mi44Mzk1MTQgJiMxMDtMIDQ1OC44NjAyNzggMTQ0LjExMDY2MyAmIzEwO0wgNDY0LjY5MzA1NyAxNDQuNzYzMzI3ICYjMTA7TCA0NjkuNzQ1NjQxIDE0NS4xMjEwMzggJiMxMDtMIDQ3NC4yMDIzMzUgMTQ1LjYwODQwMyAmIzEwO0wgNDc4LjE4ODk4NCAxNDUuODgyMzAyICYjMTA7TCA0ODEuNzk1MzQ3IDE0Ni4yOTUxMjIgJiMxMDtMIDQ4NS4wODc2OTggMTQ2LjM1Mzg2NyAmIzEwO0wgNDg4LjExNjM2OCAxNDYuMjI2MzQzICYjMTA7TCA0OTMuNTMxMDQxIDE0Ni4zMjM1MTQgJiMxMDtMIDQ5NS45NzMwNjEgMTQ1Ljg2NTQ2MSAmIzEwO0wgNDk4LjI2Njk4NiAxNDYuMjgzODg1ICYjMTA7TCA1MDAuNDI5NzU1IDE0Ni40NzMwMjcgJiMxMDtMIDUwMi40NzU1NiAxNDYuMjg1MzQ4ICYjMTA7TCA1MDQuNDE2NDA0IDE0Ni4yOTUzMTMgJiMxMDtMIDUwNi4yNjI1MzUgMTQ2LjQ3NDkyMiAmIzEwO0wgNTA5LjcwNDc0IDE0Ni4wODEyNjIgJiMxMDtMIDUxMS4zMTUxMTggMTQ1Ljk2NzA1NCAmIzEwO0wgNTEyLjg1OTc0OCAxNDYuNDA4OTA5ICYjMTA7TCA1MTQuMzQzNzg4IDE0NS45NDUxMjggJiMxMDtMIDUxNS43NzE4MTMgMTQ1LjY5ODI3OCAmIzEwO0wgNTE3LjE0Nzg5OCAxNDUuOTA0NzUzICYjMTA7TCA1MTguNDc1Njg5IDE0NC45NTE1NDYgJiMxMDtMIDUxOS43NTg0NjEgMTQ1LjAxNTg1NCAmIzEwO0wgNTIwLjk5OTE2OCAxNDMuMzc2NTYgJiMxMDtMIDUyMi4yMDA0ODEgMTQyLjY3NzY2NyAmIzEwO0wgNTIzLjM2NDgyNCAxNDIuNjI3MTQzICYjMTA7TCA1MjQuNDk0NDA2IDE0My4xMDE4NjMgJiMxMDtMIDUyNS41OTEyNDEgMTQzLjI0MDYzMSAmIzEwO0wgNTI2LjY1NzE3NSAxMzkuNzY2Nzg5ICYjMTA7TCA1MjcuNjkzOTAyIDEzMi4wMTY2MTIgJiMxMDtMIDUyOC43MDI5OCAxMzUuNjA1NTMyICYjMTA7TCA1MjkuNjg1ODQ1IDEyNy43NTE2MDUgJiMxMDtMIDUzMC42NDM4MjQgMTA3LjgyMDEgJiMxMDtMIDUzMS41NzgxNDggMTE3LjM0OTI5NCAmIzEwO0wgNTMyLjQ4OTk1NSAxMDYuMTA3NDg4ICYjMTA7TCA1MzMuMzgwMzA2IDExMS43MjE3MDQgJiMxMDtMIDUzNC4yNTAxODcgOTkuMTMzMzQgJiMxMDtMIDUzNS4xMDA1MTkgMTE1LjM1NzczMyAmIzEwO0wgNTM1LjkzMjE2IDk4LjI3NDk3NSAmIzEwO0wgNTM2Ljc0NTkxNiA4Ni41NjE3NzkgJiMxMDtMIDUzNy41NDI1MzggNTguODI2MDMzICYjMTA7TCA1MzguMzIyNzM0IDY4LjkwMjk1ICYjMTA7TCA1MzkuMDg3MTY4IDQ4LjI5MjQ3MyAmIzEwO0wgNTM5LjgzNjQ2MyA0OC45Mzc0NDEgJiMxMDtMIDU0MC41NzEyMDggNTkuOTUxOTEzICYjMTA7TCA1NDEuMjkxOTU2IDYxLjgxNTE3NCAmIzEwO0wgNTQxLjk5OTIzMyA1MS4xMDM3NzcgJiMxMDtMIDU0Mi42OTM1MyA0OS40NDYwMjEgJiMxMDtMIDU0My4zNzUzMTggMzUuNTQzOTAyICYjMTA7TCA1NDQuMDQ1MDM3IDMxLjE4NjU2NyAmIzEwO0wgNTQ0LjcwMzEwOSAyNS43NzYzODMgJiMxMDtMIDU0NS4zNDk5MzEgMjIuMDAzMzI2ICYjMTA7TCA1NDUuOTg1ODgyIDI3LjkxMTk0OCAmIzEwO0wgNTQ2LjYxMTMyIDE4Ljg4NzQzMiAmIzEwO0wgNTQ3LjIyNjU4OCAyMC41MzkzNDkgJiMxMDtMIDU0Ny44MzIwMTIgMTYuMTQ2NzcxICYjMTA7TCA1NDguNDI3OTAxIDE4LjA4NTY4MiAmIzEwO0wgNTQ5LjAxNDU1MSAxNi41OTU3NjEgJiMxMDtMIDU0OS41OTIyNDQgMTYuNjA1NzkzICYjMTA7TCA1NTAuMTYxMjUgMTUuODY5NDUyICYjMTA7TCA1NTAuNzIxODI2IDE2LjAzMTE2ICYjMTA7TCA1NTEuMjc0MjE4IDE0Ljg2NTg4NCAmIzEwO0wgNTUxLjgxODY2MSAxNS4wNzkwNzMgJiMxMDtMIDU1Mi4zNTUzODIgMzMuMzQzNzgyICYjMTA7TCA1NTIuODg0NTk1IDIwLjcyNjI3NyAmIzEwO0wgNTUzLjQwNjUwOSAxNC4zMDI0MTQgJiMxMDtMIDU1My45MjEzMjIgMTQuMzUxMDY5ICYjMTA7TCA1NTQuNDI5MjI1IDEyLjE0Njk5MyAmIzEwO0wgNTU0LjkzMDQgMTEuMDg0MDI0ICYjMTA7TCA1NTUuNDI1MDI0IDExLjEyNTI0NCAmIzEwO0wgNTU1LjkxMzI2NSAxMS4zNjc4MzYgJiMxMDtMIDU1Ni4zOTUyODYgMTEuMTM3Mjc5ICYjMTA7TCA1NTYuODcxMjQ0IDExLjIwMjk4NiAmIzEwO0wgNTU3LjM0MTI5IDExLjQwMjY2MiAmIzEwO0wgNTU3LjgwNTU2OCAxMS4zNDA3NzMgJiMxMDtMIDU1OC4yNjQyMTggMTEuNDI1MDE3ICYjMTA7TCA1NTguNzE3Mzc1IDEwLjc5Nzg5MiAmIzEwO0wgNTU5LjE2NTE2OSAxMC41MjU3NjggJiMxMDtMIDU1OS42MDc3MjYgMTAuNDM2ODQ1ICYjMTA7TCA1NjAuMDQ1MTY2IDEwLjA4ODc0NCAmIzEwO0wgNTYwLjQ3NzYwNyAxMC4xMzY1MzcgJiMxMDtMIDU2MC45MDUxNjIgOS45NTUwNTEgJiMxMDtMIDU2MS4zMjc5MzkgMTAuNTE1MDcyICYjMTA7TCA1NjEuNzQ2MDQ0IDkuODc4MzAyICYjMTA7TCA1NjIuMTU5NTggOS41NTgzMDUgJiMxMDtMIDU2Mi41Njg2NDYgOS40OTMzNjIgJiMxMDtMIDU2Mi45NzMzMzYgMTAuMDg4NDU3ICYjMTA7TCA1NjMuMzczNzQzIDguNTU3NjIzICYjMTA7TCA1NjMuNzY5OTU4IDkuMDEwMTgxICYjMTA7TCA1NjQuMTYyMDY3IDguNjIxNzEzICYjMTA7TCA1NjQuNTUwMTU0IDEwLjI4MzU3MyAmIzEwO0wgNTY0LjkzNDMwMSA4LjU2NzQ1NyAmIzEwO0wgNTY1LjMxNDU4OCA4LjY4NDc1MyAmIzEwO0wgNTY2LjQzMzAzOSA4LjUwNzgzNyAmIzEwO0wgNTY2Ljc5ODYyOCA4Ljg2OTAyNCAmIzEwO0wgNTY3LjUxOTM3NyA4LjkwMjA5NSAmIzEwO0wgNTY3Ljg3NDY2NyA4Ljg0NDgyNSAmIzEwO0wgNTY4LjIyNjY1MyA4Ljk1NjA2NCAmIzEwO0wgNTY4LjU3NTM5NCA4Ljc2MDQwMiAmIzEwO0wgNTY4LjkyMDk1IDguODQyOTkxICYjMTA7TCA1NjkuMjYzMzggOC41MTU5NDYgJiMxMDtMIDU2OS42MDI3MzggOC41ODg3MjEgJiMxMDtMIDU2OS45MzkwNzkgOC4yOTMxMDIgJiMxMDtMIDU3MC42MDI5MjQgOC4zODczICYjMTA7TCA1NzAuOTMwNTI5IDguNjQ2Mzg4ICYjMTA7TCA1NzEuMjU1MzIyIDguNzM5NDY1ICYjMTA7TCA1NzEuNTc3MzUxIDguNjA0MTM2ICYjMTA7TCA1NzEuODk2NjYyIDcuODgzMzk5ICYjMTA7TCA1NzIuMjEzMzAyIDcuNjA2NTY2ICYjMTA7TCA1NzIuNTI3MzEzIDcuNTY0NDI0ICYjMTA7TCA1NzMuNDU0MDA4IDcuODQwMDk3ICYjMTA7TCA1NzMuNzU3OTMxIDcuNzk1MjY5ICYjMTA7TCA1NzQuMDU5NDMyIDcuOTg2NTk4ICYjMTA7TCA1NzQuOTQ5NzgzIDcuMzA1MjI3ICYjMTA7TCA1NzUuMjQxOTcxIDcuNjMxNzM3ICYjMTA7TCA1NzUuODE5NjY0IDYuOTg4NDgzICYjMTA7TCA1NzYuMTA1MjM3IDcuMDE1NTQ3ICYjMTA7TCA1NzYuMzg4NjcgNy4yNDczMzMgJiMxMDtMIDU3Ni45NDkyNDYgNy4zNjg2NTQgJiMxMDtMIDU3Ny4yMjY0NSA3LjQ0MDUwNiAmIzEwO0wgNTc3LjUwMTYzOCA3LjY5NTEwMyAmIzEwO0wgNTc3Ljc3NDgzOSA3Ljc4MTA5MyAmIzEwO0wgNTc4LjMxNTM5MyA3LjIyNDAyNiAmIzEwO0wgNTc4LjU4MjgwMiA3LjE3MTI2NyAmIzEwO0wgNTc5LjExMjAxNSA3LjI4NDQ3OSAmIzEwO0wgNTc5Ljg5MjIxMiA2Ljk4MjI4NyAmIzEwO0wgNTc5Ljg5MjIxMiAxMC43MjAyMzEgJiMxMDtMIDU4MC4xNDg3NDIgNy4wMjQyMjEgJiMxMDtMIDU4MC40MDM1NDYgNy40NDE3NjUgJiMxMDtMIDU4MC42NTY2NDUgNi42NTIzODcgJiMxMDtMIDU4MC45MDgwNjIgNi44MDgyNTYgJiMxMDtMIDU4MS40MDU5NCA2LjI4NDkwNiAmIzEwO0wgNTgxLjY1MjQ0NCA2LjYxMDE5NiAmIzEwO0wgNTgxLjg5NzM1MiA3LjEyODE3MyAmIzEwO0wgNTgyLjE0MDY4NSA1Ljk1NjM3NCAmIzEwO0wgNTgyLjM4MjQ2MyA2LjAwNDY5MiAmIzEwO0wgNTgyLjYyMjcwNiA2LjE5MTE4NCAmIzEwO0wgNTgyLjg2MTQzNCA2LjAyMTc5MyAmIzEwO0wgNTgzLjA5ODY2NCA2LjE0NDM3MyAmIzEwO0wgNTgzLjMzNDQxNyA1Ljk3ODY4ICYjMTA7TCA1ODMuNTY4NzEgNi4wMDM4NiAmIzEwO0wgNTg0LjAzMjk4OCA1Ljg0NTAzNiAmIzEwO0wgNTg0LjI2MzAwOCA1LjkwODcxMSAmIzEwO0wgNTg0LjcxODg5NSA1Ljc2OTgxMyAmIzEwO0wgNTg0Ljk0NDc5NSA1Ljk5MzIyMyAmIzEwO0wgNTg1LjE2OTM1NCA1Ljc2MzAxMyAmIzEwO0wgNTg1LjM5MjU4OSA1LjgyMDI4MyAmIzEwO0wgNTg1LjYxNDUxNCA1Ljc1NDM2OCAmIzEwO0wgNTg1LjgzNTE0NiA1Ljk3MzgzMiAmIzEwO0wgNTg2LjA1NDQ5OCA1Ljc4MjggJiMxMDtMIDU4Ni4yNzI1ODYgNS43NTY1NDkgJiMxMDtMIDU4Ni43MDUwMjcgNi4wMTA0MTMgJiMxMDtMIDU4Ny4xMzI1ODIgNS43NzM2MiAmIzEwO0wgNTg3LjU1NTM1OSA1Ljc4MTU2MSAmIzEwO0wgNTg3Ljk3MzQ2NCA1LjgxNDUyMyAmIzEwO0wgNTg4LjE4MDc5NyA1Ljk1ODE0OSAmIzEwO0wgNTg4LjM4NyA1Ljc4NDUzNSAmIzEwO0wgNTg4LjU5MjA4NiA2LjA1OTUxNCAmIzEwO0wgNTg4Ljc5NjA2NiA1LjgyMjQwNCAmIzEwO0wgNTg4Ljk5ODk1MiA1Ljg0NTQwMyAmIzEwO0wgNTg5LjIwMDc1NiA1LjcyMzI4ICYjMTA7TCA1ODkuNjAxMTYzIDUuODA3NjczICYjMTA7TCA1ODkuOTk3Mzc4IDUuNzQzNTgyICYjMTA7TCA1OTAuNzc3NTc0IDUuOTA0ODg0ICYjMTA7TCA1OTAuOTcwMTM1IDUuNjcwMzcxICYjMTA7TCA1OTEuMzUyMzQyIDUuNzIwOTggJiMxMDtMIDU5MS41NDIwMDggNS44MjkzMDQgJiMxMDtMIDU5MS43MzA3MjcgNS43OTM2ODUgJiMxMDtMIDU5MS45MTg1MSA2LjQzNjI5NCAmIzEwO0wgNTkyLjEwNTM2NiA1LjcwNzIxICYjMTA7TCA1OTIuMjkxMzAzIDUuODQ0ODg4ICYjMTA7TCA1OTIuNDc2MzMxIDUuNjM5MTQ0ICYjMTA7TCA1OTIuODQzNjk1IDYuMDM5NTM4ICYjMTA7TCA1OTMuMDI2MDQ4IDYuNjExMDM4ICYjMTA7TCA1OTMuMjA3NTI2IDUuNzE2MjAxICYjMTA7TCA1OTMuMzg4MTM4IDUuNjU0NjU5ICYjMTA7TCA1OTMuNTY3ODkyIDUuOTI3Mzg3ICYjMTA7TCA1OTMuNzQ2Nzk3IDUuODM3OTY4ICYjMTA7TCA1OTMuOTI0ODU5IDUuNTc5NDU1ICYjMTA7TCA1OTQuMTAyMDg3IDUuNTk5ODU3ICYjMTA7TCA1OTQuMjc4NDg5IDUuNzQwMjAyICYjMTA7TCA1OTQuNDU0MDczIDUuNjIyNjU4ICYjMTA7TCA1OTUuNDkwOCA1LjY5NTEzNSAmIzEwO0wgNTk1LjgzMDE1OCA1LjU4MzE1MyAmIzEwO0wgNTk1Ljk5ODcwMiA1LjcwODczNyAmIzEwO0wgNTk3LjE1Nzk0OSA1LjU1Mzg0OSAmIzEwO0wgNTk3LjQ4Mjc0MiA1LjU1MzY2MSAmIzEwO0wgNTk3LjY0NDA5OSA1LjYyMTI0ICYjMTA7TCA1OTcuOTY0NzY0IDUuNDk0NjI2ICYjMTA7TCA1OTguMjgyNzMzIDUuNzM1MjE1ICYjMTA7TCA1OTguNTk4MDUzIDUuNTA5MTA5ICYjMTA7TCA1OTguOTEwNzY3IDUuNzA2MTI5ICYjMTA7TCA1OTkuMDY2MTYgNS41MDQyODIgJiMxMDtMIDU5OS4yMjA5MTggNS42ODg0NjQgJiMxMDtMIDU5OS4zNzUwNDUgNS41NjQ4MzMgJiMxMDtMIDU5OS41Mjg1NDcgNS42Nzc3OTcgJiMxMDtMIDU5OS44MzM2OTUgNS41MDMyMzEgJiMxMDtMIDU5OS45ODUzNTEgNS42MDUxMjEgJiMxMDtMIDYwMC4xMzY0MDIgNS40NjY1NDEgJiMxMDtMIDYwMC4yODY4NTIgNS41NTk3MzcgJiMxMDtMIDYwMC43MzQ2NDYgNS4zOTc5OSAmIzEwO0wgNjAwLjg4Mjc0MSA1LjQ3MjQ1ICYjMTA7TCA2MDEuMDMwMjU5IDUuNjc4MDE1ICYjMTA7TCA2MDEuMTc3MjAzIDUuNjczNTA0ICYjMTA7TCA2MDEuMzIzNTc5IDYuMDc1MTk3ICYjMTA7TCA2MDEuNDY5MzkxIDUuOTM1NTc2ICYjMTA7TCA2MDEuNjE0NjQzIDYuNTA0MTUyICYjMTA7TCA2MDEuNzU5MzQgNS40ODcxMTIgJiMxMDtMIDYwMi4wNDcwODQgNS41NDI5NjQgJiMxMDtMIDYwMi4xOTAxNCA1LjM5OTk5MiAmIzEwO0wgNjAyLjQ3NDYzOSA1LjQ1MDkwOCAmIzEwO0wgNjAyLjYxNjA5IDUuMzg5NjYyICYjMTA7TCA2MDIuNjE2MDkgNS43Mjg1NTMgJiMxMDtMIDYwMi43NTcwMTUgNS44NDA5NDIgJiMxMDtMIDYwMi44OTc0MTYgNS4zODg4NzkgJiMxMDtMIDYwNC41NDI4MTMgNS41MjA2MTkgJiMxMDtMIDYwNC42NzY3NTQgNS42OTY1MTMgJiMxMDtMIDYwNC44MTAyMjIgNS41ODA1NzYgJiMxMDtMIDYwNC45NDMyMjEgNS42NjMzODMgJiMxMDtMIDYwNS4yMDc4MjQgNS40ODYxNCAmIzEwO0wgNjA1LjYwMTI5MiA1LjQzMTQ1NyAmIzEwO0wgNjA2Ljc1NzcyNyA1LjQxNTY2NSAmIzEwO0wgNjA2Ljg4NDA2NSA1LjYxODcwMyAmIzEwO0wgNjA3LjAwOTk4MyA1LjM3NzMzICYjMTA7TCA2MDcuMzg1MjQgNS41MDYwMjYgJiMxMDtMIDYwNy43NTY4MTMgOC4xNzA0MDMgJiMxMDtMIDYwNy44Nzk4NjQgMzYuMjE2MjEyICYjMTA7TCA2MDguMTI0NzcyIDkuNzA4ODExICYjMTA7TCA2MDguMjQ2NjM0IDExLjE4NDcxNSAmIzEwO0wgNjA4LjQ4OTE4NyA1LjY4MDg0ICYjMTA7TCA2MDguNjA5ODgzIDYuMDIyNTc2ICYjMTA7TCA2MDguODUwMTI2IDUuNjQxMDQ4ICYjMTA7TCA2MDguOTY5Njc4IDUuNzQ0Mzg1ICYjMTA7TCA2MDkuMjA3NjU1IDUuNDY5ODgyICYjMTA7TCA2MTAuMTQ0ODcxIDUuMzg2MDE0ICYjMTA7TCA2MTAuMjYwNDA4IDUuNDgwODU2ICYjMTA7TCA2MTAuMzc1NTkyIDUuMzExNjA0ICYjMTA7TCA2MTAuNDkwNDI4IDUuNDEwMDU0ICYjMTA7TCA2MTAuNzE5MDU4IDUuMzYyMDYzICYjMTA7TCA2MTAuODMyODU3IDUuMzc1MTI5ICYjMTA7TCA2MTAuOTQ2MzE1IDQ2LjQzNTcyNCAmIzEwO0wgNjExLjA1OTQzMyAxMy40OTY1NiAmIzEwO0wgNjExLjE3MjIxNSAxMy45MTMxMTMgJiMxMDtMIDYxMS4zOTY3NzQgNi40MzQyNDIgJiMxMDtMIDYxMS41MDg1NTYgNS44MDU5MDggJiMxMDtMIDYxMS42MjAwMDkgNS44OTE1NCAmIzEwO0wgNjEyLjA2MjU2NiA1LjQxNjgxNSAmIzEwO0wgNjEyLjUwMDAwNiA1LjMyMTk5MyAmIzEwO0wgNjEyLjgyNDc5OSA1LjM0NzA5NCAmIzEwO0wgNjEzLjI1MzU2NSA1LjMyMDcwNCAmIzEwO0wgNjEzLjU3MTk4MSA1LjU0MTI2OSAmIzEwO0wgNjEzLjg4NzczOSA1LjM3MzMxNSAmIzEwO0wgNjE0LjA5Njc5IDUuNDIyODcyICYjMTA7TCA2MTQuNDA4MjE3IDUuMzMwOTE1ICYjMTA7TCA2MTQuNjE0NDIgNS4zNzgwMTQgJiMxMDtMIDYxNC44MTk1MDYgNS41MTI5MTYgJiMxMDtMIDYxNS4wMjM0ODYgNS4zNjYzNTYgJiMxMDtMIDYxNS4yMjYzNzIgNS40NDA1NDggJiMxMDtMIDYxNi4wMjcyMSA1LjM0MzI2NyAmIzEwO0wgNjE2LjMyMzIwNyA1LjI5NTk0MSAmIzEwO0wgNjE3LjEwMTM5NyA1LjM5MDk5MSAmIzEwO0wgNjE3LjM4OTE0MiA1LjI5MTA4MyAmIzEwO0wgNjE3LjY3NDcxNCA1LjM0NjYxOCAmIzEwO0wgNjE3Ljk1ODE0NyA1LjM0NjkyNiAmIzEwO0wgNjE4LjE0NTkzIDUuMzEwMjQ2ICYjMTA7TCA2MTguNDI1ODY5IDUuMjk3MzI5ICYjMTA7TCA2MTkuMDcxMTE1IDUuMzc5MTM0ICYjMTA7TCA2MTkuMTYyNDAxIDUuNTI2NDQ4ICYjMTA7TCA2MTkuMzQ0MzE2IDUuMzk2NTIyICYjMTA7TCA2MTkuNzk1MzEyIDUuMjk4MjUxICYjMTA7TCA2MjAuMjQwOTk3IDUuNDIyMDQgJiMxMDtMIDYyMC40MTc4MTEgNi4xMTM2MzEgJiMxMDtMIDYyMC41MDU5MDkgNS43MzM4MzcgJiMxMDtMIDYyMC41OTM4MDMgNi42MjcxOTcgJiMxMDtMIDYyMC43Njg5OCA2LjA2NDI0MyAmIzEwO0wgNjIwLjk0MzM1IDYuMDIyMzg4ICYjMTA7TCA2MjEuMTE2OTE5IDUuNTU2NzM0ICYjMTA7TCA2MjEuMjg5Njk3IDUuNDcxNjE3ICYjMTA7TCA2MjIuMzEwMTE0IDUuMzI1ODIgJiMxMDtMIDYyMi40Nzc1NCA1LjUyNzk5NSAmIzEwO0wgNjIyLjcyNzI5NyA1LjM2ODM5OCAmIzEwO0wgNjIzLjU0ODExNCA1LjMyMTA0MiAmIzEwO0wgNjIzLjcxMDE2MiA1LjM4MDY3MSAmIzEwO0wgNjIzLjg3MTUxOSA1LjMzOTc5OCAmIzEwO0wgNjI0LjkwMzg5NCA1LjMzMzk1OSAmIzEwO0wgNjI1LjA2MDI1MSA1LjU0NzM2NSAmIzEwO0wgNjI1LjIxNTk2MyA2Ljc0OTEwMyAmIzEwO0wgNjI1LjI5MzU4IDUuNjU4OTIxICYjMTA7TCA2MjUuMzcxMDM4IDUuODI4NzI5ICYjMTA7TCA2MjUuNjAyNDY1IDUuNDA3MDAxICYjMTA7TCA2MjUuODMyNDg1IDUuNDczNDkgJiMxMDtMIDYyNS45MDg4NDkgNS40MDI4MDggJiMxMDtMIDYyNS45ODUwNTggNS41MjIzMDQgJiMxMDtMIDYyNi4wNjExMTUgOS43NzE3MjIgJiMxMDtMIDYyNi4xMzcwMTkgNS44NDA3NTQgJiMxMDtMIDYyNi4yMTI3NzEgNi4zNTEzNTYgJiMxMDtMIDYyNi4zNjM4MjIgNS4zOTE1NzYgJiMxMDtMIDYyNi40MzkxMjIgNS40NTg2OSAmIzEwO0wgNjI2LjU4OTI3NCA1LjMzMjg5OCAmIzEwO0wgNjI2Ljg4NzgwMSA1LjMxNjA4NSAmIzEwO0wgNjI3LjU1MDk5OSA1LjMwOTY2MSAmIzEwO0wgNjI4LjA1ODkwMiA1LjMwNjgyNiAmIzEwO0wgNjI4LjI3NDUwNCA1LjMwMjI3NSAmIzEwO0wgNjI4Ljk4NDQzNSA1LjI3MzMxOCAmIzEwO0wgNjI5LjgxOTEzNCA1LjI4MzQyICYjMTA7TCA2MzAuMDI0OTYzIDUuMzkwNDk1ICYjMTA7TCA2MzAuMjI5Njc5IDUuMzI3ODkyICYjMTA7TCA2MzAuNjM1ODE3IDUuMjQ2MDg2ICYjMTA7TCA2MzAuODM3MjYzIDUuMjM5ODcgJiMxMDtMIDYzMS4zMDMxNzQgNS4yODM5OTUgJiMxMDtMIDYzMS44Mjg3MTIgNS4yNDMwMjMgJiMxMDtMIDYzMi4zNDcwNTIgNS4yODE4NDQgJiMxMDtMIDYzMi43OTQ4NDYgNS4yOTc3NTUgJiMxMDtMIDYzMi44NTgzODYgNS40MjQ1MTggJiMxMDtMIDYzMi45MjE4MiA1LjM4NzI3MyAmIzEwO0wgNjMzLjExMTQ4NSA1LjIzNDE2ICYjMTA7TCA2MzMuMjM3NDAzIDUuNTA4NjUzICYjMTA7TCA2MzMuMzAwMjA1IDUuMzQyNzUyICYjMTA7TCA2MzMuNjEyNjYgNS4yNDM2NTcgJiMxMDtMIDYzMy44NjA3OCA1LjMyNzg0MiAmIzEwO0wgNjMzLjk4NDIzMyA1LjMxNjI1MyAmIzEwO0wgNjM0LjA0NTgwOCA1LjQzNTYyMSAmIzEwO0wgNjM0LjEwNzI4NCA1LjM3NjEwMSAmIzEwO0wgNjM0LjIyOTkzNiA1LjMyNDk0NyAmIzEwO0wgNjM0LjQxMzE3MiA1LjM0NDQ3NyAmIzEwO0wgNjM0LjY1NjExNSA1LjQyODAyNyAmIzEwO0wgNjM0LjcxNjYwNyA1LjQ3ODM4OCAmIzEwO0wgNjM0Ljg5NzUwNyA1LjI5NjcxNCAmIzEwO0wgNjM1LjAxNzYyOSA1LjMxODA3NyAmIzEwO0wgNjM1LjA3NzU0NiA1LjU4MzAwNCAmIzEwO0wgNjM1LjEzNzM3IDUuNDM2OTc5ICYjMTA7TCA2MzUuMzE2Mjc0IDUuMzY2MDA5ICYjMTA7TCA2MzUuMzc1NzIxIDUuNDE1NjE2ICYjMTA7TCA2MzUuNDM1MDc1IDUuMzM3NDU4ICYjMTA7TCA2MzYuMDIzNTUgNS4yNDA1MjUgJiMxMDtMIDYzNi4yNTY0MDEgNS4zMTUyNzIgJiMxMDtMIDYzNi42MDMwMTMgNS4zMDQ1ODUgJiMxMDtMIDYzNi43MTc4NDggNS4zMTIzODcgJiMxMDtMIDYzNi43NzUxMzUgNS4zOTIzMDkgJiMxMDtMIDYzNi44MzIzMzUgNS4zMTA1NDMgJiMxMDtMIDYzNi44ODk0NSA1LjI4MjkzNCAmIzEwO0wgNjM2Ljk0NjQ3OCA1LjM4MjU4NCAmIzEwO0wgNjM3LjAwMzQyIDUuMjkxNzc3ICYjMTA7TCA2MzcuMjg2ODUzIDUuMjgwOTQyICYjMTA7TCA2MzcuNTEyMDgxIDUuMjY4NjU5ICYjMTA7TCA2MzcuNjgwMTI3IDUuMzA2MjExICYjMTA7TCA2MzcuOTAzMDMzIDUuMjQ5NDg2ICYjMTA7TCA2MzguMTI0NjMzIDUuMjczNzY0ICYjMTA7TCA2MzguMzQ0OTQzIDUuMjg3MTg3ICYjMTA7TCA2MzguMzk5ODIxIDUuNDM3NDU1ICYjMTA7TCA2MzguNDU0NjE5IDUuNDEwMjYzICYjMTA7TCA2MzguNzgxNzUyIDUuMjkyMzkyICYjMTA7TCA2MzguOTQ0MjY1IDUuMzA4Njg5ICYjMTA7TCA2MzkuMTA2MDgyIDUuMjg3ODgxICYjMTA7TCA2MzkuOTU3NjA5IDUuMjYzNzYyICYjMTA7TCA2NDAuMTY3NTMgNS4yNDkzMzggJiMxMDtMIDY0MC41ODM5MTEgNS4yODY5NjkgJiMxMDtMIDY0MS4xNDkwNTMgNS4yNzczMjMgJiMxMDtMIDY0MS41NTQ4MjggNS4yNTIzMzEgJiMxMDtMIDY0MS43NTYwOTYgNS4yMzQxOCAmIzEwO0wgNjQxLjk1NjI5OCA1LjIwNDE0MiAmIzEwO0wgNjQyLjIwNTA3MSA1LjI2NjgyNSAmIzEwO0wgNjQyLjc5NTUzNSA1LjI3MjMyNyAmIzEwO0wgNjQyLjg5MzA1NiA1LjUwMzc4NiAmIzEwO0wgNjQzLjAzODg2OCA1LjM0NTY2NyAmIzEwO0wgNjQzLjE4NDEyMSA1LjI3ODIxNSAmIzEwO0wgNjQzLjMyODgxNyA1LjQwMDg5NCAmIzEwO0wgNjQzLjM3NjkyNyA1LjMyNDg2OCAmIzEwO0wgNjQzLjQyNDk3NiA1LjM5NDg0NyAmIzEwO0wgNjQzLjQ3Mjk2MyA1LjQ3MDA3ICYjMTA7TCA2NDMuNjE2NTYyIDUuMzA4MzIzICYjMTA7TCA2NDMuNzU5NjE3IDUuMzEyMjc4ICYjMTA7TCA2NDMuOTAyMTM0IDUuMjM4NDYzICYjMTA7TCA2NDMuOTQ5NTIxIDUuNDM5ODQ0ICYjMTA7TCA2NDMuOTk2ODQ4IDUuMzMxNjk4ICYjMTA7TCA2NDQuMTM4NDc2IDUuMzA4NTggJiMxMDtMIDY0NC4zMjY0OTIgNS4zMTUyMjIgJiMxMDtMIDY0NC40NjY4OTMgNS4yNjM5NiAmIzEwO0wgNjQ0LjU2MDIwNiA1LjMxODk1ICYjMTA7TCA2NDQuNjk5NzQ0IDUuMjc3OTg3ICYjMTA7TCA2NDQuNjk5NzQ0IDUuMjc3OTg3Ii8+JiN4YTsgICA8L2c+JiN4YTsgICA8ZyBpZD0ibGluZTJkXzI0NSIvPiYjeGE7ICAgPGcgaWQ9ImxpbmUyZF8yNDYiLz4mI3hhOyAgIDxnIGlkPSJwYXRjaF84Ij4mI3hhOyAgICA8cGF0aCBzdHlsZT0iZmlsbDogbm9uZTsgc3Ryb2tlOiAjMDAwMDAwOyBzdHJva2Utd2lkdGg6IDAuODsgc3Ryb2tlLWxpbmVqb2luOiBtaXRlcjsgc3Ryb2tlLWxpbmVjYXA6IHNxdWFyZSIgZD0iTSAzNzguMzgxNTYyIDE3MC4xMTkyMTkgJiMxMDtMIDM3OC4zODE1NjIgMy43OTkyMTkiLz4mI3hhOyAgIDwvZz4mI3hhOyAgIDxnIGlkPSJwYXRjaF85Ij4mI3hhOyAgICA8cGF0aCBzdHlsZT0iZmlsbDogbm9uZTsgc3Ryb2tlOiAjMDAwMDAwOyBzdHJva2Utd2lkdGg6IDAuODsgc3Ryb2tlLWxpbmVqb2luOiBtaXRlcjsgc3Ryb2tlLWxpbmVjYXA6IHNxdWFyZSIgZD0iTSA2NTcuMzgxNTYyIDE3MC4xMTkyMTkgJiMxMDtMIDY1Ny4zODE1NjIgMy43OTkyMTkiLz4mI3hhOyAgIDwvZz4mI3hhOyAgIDxnIGlkPSJwYXRjaF8xMCI+JiN4YTsgICAgPHBhdGggc3R5bGU9ImZpbGw6IG5vbmU7IHN0cm9rZTogIzAwMDAwMDsgc3Ryb2tlLXdpZHRoOiAwLjg7IHN0cm9rZS1saW5lam9pbjogbWl0ZXI7IHN0cm9rZS1saW5lY2FwOiBzcXVhcmUiIGQ9Ik0gMzc4LjM4MTU2MiAxNzAuMTE5MjE5ICYjMTA7TCA2NTcuMzgxNTYyIDE3MC4xMTkyMTkiLz4mI3hhOyAgIDwvZz4mI3hhOyAgIDxnIGlkPSJwYXRjaF8xMSI+JiN4YTsgICAgPHBhdGggc3R5bGU9ImZpbGw6IG5vbmU7IHN0cm9rZTogIzAwMDAwMDsgc3Ryb2tlLXdpZHRoOiAwLjg7IHN0cm9rZS1saW5lam9pbjogbWl0ZXI7IHN0cm9rZS1saW5lY2FwOiBzcXVhcmUiIGQ9Ik0gMzc4LjM4MTU2MiAzLjc5OTIxOSAmIzEwO0wgNjU3LjM4MTU2MiAzLjc5OTIxOSIvPiYjeGE7ICAgPC9nPiYjeGE7ICAgPGcgaWQ9ImxlZ2VuZF8xIj4mI3hhOyAgICA8ZyBpZD0icGF0Y2hfMTIiPiYjeGE7ICAgICA8cGF0aCBzdHlsZT0iZmlsbDogIzRjNGM0Yzsgb3BhY2l0eTogMC41OyBzdHJva2U6ICM0YzRjNGM7IHN0cm9rZS1saW5lam9pbjogbWl0ZXIiIGQ9Ik0gNjY1LjY4MTU2MiA2Mi41NjQ2OTQgJiMxMDtMIDc1OC42NiA2Mi41NjQ2OTQgJiMxMDtRIDc2MC40NiA2Mi41NjQ2OTQgNzYwLjQ2IDYwLjc2NDY5NCAmIzEwO0wgNzYwLjQ2IDguNzcyODE5ICYjMTA7USA3NjAuNDYgNi45NzI4MTkgNzU4LjY2IDYuOTcyODE5ICYjMTA7TCA2NjUuNjgxNTYyIDYuOTcyODE5ICYjMTA7USA2NjMuODgxNTYyIDYuOTcyODE5IDY2My44ODE1NjIgOC43NzI4MTkgJiMxMDtMIDY2My44ODE1NjIgNjAuNzY0Njk0ICYjMTA7USA2NjMuODgxNTYyIDYyLjU2NDY5NCA2NjUuNjgxNTYyIDYyLjU2NDY5NCAmIzEwO3oiLz4mI3hhOyAgICA8L2c+JiN4YTsgICAgPGcgaWQ9InBhdGNoXzEzIj4mI3hhOyAgICAgPHBhdGggc3R5bGU9ImZpbGw6ICNmZmZmZmY7IHN0cm9rZTogI2NjY2NjYzsgc3Ryb2tlLWxpbmVqb2luOiBtaXRlciIgZD0iTSA2NjMuNjgxNTYyIDYwLjU2NDY5NCAmIzEwO0wgNzU2LjY2IDYwLjU2NDY5NCAmIzEwO1EgNzU4LjQ2IDYwLjU2NDY5NCA3NTguNDYgNTguNzY0Njk0ICYjMTA7TCA3NTguNDYgNi43NzI4MTkgJiMxMDtRIDc1OC40NiA0Ljk3MjgxOSA3NTYuNjYgNC45NzI4MTkgJiMxMDtMIDY2My42ODE1NjIgNC45NzI4MTkgJiMxMDtRIDY2MS44ODE1NjIgNC45NzI4MTkgNjYxLjg4MTU2MiA2Ljc3MjgxOSAmIzEwO0wgNjYxLjg4MTU2MiA1OC43NjQ2OTQgJiMxMDtRIDY2MS44ODE1NjIgNjAuNTY0Njk0IDY2My42ODE1NjIgNjAuNTY0Njk0ICYjMTA7eiIvPiYjeGE7ICAgIDwvZz4mI3hhOyAgICA8ZyBpZD0ibGluZTJkXzI0NyI+JiN4YTsgICAgIDxwYXRoIHN0eWxlPSJmaWxsOiBub25lOyBzdHJva2U6ICMwMDAwODA7IHN0cm9rZS13aWR0aDogMS41OyBzdHJva2UtbGluZWNhcDogc3F1YXJlIiBkPSJNIDY2NS40ODE1NjIgMTIuMjYxNDEzICYjMTA7TCA2NzQuNDgxNTYyIDEyLjI2MTQxMyAmIzEwO0wgNjgzLjQ4MTU2MiAxMi4yNjE0MTMiLz4mI3hhOyAgICA8L2c+JiN4YTsgICAgPGcgaWQ9InRleHRfMjMiPiYjeGE7ICAgICAmI3hhOyAgICAgPGcgdHJhbnNmb3JtPSJ0cmFuc2xhdGUoNjkwLjY4MTU2MyAxNS40MTE0MTMpIHNjYWxlKDAuMDkgLTAuMDkpIj4mI3hhOyAgICAgIDxkZWZzPiYjeGE7ICAgICAgIDxwYXRoIHRyYW5zZm9ybT0ic2NhbGUoMC4wMTU2MjUpIiBkPSJNIC0xOSA0NjY2ICYjMTA7TCAzOTI4IDQ2NjYgJiMxMDtMIDM5MjggNDEzNCAmIzEwO0wgMjI3MiA0MTM0ICYjMTA7TCAyMjcyIDAgJiMxMDtMIDE2MzggMCAmIzEwO0wgMTYzOCA0MTM0ICYjMTA7TCAtMTkgNDEzNCAmIzEwO0wgLTE5IDQ2NjYgJiMxMDt6IiBpZD0iRGVqYVZ1U2Fucy01NCIvPiYjeGE7ICAgICAgIDxwYXRoIHRyYW5zZm9ybT0ic2NhbGUoMC4wMTU2MjUpIiBkPSJNIDI2MzEgMjk2MyAmIzEwO1EgMjUzNCAzMDE5IDI0MjAgMzA0NSAmIzEwO1EgMjMwNiAzMDcyIDIxNjkgMzA3MiAmIzEwO1EgMTY4MSAzMDcyIDE0MjAgMjc1NSAmIzEwO1EgMTE1OSAyNDM4IDExNTkgMTg0NCAmIzEwO0wgMTE1OSAwICYjMTA7TCA1ODEgMCAmIzEwO0wgNTgxIDM1MDAgJiMxMDtMIDExNTkgMzUwMCAmIzEwO0wgMTE1OSAyOTU2ICYjMTA7USAxMzQxIDMyNzUgMTYzMSAzNDI5ICYjMTA7USAxOTIyIDM1ODQgMjMzOCAzNTg0ICYjMTA7USAyMzk3IDM1ODQgMjQ2OSAzNTc2ICYjMTA7USAyNTQxIDM1NjkgMjYyOCAzNTUzICYjMTA7TCAyNjMxIDI5NjMgJiMxMDt6IiBpZD0iRGVqYVZ1U2Fucy03MiIvPiYjeGE7ICAgICAgIDxwYXRoIHRyYW5zZm9ybT0ic2NhbGUoMC4wMTU2MjUpIiBkPSJNIDM1OTcgMTg5NCAmIzEwO0wgMzU5NyAxNjEzICYjMTA7TCA5NTMgMTYxMyAmIzEwO1EgOTkxIDEwMTkgMTMxMSA3MDggJiMxMDtRIDE2MzEgMzk3IDIyMDMgMzk3ICYjMTA7USAyNTM0IDM5NyAyODQ1IDQ3OCAmIzEwO1EgMzE1NiA1NTkgMzQ2MyA3MjIgJiMxMDtMIDM0NjMgMTc4ICYjMTA7USAzMTUzIDQ3IDI4MjggLTIyICYjMTA7USAyNTAzIC05MSAyMTY5IC05MSAmIzEwO1EgMTMzMSAtOTEgODQyIDM5NiAmIzEwO1EgMzUzIDg4NCAzNTMgMTcxNiAmIzEwO1EgMzUzIDI1NzUgODE3IDMwNzkgJiMxMDtRIDEyODEgMzU4NCAyMDY5IDM1ODQgJiMxMDtRIDI3NzUgMzU4NCAzMTg2IDMxMjkgJiMxMDtRIDM1OTcgMjY3NSAzNTk3IDE4OTQgJiMxMDt6JiMxMDtNIDMwMjIgMjA2MyAmIzEwO1EgMzAxNiAyNTM0IDI3NTggMjgxNSAmIzEwO1EgMjUwMCAzMDk3IDIwNzUgMzA5NyAmIzEwO1EgMTU5NCAzMDk3IDEzMDUgMjgyNSAmIzEwO1EgMTAxNiAyNTUzIDk3MiAyMDU5ICYjMTA7TCAzMDIyIDIwNjMgJiMxMDt6IiBpZD0iRGVqYVZ1U2Fucy02NSIvPiYjeGE7ICAgICAgIDxwYXRoIHRyYW5zZm9ybT0ic2NhbGUoMC4wMTU2MjUpIiBkPSJNIDYwMyAzNTAwICYjMTA7TCAxMTc4IDM1MDAgJiMxMDtMIDExNzggMCAmIzEwO0wgNjAzIDAgJiMxMDtMIDYwMyAzNTAwICYjMTA7eiYjMTA7TSA2MDMgNDg2MyAmIzEwO0wgMTE3OCA0ODYzICYjMTA7TCAxMTc4IDQxMzQgJiMxMDtMIDYwMyA0MTM0ICYjMTA7TCA2MDMgNDg2MyAmIzEwO3oiIGlkPSJEZWphVnVTYW5zLTY5Ii8+JiN4YTsgICAgICAgPHBhdGggdHJhbnNmb3JtPSJzY2FsZSgwLjAxNTYyNSkiIGQ9Ik0gMzUxMyAyMTEzICYjMTA7TCAzNTEzIDAgJiMxMDtMIDI5MzggMCAmIzEwO0wgMjkzOCAyMDk0ICYjMTA7USAyOTM4IDI1OTEgMjc0NCAyODM3ICYjMTA7USAyNTUwIDMwODQgMjE2MyAzMDg0ICYjMTA7USAxNjk3IDMwODQgMTQyOCAyNzg3ICYjMTA7USAxMTU5IDI0OTEgMTE1OSAxOTc4ICYjMTA7TCAxMTU5IDAgJiMxMDtMIDU4MSAwICYjMTA7TCA1ODEgMzUwMCAmIzEwO0wgMTE1OSAzNTAwICYjMTA7TCAxMTU5IDI5NTYgJiMxMDtRIDEzNjYgMzI3MiAxNjQ1IDM0MjggJiMxMDtRIDE5MjUgMzU4NCAyMjkxIDM1ODQgJiMxMDtRIDI4OTQgMzU4NCAzMjAzIDMyMTEgJiMxMDtRIDM1MTMgMjgzOCAzNTEzIDIxMTMgJiMxMDt6IiBpZD0iRGVqYVZ1U2Fucy02ZSIvPiYjeGE7ICAgICAgIDxwYXRoIHRyYW5zZm9ybT0ic2NhbGUoMC4wMTU2MjUpIiBkPSJNIDMzMjggMjgyOCAmIzEwO1EgMzU0NCAzMjE2IDM4NDQgMzQwMCAmIzEwO1EgNDE0NCAzNTg0IDQ1NTAgMzU4NCAmIzEwO1EgNTA5NyAzNTg0IDUzOTQgMzIwMSAmIzEwO1EgNTY5MSAyODE5IDU2OTEgMjExMyAmIzEwO0wgNTY5MSAwICYjMTA7TCA1MTEzIDAgJiMxMDtMIDUxMTMgMjA5NCAmIzEwO1EgNTExMyAyNTk3IDQ5MzQgMjg0MCAmIzEwO1EgNDc1NiAzMDg0IDQzOTEgMzA4NCAmIzEwO1EgMzk0NCAzMDg0IDM2ODQgMjc4NyAmIzEwO1EgMzQyNSAyNDkxIDM0MjUgMTk3OCAmIzEwO0wgMzQyNSAwICYjMTA7TCAyODQ3IDAgJiMxMDtMIDI4NDcgMjA5NCAmIzEwO1EgMjg0NyAyNjAwIDI2NjkgMjg0MiAmIzEwO1EgMjQ5MSAzMDg0IDIxMTkgMzA4NCAmIzEwO1EgMTY3OCAzMDg0IDE0MTggMjc4NiAmIzEwO1EgMTE1OSAyNDg4IDExNTkgMTk3OCAmIzEwO0wgMTE1OSAwICYjMTA7TCA1ODEgMCAmIzEwO0wgNTgxIDM1MDAgJiMxMDtMIDExNTkgMzUwMCAmIzEwO0wgMTE1OSAyOTU2ICYjMTA7USAxMzU2IDMyNzggMTYzMSAzNDMxICYjMTA7USAxOTA2IDM1ODQgMjI4NCAzNTg0ICYjMTA7USAyNjY2IDM1ODQgMjkzMyAzMzkwICYjMTA7USAzMjAwIDMxOTcgMzMyOCAyODI4ICYjMTA7eiIgaWQ9IkRlamFWdVNhbnMtNmQiLz4mI3hhOyAgICAgICA8cGF0aCB0cmFuc2Zvcm09InNjYWxlKDAuMDE1NjI1KSIgZD0iTSAxMTcyIDQ0OTQgJiMxMDtMIDExNzIgMzUwMCAmIzEwO0wgMjM1NiAzNTAwICYjMTA7TCAyMzU2IDMwNTMgJiMxMDtMIDExNzIgMzA1MyAmIzEwO0wgMTE3MiAxMTUzICYjMTA7USAxMTcyIDcyNSAxMjg5IDYwMyAmIzEwO1EgMTQwNiA0ODEgMTc2NiA0ODEgJiMxMDtMIDIzNTYgNDgxICYjMTA7TCAyMzU2IDAgJiMxMDtMIDE3NjYgMCAmIzEwO1EgMTEwMCAwIDg0NyAyNDggJiMxMDtRIDU5NCA0OTcgNTk0IDExNTMgJiMxMDtMIDU5NCAzMDUzICYjMTA7TCAxNzIgMzA1MyAmIzEwO0wgMTcyIDM1MDAgJiMxMDtMIDU5NCAzNTAwICYjMTA7TCA1OTQgNDQ5NCAmIzEwO0wgMTE3MiA0NDk0ICYjMTA7eiIgaWQ9IkRlamFWdVNhbnMtNzQiLz4mI3hhOyAgICAgIDwvZGVmcz4mI3hhOyAgICAgIDx1c2UgeGxpbms6aHJlZj0iI0RlamFWdVNhbnMtNTQiLz4mI3hhOyAgICAgIDx1c2UgeD0iNDYuMzMzOTg0IiB4bGluazpocmVmPSIjRGVqYVZ1U2Fucy03MiIvPiYjeGE7ICAgICAgPHVzZSB4PSI4NS4xOTcyNjYiIHhsaW5rOmhyZWY9IiNEZWphVnVTYW5zLTY1Ii8+JiN4YTsgICAgICA8dXNlIHg9IjE0Ni43MjA3MDMiIHhsaW5rOmhyZWY9IiNEZWphVnVTYW5zLTY5Ii8+JiN4YTsgICAgICA8dXNlIHg9IjE3NC41MDM5MDYiIHhsaW5rOmhyZWY9IiNEZWphVnVTYW5zLTZlIi8+JiN4YTsgICAgICA8dXNlIHg9IjIzNy44ODI4MTIiIHhsaW5rOmhyZWY9IiNEZWphVnVTYW5zLTYxIi8+JiN4YTsgICAgICA8dXNlIHg9IjI5OS4xNjIxMDkiIHhsaW5rOmhyZWY9IiNEZWphVnVTYW5zLTZkIi8+JiN4YTsgICAgICA8dXNlIHg9IjM5Ni41NzQyMTkiIHhsaW5rOmhyZWY9IiNEZWphVnVTYW5zLTY1Ii8+JiN4YTsgICAgICA8dXNlIHg9IjQ1OC4wOTc2NTYiIHhsaW5rOmhyZWY9IiNEZWphVnVTYW5zLTZlIi8+JiN4YTsgICAgICA8dXNlIHg9IjUyMS40NzY1NjIiIHhsaW5rOmhyZWY9IiNEZWphVnVTYW5zLTc0Ii8+JiN4YTsgICAgICA8dXNlIHg9IjU2MC42ODU1NDciIHhsaW5rOmhyZWY9IiNEZWphVnVTYW5zLTZmIi8+JiN4YTsgICAgIDwvZz4mI3hhOyAgICA8L2c+JiN4YTsgICAgPGcgaWQ9ImxpbmUyZF8yNDgiPiYjeGE7ICAgICA8cGF0aCBzdHlsZT0iZmlsbDogbm9uZTsgc3Ryb2tlOiAjNjQ5NWVkOyBzdHJva2Utd2lkdGg6IDEuNTsgc3Ryb2tlLWxpbmVjYXA6IHNxdWFyZSIgZD0iTSA2NjUuNDgxNTYyIDI1LjQ4ODYgJiMxMDtMIDY3NC40ODE1NjIgMjUuNDg4NiAmIzEwO0wgNjgzLjQ4MTU2MiAyNS40ODg2Ii8+JiN4YTsgICAgPC9nPiYjeGE7ICAgIDxnIGlkPSJ0ZXh0XzI0Ij4mI3hhOyAgICAgJiN4YTsgICAgIDxnIHRyYW5zZm9ybT0idHJhbnNsYXRlKDY5MC42ODE1NjMgMjguNjM4Nikgc2NhbGUoMC4wOSAtMC4wOSkiPiYjeGE7ICAgICAgPGRlZnM+JiN4YTsgICAgICAgPHBhdGggdHJhbnNmb3JtPSJzY2FsZSgwLjAxNTYyNSkiIGQ9Ik0gMTgzMSAwICYjMTA7TCA1MCA0NjY2ICYjMTA7TCA3MDkgNDY2NiAmIzEwO0wgMjE4OCA3MzggJiMxMDtMIDM2NjkgNDY2NiAmIzEwO0wgNDMyNSA0NjY2ICYjMTA7TCAyNTQ3IDAgJiMxMDtMIDE4MzEgMCAmIzEwO3oiIGlkPSJEZWphVnVTYW5zLTU2Ii8+JiN4YTsgICAgICAgPHBhdGggdHJhbnNmb3JtPSJzY2FsZSgwLjAxNTYyNSkiIGQ9Ik0gNjAzIDQ4NjMgJiMxMDtMIDExNzggNDg2MyAmIzEwO0wgMTE3OCAwICYjMTA7TCA2MDMgMCAmIzEwO0wgNjAzIDQ4NjMgJiMxMDt6IiBpZD0iRGVqYVZ1U2Fucy02YyIvPiYjeGE7ICAgICAgIDxwYXRoIHRyYW5zZm9ybT0ic2NhbGUoMC4wMTU2MjUpIiBkPSJNIDI5MDYgMjk2OSAmIzEwO0wgMjkwNiA0ODYzICYjMTA7TCAzNDgxIDQ4NjMgJiMxMDtMIDM0ODEgMCAmIzEwO0wgMjkwNiAwICYjMTA7TCAyOTA2IDUyNSAmIzEwO1EgMjcyNSAyMTMgMjQ0OCA2MSAmIzEwO1EgMjE3MiAtOTEgMTc4NCAtOTEgJiMxMDtRIDExNTAgLTkxIDc1MSA0MTUgJiMxMDtRIDM1MyA5MjIgMzUzIDE3NDcgJiMxMDtRIDM1MyAyNTcyIDc1MSAzMDc4ICYjMTA7USAxMTUwIDM1ODQgMTc4NCAzNTg0ICYjMTA7USAyMTcyIDM1ODQgMjQ0OCAzNDMyICYjMTA7USAyNzI1IDMyODEgMjkwNiAyOTY5ICYjMTA7eiYjMTA7TSA5NDcgMTc0NyAmIzEwO1EgOTQ3IDExMTMgMTIwOCA3NTIgJiMxMDtRIDE0NjkgMzkxIDE5MjUgMzkxICYjMTA7USAyMzgxIDM5MSAyNjQzIDc1MiAmIzEwO1EgMjkwNiAxMTEzIDI5MDYgMTc0NyAmIzEwO1EgMjkwNiAyMzgxIDI2NDMgMjc0MiAmIzEwO1EgMjM4MSAzMTAzIDE5MjUgMzEwMyAmIzEwO1EgMTQ2OSAzMTAzIDEyMDggMjc0MiAmIzEwO1EgOTQ3IDIzODEgOTQ3IDE3NDcgJiMxMDt6IiBpZD0iRGVqYVZ1U2Fucy02NCIvPiYjeGE7ICAgICAgIDxwYXRoIHRyYW5zZm9ybT0ic2NhbGUoMC4wMTU2MjUpIiBkPSJNIDMxMjIgMzM2NiAmIzEwO0wgMzEyMiAyODI4ICYjMTA7USAyODc4IDI5NjMgMjYzMyAzMDMwICYjMTA7USAyMzg4IDMwOTcgMjEzOCAzMDk3ICYjMTA7USAxNTc4IDMwOTcgMTI2OCAyNzQyICYjMTA7USA5NTkgMjM4OCA5NTkgMTc0NyAmIzEwO1EgOTU5IDExMDYgMTI2OCA3NTEgJiMxMDtRIDE1NzggMzk3IDIxMzggMzk3ICYjMTA7USAyMzg4IDM5NyAyNjMzIDQ2NCAmIzEwO1EgMjg3OCA1MzEgMzEyMiA2NjYgJiMxMDtMIDMxMjIgMTM0ICYjMTA7USAyODgxIDIyIDI2MjMgLTM0ICYjMTA7USAyMzY2IC05MSAyMDc1IC05MSAmIzEwO1EgMTI4NCAtOTEgODE4IDQwNiAmIzEwO1EgMzUzIDkwMyAzNTMgMTc0NyAmIzEwO1EgMzUzIDI2MDMgODIzIDMwOTMgJiMxMDtRIDEyOTQgMzU4NCAyMTEzIDM1ODQgJiMxMDtRIDIzNzggMzU4NCAyNjMxIDM1MjkgJiMxMDtRIDI4ODQgMzQ3NSAzMTIyIDMzNjYgJiMxMDt6JiMxMDtNIDIzMTEgMCAmIzEwO1EgMjQ4MiAtMTk0IDI1NjYgLTM1OCAmIzEwO1EgMjY1MSAtNTIyIDI2NTEgLTY3MiAmIzEwO1EgMjY1MSAtOTUwIDI0NjMgLTEwOTIgJiMxMDtRIDIyNzYgLTEyMzQgMTkwNyAtMTIzNCAmIzEwO1EgMTc2NCAtMTIzNCAxNjI4IC0xMjE1ICYjMTA7USAxNDkyIC0xMTk3IDEzNTcgLTExNTkgJiMxMDtMIDEzNTcgLTc1MCAmIzEwO1EgMTQ2NCAtODAzIDE1NzkgLTgyNiAmIzEwO1EgMTY5NSAtODUwIDE4NDIgLTg1MCAmIzEwO1EgMjAyNiAtODUwIDIxMjAgLTc3NSAmIzEwO1EgMjIxNCAtNzAwIDIyMTQgLTU1NiAmIzEwO1EgMjIxNCAtNDYzIDIxNDYgLTMyNyAmIzEwO1EgMjA3OSAtMTkxIDE5MzkgMCAmIzEwO0wgMjMxMSAwICYjMTA7eiIgaWQ9IkRlamFWdVNhbnMtZTciLz4mI3hhOyAgICAgICA8cGF0aCB0cmFuc2Zvcm09InNjYWxlKDAuMDE1NjI1KSIgZD0iTSAyMTk0IDE3NTkgJiMxMDtRIDE0OTcgMTc1OSAxMjI4IDE2MDAgJiMxMDtRIDk1OSAxNDQxIDk1OSAxMDU2ICYjMTA7USA5NTkgNzUwIDExNjEgNTcwICYjMTA7USAxMzYzIDM5MSAxNzA5IDM5MSAmIzEwO1EgMjE4OCAzOTEgMjQ3NyA3MzAgJiMxMDtRIDI3NjYgMTA2OSAyNzY2IDE2MzEgJiMxMDtMIDI3NjYgMTc1OSAmIzEwO0wgMjE5NCAxNzU5ICYjMTA7eiYjMTA7TSAzMzQxIDE5OTcgJiMxMDtMIDMzNDEgMCAmIzEwO0wgMjc2NiAwICYjMTA7TCAyNzY2IDUzMSAmIzEwO1EgMjU2OSAyMTMgMjI3NSA2MSAmIzEwO1EgMTk4MSAtOTEgMTU1NiAtOTEgJiMxMDtRIDEwMTkgLTkxIDcwMSAyMTEgJiMxMDtRIDM4NCA1MTMgMzg0IDEwMTkgJiMxMDtRIDM4NCAxNjA5IDc3OSAxOTA5ICYjMTA7USAxMTc1IDIyMDkgMTk1OSAyMjA5ICYjMTA7TCAyNzY2IDIyMDkgJiMxMDtMIDI3NjYgMjI2NiAmIzEwO1EgMjc2NiAyNjYzIDI1MDUgMjg4MCAmIzEwO1EgMjI0NCAzMDk3IDE3NzIgMzA5NyAmIzEwO1EgMTQ3MiAzMDk3IDExODcgMzAyNSAmIzEwO1EgOTAzIDI5NTMgNjQxIDI4MDkgJiMxMDtMIDY0MSAzMzQxICYjMTA7USA5NTYgMzQ2MyAxMjUzIDM1MjMgJiMxMDtRIDE1NTAgMzU4NCAxODMxIDM1ODQgJiMxMDtRIDI1OTEgMzU4NCAyOTY2IDMxOTAgJiMxMDtRIDMzNDEgMjc5NyAzMzQxIDE5OTcgJiMxMDt6JiMxMDtNIDE4NDQgNDI4MSAmIzEwO0wgMTY2NSA0NDUzICYjMTA7USAxNTk3IDQ1MTYgMTU0NSA0NTQ1ICYjMTA7USAxNDk0IDQ1NzUgMTQ1MyA0NTc1ICYjMTA7USAxMzM0IDQ1NzUgMTI3OCA0NDYxICYjMTA7USAxMjIyIDQzNDcgMTIxNSA0MDkxICYjMTA7TCA4MjUgNDA5MSAmIzEwO1EgODMxIDQ1MTMgOTkwIDQ3NDIgJiMxMDtRIDExNTAgNDk3MiAxNDM0IDQ5NzIgJiMxMDtRIDE1NTMgNDk3MiAxNjUzIDQ5MjggJiMxMDtRIDE3NTMgNDg4NCAxODY5IDQ3ODEgJiMxMDtMIDIwNDcgNDYwOSAmIzEwO1EgMjExNSA0NTQ3IDIxNjcgNDUxNyAmIzEwO1EgMjIxOSA0NDg4IDIyNTkgNDQ4OCAmIzEwO1EgMjM3OCA0NDg4IDI0MzQgNDYwMiAmIzEwO1EgMjQ5MCA0NzE2IDI0OTcgNDk3MiAmIzEwO0wgMjg4NyA0OTcyICYjMTA7USAyODgxIDQ1NTAgMjcyMSA0MzIwICYjMTA7USAyNTYyIDQwOTEgMjI3OCA0MDkxICYjMTA7USAyMTU5IDQwOTEgMjA1OSA0MTM0ICYjMTA7USAxOTU5IDQxNzggMTg0NCA0MjgxICYjMTA7eiIgaWQ9IkRlamFWdVNhbnMtZTMiLz4mI3hhOyAgICAgIDwvZGVmcz4mI3hhOyAgICAgIDx1c2UgeGxpbms6aHJlZj0iI0RlamFWdVNhbnMtNTYiLz4mI3hhOyAgICAgIDx1c2UgeD0iNjAuNjU4MjAzIiB4bGluazpocmVmPSIjRGVqYVZ1U2Fucy02MSIvPiYjeGE7ICAgICAgPHVzZSB4PSIxMjEuOTM3NSIgeGxpbms6aHJlZj0iI0RlamFWdVNhbnMtNmMiLz4mI3hhOyAgICAgIDx1c2UgeD0iMTQ5LjcyMDcwMyIgeGxpbms6aHJlZj0iI0RlamFWdVNhbnMtNjkiLz4mI3hhOyAgICAgIDx1c2UgeD0iMTc3LjUwMzkwNiIgeGxpbms6aHJlZj0iI0RlamFWdVNhbnMtNjQiLz4mI3hhOyAgICAgIDx1c2UgeD0iMjQwLjk4MDQ2OSIgeGxpbms6aHJlZj0iI0RlamFWdVNhbnMtNjEiLz4mI3hhOyAgICAgIDx1c2UgeD0iMzAyLjI1OTc2NiIgeGxpbms6aHJlZj0iI0RlamFWdVNhbnMtZTciLz4mI3hhOyAgICAgIDx1c2UgeD0iMzU3LjI0MDIzNCIgeGxpbms6aHJlZj0iI0RlamFWdVNhbnMtZTMiLz4mI3hhOyAgICAgIDx1c2UgeD0iNDE4LjUxOTUzMSIgeGxpbms6aHJlZj0iI0RlamFWdVNhbnMtNmYiLz4mI3hhOyAgICAgPC9nPiYjeGE7ICAgIDwvZz4mI3hhOyAgICA8ZyBpZD0ibGluZTJkXzI0OSIvPiYjeGE7ICAgIDxnIGlkPSJ0ZXh0XzI1Ij4mI3hhOyAgICAgJiN4YTsgICAgIDxnIHRyYW5zZm9ybT0idHJhbnNsYXRlKDY5MC42ODE1NjMgNDEuODY1Nzg4KSBzY2FsZSgwLjA5IC0wLjA5KSI+JiN4YTsgICAgICA8ZGVmcz4mI3hhOyAgICAgICA8cGF0aCB0cmFuc2Zvcm09InNjYWxlKDAuMDE1NjI1KSIgZD0iTSA2MjggNDY2NiAmIzEwO0wgMTU2OSA0NjY2ICYjMTA7TCAyNzU5IDE0OTEgJiMxMDtMIDM5NTYgNDY2NiAmIzEwO0wgNDg5NyA0NjY2ICYjMTA7TCA0ODk3IDAgJiMxMDtMIDQyODEgMCAmIzEwO0wgNDI4MSA0MDk3ICYjMTA7TCAzMDc4IDg5NyAmIzEwO0wgMjQ0NCA4OTcgJiMxMDtMIDEyNDEgNDA5NyAmIzEwO0wgMTI0MSAwICYjMTA7TCA2MjggMCAmIzEwO0wgNjI4IDQ2NjYgJiMxMDt6IiBpZD0iRGVqYVZ1U2Fucy00ZCIvPiYjeGE7ICAgICAgIDxwYXRoIHRyYW5zZm9ybT0ic2NhbGUoMC4wMTU2MjUpIiBkPSJNIDM1MyAzNTAwICYjMTA7TCAzMDg0IDM1MDAgJiMxMDtMIDMwODQgMjk3NSAmIzEwO0wgOTIyIDQ1OSAmIzEwO0wgMzA4NCA0NTkgJiMxMDtMIDMwODQgMCAmIzEwO0wgMjc1IDAgJiMxMDtMIDI3NSA1MjUgJiMxMDtMIDI0MzggMzA0MSAmIzEwO0wgMzUzIDMwNDEgJiMxMDtMIDM1MyAzNTAwICYjMTA7eiIgaWQ9IkRlamFWdVNhbnMtN2EiLz4mI3hhOyAgICAgIDwvZGVmcz4mI3hhOyAgICAgIDx1c2UgeGxpbms6aHJlZj0iI0RlamFWdVNhbnMtNGQiLz4mI3hhOyAgICAgIDx1c2UgeD0iODYuMjc5Mjk3IiB4bGluazpocmVmPSIjRGVqYVZ1U2Fucy02NSIvPiYjeGE7ICAgICAgPHVzZSB4PSIxNDcuODAyNzM0IiB4bGluazpocmVmPSIjRGVqYVZ1U2Fucy02ZCIvPiYjeGE7ICAgICAgPHVzZSB4PSIyNDUuMjE0ODQ0IiB4bGluazpocmVmPSIjRGVqYVZ1U2Fucy02ZiIvPiYjeGE7ICAgICAgPHVzZSB4PSIzMDYuMzk2NDg0IiB4bGluazpocmVmPSIjRGVqYVZ1U2Fucy03MiIvPiYjeGE7ICAgICAgPHVzZSB4PSIzNDcuNTA5NzY2IiB4bGluazpocmVmPSIjRGVqYVZ1U2Fucy02OSIvPiYjeGE7ICAgICAgPHVzZSB4PSIzNzUuMjkyOTY5IiB4bGluazpocmVmPSIjRGVqYVZ1U2Fucy03YSIvPiYjeGE7ICAgICAgPHVzZSB4PSI0MjcuNzgzMjAzIiB4bGluazpocmVmPSIjRGVqYVZ1U2Fucy02MSIvPiYjeGE7ICAgICAgPHVzZSB4PSI0ODkuMDYyNSIgeGxpbms6aHJlZj0iI0RlamFWdVNhbnMtZTciLz4mI3hhOyAgICAgIDx1c2UgeD0iNTQ0LjA0Mjk2OSIgeGxpbms6aHJlZj0iI0RlamFWdVNhbnMtZTMiLz4mI3hhOyAgICAgIDx1c2UgeD0iNjA1LjMyMjI2NiIgeGxpbms6aHJlZj0iI0RlamFWdVNhbnMtNmYiLz4mI3hhOyAgICAgPC9nPiYjeGE7ICAgIDwvZz4mI3hhOyAgICA8ZyBpZD0ibGluZTJkXzI1MCIvPiYjeGE7ICAgIDxnIGlkPSJ0ZXh0XzI2Ij4mI3hhOyAgICAgJiN4YTsgICAgIDxnIHRyYW5zZm9ybT0idHJhbnNsYXRlKDY5MC42ODE1NjMgNTUuMDkyOTc1KSBzY2FsZSgwLjA5IC0wLjA5KSI+JiN4YTsgICAgICA8ZGVmcz4mI3hhOyAgICAgICA8cGF0aCB0cmFuc2Zvcm09InNjYWxlKDAuMDE1NjI1KSIgZD0iTSAzODA5IDY2NiAmIzEwO0wgMzgwOSAxOTE5ICYjMTA7TCAyNzc4IDE5MTkgJiMxMDtMIDI3NzggMjQzOCAmIzEwO0wgNDQzNCAyNDM4ICYjMTA7TCA0NDM0IDQzNCAmIzEwO1EgNDA2OSAxNzUgMzYyOCA0MiAmIzEwO1EgMzE4OCAtOTEgMjY4OCAtOTEgJiMxMDtRIDE1OTQgLTkxIDk3NiA1NDggJiMxMDtRIDM1OSAxMTg4IDM1OSAyMzI4ICYjMTA7USAzNTkgMzQ3MiA5NzYgNDExMSAmIzEwO1EgMTU5NCA0NzUwIDI2ODggNDc1MCAmIzEwO1EgMzE0NCA0NzUwIDM1NTUgNDYzNyAmIzEwO1EgMzk2NiA0NTI1IDQzMTMgNDMwNiAmIzEwO0wgNDMxMyAzNjM0ICYjMTA7USAzOTYzIDM5MzEgMzU2OSA0MDgxICYjMTA7USAzMTc1IDQyMzEgMjc0MSA0MjMxICYjMTA7USAxODg0IDQyMzEgMTQ1NCAzNzUzICYjMTA7USAxMDI1IDMyNzUgMTAyNSAyMzI4ICYjMTA7USAxMDI1IDEzODQgMTQ1NCA5MDYgJiMxMDtRIDE4ODQgNDI4IDI3NDEgNDI4ICYjMTA7USAzMDc1IDQyOCAzMzM3IDQ4NiAmIzEwO1EgMzYwMCA1NDQgMzgwOSA2NjYgJiMxMDt6IiBpZD0iRGVqYVZ1U2Fucy00NyIvPiYjeGE7ICAgICAgPC9kZWZzPiYjeGE7ICAgICAgPHVzZSB4bGluazpocmVmPSIjRGVqYVZ1U2Fucy00NyIvPiYjeGE7ICAgICAgPHVzZSB4PSI3Ny40OTAyMzQiIHhsaW5rOmhyZWY9IiNEZWphVnVTYW5zLTY1Ii8+JiN4YTsgICAgICA8dXNlIHg9IjEzOS4wMTM2NzIiIHhsaW5rOmhyZWY9IiNEZWphVnVTYW5zLTZlIi8+JiN4YTsgICAgICA8dXNlIHg9IjIwMi4zOTI1NzgiIHhsaW5rOmhyZWY9IiNEZWphVnVTYW5zLTY1Ii8+JiN4YTsgICAgICA8dXNlIHg9IjI2My45MTYwMTYiIHhsaW5rOmhyZWY9IiNEZWphVnVTYW5zLTcyIi8+JiN4YTsgICAgICA8dXNlIHg9IjMwNS4wMjkyOTciIHhsaW5rOmhyZWY9IiNEZWphVnVTYW5zLTYxIi8+JiN4YTsgICAgICA8dXNlIHg9IjM2Ni4zMDg1OTQiIHhsaW5rOmhyZWY9IiNEZWphVnVTYW5zLTZjIi8+JiN4YTsgICAgICA8dXNlIHg9IjM5NC4wOTE3OTciIHhsaW5rOmhyZWY9IiNEZWphVnVTYW5zLTY5Ii8+JiN4YTsgICAgICA8dXNlIHg9IjQyMS44NzUiIHhsaW5rOmhyZWY9IiNEZWphVnVTYW5zLTdhIi8+JiN4YTsgICAgICA8dXNlIHg9IjQ3NC4zNjUyMzQiIHhsaW5rOmhyZWY9IiNEZWphVnVTYW5zLTYxIi8+JiN4YTsgICAgICA8dXNlIHg9IjUzNS42NDQ1MzEiIHhsaW5rOmhyZWY9IiNEZWphVnVTYW5zLWU3Ii8+JiN4YTsgICAgICA8dXNlIHg9IjU5MC42MjUiIHhsaW5rOmhyZWY9IiNEZWphVnVTYW5zLWUzIi8+JiN4YTsgICAgICA8dXNlIHg9IjY1MS45MDQyOTciIHhsaW5rOmhyZWY9IiNEZWphVnVTYW5zLTZmIi8+JiN4YTsgICAgIDwvZz4mI3hhOyAgICA8L2c+JiN4YTsgICA8L2c+JiN4YTsgIDwvZz4mI3hhOyA8L2c+JiN4YTsgPGRlZnM+JiN4YTsgIDxjbGlwUGF0aCBpZD0icDMxMjRmMDljOTAiPiYjeGE7ICAgPHJlY3QgaGVpZ2h0PSIxNjYuMzIiIHdpZHRoPSIyNzkiIHk9IjMuNzk5MjE5IiB4PSI0My41ODE1NjMiLz4mI3hhOyAgPC9jbGlwUGF0aD4mI3hhOyAgPGNsaXBQYXRoIGlkPSJwMjlhOGU4NzM3MyI+JiN4YTsgICA8cmVjdCBoZWlnaHQ9IjE2Ni4zMiIgd2lkdGg9IjI3OSIgeT0iMy43OTkyMTkiIHg9IjM3OC4zODE1NjIiLz4mI3hhOyAgPC9jbGlwUGF0aD4mI3hhOyA8L2RlZnM+JiN4YTs8L3N2Zz4=;" vertex="1" parent="1">
          <mxGeometry x="180" y="151" width="758" height="202" as="geometry" />
        </mxCell>
        <mxCell id="SiOapcFHDwNQLuZot6bi-3" value="" style="shape=waypoint;sketch=0;fillStyle=solid;size=6;pointerEvents=1;points=[];fillColor=none;resizable=0;rotatable=0;perimeter=centerPerimeter;snapToPoint=1;strokeColor=none;" parent="1" vertex="1">
          <mxGeometry x="240" y="177" width="20" height="20" as="geometry" />
        </mxCell>
        <mxCell id="SiOapcFHDwNQLuZot6bi-4" value="" style="shape=waypoint;sketch=0;fillStyle=solid;size=6;pointerEvents=1;points=[];fillColor=none;resizable=0;rotatable=0;perimeter=centerPerimeter;snapToPoint=1;strokeColor=none;" parent="1" vertex="1">
          <mxGeometry x="295" y="154" width="20" height="20" as="geometry" />
        </mxCell>
        <mxCell id="SiOapcFHDwNQLuZot6bi-6" value="" style="curved=1;endArrow=classicThin;html=1;rounded=0;endFill=1;strokeColor=#FF0000;" parent="1" edge="1">
          <mxGeometry width="50" height="50" relative="1" as="geometry">
            <mxPoint x="250" y="185" as="sourcePoint" />
            <mxPoint x="305" y="162" as="targetPoint" />
            <Array as="points">
              <mxPoint x="270" y="188" />
              <mxPoint x="290" y="168" />
            </Array>
          </mxGeometry>
        </mxCell>
        <mxCell id="SiOapcFHDwNQLuZot6bi-8" value="" style="shape=waypoint;sketch=0;fillStyle=solid;size=6;pointerEvents=1;points=[];fillColor=none;resizable=0;rotatable=0;perimeter=centerPerimeter;snapToPoint=1;strokeColor=none;" parent="1" vertex="1">
          <mxGeometry x="366" y="152" width="20" height="20" as="geometry" />
        </mxCell>
        <mxCell id="SiOapcFHDwNQLuZot6bi-9" value="" style="shape=waypoint;sketch=0;fillStyle=solid;size=6;pointerEvents=1;points=[];fillColor=none;resizable=0;rotatable=0;perimeter=centerPerimeter;snapToPoint=1;strokeColor=none;" parent="1" vertex="1">
          <mxGeometry x="382" y="193" width="20" height="20" as="geometry" />
        </mxCell>
        <mxCell id="SiOapcFHDwNQLuZot6bi-10" value="" style="curved=1;endArrow=classicThin;html=1;rounded=0;endFill=1;strokeColor=#67AB9F;" parent="1" source="SiOapcFHDwNQLuZot6bi-8" edge="1">
          <mxGeometry width="50" height="50" relative="1" as="geometry">
            <mxPoint x="380" y="158" as="sourcePoint" />
            <mxPoint x="394" y="199" as="targetPoint" />
            <Array as="points">
              <mxPoint x="394" y="176" />
            </Array>
          </mxGeometry>
        </mxCell>
        <mxCell id="SiOapcFHDwNQLuZot6bi-11" value="" style="endArrow=classicThin;html=1;rounded=0;endFill=1;strokeColor=#FF0000;" parent="1" edge="1">
          <mxGeometry width="50" height="50" relative="1" as="geometry">
            <mxPoint x="845" y="187.93" as="sourcePoint" />
            <mxPoint x="865" y="187.93" as="targetPoint" />
          </mxGeometry>
        </mxCell>
        <mxCell id="SiOapcFHDwNQLuZot6bi-12" value="" style="endArrow=classicThin;html=1;rounded=0;endFill=1;strokeColor=#67AB9F;" parent="1" edge="1">
          <mxGeometry width="50" height="50" relative="1" as="geometry">
            <mxPoint x="845" y="201.93" as="sourcePoint" />
            <mxPoint x="865" y="201.93" as="targetPoint" />
          </mxGeometry>
        </mxCell>
        <mxCell id="SiOapcFHDwNQLuZot6bi-13" value="" style="shape=waypoint;sketch=0;fillStyle=solid;size=6;pointerEvents=1;points=[];fillColor=none;resizable=0;rotatable=0;perimeter=centerPerimeter;snapToPoint=1;strokeColor=none;" parent="1" vertex="1">
          <mxGeometry x="575" y="256" width="20" height="20" as="geometry" />
        </mxCell>
        <mxCell id="SiOapcFHDwNQLuZot6bi-14" value="" style="shape=waypoint;sketch=0;fillStyle=solid;size=6;pointerEvents=1;points=[];fillColor=none;resizable=0;rotatable=0;perimeter=centerPerimeter;snapToPoint=1;strokeColor=none;" parent="1" vertex="1">
          <mxGeometry x="627" y="294" width="20" height="20" as="geometry" />
        </mxCell>
        <mxCell id="SiOapcFHDwNQLuZot6bi-18" value="" style="curved=1;endArrow=classicThin;html=1;rounded=0;exitX=0.405;exitY=0.419;exitDx=0;exitDy=0;exitPerimeter=0;strokeColor=#FF0000;endFill=1;" parent="1" source="SiOapcFHDwNQLuZot6bi-13" target="SiOapcFHDwNQLuZot6bi-14" edge="1">
          <mxGeometry width="50" height="50" relative="1" as="geometry">
            <mxPoint x="610" y="300" as="sourcePoint" />
            <mxPoint x="660" y="250" as="targetPoint" />
            <Array as="points">
              <mxPoint x="600" y="270" />
              <mxPoint x="610" y="290" />
              <mxPoint x="620" y="300" />
            </Array>
          </mxGeometry>
        </mxCell>
        <mxCell id="SiOapcFHDwNQLuZot6bi-19" value="" style="curved=1;endArrow=classicThin;html=1;rounded=0;endFill=1;strokeColor=#67AB9F;" parent="1" source="SiOapcFHDwNQLuZot6bi-21" target="SiOapcFHDwNQLuZot6bi-20" edge="1">
          <mxGeometry width="50" height="50" relative="1" as="geometry">
            <mxPoint x="730" y="257" as="sourcePoint" />
            <mxPoint x="748" y="294" as="targetPoint" />
            <Array as="points">
              <mxPoint x="710" y="304" />
              <mxPoint x="720" y="290" />
            </Array>
          </mxGeometry>
        </mxCell>
        <mxCell id="SiOapcFHDwNQLuZot6bi-20" value="" style="shape=waypoint;sketch=0;fillStyle=solid;size=6;pointerEvents=1;points=[];fillColor=none;resizable=0;rotatable=0;perimeter=centerPerimeter;snapToPoint=1;strokeColor=none;" parent="1" vertex="1">
          <mxGeometry x="713" y="256" width="20" height="20" as="geometry" />
        </mxCell>
        <mxCell id="SiOapcFHDwNQLuZot6bi-21" value="" style="shape=waypoint;sketch=0;fillStyle=solid;size=6;pointerEvents=1;points=[];fillColor=none;resizable=0;rotatable=0;perimeter=centerPerimeter;snapToPoint=1;strokeColor=none;" parent="1" vertex="1">
          <mxGeometry x="690" y="294" width="20" height="20" as="geometry" />
        </mxCell>
      </root>
    </mxGraphModel>
  </diagram>
</mxfile>
